<?xml version="1.0" encoding="UTF-8"?>
<!DOCTYPE svg PUBLIC "-//W3C//DTD SVG 1.1//EN" "http://www.w3.org/Graphics/SVG/1.1/DTD/svg11.dtd">
<!-- Creator: CorelDRAW 2020 (64-Bit) -->
<svg xmlns="http://www.w3.org/2000/svg" xml:space="preserve" width="243px" height="50px" version="1.1" style="shape-rendering:geometricPrecision; text-rendering:geometricPrecision; image-rendering:optimizeQuality; fill-rule:evenodd; clip-rule:evenodd"
viewBox="0 0 142.95 29.39"
 xmlns:xlink="http://www.w3.org/1999/xlink"
 xmlns:xodm="http://www.corel.com/coreldraw/odm/2003">
 <defs>
  <style type="text/css">
   <![CDATA[
    .fil0 {fill:#314199;fill-rule:nonzero}
    .fil2 {fill:#F8EC26;fill-rule:nonzero}
    .fil1 {fill:white;fill-rule:nonzero}
   ]]>
  </style>
 </defs>
 <g id="Warstwa_x0020_1">
  <metadata id="CorelCorpID_0Corel-Layer"/>
  <path class="fil0" d="M142.95 29.39l-128.25 0c-8.12,0 -14.7,-6.58 -14.7,-14.69 0,-8.12 6.58,-14.7 14.7,-14.7l128.25 0 0 29.39z"/>
  <path class="fil1" d="M35.82 13.3l1.78 0c1.44,0 2.43,-1 2.43,-2.29l0 -0.01c0,-1.28 -0.99,-2.27 -2.43,-2.27l-1.78 0 0 4.57zm1 -0.91l0 -2.75 0.78 0c0.82,0 1.38,0.57 1.38,1.37l0 0.02c0,0.81 -0.56,1.36 -1.38,1.36l-0.78 0z"/>
  <polygon id="1" class="fil1" points="41.1,13.3 44.58,13.3 44.58,12.4 42.1,12.4 42.1,11.45 44.25,11.45 44.25,10.55 42.1,10.55 42.1,9.62 44.54,9.62 44.54,8.73 41.1,8.73 "/>
  <path id="2" class="fil1" d="M47.27 13.36c0.99,0 1.68,-0.51 1.68,-1.41l0 -0.02c0,-0.79 -0.52,-1.12 -1.45,-1.37 -0.79,-0.2 -0.99,-0.3 -0.99,-0.6l0 -0.01c0,-0.22 0.21,-0.4 0.59,-0.4 0.39,0 0.78,0.17 1.19,0.45l0.52 -0.75c-0.46,-0.38 -1.03,-0.58 -1.7,-0.58 -0.93,0 -1.59,0.54 -1.59,1.37l0 0.02c0,0.9 0.59,1.16 1.51,1.39 0.76,0.2 0.92,0.33 0.92,0.58l0 0.02c0,0.26 -0.25,0.43 -0.66,0.43 -0.52,0 -0.95,-0.22 -1.36,-0.56l-0.6 0.71c0.55,0.49 1.25,0.73 1.94,0.73z"/>
  <polygon id="3" class="fil1" points="50.04,13.3 51.05,13.3 51.05,8.73 50.04,8.73 "/>
  <path id="4" class="fil1" d="M54.57 13.38c0.83,0 1.48,-0.33 1.95,-0.73l0 -1.98 -1.99 0 0 0.87 1.01 0 0 0.65c-0.25,0.18 -0.58,0.27 -0.94,0.27 -0.81,0 -1.39,-0.61 -1.39,-1.45l0 -0.01c0,-0.78 0.59,-1.42 1.32,-1.42 0.52,0 0.84,0.17 1.19,0.46l0.63 -0.76c-0.47,-0.41 -0.97,-0.63 -1.79,-0.63 -1.38,0 -2.4,1.07 -2.4,2.36l0 0.02c0,1.35 0.98,2.35 2.41,2.35z"/>
  <polygon id="5" class="fil1" points="57.66,13.3 58.65,13.3 58.65,10.39 60.86,13.3 61.72,13.3 61.72,8.73 60.72,8.73 60.72,11.54 58.58,8.73 57.66,8.73 "/>
  <polygon id="6" class="fil1" points="62.99,13.3 66.47,13.3 66.47,12.4 63.99,12.4 63.99,11.45 66.14,11.45 66.14,10.55 63.99,10.55 63.99,9.62 66.43,9.62 66.43,8.73 62.99,8.73 "/>
  <path id="7" class="fil1" d="M67.54 13.3l1.78 0c1.43,0 2.43,-1 2.43,-2.29l0 -0.01c0,-1.28 -1,-2.27 -2.43,-2.27l-1.78 0 0 4.57zm1 -0.91l0 -2.75 0.78 0c0.82,0 1.37,0.57 1.37,1.37l0 0.02c0,0.81 -0.55,1.36 -1.37,1.36l-0.78 0z"/>
  <path id="8" class="fil1" d="M74.38 13.3l1.03 0 0.41 -1.03 1.93 0 0.42 1.03 1.05 0 -1.96 -4.6 -0.92 0 -1.96 4.6zm1.8 -1.91l0.61 -1.48 0.61 1.48 -1.22 0z"/>
  <polygon id="9" class="fil1" points="80.1,13.3 81.09,13.3 81.09,10.39 83.31,13.3 84.16,13.3 84.16,8.73 83.17,8.73 83.17,11.54 81.03,8.73 80.1,8.73 "/>
  <path id="10" class="fil1" d="M85.43 13.3l1.79 0c1.43,0 2.42,-1 2.42,-2.29l0 -0.01c0,-1.28 -0.99,-2.27 -2.42,-2.27l-1.79 0 0 4.57zm1.01 -0.91l0 -2.75 0.78 0c0.82,0 1.37,0.57 1.37,1.37l0 0.02c0,0.81 -0.55,1.36 -1.37,1.36l-0.78 0z"/>
  <polygon id="11" class="fil1" points="35.82,21.13 36.81,21.13 36.81,18.17 38.08,20.1 38.1,20.1 39.39,18.15 39.39,21.13 40.39,21.13 40.39,16.56 39.3,16.56 38.1,18.49 36.9,16.56 35.82,16.56 "/>
  <path id="12" class="fil1" d="M41.27 21.13l1.02 0 0.42 -1.03 1.93 0 0.42 1.03 1.05 0 -1.96 -4.6 -0.92 0 -1.96 4.6zm1.8 -1.91l0.61 -1.48 0.6 1.48 -1.21 0z"/>
  <polygon id="13" class="fil1" points="46.99,21.13 47.98,21.13 47.98,18.22 50.19,21.13 51.05,21.13 51.05,16.56 50.06,16.56 50.06,19.37 47.92,16.56 46.99,16.56 "/>
  <path id="14" class="fil1" d="M54.23 21.2c1.22,0 2,-0.68 2,-2.06l0 -2.58 -1.01 0 0 2.62c0,0.72 -0.37,1.09 -0.98,1.09 -0.61,0 -0.99,-0.38 -0.99,-1.13l0 -2.58 -1 0 0 2.61c0,1.34 0.75,2.03 1.98,2.03z"/>
  <polygon id="15" class="fil1" points="57.43,21.13 58.43,21.13 58.43,19.36 60.61,19.36 60.61,18.45 58.43,18.45 58.43,17.47 60.91,17.47 60.91,16.56 57.43,16.56 "/>
  <path id="16" class="fil1" d="M60.97 21.13l1.03 0 0.41 -1.03 1.94 0 0.41 1.03 1.05 0 -1.95 -4.6 -0.93 0 -1.96 4.6zm1.8 -1.91l0.61 -1.48 0.61 1.48 -1.22 0z"/>
  <path id="17" class="fil1" d="M68.54 21.21c0.88,0 1.4,-0.32 1.87,-0.82l-0.64 -0.65c-0.35,0.33 -0.67,0.54 -1.2,0.54 -0.78,0 -1.32,-0.65 -1.32,-1.44l0 -0.01c0,-0.78 0.55,-1.42 1.32,-1.42 0.46,0 0.82,0.19 1.17,0.51l0.64 -0.73c-0.42,-0.42 -0.94,-0.71 -1.8,-0.71 -1.4,0 -2.38,1.07 -2.38,2.36l0 0.02c0,1.31 1,2.35 2.34,2.35z"/>
  <polygon id="18" class="fil1" points="72.46,21.13 73.46,21.13 73.46,17.49 74.85,17.49 74.85,16.56 71.07,16.56 71.07,17.49 72.46,17.49 "/>
  <path id="19" class="fil1" d="M77.7 21.2c1.23,0 2.01,-0.68 2.01,-2.06l0 -2.58 -1.01 0 0 2.62c0,0.72 -0.37,1.09 -0.98,1.09 -0.62,0 -0.99,-0.38 -0.99,-1.13l0 -2.58 -1 0 0 2.61c0,1.34 0.75,2.03 1.97,2.03z"/>
  <path id="20" class="fil1" d="M80.91 21.13l1 0 0 -1.46 0.79 0 0.98 1.46 1.17 0 -1.11 -1.63c0.58,-0.22 0.98,-0.68 0.98,-1.42l0 -0.01c0,-0.43 -0.14,-0.79 -0.4,-1.05 -0.3,-0.3 -0.75,-0.46 -1.33,-0.46l-2.08 0 0 4.57zm1 -2.35l0 -1.31 1 0c0.49,0 0.79,0.22 0.79,0.65l0 0.01c0,0.39 -0.28,0.65 -0.77,0.65l-1.02 0z"/>
  <polygon id="21" class="fil1" points="85.8,21.13 89.28,21.13 89.28,20.23 86.8,20.23 86.8,19.27 88.95,19.27 88.95,18.38 86.8,18.38 86.8,17.45 89.24,17.45 89.24,16.56 85.8,16.56 "/>
  <path id="22" class="fil1" d="M90.35 21.13l1.78 0c1.43,0 2.43,-1 2.43,-2.29l0 -0.01c0,-1.28 -1,-2.27 -2.43,-2.27l-1.78 0 0 4.57zm1 -0.91l0 -2.75 0.78 0c0.82,0 1.37,0.57 1.37,1.37l0 0.02c0,0.81 -0.55,1.36 -1.37,1.36l-0.78 0z"/>
  <polygon id="23" class="fil1" points="97.63,21.13 98.63,21.13 98.63,16.56 97.63,16.56 "/>
  <polygon id="24" class="fil1" points="99.95,21.13 100.94,21.13 100.94,18.22 103.16,21.13 104.01,21.13 104.01,16.56 103.02,16.56 103.02,19.37 100.88,16.56 99.95,16.56 "/>
  <polygon id="25" class="fil1" points="107.24,21.13 110.72,21.13 110.72,20.23 108.24,20.23 108.24,19.27 110.39,19.27 110.39,18.38 108.24,18.38 108.24,17.45 110.68,17.45 110.68,16.56 107.24,16.56 "/>
  <path id="26" class="fil1" d="M113.69 21.2c1.23,0 2.01,-0.68 2.01,-2.06l0 -2.58 -1.01 0 0 2.62c0,0.72 -0.37,1.09 -0.98,1.09 -0.62,0 -0.99,-0.38 -0.99,-1.13l0 -2.58 -1 0 0 2.61c0,1.34 0.75,2.03 1.97,2.03z"/>
  <path id="27" class="fil1" d="M116.9 21.13l1 0 0 -1.46 0.79 0 0.98 1.46 1.17 0 -1.11 -1.63c0.58,-0.22 0.98,-0.68 0.98,-1.42l0 -0.01c0,-0.43 -0.14,-0.79 -0.39,-1.05 -0.31,-0.3 -0.76,-0.46 -1.34,-0.46l-2.08 0 0 4.57zm1 -2.35l0 -1.31 1 0c0.49,0 0.79,0.22 0.79,0.65l0 0.01c0,0.39 -0.28,0.65 -0.77,0.65l-1.02 0z"/>
  <path id="28" class="fil1" d="M124.01 21.21c1.41,0 2.43,-1.07 2.43,-2.37l0 -0.01c0,-1.3 -1.01,-2.35 -2.42,-2.35 -1.41,0 -2.43,1.07 -2.43,2.36l0 0.02c0,1.3 1.01,2.35 2.42,2.35zm0.01 -0.93c-0.81,0 -1.38,-0.65 -1.38,-1.44l0 -0.01c0,-0.78 0.56,-1.42 1.37,-1.42 0.81,0 1.38,0.65 1.38,1.43l0 0.02c0,0.78 -0.56,1.42 -1.37,1.42z"/>
  <path id="29" class="fil1" d="M127.51 21.13l1.01 0 0 -1.37 0.76 0c1.02,0 1.85,-0.55 1.85,-1.61l0 -0.01c0,-0.93 -0.66,-1.58 -1.75,-1.58l-1.87 0 0 4.57zm1.01 -2.27l0 -1.39 0.77 0c0.51,0 0.82,0.24 0.82,0.69l0 0.01c0,0.39 -0.29,0.69 -0.8,0.69l-0.79 0z"/>
  <polygon id="30" class="fil1" points="132.05,21.13 135.52,21.13 135.52,20.23 133.04,20.23 133.04,19.27 135.2,19.27 135.2,18.38 133.04,18.38 133.04,17.45 135.49,17.45 135.49,16.56 132.05,16.56 "/>
  <polygon class="fil2" points="14.95,23.12 14.55,24.32 13.32,24.32 14.19,24.98 13.95,26.26 14.95,25.53 15.95,26.24 15.71,24.98 16.57,24.31 15.35,24.31 "/>
  <polygon class="fil2" points="14.95,2.39 14.55,3.58 13.32,3.58 14.19,4.24 13.95,5.52 14.95,4.8 15.95,5.5 15.71,4.24 16.57,3.58 15.35,3.58 "/>
  <polygon class="fil2" points="9.96,3.72 9.55,4.92 8.33,4.92 9.2,5.58 8.96,6.86 9.96,6.13 10.96,6.84 10.72,5.58 11.58,4.91 10.35,4.91 "/>
  <polygon class="fil2" points="20.19,3.72 19.78,4.92 18.56,4.92 19.43,5.58 19.19,6.86 20.19,6.13 21.19,6.84 20.95,5.58 21.81,4.91 20.58,4.91 "/>
  <polygon class="fil2" points="9.96,21.72 9.55,22.92 8.33,22.91 9.2,23.57 8.96,24.86 9.96,24.13 10.96,24.84 10.72,23.57 11.58,22.91 10.35,22.91 "/>
  <polygon class="fil2" points="20.19,21.72 19.78,22.92 18.56,22.91 19.43,23.57 19.19,24.86 20.19,24.13 21.19,24.84 20.95,23.57 21.81,22.91 20.58,22.91 "/>
  <polygon class="fil2" points="24.01,7.64 23.61,8.83 22.38,8.83 23.25,9.49 23.01,10.77 24.01,10.04 25.01,10.75 24.77,9.49 25.63,8.82 24.41,8.82 "/>
  <polygon class="fil2" points="6.01,7.64 5.6,8.83 4.38,8.83 5.25,9.49 5.01,10.77 6.01,10.04 7.01,10.75 6.77,9.49 7.63,8.82 6.4,8.82 "/>
  <polygon class="fil2" points="24.01,17.98 23.61,19.18 22.38,19.18 23.25,19.84 23.01,21.12 24.01,20.39 25.01,21.1 24.77,19.84 25.63,19.17 24.41,19.17 "/>
  <polygon class="fil2" points="6.01,17.98 5.6,19.18 4.38,19.18 5.25,19.84 5.01,21.12 6.01,20.39 7.01,21.1 6.77,19.84 7.63,19.17 6.4,19.17 "/>
  <polygon class="fil2" points="25.2,12.77 24.8,13.96 23.57,13.96 24.44,14.62 24.2,15.9 25.2,15.18 26.2,15.89 25.96,14.62 26.82,13.96 25.6,13.96 "/>
  <polygon class="fil2" points="4.69,12.77 4.29,13.96 3.06,13.96 3.93,14.62 3.69,15.9 4.69,15.18 5.69,15.89 5.45,14.62 6.31,13.96 5.09,13.96 "/>
  <polygon class="fil1" points="10.14,17.36 14.02,17.36 14.02,16.36 11.25,16.36 11.25,15.29 13.66,15.29 13.66,14.29 11.25,14.29 11.25,13.25 13.99,13.25 13.99,12.25 10.14,12.25 "/>
  <path id="1" class="fil1" d="M17.15 17.44c1.37,0 2.24,-0.76 2.24,-2.31l0 -2.88 -1.12 0 0 2.93c0,0.81 -0.42,1.22 -1.1,1.22 -0.69,0 -1.1,-0.43 -1.1,-1.26l0 -2.89 -1.13 0 0 2.92c0,1.5 0.84,2.27 2.21,2.27z"/>
  <polygon class="fil1" points="30.63,25.66 31.11,25.66 31.11,3.54 30.63,3.54 "/>
 </g>
</svg>
