<svg xmlns="http://www.w3.org/2000/svg" width="48" height="48" viewBox="0 0 48 48">
  <g id="Group_1148" data-name="Group 1148" transform="translate(-1901 -51)">
    <g id="Group_1048" data-name="Group 1048" transform="translate(22 1)">
      <g id="Group_1149" data-name="Group 1149">
        <g id="Group_1042" data-name="Group 1042" transform="translate(379 -44)">
          <g id="Ellipse_97" data-name="Ellipse 97" transform="translate(1500 94)" fill="none" stroke="#dbdbdb" stroke-width="1">
            <circle cx="24" cy="24" r="24" stroke="none"/>
            <circle cx="24" cy="24" r="23.5" fill="none"/>
          </g>
        </g>
        <path id="Path_1847" data-name="Path 1847" d="M104.07-26.932a5.014,5.014,0,0,0-4.02,2.037,5.014,5.014,0,0,0-4.02-2.037H90v16.08h8.045l2.005,2.406,2-2.406H110.1v-16.08ZM98-13.715H92v-2h6Zm0-4H92v-2h6ZM98-21.7H92v-2h6Zm10.146,6.01h-6v-2h6Zm0-4.01h-6v-2h6Z" transform="translate(1803 91.932)" fill="#fff"/>
      </g>
    </g>
  </g>
</svg>
