<svg xmlns="http://www.w3.org/2000/svg" width="23.885" height="20.01" viewBox="0 0 23.885 20.01">
  <g id="Group_4497" data-name="Group 4497" transform="translate(-2209.438 -626.858)">
    <g id="Group_4491" data-name="Group 4491" transform="translate(2226.914 636.246)">
      <g id="Group_4490" data-name="Group 4490">
        <g id="Group_4489" data-name="Group 4489">
          <g id="Group_4488" data-name="Group 4488">
            <path id="Path_4954" data-name="Path 4954" d="M2226.259,639.854" transform="translate(-2226.259 -635.74)" fill="#fff"/>
            <path id="Path_4957" data-name="Path 4957" d="M2232.244,637.516l-2.018-1.622-3.271,5.413,2.5.557,3.182-2.576Z" transform="translate(-2226.232 -635.894)" fill="#fff"/>
          </g>
        </g>
      </g>
    </g>
    <path id="Path_4957-2" data-name="Path 4957" d="M2216.968,632.825l-7.53,6.414c3.111,3.58,9.034,7.489,13.075,7.394v-5.522h3.812l1.156-1.932Z" transform="translate(0 0.232)" fill="#fff"/>
    <path id="Path_4958" data-name="Path 4958" d="M2224.756,630.987v-4.129h-.831l-6.264,5.336,10.176,6.088,1.759-2.939Zm-.278,3.612a1.039,1.039,0,1,1,1.039-1.039A1.038,1.038,0,0,1,2224.479,634.6Z" transform="translate(0.32)" fill="#fff"/>
  </g>
</svg>
