<svg xmlns="http://www.w3.org/2000/svg" width="24" height="22.825" viewBox="0 0 24 22.825">
  <g id="Path_1836" data-name="Path 1836" transform="translate(-17.426 -70.805)" fill="none">
    <path d="M29.426,89.479,22.01,93.63l1.656-8.336-6.24-5.771,8.44-1,3.56-7.718,3.56,7.718,8.44,1-6.24,5.771,1.656,8.336Z" stroke="none"/>
    <path d="M 34.03570556640625 89.76739501953125 L 33.00615310668945 84.5859375 L 36.88467407226562 80.99918365478516 L 31.63865280151367 80.37718963623047 L 29.42598342895508 75.58011627197266 L 27.21331405639648 80.37718963623047 L 21.96729278564453 80.99918365478516 L 25.8458137512207 84.5859375 L 24.81626319885254 89.76739501953125 L 29.42598342895508 87.18706512451172 L 34.03570556640625 89.76739501953125 M 36.84239196777344 93.63047027587891 L 29.42598342895508 89.47908020019531 L 22.00957298278809 93.63047027587891 L 23.66598320007324 85.29421234130859 L 17.42598342895508 79.52362060546875 L 25.86610412597656 78.52291107177734 L 29.42598342895508 70.80512237548828 L 32.98586273193359 78.52291107177734 L 41.42598342895508 79.52362060546875 L 35.18598175048828 85.29421234130859 L 36.84239196777344 93.63047027587891 Z" stroke="none" fill="#fd9439"/>
  </g>
</svg>
