<svg xmlns="http://www.w3.org/2000/svg" width="20" height="16.037" viewBox="0 0 20 16.037">
  <g id="Group_4466" data-name="Group 4466" transform="translate(-1410 -7008.668)">
    <path id="Path_1812" data-name="Path 1812" d="M27.5,11a31.519,31.519,0,0,0-9-1,31.52,31.52,0,0,0-9,1,24.344,24.344,0,0,0-1,7,24.344,24.344,0,0,0,1,7,31.52,31.52,0,0,0,9,1,31.52,31.52,0,0,0,9-1,24.344,24.344,0,0,0,1-7A24.344,24.344,0,0,0,27.5,11Zm-11,10.466V14.538L22.5,18Z" transform="translate(1401.5 6998.683)" fill="#000000"/>
  </g>
</svg>
