<svg xmlns="http://www.w3.org/2000/svg" width="24" height="24" viewBox="0 0 24 24">
  <path id="Union_10" data-name="Union 10" d="M7.052,23.928a8.836,8.836,0,0,1-2.912-.557,5.887,5.887,0,0,1-2.126-1.386A5.892,5.892,0,0,1,.63,19.86a8.853,8.853,0,0,1-.558-2.913C.015,15.667,0,15.26,0,12S.015,8.331.072,7.052A8.8,8.8,0,0,1,.63,4.14,5.909,5.909,0,0,1,2.014,2.013,5.882,5.882,0,0,1,4.141.63,8.821,8.821,0,0,1,7.052.073C8.332.014,8.743,0,12,0s3.667.014,4.946.073A8.854,8.854,0,0,1,19.86.63a5.872,5.872,0,0,1,2.126,1.383A5.909,5.909,0,0,1,23.37,4.14a8.889,8.889,0,0,1,.558,2.912C23.985,8.332,24,8.741,24,12s-.015,3.667-.072,4.946a8.9,8.9,0,0,1-.558,2.913,6.149,6.149,0,0,1-3.509,3.511,8.844,8.844,0,0,1-2.914.557C15.667,23.986,15.259,24,12,24S8.332,23.986,7.052,23.928Zm.1-21.7a6.643,6.643,0,0,0-2.228.414,3.736,3.736,0,0,0-1.381.9,3.726,3.726,0,0,0-.9,1.38,6.65,6.65,0,0,0-.414,2.229c-.057,1.265-.068,1.643-.068,4.846s.012,3.585.068,4.85a6.636,6.636,0,0,0,.414,2.228,3.727,3.727,0,0,0,.9,1.379,3.736,3.736,0,0,0,1.381.9,6.678,6.678,0,0,0,2.228.413c1.265.058,1.644.07,4.849.07s3.584-.013,4.848-.07a6.62,6.62,0,0,0,2.228-.413,3.984,3.984,0,0,0,2.278-2.276,6.666,6.666,0,0,0,.413-2.227c.057-1.265.069-1.644.069-4.848s-.013-3.582-.069-4.847a6.66,6.66,0,0,0-.413-2.227,3.751,3.751,0,0,0-.9-1.382,3.73,3.73,0,0,0-1.38-.9,6.691,6.691,0,0,0-2.228-.413c-1.264-.057-1.644-.068-4.848-.068H10.925v0C8.688,2.163,8.259,2.178,7.152,2.227ZM5.839,12A6.162,6.162,0,1,1,12,18.161,6.162,6.162,0,0,1,5.839,12ZM8,12a4,4,0,1,0,4-4A4,4,0,0,0,8,12ZM16.967,5.6a1.44,1.44,0,1,1,1.44,1.44A1.44,1.44,0,0,1,16.967,5.6Z" fill="#fff"/>
</svg>
