<svg id="Group_3418" data-name="Group 3418" xmlns="http://www.w3.org/2000/svg" width="29.999" height="28.999" viewBox="0 0 29.999 28.999">
  <path id="Subtraction_9" data-name="Subtraction 9" d="M19,29H11V27h8v2Zm5.712-2.877h0L21.88,23.291l1.414-1.414,2.828,2.831-1.413,1.414Zm-19.414,0h0L3.88,24.708l2.825-2.831,1.417,1.414L5.295,26.122ZM19,25H11V23.065A9.062,9.062,0,0,1,7.391,19.8,9,9,0,1,1,19,23.065V25Zm11-9H26V14h4v2ZM4,16H0V14H4v2ZM23.294,8.122h0L21.88,6.708,24.708,3.88l1.414,1.411L23.295,8.122Zm-16.589,0h0L3.88,5.291,5.294,3.88,8.122,6.708,6.706,8.122ZM16,4H14V0h2V4Z" fill="#fff"/>
</svg>
