<svg xmlns="http://www.w3.org/2000/svg" xmlns:xlink="http://www.w3.org/1999/xlink" width="103.922" height="119.998" viewBox="0 0 103.922 119.998">
  <defs>
    <clipPath id="clip-path">
      <rect width="103.922" height="119.998" fill="none"/>
    </clipPath>
  </defs>
  <g id="Repeat_Grid_2" data-name="Repeat Grid 2" clip-path="url(#clip-path)">
    <g id="Group_2316" data-name="Group 2316" transform="translate(-405 -3910.5)">
      <g id="Group_2313" data-name="Group 2313" transform="translate(405 3910.5)">
        <g id="Group_2042" data-name="Group 2042" transform="translate(0 0.001)">
          <g id="Union_16" data-name="Union 16" transform="translate(0)" fill="none">
            <path d="M0,90V30L51.961,0l51.961,30V90L51.961,120Z" stroke="none"/>
            <path d="M 51.96112823486328 118.8435363769531 L 102.9222946166992 89.42131042480469 L 102.9223251342773 30.5769157409668 L 51.96117782592773 1.154712319374084 L 1.000028967857361 30.57695007324219 L 0.9999962449073792 89.42134857177734 L 51.96112823486328 118.8435363769531 M 51.96112823486328 119.9982376098633 L -4.099527814105386e-06 89.99870300292969 L 2.923380452557467e-05 29.99958992004395 L 51.96117782592773 5.952962055744138e-06 L 103.9223327636719 29.99955558776855 L 103.9222946166992 89.99867248535156 L 51.96112823486328 119.9982376098633 Z" stroke="none" fill="#fff"/>
          </g>
        </g>
      </g>
      <g id="Group_2320" data-name="Group 2320" transform="translate(418.461 3929.41)">
        <path id="Path_2992" data-name="Path 2992" d="M87.96,20.135,80.121,12.99l.147-7.478L60.06,24.012a17.11,17.11,0,0,0,8.265,5.3,20.042,20.042,0,0,0,6.391.5l-.875,2.012a23.638,23.638,0,0,1-6.074-.634,20.307,20.307,0,0,1-8.781-5.443L59,69.527h5.874V52.242l8.946-20.41a13.252,13.252,0,0,0,2.628-.44c2.76-.808,4.637-2.458,5.29-4.653a5.765,5.765,0,0,0,.165-.866l3.643.855a3.541,3.541,0,0,0,2.892-.755,3.2,3.2,0,0,0,1.294-2.63A3.64,3.64,0,0,0,87.96,20.135Zm-8.09,6.047C79.41,27.714,78,28.9,75.9,29.511a10.5,10.5,0,0,1-1.162.231l2.2-5.031,3.06.716A3.8,3.8,0,0,1,79.869,26.182Z" transform="translate(-13.515)" fill="#fff"/>
        <path id="Path_2993" data-name="Path 2993" d="M6.381,42.519l2.9-4.488V54.556l-2.9,4.578.024,17.1h5.878l.02-13.645-.017-.015L23.724,48.746,25.03,49.8,16.3,60.35l6.231,15.882h6.309L23.106,61.61l4.4-5.932,16.012.021V43.677H28.164V34.389H8.628a7.5,7.5,0,0,0-5.563,2.335A7.744,7.744,0,0,0,.78,42.333V55.626h5.6Z" transform="translate(0 -6.705)" fill="#fff"/>
      </g>
    </g>
  </g>
</svg>
