<svg xmlns="http://www.w3.org/2000/svg" width="16.93" height="18.72" viewBox="0 0 16.93 18.72">
  <g id="Group_3473" data-name="Group 3473" transform="translate(-1418.315 -530.947)">
    <path id="Path_1791" data-name="Path 1791" d="M1429.493,530.947h-5.427l-2.382,2.382v4.211h1.685v-3.514l1.4-1.4h4.031l1.4,1.4v3.514h1.685v-4.211Z" fill="#838383"/>
    <path id="Path_1792" data-name="Path 1792" d="M1421.292,540.307" fill="#838383"/>
    <path id="Path_1793" data-name="Path 1793" d="M1418.315,536.7v9.6l3.369,3.369h10.192l3.369-3.369v-9.6Zm4.211,3.369a.842.842,0,1,1,.842-.842h0A.842.842,0,0,1,1422.526,540.067Zm8.507,0a.842.842,0,1,1,.842-.842h0A.842.842,0,0,1,1431.033,540.067Z" fill="#838383"/>
  </g>
</svg>
