<svg xmlns="http://www.w3.org/2000/svg" width="198.786" height="32.008" viewBox="0 0 198.786 32.008">
  <g id="Group_4781" data-name="Group 4781" transform="translate(-540.643 -392.234)">
    <g id="Group_3867" data-name="Group 3867" transform="translate(575.054 398.443)">
      <g id="Group_3866" data-name="Group 3866">
        <path id="Path_3925" data-name="Path 3925" d="M573.8,395.4l.567,1.475-5.458,12.851L562.86,395.4h-3.972l3.7,8.745-2.378,5.581L554.159,395.4h-3.972l8.267,19.53H561.1l3-7.163,3.052,7.163H569.8l8.268-19.53Z" transform="translate(-550.188 -395.4)" fill="#fff"/>
        <path id="Path_3926" data-name="Path 3926" d="M567.719,396.876l-.891-1.475h4.539v19.53h-3.648Z" transform="translate(-534.19 -395.4)" fill="#fff"/>
        <path id="Path_3927" data-name="Path 3927" d="M573.579,397.117l-1.243-1.717h4.484l10.159,13.789V396.876l-.865-1.476h3.729v19.53h-3.189l-10.213-13.843V414.93h-2.863Z" transform="translate(-528.895 -395.399)" fill="#fff"/>
        <path id="Path_3928" data-name="Path 3928" d="M592.823,412.275a10.954,10.954,0,0,0,1.62-.122,3.35,3.35,0,0,0,1.379-.494,6.185,6.185,0,0,0,2.244-2.563,7.858,7.858,0,0,0,.783-3.446,7.584,7.584,0,0,0-.582-2.952,7.292,7.292,0,0,0-1.606-2.414,7.763,7.763,0,0,0-2.432-1.624,7.581,7.581,0,0,0-3.027-.6h-2.026v14.218Zm-7.294-15.4-.893-1.477h8.377a9.76,9.76,0,0,1,3.768.724,9.335,9.335,0,0,1,3.026,2,9.579,9.579,0,0,1,2.026,2.964,9.172,9.172,0,0,1,.4,6.09,9.457,9.457,0,0,1-.943,2.214,9.073,9.073,0,0,1-1.473,1.877,9.838,9.838,0,0,1-1.918,1.461l-1.648.939A9.557,9.557,0,0,1,594,414.6a9.761,9.761,0,0,1-2.579.335h-5.89Z" transform="translate(-517.071 -395.4)" fill="#fff"/>
        <path id="Path_3929" data-name="Path 3929" d="M596.914,396.876l-.892-1.475H609.18l-1.027,2.656h-7.593V403.5h8.348l-1.026,2.655h-7.322v6.117h8.889l-1.026,2.657h-11.51Z" transform="translate(-506.125 -395.4)" fill="#fff"/>
        <path id="Path_3930" data-name="Path 3930" d="M613.557,404.791a1.973,1.973,0,0,0,1.026-.241,3.411,3.411,0,0,0,.865-1.114,3.881,3.881,0,0,0,.379-1.461,3.917,3.917,0,0,0-2.35-3.636,3.8,3.8,0,0,0-1.542-.308h-1.944v6.761Zm-7.214-7.914-.892-1.477h8.269a6.062,6.062,0,0,1,2.283.431,5.574,5.574,0,0,1,1.836,1.179,5.516,5.516,0,0,1,1.216,1.771,5.385,5.385,0,0,1,.445,2.173,5.46,5.46,0,0,1-.716,2.775,5.547,5.547,0,0,1-1.93,2l-.569.349a2.456,2.456,0,0,1-1.3.4l6.4,8.451h-4.539l-5.566-7.726h-1.3v7.726h-3.648Z" transform="translate(-497.061 -395.4)" fill="#fff"/>
        <path id="Path_3931" data-name="Path 3931" d="M616.633,396.876l-.892-1.475H628.9l-1.027,2.656h-7.592V403.5h8.348l-1.026,2.655h-7.322v6.117h8.888l-1.026,2.657h-11.51Z" transform="translate(-487.168 -395.4)" fill="#fff"/>
        <path id="Path_3932" data-name="Path 3932" d="M638.847,395.4l.865,1.475V409.19L629.553,395.4h-4.484l1.242,1.717V414.93h2.864V401.088l10.213,13.843h3.188V395.4Z" transform="translate(-478.201 -395.4)" fill="#fff"/>
      </g>
    </g>
    <g id="Group_3868" data-name="Group 3868" transform="translate(540.643 392.234)">
      <path id="Path_3933" data-name="Path 3933" d="M532.643,392.234l.821,3.336H554.51l.821-3.336Z" transform="translate(-532.643 -392.234)" fill="#fff"/>
      <path id="Path_3934" data-name="Path 3934" d="M553.325,396.759l.821-1.359h-4.179v13.206l-4.667,5.41V396.759l.821-1.359h-5l.821,1.359v17.257l-4.667-5.41V395.4H533.1l.82,1.359v13.134l9.7,11.8,9.7-11.8Z" transform="translate(-532.277 -389.682)" fill="#fff"/>
    </g>
  </g>
</svg>
