<svg xmlns="http://www.w3.org/2000/svg" width="39.694" height="23.181"><defs><clipPath id="clip-path"><path fill="none" d="M0 0h39.694v23.181H0z"/></clipPath></defs><g id="Repeat_Grid_1" data-name="Repeat Grid 1" clip-path="url(#clip-path)"><g transform="translate(-939.152 -637.409)" fill="#fff"><circle id="Ellipse_98" data-name="Ellipse 98" cx="5" cy="5" r="5" transform="translate(954 637.409)"/><path id="Path_3549" data-name="Path 3549" d="M208.916 155.965h-4l-6.269 7.115v4.285h16.538v-4.285z" transform="translate(752.084 493.225)"/><path id="Path_3566" data-name="Path 3566" d="M86.839 41.721l4.419 1.371-4.419 1.371-1.371 4.419-1.368-4.419-4.419-1.371 4.419-1.371 1.368-4.421z" transform="translate(859.473 608.908)"/><path id="Path_3567" data-name="Path 3567" d="M86.839 41.721l4.419 1.371-4.419 1.371-1.371 4.419-1.368-4.419-4.419-1.371 4.419-1.371 1.368-4.421z" transform="translate(887.588 600.118)"/></g></g></svg>