<svg xmlns="http://www.w3.org/2000/svg" width="22.573" height="24.013"><g id="Group_4486" data-name="Group 4486" transform="translate(-597.999 -330.34)"><g id="Group_2803" data-name="Group 2803" transform="translate(597.999 330.34)"><path id="Path_3501" data-name="Path 3501" d="M607.727 341.485h2.14V330.34H598v13.582h9.728zm-8.038-8.415h8.447v1.689h-8.447zm5.068 8.434h-5.068v-1.689h5.068zm-5.068-3.379v-1.689h6.758v1.689z" transform="translate(-597.999 -330.34)" fill="#fff"/><g id="Group_1958" data-name="Group 1958" transform="translate(7.032 8.472)"><g id="Group_1956" data-name="Group 1956" fill="#fff"><path id="Rectangle_360-9" data-name="Rectangle 360-9" d="M606.325 350.1v-1.689l3.379-.845v3.378z" transform="translate(-606.325 -341.49)"/><path id="Rectangle_360-10" data-name="Rectangle 360-10" d="M620.725 350.949v-3.378l3.378.845v1.684z" transform="translate(-608.562 -341.49)"/><path id="Rectangle_360-11" data-name="Rectangle 360-11" d="M614.37 340.371h1.689l.845 3.378h-3.378z" transform="translate(-607.444 -340.371)"/><path id="Rectangle_360-12" data-name="Rectangle 360-12" d="M613.525 354.771h3.375l-.845 3.379h-1.685z" transform="translate(-607.444 -342.608)"/><path id="Rectangle_360-13" data-name="Rectangle 360-13" d="M620.775 342.358l1.194 1.194-1.792 2.987-2.389-2.389z" transform="translate(-608.106 -340.68)"/><path id="Rectangle_360-14" data-name="Rectangle 360-14" d="M610.1 351.833l2.389 2.389-2.987 1.791-1.194-1.194z" transform="translate(-606.634 -342.152)"/><path id="Rectangle_360-15" data-name="Rectangle 360-15" d="M621.969 354.82l-1.194 1.194-2.987-1.791 2.389-2.389z" transform="translate(-608.106 -342.152)"/><path id="Ellipse_134-2" data-name="Ellipse 134-2" d="M618.8 348.452a4.392 4.392 0 11-1.286-3.106 4.392 4.392 0 011.286 3.106m1.689 0a6.082 6.082 0 10-1.78 4.3 6.081 6.081 0 001.778-4.3z" transform="translate(-606.636 -340.682)"/><path id="Path_2067" data-name="Path 2067" d="M616.131 349.054a1.123 1.123 0 11-.328-.795 1.125 1.125 0 01.328.795m1.689 0a2.812 2.812 0 10-.823 1.989 2.812 2.812 0 00.823-1.989z" transform="translate(-607.237 -341.284)"/></g></g></g><path id="Rectangle_360-16" data-name="Rectangle 360-16" d="M612.494 344.149l-2.389 2.389-1.791-2.987 1.194-1.194z" transform="translate(-1.602 -1.867)" fill="#fff"/></g></svg>