<svg id="Group_3421" data-name="Group 3421" xmlns="http://www.w3.org/2000/svg" width="33.897" height="25.001"><path id="Path_1837" data-name="Path 1837" d="M22.683 78.986l-3.249 1.819.726-3.652-2.734-2.528 3.7-.438 1.56-3.381 1.56 3.381 3.7.438-2.734 2.528.726 3.652z" transform="translate(5.956 -64.804)" fill="#000"/><path id="Path_1960" data-name="Path 1960" d="M22.683 78.986l-3.249 1.819.726-3.652-2.734-2.528 3.7-.438 1.56-3.381 1.56 3.381 3.7.438-2.734 2.528.726 3.652z" transform="translate(-.044 -55.804)" fill="#000"/><path id="Path_1959" data-name="Path 1959" d="M104.07-26.932a5.014 5.014 0 00-4.02 2.037 5.014 5.014 0 00-4.02-2.037H90v16.08h8.045l2.005 2.406 2-2.406h8.05v-16.08zM98-13.715h-6v-2h6zm0-4h-6v-2h6zm0-3.985h-6v-2h6zm10.146 6.01h-6v-2h6zm0-4.01h-6v-2h6z" transform="translate(-90 26.932)" fill="#000"/></svg>