<svg xmlns="http://www.w3.org/2000/svg" width="25.896" height="24.686"><g id="Group_3190" data-name="Group 3190" transform="translate(-1890.207 -61.91)"><g id="Group_2862" data-name="Group 2862" transform="translate(.5 1)"><g id="Group_2848" data-name="Group 2848" transform="rotate(-45 1041.526 -1123.853)"><g id="Group_2847" data-name="Group 2847" fill="#fff"><path id="Path_3533" data-name="Path 3533" d="M802.484 332.21h-1.417l-1.131 1.131h-4.786l-1.657-1.657v-2.343l1.657-1.657h4.786l1.175 1.175h1.373V327.4l-1.72-1.719h-6.439l-2.828 2.828v4l2.829 2.828h6.443l1.719-1.719z"/><path id="Path_3534" data-name="Path 3534" d="M804.565 328.814h1.417l1.131-1.131h4.787l1.657 1.657v2.343l-1.657 1.657h-4.786l-1.175-1.175h-1.373v1.454l1.72 1.719h6.44l2.828-2.828v-4l-2.829-2.828h-6.443l-1.719 1.719z"/><path id="Rectangle_516" data-name="Rectangle 516" transform="translate(797.56 329.495)" d="M0 0h12.504v2.055H0z"/></g></g><path id="Path_3533-2" data-name="Path 3533" d="M22.683 78.986l-3.249 1.819.726-3.652-2.734-2.528 3.7-.438 1.56-3.381 1.56 3.381 3.7.438-2.734 2.528.726 3.652z" transform="translate(1887.662 4.791)" fill="#fff"/></g></g></svg>