<svg xmlns="http://www.w3.org/2000/svg" width="224" height="88.314"><g id="Group_1032" data-name="Group 1032" transform="translate(-141.861 -113.545)" fill="#fff"><path id="Path_1768" data-name="Path 1768" d="M174.041 118.7l.773 2.01-7.437 17.513-8.247-19.523h-5.413l5.044 11.917-3.24 7.606-8.247-19.523h-5.412l11.266 26.614h3.609l4.087-9.761 4.16 9.761h3.608l11.267-26.614z" transform="translate(0 56.541)"/><path id="Path_1769" data-name="Path 1769" d="M146.794 120.714l-1.214-2.014h6.186v26.615h-4.971z" transform="translate(40.758 56.541)"/><path id="Path_1770" data-name="Path 1770" d="M148.5 121.042l-1.694-2.339h6.111l13.844 18.79v-16.779l-1.179-2.011h5.082v26.614h-4.346l-13.917-18.865v18.865h-3.9z" transform="translate(54.25 56.541)"/><path id="Path_1771" data-name="Path 1771" d="M160.719 141.7a15.148 15.148 0 002.2-.167 4.607 4.607 0 001.878-.67 8.514 8.514 0 003.062-3.493 10.815 10.815 0 001.064-4.7 10.378 10.378 0 00-.789-4.019 9.9 9.9 0 00-2.189-3.289 10.532 10.532 0 00-7.44-3.038h-2.763V141.7zm-9.94-20.992l-1.22-2.009h11.411a13.314 13.314 0 015.143.993 12.779 12.779 0 014.115 2.715 12.928 12.928 0 012.763 4.043 12.442 12.442 0 01.55 8.3 12.486 12.486 0 01-1.28 3.014 11.87 11.87 0 01-2.009 2.56 13.426 13.426 0 01-2.619 2l-2.237 1.28a12.759 12.759 0 01-3.074 1.256 13.127 13.127 0 01-3.517.455h-8.026z" transform="translate(84.376 56.538)"/><path id="Path_1772" data-name="Path 1772" d="M153.319 120.714L152.1 118.7h17.932l-1.4 3.62h-10.343v7.421h11.376l-1.4 3.619h-9.978v8.34H170.4l-1.4 3.62h-15.681z" transform="translate(112.265 56.541)"/><path id="Path_1773" data-name="Path 1773" d="M165.262 131.5a2.729 2.729 0 001.4-.323 4.587 4.587 0 001.172-1.519 5.188 5.188 0 00.514-2 5.541 5.541 0 00-.395-2.105 5.315 5.315 0 00-2.8-2.847 5.091 5.091 0 00-2.105-.419h-2.644v9.21zm-9.832-10.789l-1.22-2.009h11.267a8.364 8.364 0 013.11.586 7.815 7.815 0 012.513 1.612 7.688 7.688 0 011.651 2.4 7.659 7.659 0 01-.371 6.746 7.472 7.472 0 01-2.631 2.727l-.765.478a3.437 3.437 0 01-1.77.55l8.732 11.507h-6.2l-7.583-10.526h-1.758v10.526h-4.975z" transform="translate(135.356 56.538)"/><path id="Path_1774" data-name="Path 1774" d="M157.725 120.714l-1.215-2.014h17.931l-1.4 3.62H162.7v7.421h11.376l-1.4 3.619H162.7v8.34h12.113l-1.4 3.62h-15.688z" transform="translate(160.563 56.541)"/><path id="Path_1775" data-name="Path 1775" d="M177.371 118.7l1.179 2.01v16.781L164.706 118.7h-6.111l1.693 2.34v24.275h3.9v-18.861l13.918 18.864h4.345V118.7z" transform="translate(183.41 56.541)"/><path id="Path_1776" data-name="Path 1776" d="M149.821 113.545l1.215 4.936h31.148l1.215-4.936z" transform="translate(87.252)"/><path id="Path_1777" data-name="Path 1777" d="M179.861 116.264l1.215-2.011h-6.184V133.8l-6.907 8.007v-25.54l1.215-2.011h-7.4l1.215 2.011V141.8l-6.906-8.007v-19.541h-6.184l1.213 2.011V135.7l14.362 17.46 14.361-17.46z" transform="translate(88.363 7.755)"/></g></svg>