<svg clip-rule="evenodd" fill-rule="evenodd" height="12.4021mm" image-rendering="optimizeQuality" shape-rendering="geometricPrecision" text-rendering="geometricPrecision" viewBox="0 0 6364 1053" width="74.9623mm" xmlns="http://www.w3.org/2000/svg"><g fill="#eee" fill-rule="nonzero"><path d="m1913 192 18 47-173 406-191-453h-126l117 276-75 177-191-453h-126l262 618h83l95-227 97 227h83l262-618z"/><path d="m2226 239-28-47h144v618h-116z"/><path d="m2579 246-39-54h142l321 436v-389l-27-47h118v618h-101l-323-438v438h-91z"/><path d="m3331 239-28-47h265c42 0 82 8 119 23s69 36 96 63 48 58 64 94c15 35 23 74 23 114 0 27-3 53-11 78-7 25-17 49-29 70-13 22-29 42-47 60s-38 33-61 46l-52 30c-21 12-45 22-71 29s-53 11-82 11h-186zm231 487c17 0 34-2 51-4 17-3 32-8 44-16 30-20 54-47 70-81 17-34 25-71 25-109 0-33-6-64-18-93-12-30-29-55-51-77-22-21-47-38-77-51-29-13-61-19-96-19h-64v450z"/><path d="m4037 239-28-47h416l-32 84h-240v172h264l-33 84h-231v194h281l-33 84h-364z"/><path d="m4622 239-28-47h261c26 0 50 4 73 13 22 10 41 22 58 38 16 16 29 34 38 56 10 21 14 44 14 69 0 32-7 61-22 87-16 27-36 48-62 64l-17 11c-12 7-26 12-41 12l202 268h-144l-176-245h-41v245h-115zm228 250c11 0 22-2 33-8 11-9 20-21 27-35s11-29 12-46c0-18-3-34-9-49-7-15-15-28-26-39-12-12-25-21-39-27-15-7-31-10-49-10h-62v214z"/><path d="m5260 239-28-47h416l-32 84h-240v172h264l-33 84h-231v194h281l-33 84h-364z"/><path d="m6246 192 28 47v389l-321-436h-142l39 54v564h91v-438l323 438h100v-618z"/><path d="m0 0 27 110h692l27-110z"/><path d="m692 233 27-45h-137v435l-154 178v-568l27-45h-164l27 45v568l-154-178v-435h-137l27 45v432l319 388 319-388z"/></g></svg>