<svg xmlns="http://www.w3.org/2000/svg" xmlns:xlink="http://www.w3.org/1999/xlink" width="103.922" height="119.998" viewBox="0 0 103.922 119.998">
  <defs>
    <clipPath id="clip-path">
      <rect width="103.922" height="119.998" fill="none"/>
    </clipPath>
  </defs>
  <g id="Repeat_Grid_1" data-name="Repeat Grid 1" clip-path="url(#clip-path)">
    <g transform="translate(-1274.078 -3740.001)">
      <g id="Group_2315" data-name="Group 2315" transform="translate(869.078 -170.5)">
        <g id="Group_2313" data-name="Group 2313" transform="translate(405 3910.5)">
          <g id="Group_2042" data-name="Group 2042" transform="translate(0 0.001)">
            <g id="Union_16" data-name="Union 16" transform="translate(0)" fill="none">
              <path d="M0,90V30L51.961,0l51.961,30V90L51.961,120Z" stroke="none"/>
              <path d="M 51.96112823486328 118.8435363769531 L 102.9222946166992 89.42131042480469 L 102.9223251342773 30.5769157409668 L 51.96117782592773 1.154712319374084 L 1.000028967857361 30.57695007324219 L 0.9999962449073792 89.42134857177734 L 51.96112823486328 118.8435363769531 M 51.96112823486328 119.9982376098633 L -4.099527814105386e-06 89.99870300292969 L 2.923380452557467e-05 29.99958992004395 L 51.96117782592773 5.952962055744138e-06 L 103.9223327636719 29.99955558776855 L 103.9222946166992 89.99867248535156 L 51.96112823486328 119.9982376098633 Z" stroke="none" fill="#fff"/>
            </g>
          </g>
        </g>
      </g>
      <g id="Group_2321" data-name="Group 2321" transform="translate(1388.5 3830.812)">
        <path id="Path_2994" data-name="Path 2994" d="M-45.969-60.6H-71.09L-75.4-56.3v9.459l6.3-6.216,4.8,4.734,1.37-1.379.055-.014,1.7-1.7,6.375,6.375-3.256,3.255,5.066,5.067-3.88,3.879,4.639,4.737-1.334,1.372c-.292.3-5.971,6.139-9.334,9.443h16.921l4.307-4.307V-56.3Z" transform="translate(-0.535)" fill="#fff"/>
        <path id="Path_2995" data-name="Path 2995" d="M-84.91,2.16a103.37,103.37,0,0,1,7.15-9.686c2.468-2.667,8.512-6.817,11.2-9.266,2.369-2.157,11.066-11.1,11.066-11.1l-3.272-3.341-9.453,9.513-1.421-1.413,11.314-11.381.009.031,2.03-2.029-3.642-3.642L-71.327-28.695l-1.423-1.413,13.423-13.509,0,0,1.221-1.221-3.6-3.6-.7.7c-.016,0-.03,0-.046.007L-76.792-33.3l-1.421-1.413,11.972-12.043L-69.631-50.1-85.306-34.635l-.411-7.634a3.246,3.246,0,0,0-.015-.641h-6.4c-.007.051-.023.1-.027.148l-1.716,17.43-9.213,9.213Z" transform="translate(0 -0.203)" fill="#fff"/>
        <path id="Path_2997" data-name="Path 2997" d="M90.157,43.769l6.466,2.006-6.466,2.006-2.006,6.466-2.006-6.466-6.466-2.006,6.466-2.006L88.151,37.3Z" transform="translate(-121.876 -56.906)" fill="#fff"/>
      </g>
    </g>
  </g>
</svg>
