<svg xmlns="http://www.w3.org/2000/svg" width="103.922" height="119.998"><defs><clipPath id="clip-path"><path fill="none" d="M0 0h103.922v119.998H0z"/></clipPath></defs><g id="Repeat_Grid_1" data-name="Repeat Grid 1" clip-path="url(#clip-path)"><g transform="translate(-1274.078 -3740.001)"><g id="Group_2315" data-name="Group 2315" transform="translate(869.078 -170.5)"><g id="Group_2313" data-name="Group 2313" transform="translate(405 3910.5)"><g id="Group_2042" data-name="Group 2042" transform="translate(0 .001)"><g id="Union_16" data-name="Union 16" fill="none"><path d="M0 90V30L51.961 0l51.961 30v60l-51.961 30z"/><path d="M51.961 118.844l50.961-29.423V30.577L51.962 1.155 1 30.577v58.844l50.961 29.423m0 1.154L0 89.998V30L51.961 0l51.961 30v59.999l-51.96 30z" fill="#fff"/></g></g></g></g><g id="Group_2321" data-name="Group 2321" transform="translate(1388.5 3830.812)" fill="#fff"><path id="Path_2994" data-name="Path 2994" d="M-45.969-60.6H-71.09l-4.31 4.3v9.459l6.3-6.216 4.8 4.734 1.37-1.379.055-.014 1.7-1.7 6.375 6.375-3.256 3.255 5.066 5.067-3.88 3.879 4.639 4.737-1.334 1.372c-.292.3-5.971 6.139-9.334 9.443h16.921l4.307-4.307V-56.3z" transform="translate(-.535)"/><path id="Path_2995" data-name="Path 2995" d="M-84.91 2.16a103.37 103.37 0 017.15-9.686c2.468-2.667 8.512-6.817 11.2-9.266 2.369-2.157 11.066-11.1 11.066-11.1l-3.272-3.341-9.453 9.513-1.421-1.413 11.314-11.381.009.031 2.03-2.029-3.642-3.642-11.398 11.459-1.423-1.413 13.423-13.509 1.221-1.221-3.6-3.6-.7.7c-.016 0-.03 0-.046.007L-76.792-33.3l-1.421-1.413 11.972-12.043-3.39-3.344-15.675 15.465-.411-7.634a3.246 3.246 0 00-.015-.641h-6.4c-.007.051-.023.1-.027.148l-1.716 17.43-9.213 9.213z" transform="translate(0 -.203)"/><path id="Path_2997" data-name="Path 2997" d="M90.157 43.769l6.466 2.006-6.466 2.006-2.006 6.466-2.006-6.466-6.466-2.006 6.466-2.006 2.006-6.469z" transform="translate(-121.876 -56.906)"/></g></g></g></svg>