<svg xmlns="http://www.w3.org/2000/svg" width="30.059" height="29.63" viewBox="0 0 30.059 29.63">
  <g id="Group_2895" data-name="Group 2895" transform="translate(-681.991 -357.248)">
    <g id="Group_2862" data-name="Group 2862">
      <g id="Group_2867" data-name="Group 2867">
        <path id="Path_3535" data-name="Path 3535" d="M693.886,380.671v1.207h-1.459V380.7a11.99,11.99,0,0,1-4.3-.954l.729-1.83a9.581,9.581,0,0,0,3.568.928v-2.188l-.583-.079c-2.374-.332-3.356-1.127-3.356-2.665,0-1.657,1.5-2.785,3.939-2.958v-1.073h1.459v1.073a10.11,10.11,0,0,1,3.7.877l-.729,1.723a9.617,9.617,0,0,0-2.97-.742v2.081l.729.107c2.28.33,3.235,1.125,3.235,2.651C697.85,379.41,696.445,380.472,693.886,380.671Zm-1.566-5.993.107.013v-1.9c-1.114.067-1.723.412-1.723.982,0,.493.409.737,1.616.9Zm1.95,2.241-.384-.053v1.962c1.112-.106,1.723-.451,1.723-1.021,0-.491-.371-.742-1.339-.888Z" fill="#fff"/>
      </g>
    </g>
    <g id="Group_2861" data-name="Group 2861">
      <g id="Group_1956" data-name="Group 1956">
        <g id="Ellipse_134-2" data-name="Ellipse 134-2">
          <path id="Path_3534" data-name="Path 3534" d="M708.827,360.469a11.044,11.044,0,0,0-7.765-3.221h-.017a10.978,10.978,0,0,0-9.644,5.737,13.036,13.036,0,0,1,1.59-.108c.284,0,.564.025.844.043a8.945,8.945,0,0,1,7.21-3.672h.015a8.977,8.977,0,0,1,4.923,16.486,13.035,13.035,0,0,1-.2,2.406,10.869,10.869,0,0,0,3.045-2.115A11,11,0,0,0,708.827,360.469Z" fill="#fff"/>
          <path id="Path_3534-2" data-name="Path 3534" d="M692.991,386.878a11,11,0,0,1,0-22h.017a11,11,0,0,1-.013,22Zm0-20a8.988,8.988,0,1,0,.015,0Z" fill="#fff"/>
        </g>
      </g>
    </g>
    <g id="Group_2862-2" data-name="Group 2862">
      <g id="Group_2867-2" data-name="Group 2867">
        <path id="Path_3535-2" data-name="Path 3535" d="M693.886,380.671v1.207h-1.459V380.7a11.99,11.99,0,0,1-4.3-.954l.729-1.83a9.581,9.581,0,0,0,3.568.928v-2.188l-.583-.079c-2.374-.332-3.356-1.127-3.356-2.665,0-1.657,1.5-2.785,3.939-2.958v-1.073h1.459v1.073a10.11,10.11,0,0,1,3.7.877l-.729,1.723a9.617,9.617,0,0,0-2.97-.742v2.081l.729.107c2.28.33,3.235,1.125,3.235,2.651C697.85,379.41,696.445,380.472,693.886,380.671Zm-1.566-5.993.107.013v-1.9c-1.114.067-1.723.412-1.723.982,0,.493.409.737,1.616.9Zm1.95,2.241-.384-.053v1.962c1.112-.106,1.723-.451,1.723-1.021,0-.491-.371-.742-1.339-.888Z" fill="#fff"/>
      </g>
    </g>
    <g id="Group_2861-2" data-name="Group 2861">
      <g id="Group_1956-2" data-name="Group 1956">
        <g id="Ellipse_134-2-2" data-name="Ellipse 134-2">
          <path id="Path_3534-3" data-name="Path 3534" d="M708.827,360.469a11.044,11.044,0,0,0-7.765-3.221h-.017a10.978,10.978,0,0,0-9.644,5.737,13.036,13.036,0,0,1,1.59-.108c.284,0,.564.025.844.043a8.945,8.945,0,0,1,7.21-3.672h.015a8.977,8.977,0,0,1,4.923,16.486,13.035,13.035,0,0,1-.2,2.406,10.869,10.869,0,0,0,3.045-2.115A11,11,0,0,0,708.827,360.469Z" fill="#fff"/>
          <path id="Path_3534-4" data-name="Path 3534" d="M692.991,386.878a11,11,0,0,1,0-22h.017a11,11,0,0,1-.013,22Zm0-20a8.988,8.988,0,1,0,.015,0Z" fill="#fff"/>
        </g>
      </g>
    </g>
  </g>
</svg>
