<svg xmlns="http://www.w3.org/2000/svg" width="33.8" height="28.6" viewBox="0 0 33.8 28.6">
  <g id="Group_5245" data-name="Group 5245" transform="translate(-24 -2589)">
    <g id="Group_1958" data-name="Group 1958" transform="translate(-141.743 2135.622)">
      <g id="Group_1955" data-name="Group 1955">
        <path id="Rectangle_360" data-name="Rectangle 360" d="M175.944,481.978h-2l-1-4h4Z" fill="#fff"/>
        <path id="Rectangle_360-2" data-name="Rectangle 360" d="M176.944,467.578h-4l1-4h2Z" fill="#fff"/>
        <path id="Rectangle_360-3" data-name="Rectangle 360" d="M165.744,473.778v-2l4-1v4Z" fill="#fff"/>
        <path id="Rectangle_360-4" data-name="Rectangle 360" d="M180.144,474.778v-4l4,1v2Z" fill="#fff"/>
        <path id="Rectangle_360-5" data-name="Rectangle 360" d="M167.731,466.979l1.414-1.414,3.536,2.121-2.829,2.829Z" fill="#fff"/>
        <path id="Rectangle_360-6" data-name="Rectangle 360" d="M177.206,477.869l2.829-2.829,2.121,3.536-1.414,1.414Z" fill="#fff"/>
        <path id="Rectangle_360-7" data-name="Rectangle 360" d="M180.742,465.565l1.414,1.414-2.121,3.536-2.829-2.829Z" fill="#fff"/>
        <path id="Rectangle_360-8" data-name="Rectangle 360" d="M169.852,475.04l2.829,2.829-3.536,2.121-1.414-1.414Z" fill="#fff"/>
        <path id="Ellipse_134" data-name="Ellipse 134" d="M174.944,467.578a5.2,5.2,0,1,1-3.677,1.523,5.16,5.16,0,0,1,3.677-1.523m0-2a7.2,7.2,0,1,0,5.091,2.108,7.178,7.178,0,0,0-5.091-2.108Z" fill="#fff"/>
        <path id="Path_2066" data-name="Path 2066" d="M174.944,471.448a1.331,1.331,0,1,1-.941.389,1.324,1.324,0,0,1,.941-.389m0-2a3.329,3.329,0,1,0,2.355.974,3.325,3.325,0,0,0-2.355-.974Z" fill="#fff"/>
      </g>
      <g id="Group_1956" data-name="Group 1956" transform="translate(1 -1)">
        <path id="Rectangle_360-9" data-name="Rectangle 360" d="M190.344,472.778h-2l-1-4h4Z" fill="#fff"/>
        <path id="Rectangle_360-10" data-name="Rectangle 360" d="M191.344,458.378h-4l1-4h2Z" fill="#fff"/>
        <path id="Rectangle_360-11" data-name="Rectangle 360" d="M180.144,464.578v-2l4-1v4Z" fill="#fff"/>
        <path id="Rectangle_360-12" data-name="Rectangle 360" d="M194.544,465.578v-4l4,1v2Z" fill="#fff"/>
        <path id="Rectangle_360-13" data-name="Rectangle 360" d="M182.131,457.779l1.414-1.414,3.536,2.121-2.829,2.829Z" fill="#fff"/>
        <path id="Rectangle_360-14" data-name="Rectangle 360" d="M191.606,468.669l2.829-2.829,2.121,3.536-1.414,1.414Z" fill="#fff"/>
        <path id="Rectangle_360-15" data-name="Rectangle 360" d="M195.142,456.365l1.414,1.414-2.121,3.536-2.829-2.829Z" fill="#fff"/>
        <path id="Rectangle_360-16" data-name="Rectangle 360" d="M184.252,465.84l2.829,2.829-3.536,2.121-1.414-1.414Z" fill="#fff"/>
        <path id="Ellipse_134-2" data-name="Ellipse 134" d="M189.344,458.378a5.2,5.2,0,1,1-3.677,1.523,5.162,5.162,0,0,1,3.677-1.523m0-2a7.2,7.2,0,1,0,5.091,2.108,7.178,7.178,0,0,0-5.091-2.108Z" fill="#fff"/>
        <path id="Path_2067" data-name="Path 2067" d="M189.344,462.248a1.331,1.331,0,1,1-.941.389,1.324,1.324,0,0,1,.941-.389m0-2a3.329,3.329,0,1,0,2.355.974,3.325,3.325,0,0,0-2.355-.974Z" fill="#fff"/>
      </g>
    </g>
    <g id="Group_1960" data-name="Group 1960">
      <rect id="Rectangle_436" data-name="Rectangle 436" width="2" height="3.999" transform="translate(37.121 2595.707) rotate(135)" fill="#fff"/>
      <rect id="Rectangle_437" data-name="Rectangle 437" width="2" height="3.999" transform="translate(35.121 2593.707) rotate(135)" fill="#fff"/>
    </g>
    <g id="Group_1961" data-name="Group 1961" transform="translate(13 18)">
      <rect id="Rectangle_436-2" data-name="Rectangle 436" width="2" height="3.999" transform="translate(37.121 2595.707) rotate(135)" fill="#fff"/>
      <rect id="Rectangle_437-2" data-name="Rectangle 437" width="2" height="3.999" transform="translate(35.121 2593.707) rotate(135)" fill="#fff"/>
    </g>
  </g>
</svg>
