<svg xmlns="http://www.w3.org/2000/svg" width="20.013" height="20.426"><g id="Group_4500" data-name="Group 4500" transform="translate(-2289.369 -673.797)" fill="#fff"><path id="Path_4964" data-name="Path 4964" d="M2298.5 673.8v11.52h3.384V673.8zm1.692 9.84a.815.815 0 11.814-.817.821.821 0 01-.814.812zm0-3.262a.815.815 0 11.814-.815.815.815 0 01-.814.81zm0-3.26a.82.82 0 11.814-.826v.006a.82.82 0 01-.814.816z" transform="translate(-.812)"/><path id="Path_4965" data-name="Path 4965" d="M2302.528 681.019v5.12l3.417 3.879h1.745v1.462h-16.632v-1.462h1.747l3.419-3.879v-5.118l-6.854 7.778v6.065h20.013V688.8z" transform="translate(0 -.642)"/></g></svg>