<svg xmlns="http://www.w3.org/2000/svg" width="29" height="31.194"><defs><clipPath id="clip-path"><path fill="none" d="M0 0h29v31.194H0z"/></clipPath></defs><g id="Repeat_Grid_1" data-name="Repeat Grid 1" clip-path="url(#clip-path)"><g id="Group_2959" data-name="Group 2959" transform="translate(-682.491 -356.465)"><g id="Group_2898" data-name="Group 2898" transform="translate(-631.51 148.66)"><g id="Group_2799" data-name="Group 2799" transform="translate(1115.354 72.582)"><g id="Group_1045" data-name="Group 1045" transform="translate(201.174 144.184)"><circle id="Ellipse_98" data-name="Ellipse 98" cx="3.865" cy="3.865" r="3.865"/></g><path id="Path_1794" data-name="Path 1794" d="M206.585 155.965h-3.092l-4.846 5.5v3.312h12.784v-3.312z" transform="translate(0 -2.674)"/></g><g id="Group_2800" data-name="Group 2800" transform="translate(1128.138 63.621)"><g id="Group_1045-2" data-name="Group 1045" transform="translate(201.174 144.184)"><circle id="Ellipse_98-2" data-name="Ellipse 98" cx="3.865" cy="3.865" r="3.865"/></g><path id="Path_1794-2" data-name="Path 1794" d="M206.585 155.965h-3.092l-4.846 5.5v3.312h12.784v-3.312z" transform="translate(0 -2.674)"/></g><g id="Group_1408-2" data-name="Group 1408-2" transform="translate(15.909 -560.506)"><g id="Group_2802" data-name="Group 2802" transform="translate(-57 -10)"><g id="Group_1056-2" data-name="Group 1056-2" transform="translate(0 -6.008)"><path id="Rectangle_274-2" data-name="Rectangle 274-2" transform="translate(1378.091 805.513)" d="M0 0h2v10H0z"/></g><g id="Group_1056-2-2" data-name="Group 1056-2" transform="rotate(90 1382.094 807.51)"><path id="Rectangle_274-2-2" data-name="Rectangle 274-2" transform="translate(1378.091 805.513)" d="M0 0h2v10H0z"/></g></g></g></g></g></g></svg>