<svg xmlns="http://www.w3.org/2000/svg" width="22.011" height="29.592"><g id="Group_2893" data-name="Group 2893" transform="translate(-694.627 -379.799)"><path id="Path_3537" data-name="Path 3537" d="M714.91 379.8l-2.25 2-2.25 2h4.5z" fill="#fff"/><path id="Path_3538" data-name="Path 3538" d="M696.91 379.8l2.25 2 2.25 2h-4.5z" fill="#fff"/><g id="Group_2892" data-name="Group 2892"><g id="Group_2862" data-name="Group 2862" transform="translate(0 -2)"><g id="Group_2867" data-name="Group 2867"><path id="Path_3535" data-name="Path 3535" d="M706.522 405.184v1.207h-1.459v-1.178a11.991 11.991 0 01-4.3-.954l.729-1.83a9.58 9.58 0 003.568.928v-2.188l-.583-.079c-2.374-.332-3.356-1.127-3.356-2.665 0-1.657 1.5-2.785 3.939-2.958v-1.073h1.459v1.073a10.111 10.111 0 013.7.877l-.729 1.723a9.622 9.622 0 00-2.97-.742v2.081l.729.107c2.28.33 3.235 1.125 3.235 2.651.002 1.759-1.403 2.821-3.962 3.02zm-1.566-5.993l.107.013v-1.9c-1.114.067-1.723.412-1.723.982 0 .493.409.737 1.616.9zm1.95 2.241l-.384-.053v1.962c1.112-.106 1.723-.451 1.723-1.021 0-.491-.371-.742-1.339-.888z" fill="#fff"/></g></g><g id="Group_2861" data-name="Group 2861" transform="translate(0 -2)"><g id="Group_1956" data-name="Group 1956"><g id="Ellipse_134-2" data-name="Ellipse 134-2"><path id="Path_3534" data-name="Path 3534" d="M705.627 411.391a11 11 0 010-22h.017a11 11 0 11-.013 22zm0-20a8.988 8.988 0 10.015 0z" fill="#fff"/></g></g></g><g id="Group_2891" data-name="Group 2891"><g id="Group_2890" data-name="Group 2890"><g id="Group_2889" data-name="Group 2889"><path id="Path_3539" data-name="Path 3539" d="M705.91 379.8l-2.25 2-2.25 2h9l-2.25-2z" fill="#fff"/></g></g><path id="Rectangle_517" data-name="Rectangle 517" transform="translate(696.915 383.799)" fill="#fff" d="M0 0h17.986v2H0z"/></g></g></g></svg>