<svg xmlns="http://www.w3.org/2000/svg" width="26.726" height="28.431"><g id="Group_2803" data-name="Group 2803" transform="translate(-597.999 -330.34)"><path id="Path_3501" data-name="Path 3501" d="M609.516 343.535h2.534v-13.2H598v16.08h11.517zM600 333.572h10v2h-10zm6 9.985h-6v-2h6zm-6-4v-2h8v2z" fill="#fff"/><g id="Group_1958" data-name="Group 1958"><g id="Group_1956" data-name="Group 1956" fill="#fff"><path id="Rectangle_360-9" data-name="Rectangle 360-9" d="M606.325 350.571v-2l4-1v4z"/><path id="Rectangle_360-10" data-name="Rectangle 360-10" d="M620.725 351.571v-4l4 1v2z"/><path id="Rectangle_360-11" data-name="Rectangle 360-11" d="M614.525 340.371h2l1 4h-4z"/><path id="Rectangle_360-12" data-name="Rectangle 360-12" d="M613.525 354.771h4l-1 4h-2z"/><path id="Rectangle_360-13" data-name="Rectangle 360-13" d="M621.324 342.358l1.414 1.414-2.121 3.536-2.829-2.829z"/><path id="Rectangle_360-14" data-name="Rectangle 360-14" d="M610.434 351.833l2.829 2.829-3.536 2.121-1.414-1.414z"/><path id="Rectangle_360-15" data-name="Rectangle 360-15" d="M622.738 355.369l-1.414 1.414-3.536-2.121 2.829-2.829z"/><path id="Ellipse_134-2" data-name="Ellipse 134-2" d="M620.725 349.571a5.2 5.2 0 11-1.523-3.677 5.2 5.2 0 011.523 3.677m2 0a7.2 7.2 0 10-2.108 5.091 7.2 7.2 0 002.108-5.091z"/><path id="Path_2067" data-name="Path 2067" d="M616.855 349.571a1.33 1.33 0 11-.389-.941 1.332 1.332 0 01.389.941m2 0a3.329 3.329 0 10-.974 2.355 3.33 3.33 0 00.974-2.355z"/></g></g></g></svg>