<svg xmlns="http://www.w3.org/2000/svg" width="198.786" height="32.008"><g id="Group_4781" data-name="Group 4781" transform="translate(-540.643 -392.234)"><g id="Group_3867" data-name="Group 3867" transform="translate(575.054 398.443)"><g id="Group_3866" data-name="Group 3866" fill="#fff"><path id="Path_3925" data-name="Path 3925" d="M573.8 395.4l.567 1.475-5.458 12.851-6.049-14.326h-3.972l3.7 8.745-2.378 5.581-6.051-14.326h-3.972l8.267 19.53h2.646l3-7.163 3.052 7.163h2.648l8.268-19.53z" transform="translate(-550.188 -395.4)"/><path id="Path_3926" data-name="Path 3926" d="M567.719 396.876l-.891-1.475h4.539v19.53h-3.648z" transform="translate(-534.19 -395.4)"/><path id="Path_3927" data-name="Path 3927" d="M573.579 397.117l-1.243-1.717h4.484l10.159 13.789v-12.313l-.865-1.476h3.729v19.53h-3.189l-10.213-13.843v13.843h-2.863z" transform="translate(-528.895 -395.399)"/><path id="Path_3928" data-name="Path 3928" d="M592.823 412.275a10.954 10.954 0 001.62-.122 3.35 3.35 0 001.379-.494 6.185 6.185 0 002.244-2.563 7.858 7.858 0 00.783-3.446 7.584 7.584 0 00-.582-2.952 7.292 7.292 0 00-1.606-2.414 7.763 7.763 0 00-2.432-1.624 7.581 7.581 0 00-3.027-.6h-2.026v14.218zm-7.294-15.4l-.893-1.477h8.377a9.76 9.76 0 013.768.724 9.335 9.335 0 013.026 2 9.579 9.579 0 012.026 2.964 9.172 9.172 0 01.4 6.09 9.457 9.457 0 01-.943 2.214 9.073 9.073 0 01-1.473 1.877 9.838 9.838 0 01-1.918 1.461l-1.648.939a9.557 9.557 0 01-2.251.933 9.761 9.761 0 01-2.579.335h-5.89z" transform="translate(-517.071 -395.4)"/><path id="Path_3929" data-name="Path 3929" d="M596.914 396.876l-.892-1.475h13.158l-1.027 2.656h-7.593v5.443h8.348l-1.026 2.655h-7.322v6.117h8.889l-1.026 2.657h-11.51z" transform="translate(-506.125 -395.4)"/><path id="Path_3930" data-name="Path 3930" d="M613.557 404.791a1.973 1.973 0 001.026-.241 3.411 3.411 0 00.865-1.114 3.881 3.881 0 00.379-1.461 3.917 3.917 0 00-2.35-3.636 3.8 3.8 0 00-1.542-.308h-1.944v6.761zm-7.214-7.914l-.892-1.477h8.269a6.062 6.062 0 012.283.431 5.574 5.574 0 011.836 1.179 5.516 5.516 0 011.216 1.771 5.385 5.385 0 01.445 2.173 5.46 5.46 0 01-.716 2.775 5.547 5.547 0 01-1.93 2l-.569.349a2.456 2.456 0 01-1.3.4l6.4 8.451h-4.539l-5.566-7.726h-1.3v7.726h-3.648z" transform="translate(-497.061 -395.4)"/><path id="Path_3931" data-name="Path 3931" d="M616.633 396.876l-.892-1.475H628.9l-1.027 2.656h-7.592v5.443h8.348l-1.026 2.655h-7.322v6.117h8.888l-1.026 2.657h-11.51z" transform="translate(-487.168 -395.4)"/><path id="Path_3932" data-name="Path 3932" d="M638.847 395.4l.865 1.475v12.315l-10.159-13.79h-4.484l1.242 1.717v17.813h2.864v-13.842l10.213 13.843h3.188V395.4z" transform="translate(-478.201 -395.4)"/></g></g><g id="Group_3868" data-name="Group 3868" transform="translate(540.643 392.234)" fill="#fff"><path id="Path_3933" data-name="Path 3933" d="M532.643 392.234l.821 3.336h21.046l.821-3.336z" transform="translate(-532.643 -392.234)"/><path id="Path_3934" data-name="Path 3934" d="M553.325 396.759l.821-1.359h-4.179v13.206l-4.667 5.41v-17.257l.821-1.359h-5l.821 1.359v17.257l-4.667-5.41V395.4H533.1l.82 1.359v13.134l9.7 11.8 9.7-11.8z" transform="translate(-532.277 -389.682)"/></g></g></svg>