<svg viewBox="0 0 512 512" xmlns="http://www.w3.org/2000/svg"><g fill-rule="evenodd" stroke-width="1pt"><path d="M256 0h256v512H256z" fill="#ce0000"/><path d="M0 0h256v512H0z" fill="#fff"/></g><path d="M104.794 108.106c0 .806-.91 1.47-2.03 1.47-1.155 0-2.065-.7-2.065-1.47 0-.805.91-1.47 2.03-1.47s2.1.665 2.1 1.47z" fill="#f1eeee" fill-rule="evenodd"/><path d="M40.7 101v37.209h37.245a13.337 13.336 0 0012.392 12.426v37.208h37.21v-37.208a13.337 13.336 0 0012.392-12.426h37.21v-37.208h-37.21a13.337 13.336 0 00-12.392-12.391V51.402h-37.21V88.61A13.337 13.336 0 0077.945 101z" fill="#c00" fill-rule="evenodd"/><path d="M41.96 102.261v34.723h37.21a13.337 13.336 0 0012.392 12.391v37.243h34.725v-37.243a13.337 13.336 0 0012.427-12.391h37.21V102.26h-37.21a13.337 13.336 0 00-12.427-12.426V52.627H91.562v37.208a13.337 13.336 0 00-12.356 12.426z" fill="#ffe600" fill-rule="evenodd"/><path d="M43.15 103.486v32.238h37.21a13.337 13.336 0 0012.427 12.426v37.208h32.24v-37.243a13.337 13.336 0 0012.392-12.426h37.21v-32.203h-37.21a13.337 13.336 0 00-12.357-12.426V53.887h-32.24V91.06a13.337 13.336 0 00-12.426 12.391H43.15z" fill="#707070" fill-rule="evenodd"/><path d="M44.41 104.711v29.753h37.21a13.337 13.336 0 0012.393 12.426v37.208h29.754V146.89a13.337 13.336 0 0012.427-12.391h37.175v-29.753h-37.175a13.337 13.336 0 00-12.392-12.426V55.112H94.048V92.32a13.337 13.336 0 00-12.427 12.391z" fill="#a0a0a0" fill-rule="evenodd"/><g fill-rule="evenodd"><path d="M94.328 89.24c2.205 2.205.42 7.49-3.92 11.866s-9.662 6.125-11.868 3.92c-2.17-2.17-.385-7.455 3.956-11.83s9.661-6.126 11.832-3.956z" fill="#d0d0d0"/><path d="M91.702 91.865c2.206 2.205 1.61 6.3-1.295 9.206s-7.036 3.5-9.206 1.33c-2.206-2.17-1.61-6.3 1.295-9.206s7.036-3.5 9.206-1.33z" fill="gray"/><path d="M80.746 98.446l.875-.875 3.5 1.75-1.75-3.5.875-.876 3.5 7zm5.25-5.25l.876-.876 5.25 5.25-.84.876z" fill="#d0d0d0"/></g><g fill-rule="evenodd"><path d="M139.274 105.061c-2.17 2.17-7.491.385-11.832-3.955s-6.125-9.661-3.955-11.866c2.205-2.17 7.49-.385 11.832 3.955s6.125 9.661 3.955 11.831z" fill="#d0d0d0"/><path d="M136.649 102.401c-2.17 2.17-6.301 1.61-9.207-1.295s-3.5-7.036-1.33-9.206 6.301-1.61 9.207 1.295 3.5 7 1.33 9.206z" fill="gray"/><path d="M130.068 91.41l.875.91-1.75 3.5 3.5-1.75.875.875-7 3.5 3.5-7zm5.25 5.285l.876.876-5.251 5.25-.875-.84z" fill="#d0d0d0"/></g><g fill-rule="evenodd"><path d="M123.487 149.97c-2.17-2.17-.385-7.49 3.955-11.831s9.662-6.126 11.832-3.955.42 7.49-3.955 11.83-9.627 6.126-11.832 3.956z" fill="#d0d0d0"/><path d="M126.112 147.345c-2.17-2.17-1.575-6.3 1.33-9.206s7.001-3.5 9.207-1.33c2.17 2.205 1.575 6.3-1.33 9.206s-7.001 3.5-9.207 1.33z" fill="gray"/><path d="M137.104 140.764l-.875.875-3.5-1.75 1.75 3.5-.91.876-3.501-7.001 7 3.5zm-5.251 5.25l-.91.876-5.25-5.25.874-.876z" fill="#d0d0d0"/></g><g fill-rule="evenodd"><path d="M78.575 134.184c2.17-2.17 7.456-.42 11.832 3.955s6.126 9.66 3.956 11.831c-2.206 2.17-7.491.42-11.867-3.955s-6.126-9.661-3.92-11.831z" fill="#d0d0d0"/><path d="M81.2 136.809c2.171-2.17 6.302-1.575 9.207 1.33s3.5 7 1.295 9.206c-2.17 2.17-6.3 1.575-9.206-1.33s-3.5-7-1.295-9.206z" fill="gray"/><path d="M87.747 147.765l-.875-.875 1.75-3.5-3.5 1.75-.876-.875 7.001-3.5zm-5.251-5.25l-.875-.876 5.25-5.25.876.875z" fill="#d0d0d0"/></g><path d="M269.3 414.6c0 41-34.1 74.4-76.2 74.4S117 455.7 117 414.6s34.1-74.4 76.2-74.4 76.2 33.3 76.2 74.4z" fill="none" stroke="#707070" stroke-width="1pt" transform="matrix(.3419 0 0 .35003 42.905 -25.5)"/><path d="M269.3 414.6c0 41-34.1 74.4-76.2 74.4S117 455.7 117 414.6s34.1-74.4 76.2-74.4 76.2 33.3 76.2 74.4z" fill="none" stroke="#707070" stroke-width="1pt" transform="matrix(.2605 0 0 .26669 58.623 9.048)"/><g fill-rule="evenodd" transform="matrix(.35005 0 0 .35003 40.7 -25.5)"><path d="M170 474.8a3.5 3.5 0 11-7 0 3.5 3.5 0 017 0zm56.8 0a3.5 3.5 0 11-7.1 0 3.5 3.5 0 017 0zm-34.3 0v3.7h-4.7c-4.7 0-4.7 3.7 0 3.7h4.7v3.7c0 3.8 4.2 4.3 4.5.3l.3-4h4.7c4.7 0 4.7-3.7 0-3.7h-4.7v-3.7c0-3.7-4.8-3.7-4.8 0z" fill="#d0d0d0"/><path d="M180.7 163v7s-3.3 5.5-24.8 7.2-24.8 0-24.8 0c.6 6.1 4.7 17.9 3.5 31.9.9 16.2-4 31-4 31 .5.8-2 1.3-6.6.8 3.6-3.5 3.1-13.8 3.6-28.3.4-14.6-13.6-36.5-10.7-42.5s63.8-7.1 63.8-7.1z" fill="#d0d0d0" stroke="#707070" stroke-width="1pt" transform="matrix(.33032 0 0 .29556 117.6 374.3)"/><path d="M272.8 162.3c20.9-1.1 55.9-.9 55.9-.9s8.3 18.5 7.9 28.7-3.2 19-7 14.6 1.7-3.5 2.4-14.6c.7-11-6.6-22.4-6.6-22.4s-15 7.3-37.5 5.8-12.5-10.8-15-11.2z" fill="#d0d0d0" stroke="#707070" stroke-width="1pt" transform="matrix(.33032 0 0 .29556 115.2 366.9)"/><path d="M312.2 274c20.9-1.2 34.6 2.4 34.6 2.4s8.2 18.5 7.9 28.7-3.2 19-7.1 14.6 1.8-3.5 2.5-14.6c.7-11-6.7-22.5-6.7-22.5s-15 7.3-37.4 5.9c-22.5-1.5-16.1-3-18.6-3.4s-3.2 7-37.2 8-51.4-8-51.4-8-3.4 5.4-24.8 7-24.8 0-24.8 0c.5 6.2 4.7 18 3.5 32 .8 16.2-4 31-4 31 .5.8-2.1 1.3-6.6.8 3.5-3.5 3.1-13.8 3.5-28.3C146 313 132.1 291 135 285s18.3-.4 21.3-3.6c2.9-3.1-13.8-25.3-10.7-46 3.2-20.8 20.8-15 42.6-14.2 21.7.7 69.8 7 81.5 0 11.6-7 6.5-33 17.6-49.6a32.2 32.2 0 0128.4-14.2c7 0 17.7 28.4 17.7 35.4l-3.5 3.6h-3.6v3.5c-8 1-9.2-7.7-14.1-14.1-2.2 10 7 42.5 7 63.7 0 17.8-6.6 25.6-7 24.3z" fill="#d0d0d0" stroke="#707070" stroke-width="1pt" transform="matrix(.33032 0 0 .29556 104.6 339.3)"/><path d="M209 131.1c.4 7-27.3 22.9-29.6 29.2s7 9.7 4.2 13.3c-2.9 3.6-5.2 2.2-5.8 2.9s-10.4-24.6-10.4-24.6 26-13 25-18.7-19.2-9-22.6-23.3c-3.3-14.2-1.4-41.7-4.1-47.5C163 56.7 131 51.2 131 42.5s33-32.5 36.4-36c3.5-3.6 7 3.5 3.5 7-3.5 3.6-29.2 25.5-29.2 29 0 3.6 21.3 7.1 28.4 7.1 7 0 10.6-3.5 10.6-7 0-3.1-7-3.6-7-10.7s3.5-10.6 10.6-10.6c3.5 0 10.3 4.5 10.6 10.6.3 6-6.3 6.6-7.1 10.6s7 7.1 14.2 7.1c7 0 31.3 20.6 34.8 24.2 3.5 3.5 7 3.5 3.5 7-3.5 3.6-1.4 7.8-5 4.2-3-3.4-3.5-7-3.5-7-.3-3.3-26.3-17.8-29.8-14.2-3.6 3.5 0 46 0 49.6 0 7 7.3 7 7 17.7z" fill="#d0d0d0" stroke="#707070" stroke-width="1pt" transform="matrix(.33032 0 0 .29556 116.1 372.4)"/><path d="M170.2 386.9h14v14.7h-14z" fill="#a7a7a7"/><rect fill="gray" height="1.1" rx="1.3" ry=".6" transform="matrix(.5544 .83225 -.88236 .47057 0 0)" width="87.5" x="405.6" y="64.6"/><path d="M180.7 42.5a7 7 0 11-14.2 0 7 7 0 0114.2 0z" fill="#d0d0d0" stroke="#707070" stroke-width="1pt" transform="matrix(.33032 0 0 .29556 114 362.8)"/><path d="M214.7 394.4c0 1-5.4 2-11.7 2s-11.7-1-11.7-2c0-.8 5.4 1.3 11.7 1.3s11.7-2.1 11.7-1.3z" fill="gray"/><path d="M171.4 401.6h11.7v4.1h-11.7z" fill="#a7a7a7"/><path d="M209.4 391.2c-1 2.2-2.2 3.7-2.4 3.4-.2-.2.6-2.2 1.7-4.3 1.2-2.1 2.3-3.6 2.4-3.4.2.3-.5 2.2-1.7 4.3zm3 5.5c-1.3 1.2-2.3 2-2.4 1.7 0-.2 1-1.3 2.3-2.5 1.3-1.1 2.4-1.9 2.4-1.6 0 .2-1 1.3-2.3 2.4z" fill="gray"/><path d="M211 394c.9 1.8 1.5 3.3 1.3 3.4-.1 0-1-1.3-2-3-1-1.8-1.6-3.2-1.4-3.3.2 0 1 1.3 2 3zm-1 9.1c0 .3-3.6.5-8.2.5s-8.2-.2-8.2-.5 3.7-.5 8.2-.5c4.6 0 8.2.2 8.2.5zm-26.9-1c0 .3-2.6.5-5.8.5-3.3 0-5.9-.2-5.9-.5s2.6-.5 5.8-.5 6 .2 6 .5z" fill="gray"/><path d="M375.5 172s9 36 47 36.5 51.3-10.8 35.8-30-44-13.1-40.3 3.4-10.8 22-14.2 10.4-17-46 7.5-48.3 76.5-14.8 89.5 9.2S486 198.9 507 204c21 5 24-5.8 60-9.1s49.7 11 62 9 10.6-37.2.8-46.1c-9.7-9-28.5-10.6-33.3-20.4s-17.8-1.9-16.6-13 18.5 7.7 18.7 2c0-.2 2.9-3.9 3.5-4.9-2.2-.8-3.5.6-5.1 2 1.8-2.4 1.7-3.5 2.3-5.4-.3-.7-2.5 2.8-2.9 2s2.5-5.6 1.2-3.8c-.4.5-3.8 3.3-3.9 1.4 0-.8 1.8-2.8 1.2-4-.5-.9-3 1.1-3.4 1.3 1.5-3.3 1.4-3.2 0-5.7-1.3-2.4-2.2-2.4-4.3.4.9-4 1.1-4.8-1-6.3-1.6-1.6-1.7-3-3.8 4.1.8-7.6-1.3-8-.4-11.5.5-3.3 3.3-4.7 7.9-4 9 .1 13.7 18 16.6 17.9 3 0 6.2-18.9 18.8-11.3 12.5 7.7 14 9.2 20.4 13.8 6.3 4.5-4.5 11.4-.9 20.4s28.3 38.8 21.3 70c-7 31-25 36-26.7 49.5-1.6 13.4 57 8 72 12.5s24.4 23 25 26.2-26.2 2.9-26.2 2.9-13.8-11.8-46.6-13c-32.9-1-45.4-23-57.7-25.8s-38.5 4.7-53.1 3.6c-14.7-1.1-29.5-5-39-7.1-9.5-2.2-56.7 35.4-56.5 44.2-9.9-.7-33-2.7-32.1-1.7 1 1 4.2-17 22.2-20.2s35.7-17.6 35-27c-.5-9.5 3.6-42 5-55.8s8.3-20.6 6.7-28c-1.6-7.2-22.2-14.7-42-14.5s-41.8 2-45 10-.7 31 3.4 28.3c4-2.6-1-17.7 3.3-20.8a57.3 57.3 0 0125.8-6.2c10.4-.4 28.5 14.7 28.3 19.5-.2 4.9 5.8 21-2.5 27-8.3 6.2-25.3 9-41.6 7.6a71.4 71.4 0 01-38.7-16.7c-6-6-9.6-24.1-9.6-25.4z" fill="#d0d0d0" stroke="gray" stroke-width="1pt" transform="matrix(.21598 0 0 .12989 76.3 416.2)"/><path d="M209.5 431.6a1 1 0 11-2 0 1 1 0 012 0z"/></g><path d="M129.473 120.813l1.61.35 2.66-1.856-.21.98-1.4.91-.77.49.525.77.875 1.4-.21.91-1.645-2.834-1.61-.35zm-2.696-11.726l3.08-1.436-.84-1.82.42-.175 1.996 4.376-.42.175-.84-1.82-3.08 1.4-.35-.7zm-4.795-5.846l2.835-2.59.56.63-.07 4.375 2.24-2.03.525.56-2.87 2.59-.56-.595.105-4.41-2.24 2.065zm-12.427-5.005l.49-3.85.77.14-.385 3.36 2.975.35-.07.455zm-6.091.56l-.7-3.78.805-.14.595 3.325 2.94-.525.105.455zm-11.307 5.565l-.28-.35 2.03-1.61.876 1.12a5.706 5.705 0 01-.7 1.12 5.6 5.6 0 01-.876.91 5.18 5.18 0 01-1.435.84c-.49.175-.91.21-1.295.14s-.7-.28-.945-.56a1.715 1.715 0 01-.35-1.05 2.205 2.205 0 01.35-1.26 5.006 5.005 0 011.12-1.19 4.796 4.795 0 011.05-.63c.315-.14.595-.245.875-.245s.49.07.736.21l-.49.56a1.295 1.295 0 00-.56-.14c-.176 0-.35.035-.596.14a3.22 3.22 0 00-.735.455c-.28.21-.525.455-.7.7l-.315.595a1.4 1.4 0 00.245 1.295 1.33 1.33 0 00.77.49c.28.07.595.035.945-.105s.7-.35 1.015-.56a4.13 4.13 0 00.7-.735c.21-.28.35-.525.42-.7l-.454-.56zm-.105 27.688l-3.15 2.24-2.38-3.36.35-.246 1.925 2.696.98-.7-1.645-2.346.35-.245 1.68 2.31 1.4-1.015.49.7zm-4.62-5.006a1.26 1.26 0 00.875-.875c.14-.455.14-.945 0-1.54a2.555 2.555 0 00-.805-1.33 1.33 1.33 0 00-1.26-.245 1.365 1.365 0 00-.7.455 1.575 1.575 0 00-.35.875c-.036.35 0 .7.104 1.085a2.8 2.8 0 00.77 1.33c.35.35.806.385 1.366.245zm.21.805c-.63.175-1.19.035-1.68-.35-.49-.455-.84-1.05-1.086-1.89-.14-.56-.21-1.05-.175-1.54s.175-.875.42-1.19a1.645 1.645 0 01.875-.63 1.645 1.645 0 011.12.07 2.275 2.275 0 01.98.84 4.48 4.48 0 01.63 1.365c.14.56.21 1.05.14 1.54a2.31 2.31 0 01-.42 1.19 1.54 1.54 0 01-.804.595zm.315-7.84l-3.85-.07.07-2.696c0-.56.034-.945.104-1.225.105-.28.21-.525.385-.7a.95.95 0 01.595-.21c.28 0 .49.14.7.42s.28.7.316 1.295l.21-.455a3.43 3.43 0 01.525-.7l1.05-1.015v1.05l-.84.77-.525.56c-.14.14-.21.28-.28.42a1.61 1.61 0 00-.105.35v.455l-.035.91 1.68.07v.805zm-2.136-.84l.035-1.75-.035-.84a.98.98 0 00-.245-.49.7.7 0 00-.35-.176c-.175 0-.35.105-.42.35a2.1 2.1 0 00-.21.945l-.035 1.925zm10.712-16.942V97.71l.77-.455 4.096 2.065-.77.455-1.226-.63-2.17 1.295v1.33zm.7-2.275l1.75-1.05-1.085-.595-.77-.455.07.805v1.295zm18.588-1.19l4.165-1.75.7.525-.245 4.55-.77-.525.14-1.365-2.1-1.47-1.19.525zm2.345-.245l1.68 1.225.105-1.26c.035-.35.07-.665.14-.875l-.7.385zm10.327 14.35l3.745-.91.63 2.626c.105.525.175.945.175 1.225a1.4 1.4 0 01-.21.735c-.14.21-.28.35-.49.385-.28.07-.525 0-.77-.245a2.87 2.87 0 01-.665-1.155c0 .21 0 .35-.07.49a3.43 3.43 0 01-.35.77l-.77 1.295-.245-.98.595-.98.385-.7c.105-.175.14-.35.175-.455a1.61 1.61 0 000-.35l-.07-.455-.245-.91-1.645.385-.175-.77zm2.275.28l.385 1.681c.105.35.175.63.28.805.105.21.21.35.35.42.105.07.245.105.35.07a.448.448 0 00.35-.385 2.1 2.1 0 00-.035-1.05l-.455-1.855z" fill="#d0d0d0"/></svg>