<svg xmlns="http://www.w3.org/2000/svg" width="20.013" height="20.426" viewBox="0 0 20.013 20.426">
  <g id="Group_4500" data-name="Group 4500" transform="translate(-2289.369 -673.797)">
    <path id="Path_4964" data-name="Path 4964" d="M2298.5,673.8v11.52h3.384V673.8Zm1.692,9.84a.815.815,0,1,1,.814-.817v0a.821.821,0,0,1-.814.812Zm0-3.262a.815.815,0,1,1,.814-.815v0a.815.815,0,0,1-.814.81Zm0-3.26a.82.82,0,1,1,.814-.826v.006a.82.82,0,0,1-.814.816Z" transform="translate(-0.812)" fill="#fff"/>
    <path id="Path_4965" data-name="Path 4965" d="M2302.528,681.019v5.12l3.417,3.879h1.745v1.462h-16.632v-1.462h1.747l3.419-3.879v-5.118l-6.854,7.778v6.065h20.013V688.8Z" transform="translate(0 -0.642)" fill="#fff"/>
  </g>
</svg>
