<svg xmlns="http://www.w3.org/2000/svg" width="48" height="48" viewBox="0 0 48 48">
  <g id="Group_1605" data-name="Group 1605" transform="translate(-17 -2579)">
    <g id="Group_1592" data-name="Group 1592" transform="translate(-1884 2528)">
      <g id="Group_1048" data-name="Group 1048" transform="translate(22 1)">
        <g id="Group_1149" data-name="Group 1149">
          <g id="Group_1042" data-name="Group 1042" transform="translate(379 -44)">
            <g id="Ellipse_97" data-name="Ellipse 97" transform="translate(1500 94)" fill="none" stroke="#fff" stroke-width="1">
              <circle cx="24" cy="24" r="24" stroke="none"/>
              <circle cx="24" cy="24" r="23.5" fill="none"/>
            </g>
          </g>
        </g>
      </g>
    </g>
    <g id="Group_1600" data-name="Group 1600" transform="translate(5434 18227)">
      <g id="Group_1593" data-name="Group 1593" transform="translate(54 25)">
        <g id="Group_1598" data-name="Group 1598">
          <circle id="Ellipse_134" data-name="Ellipse 134" cx="9" cy="9" r="9" transform="translate(-5456 -15658)" fill="#fff"/>
          <rect id="Rectangle_359" data-name="Rectangle 359" width="8" height="8" transform="translate(-5451 -15643)" fill="#fff"/>
        </g>
        <rect id="Rectangle_360" data-name="Rectangle 360" width="2" height="4" transform="translate(-5448 -15664)" fill="#fff"/>
        <rect id="Rectangle_363" data-name="Rectangle 363" width="2" height="4" transform="translate(-5458.121 -15658.707) rotate(-45)" fill="#fff"/>
        <rect id="Rectangle_366" data-name="Rectangle 366" width="2" height="4" transform="translate(-5455.293 -15642.122) rotate(45)" fill="#fff"/>
        <rect id="Rectangle_364" data-name="Rectangle 364" width="2" height="4" transform="translate(-5438.707 -15655.879) rotate(-135)" fill="#fff"/>
        <rect id="Rectangle_365" data-name="Rectangle 365" width="2" height="3.999" transform="translate(-5435.878 -15639.293) rotate(135)" fill="#fff"/>
        <g id="Group_1599" data-name="Group 1599">
          <rect id="Rectangle_361" data-name="Rectangle 361" width="2" height="4" transform="translate(-5432 -15650) rotate(90)" fill="#fff"/>
          <rect id="Rectangle_362" data-name="Rectangle 362" width="2" height="4" transform="translate(-5458 -15650) rotate(90)" fill="#fff"/>
        </g>
      </g>
      <rect id="Rectangle_372" data-name="Rectangle 372" width="2" height="8" transform="translate(-5389 -15614) rotate(90)" fill="#1e1e1e"/>
    </g>
  </g>
</svg>
