<?xml version="1.0" encoding="UTF-8"?>
<svg id="Warstwa_1" data-name="Warstwa 1" xmlns="http://www.w3.org/2000/svg" viewBox="0 0 25 25">
  <defs>
    <style>
      .cls-1 {
        fill: #fff;
      }
    </style>
  </defs>
  <path class="cls-1" d="M23.3,4.09c-3.52-.92-7.2-1.32-10.8-1.32s-7.28,.4-10.8,1.32C.89,6.82,.49,9.65,.5,12.49c0,0,0,0,0,.01-.01,2.84,.39,5.67,1.2,8.4,3.52,.92,7.2,1.32,10.8,1.32s7.28-.4,10.8-1.32c.81-2.73,1.21-5.56,1.2-8.4,0,0,0,0,0-.01,.01-2.84-.39-5.67-1.2-8.4Zm-13.4,12.57V8.34l7.2,4.16-7.2,4.16Z"/>
</svg>