<svg xmlns="http://www.w3.org/2000/svg" width="103.922" height="119.998" viewBox="0 0 103.922 119.998">
  <g id="Group_2314" data-name="Group 2314" transform="translate(-405 -3910.501)">
    <g id="Group_2313" data-name="Group 2313" transform="translate(405 3910.5)">
      <g id="Group_2042" data-name="Group 2042" transform="translate(0 0.001)">
        <g id="Union_16" data-name="Union 16" transform="translate(0)" fill="none">
          <path d="M0,90V30L51.961,0l51.961,30V90L51.961,120Z" stroke="none"/>
          <path d="M 51.96112823486328 118.8435363769531 L 102.9222946166992 89.42131042480469 L 102.9223251342773 30.5769157409668 L 51.96117782592773 1.154712319374084 L 1.000028967857361 30.57695007324219 L 0.9999962449073792 89.42134857177734 L 51.96112823486328 118.8435363769531 M 51.96112823486328 119.9982376098633 L -4.099527814105386e-06 89.99870300292969 L 2.923380452557467e-05 29.99958992004395 L 51.96117782592773 5.952962055744138e-06 L 103.9223327636719 29.99955558776855 L 103.9222946166992 89.99867248535156 L 51.96112823486328 119.9982376098633 Z" stroke="none" fill="#fff"/>
        </g>
      </g>
    </g>
    <path id="Path_2981" data-name="Path 2981" d="M253.2,48.044,246.29,50l-10.566-6.468,10.566-6.468,6.911,1.958,1.256-4.973-5.534-1.572,1.483-5.867-4.691-1.331L243.859,32.6l-10.566,6.468V26.132l5.056-5.36-3.435-3.642-4.051,4.295-4.051-4.295-3.435,3.642,5.056,5.36V39.068L217.867,32.6l-1.855-7.318-4.691,1.331L212.8,32.48l-5.534,1.572,1.256,4.973,6.911-1.958L226,43.535,215.436,50l-6.911-1.958-1.256,4.973L212.8,54.59l-1.483,5.867,4.691,1.331,1.855-7.318L228.432,48V60.937l-5.056,5.36,3.435,3.642,4.051-4.295,4.051,4.295L238.35,66.3l-5.056-5.36V48l10.566,6.468,1.855,7.318,4.691-1.331-1.483-5.867,5.534-1.572Z" transform="translate(226.098 3926.965)" fill="#fff"/>
  </g>
</svg>
