<svg id="Group_3421" data-name="Group 3421" xmlns="http://www.w3.org/2000/svg" width="33.897" height="25.001" viewBox="0 0 33.897 25.001">
  <path id="Path_1837" data-name="Path 1837" d="M22.683,78.986l-3.249,1.819.726-3.652-2.734-2.528,3.7-.438,1.56-3.381,1.56,3.381,3.7.438-2.734,2.528.726,3.652Z" transform="translate(5.956 -64.804)" fill="#fff"/>
  <path id="Path_1960" data-name="Path 1960" d="M22.683,78.986l-3.249,1.819.726-3.652-2.734-2.528,3.7-.438,1.56-3.381,1.56,3.381,3.7.438-2.734,2.528.726,3.652Z" transform="translate(-0.044 -55.804)" fill="#fff"/>
  <path id="Path_1959" data-name="Path 1959" d="M104.07-26.932a5.014,5.014,0,0,0-4.02,2.037,5.014,5.014,0,0,0-4.02-2.037H90v16.08h8.045l2.005,2.406,2-2.406H110.1v-16.08ZM98-13.715H92v-2h6Zm0-4H92v-2h6ZM98-21.7H92v-2h6Zm10.146,6.01h-6v-2h6Zm0-4.01h-6v-2h6Z" transform="translate(-90 26.932)" fill="#fff"/>
</svg>
