<svg xmlns="http://www.w3.org/2000/svg" width="103.922" height="119.998"><g id="Group_2314" data-name="Group 2314" transform="translate(-405 -3910.501)"><g id="Group_2313" data-name="Group 2313" transform="translate(405 3910.5)"><g id="Group_2042" data-name="Group 2042" transform="translate(0 .001)"><g id="Union_16" data-name="Union 16" fill="none"><path d="M0 90V30L51.961 0l51.961 30v60l-51.961 30z"/><path d="M51.961 118.844l50.961-29.423V30.577L51.962 1.155 1 30.577v58.844l50.961 29.423m0 1.154L0 89.998V30L51.961 0l51.961 30v59.999l-51.96 30z" fill="#fff"/></g></g></g><path id="Path_2981" data-name="Path 2981" d="M253.2 48.044L246.29 50l-10.566-6.468 10.566-6.468 6.911 1.958 1.256-4.973-5.534-1.572 1.483-5.867-4.691-1.331-1.856 7.321-10.566 6.468V26.132l5.056-5.36-3.435-3.642-4.051 4.295-4.051-4.295-3.435 3.642 5.056 5.36v12.936L217.867 32.6l-1.855-7.318-4.691 1.331 1.479 5.867-5.534 1.572 1.256 4.973 6.911-1.958L226 43.535 215.436 50l-6.911-1.958-1.256 4.973 5.531 1.575-1.483 5.867 4.691 1.331 1.855-7.318L228.432 48v12.937l-5.056 5.36 3.435 3.642 4.051-4.295 4.051 4.295 3.437-3.639-5.056-5.36V48l10.566 6.468 1.855 7.318 4.691-1.331-1.483-5.867 5.534-1.572z" transform="translate(226.098 3926.965)" fill="#fff"/></g></svg>