<svg id="Group_3418" data-name="Group 3418" xmlns="http://www.w3.org/2000/svg" width="29.999" height="28.999"><path id="Subtraction_9" data-name="Subtraction 9" d="M19 29h-8v-2h8v2zm5.712-2.877l-2.832-2.832 1.414-1.414 2.828 2.831-1.413 1.414zm-19.414 0L3.88 24.708l2.825-2.831 1.417 1.414-2.827 2.831zM19 25h-8v-1.935A9.062 9.062 0 017.391 19.8 9 9 0 1119 23.065V25zm11-9h-4v-2h4v2zM4 16H0v-2h4v2zm19.294-7.878L21.88 6.708l2.828-2.828 1.414 1.411-2.827 2.831zm-16.589 0L3.88 5.291 5.294 3.88l2.828 2.828-1.416 1.414zM16 4h-2V0h2v4z" fill="#fff"/></svg>