<svg id="Group_3427" data-name="Group 3427" xmlns="http://www.w3.org/2000/svg" width="29.389" height="30.303"><g id="Group_3425" data-name="Group 3425"><path id="Path_1558" data-name="Path 1558" d="M19 13.167c5 0 7.5 5 7.5 5s-2.5 5-7.5 5-7.5-5-7.5-5 2.5-5 7.5-5zm0 2.5a2.5 2.5 0 102.5 2.5 2.5 2.5 0 00-2.5-2.5z" transform="translate(-7.001 -6.167)" fill="#fff"/><g id="Ellipse_244" data-name="Ellipse 244" fill="none" stroke="#fff" stroke-width="2"><circle cx="12" cy="12" r="12" stroke="none"/><circle cx="12" cy="12" r="11"/></g></g><g id="Group_3426" data-name="Group 3426" transform="translate(18.783 19.697)" fill="#fff"><path id="Rectangle_576" data-name="Rectangle 576" transform="rotate(45 -.086 7.034)" d="M0 0h8v4H0z"/><path id="Rectangle_577" data-name="Rectangle 577" transform="rotate(45 .707 1.707)" d="M0 0h4v2H0z"/></g></svg>