<svg xmlns="http://www.w3.org/2000/svg" width="30" height="29"><g id="Group_1600" data-name="Group 1600" transform="translate(5408 15639)"><g id="Group_1593" data-name="Group 1593" transform="translate(54 25)" fill="#fff"><g id="Group_1598" data-name="Group 1598"><circle id="Ellipse_134" data-name="Ellipse 134" cx="9" cy="9" r="9" transform="translate(-5456 -15658)"/><path id="Rectangle_359" data-name="Rectangle 359" transform="translate(-5451 -15643)" d="M0 0h8v8H0z"/></g><path id="Rectangle_360" data-name="Rectangle 360" transform="translate(-5448 -15664)" d="M0 0h2v4H0z"/><path id="Rectangle_363" data-name="Rectangle 363" transform="rotate(-45 -21630.792 -1240.819)" d="M0 0h2v4H0z"/><path id="Rectangle_366" data-name="Rectangle 366" transform="rotate(45 16154.065 -14406.182)" d="M0 0h2v4H0z"/><path id="Rectangle_364" data-name="Rectangle 364" transform="rotate(-135 -5961.792 -6701.546)" d="M0 0h2v4H0z"/><path id="Rectangle_365" data-name="Rectangle 365" transform="rotate(135 521.065 -8945.454)" d="M0 0h2v3.999H0z"/><g id="Group_1599" data-name="Group 1599"><path id="Rectangle_361" data-name="Rectangle 361" transform="rotate(90 5109 -10541)" d="M0 0h2v4H0z"/><path id="Rectangle_362" data-name="Rectangle 362" transform="rotate(90 5096 -10554)" d="M0 0h2v4H0z"/></g></g><path id="Rectangle_372" data-name="Rectangle 372" transform="rotate(90 5112.5 -10501.5)" fill="#1e1e1e" d="M0 0h2v8H0z"/></g></svg>