<svg xmlns="http://www.w3.org/2000/svg" width="70.328" height="44.827"><g id="Group_2389" data-name="Group 2389" transform="translate(-263 -1295.998)"><g id="Group_2380" data-name="Group 2380"><g id="Group_2379" data-name="Group 2379" transform="translate(1 -1.332)"><g id="_30o" data-name="30o" transform="translate(-383.687 975.75)" style="isolation:isolate"><g id="Group_2377" data-name="Group 2377" style="isolation:isolate" fill="#fff" stroke="#fff" stroke-width="1"><path id="Path_3016" data-name="Path 3016" d="M665.827 354.417c.16 1.6 1.66 2.44 4.281 2.44 2.561 0 4.021-.94 4.021-2.561 0-1.36-1.28-2.18-3.441-2.18h-2.28v-1.761h2.24c1.92 0 3.161-.88 3.161-2.22 0-1.381-1.42-2.241-3.8-2.241s-3.78.78-4 2.281h-2.1c.14-2.581 2.481-4.181 6.161-4.181a7.8 7.8 0 014.381 1.08 3.355 3.355 0 011.62 2.921 3.168 3.168 0 01-2.56 3.121 3.276 3.276 0 012.9 3.26 3.686 3.686 0 01-1.7 3.2 7.859 7.859 0 01-4.561 1.18c-4.1 0-6.361-1.48-6.461-4.34z"/><path id="Path_3017" data-name="Path 3017" d="M680.947 356.756a7.635 7.635 0 01-1.86-5.4 7.478 7.478 0 011.88-5.342 7.25 7.25 0 0110.022-.019 8.612 8.612 0 010 10.742 7.275 7.275 0 01-10.042.019zm1.68-9.341a5.768 5.768 0 00-1.28 3.941 5.972 5.972 0 001.26 3.98 4.515 4.515 0 006.722 0 6.767 6.767 0 000-7.921 4.493 4.493 0 00-6.7 0z"/></g><g id="Group_2378" data-name="Group 2378" style="isolation:isolate"><path id="Path_3018" data-name="Path 3018" d="M696.221 350.076a3.048 3.048 0 01-1.028-2.4 3.007 3.007 0 011.028-2.393 4.607 4.607 0 015.5 0 3.025 3.025 0 011.039 2.393 3.066 3.066 0 01-1.039 2.4 4.657 4.657 0 01-5.5 0zm5.263-2.4a2.53 2.53 0 10-2.509 2.206 2.219 2.219 0 002.509-2.211z" fill="#fff" stroke="#fff" stroke-width="1"/></g></g><path id="Path_3019" data-name="Path 3019" d="M710.154 212.189l-1.115 8.683-.166 1.3a5.694 5.694 0 01-6.283 5.1 5.89 5.89 0 01-5.213-4.567h-5.244a6.051 6.051 0 01-1.506 2.814 5.65 5.65 0 01-3.206 1.7 5.9 5.9 0 01-6.77-4.51H676.4a6.051 6.051 0 01-1.506 2.814 5.65 5.65 0 01-3.206 1.7 5.9 5.9 0 01-6.77-4.51h-4.25a6.054 6.054 0 01-1.506 2.815 5.688 5.688 0 01-3.308 1.711 5.736 5.736 0 01-6.686-5.1l-1.276-9.944h-4.034l1.251 9.745v.012l4.5 35.07h58.819l4.5-35.059v-.025l1.251-9.743zm-5.241 40.826h-51.78L650.179 230a9.4 9.4 0 004.745 1.289 9.684 9.684 0 007.867-4.157 9.521 9.521 0 0015.732 0 9.546 9.546 0 0016.232-.767 9.755 9.755 0 008.366 4.924 9.4 9.4 0 004.746-1.289z" transform="translate(-381.859 1085.141)" fill="#fff"/></g></g></g></svg>