<svg enable-background="new 0 0 640 480" viewBox="0 0 640 480" xmlns="http://www.w3.org/2000/svg"><path d="m-1 1.8h641.3v479h-641.3z" fill="#fff"/><path d="m248.4 1.8h142.5v479h-142.5z" fill="#dc171d"/><path d="m-1 161.4h641.3v159.7h-641.3z" fill="#012a87"/><g fill="#fff"><g transform="scale(1.5)"><path d="m213.1 112.1-3.7 12.7 5.6 2.1z"/><path d="m213.1 112.1 3.7 12.7-5.6 2.1z" transform="scale(-1 1)"/><g transform="matrix(.30901699 .95105652 -.95105652 .30901699 0 0)"><path d="m224.4 121.3h-11.9v6.7z"/><path d="m224.4 121.3-9.6 7.8-3.5-5.4z" transform="scale(-1 1)"/></g><g transform="matrix(.30901699 -.95105652 .95105652 .30901699 0 0)"><path d="m201.8 121.3 9.6 7.8 3.5-5.4z"/><path d="m201.8 121.3h11.9v6.7z" transform="scale(-1 1)"/></g><g transform="matrix(-.80901699 .58778525 -.58778525 -.80901699 0 0)"><path d="m220.1 136.1-3.7-12.7-5.6 2.1z"/><path d="m220.1 136.1-9.6-7.8 3.5-5.4z" transform="scale(-1 1)"/></g><g transform="matrix(-.80901699 -.58778525 .58778525 -.80901699 0 0)"><path d="m206.1 136.1 9.6-7.8-3.5-5.4z"/><path d="m206.1 136.1 3.7-12.7 5.6 2.1z" transform="scale(-1 1)"/></g></g><g transform="matrix(1.5 0 0 1.5 8 3.313708)"><path d="m276.4 141.5-3.7 12.7 5.6 2.1z"/><path d="m276.4 141.5 3.7 12.7-5.6 2.1z" transform="scale(-1 1)"/><g transform="matrix(.30901699 .95105652 -.95105652 .30901699 0 0)"><path d="m287.7 150.6h-11.9v6.7z"/><path d="m287.7 150.6-9.6 7.8-3.5-5.4z" transform="scale(-1 1)"/></g><g transform="matrix(.30901699 -.95105652 .95105652 .30901699 0 0)"><path d="m265.1 150.6 9.6 7.8 3.5-5.4z"/><path d="m265.1 150.6h11.9v6.7z" transform="scale(-1 1)"/></g><g transform="matrix(-.80901699 .58778525 -.58778525 -.80901699 0 0)"><path d="m283.4 165.5-3.7-12.7-5.6 2.1z"/><path d="m283.4 165.5-9.6-7.8 3.5-5.4z" transform="scale(-1 1)"/></g><g transform="matrix(-.80901699 -.58778525 .58778525 -.80901699 0 0)"><path d="m269.4 165.5 9.6-7.8-3.5-5.4z"/><path d="m269.4 165.5 3.7-12.7 5.6 2.1z" transform="scale(-1 1)"/></g></g><g transform="matrix(1.5 0 0 1.5 3.313708 8)"><path d="m239.3 183-3.7 12.7 5.6 2.1z"/><path d="m239.3 183 3.7 12.7-5.6 2.1z" transform="scale(-1 1)"/><g transform="matrix(.30901699 .95105652 -.95105652 .30901699 0 0)"><path d="m250.6 192.2h-11.9v6.7z"/><path d="m250.6 192.2-9.6 7.8-3.5-5.4z" transform="scale(-1 1)"/></g><g transform="matrix(.30901699 -.95105652 .95105652 .30901699 0 0)"><path d="m228 192.2 9.6 7.8 3.5-5.4z"/><path d="m228 192.2h11.9v6.7z" transform="scale(-1 1)"/></g><g transform="matrix(-.80901699 .58778525 -.58778525 -.80901699 0 0)"><path d="m246.3 207.1-3.7-12.7-5.6 2.1z"/><path d="m246.3 207.1-9.6-7.8 3.5-5.4z" transform="scale(-1 1)"/></g><g transform="matrix(-.80901699 -.58778525 .58778525 -.80901699 0 0)"><path d="m232.3 207.1 9.6-7.8-3.5-5.4z"/><path d="m232.3 207.1 3.7-12.7 5.6 2.1z" transform="scale(-1 1)"/></g></g><g transform="matrix(-1.5 0 0 1.5 -8 3.313708)"><path d="m149.8 141.5 3.7 12.7-5.6 2.1z"/><path d="m149.8 141.5-3.7 12.7 5.6 2.1z" transform="scale(-1 1)"/><g transform="matrix(.30901699 .95105652 -.95105652 .30901699 0 0)"><path d="m138.5 150.6h11.9v6.7z"/><path d="m138.5 150.6 9.6 7.8 3.5-5.4z" transform="scale(-1 1)"/></g><g transform="matrix(.30901699 -.95105652 .95105652 .30901699 0 0)"><path d="m161 150.6-9.6 7.8-3.5-5.4z"/><path d="m161 150.6h-11.9v6.7z" transform="scale(-1 1)"/></g><g transform="matrix(-.80901699 .58778525 -.58778525 -.80901699 0 0)"><path d="m142.8 165.5 3.7-12.7 5.6 2.1z"/><path d="m142.8 165.5 9.6-7.8-3.5-5.4z" transform="scale(-1 1)"/></g><g transform="matrix(-.80901699 -.58778525 .58778525 -.80901699 0 0)"><path d="m156.7 165.5-9.6-7.8 3.5-5.4z"/><path d="m156.7 165.5-3.7-12.7-5.6 2.1z" transform="scale(-1 1)"/></g></g><g transform="matrix(-1.5 0 0 1.5 -3.313708 8)"><path d="m186.8 183 3.7 12.7-5.6 2.1z"/><path d="m186.8 183-3.7 12.7 5.6 2.1z" transform="scale(-1 1)"/><g transform="matrix(.30901699 .95105652 -.95105652 .30901699 0 0)"><path d="m175.6 192.2h11.9v6.7z"/><path d="m175.6 192.2 9.6 7.8 3.5-5.4z" transform="scale(-1 1)"/></g><g transform="matrix(.30901699 -.95105652 .95105652 .30901699 0 0)"><path d="m198.1 192.2-9.6 7.8-3.5-5.4z"/><path d="m198.1 192.2h-11.9v6.7z" transform="scale(-1 1)"/></g><g transform="matrix(-.80901699 .58778525 -.58778525 -.80901699 0 0)"><path d="m179.9 207.1 3.7-12.7 5.6 2.1z"/><path d="m179.9 207.1 9.6-7.8-3.5-5.4z" transform="scale(-1 1)"/></g><g transform="matrix(-.80901699 -.58778525 .58778525 -.80901699 0 0)"><path d="m193.8 207.1-9.6-7.8 3.5-5.4z"/><path d="m193.8 207.1-3.7-12.7-5.6 2.1z" transform="scale(-1 1)"/></g></g></g></svg>