<svg viewBox="0 0 640 480" xmlns="http://www.w3.org/2000/svg"><path d="M0 0h640v53.3H0z" fill="#005bae" fill-rule="evenodd"/><path d="M0 53.3h640v53.4H0z" fill="#fff" fill-rule="evenodd"/><path d="M0 106.7h640V160H0z" fill="#005bae" fill-rule="evenodd"/><path d="M0 160h640v53.3H0z" fill="#fff" fill-rule="evenodd"/><path d="M0 0h266.7v266.7H0z" fill="#005bae"/><g fill-rule="evenodd"><path d="M0 213.3h640v53.4H0z" fill="#005bae"/><path d="M0 266.7h640V320H0z" fill="#fff"/><path d="M0 320h640v53.3H0z" fill="#005bae"/><path d="M0 373.3h640v53.4H0z" fill="#fff"/><g fill="#fff" stroke-width="1.3"><path d="M106.667 0H160v266.666h-53.333z"/><path d="M0 106.667h266.666V160H0z"/></g></g><path d="M0 426.7h640V480H0z" fill="#005bae"/></svg>