<svg viewBox="0 0 640 480" xmlns="http://www.w3.org/2000/svg"><g fill-rule="evenodd" stroke-width="1pt"><path d="M320 0h320v480H320z" fill="#ce0000"/><path d="M0 0h320v480H0z" fill="#fff"/></g><path d="M155.133 141.849c0 1.439-1.438 2.398-3.197 2.398-1.918 0-3.197-.96-3.197-2.238s1.279-2.398 3.197-2.398c1.759 0 3.197 1.119 3.197 2.398z" fill="#f1eeee" fill-rule="evenodd"/><path d="M52.663 130.659v59.468h59.628c0 9.91 9.911 19.822 19.822 19.822v59.468h59.628V209.95c9.912 0 19.823-9.911 19.823-19.822h59.468V130.66h-59.628c0-9.912-9.911-19.823-19.823-19.823V51.368h-59.468v59.468c-10.07 0-19.982 9.911-19.982 19.823z" fill="#c00" fill-rule="evenodd"/><path d="M54.741 132.577v55.631h59.468c0 9.912 9.911 19.823 19.823 19.823v59.468h55.471V208.19c9.912 0 19.823-9.912 19.823-19.823h59.628v-55.631h-59.468c0-9.912-9.912-19.823-19.823-19.823V53.286h-55.631v59.468c-9.912 0-19.823 9.912-19.823 19.823z" fill="#ffe600" fill-rule="evenodd"/><path d="M56.66 134.655v51.475h59.467c0 9.911 9.912 19.823 19.823 19.823v59.468h51.635v-59.468c9.911 0 19.823-9.912 19.823-19.823h59.467v-51.475h-59.467c0-9.911-9.912-19.823-19.823-19.823V55.365H135.95v59.308c-9.911 0-19.823 9.91-19.823 19.822H56.66z" fill="#707070" fill-rule="evenodd"/><path d="M58.738 136.573v47.639h59.468c0 9.911 9.91 19.822 19.822 19.822v59.308h47.479v-59.468c9.911 0 19.822-9.91 19.822-19.822h59.468v-47.638H205.33c0-9.912-9.911-19.823-19.822-19.823V57.283h-47.479v59.468c-9.911 0-19.822 9.911-19.822 19.822H58.578z" fill="#a0a0a0" fill-rule="evenodd"/><g fill-rule="evenodd"><path d="M138.508 111.795c3.357 3.517.64 11.99-6.395 19.023s-15.346 9.592-18.863 6.395c-3.517-3.677-.64-12.15 6.394-19.183s15.347-9.592 18.864-6.235z" fill="#d0d0d0"/><path d="M134.192 115.951c3.517 3.517 2.557 10.072-2.079 14.867s-11.19 5.596-14.707 2.079-2.557-10.072 2.078-14.707 11.19-5.596 14.708-2.239z" fill="gray"/><path d="M116.767 126.502l1.279-1.279 5.595 2.718-2.718-5.595 1.439-1.439 5.595 11.19zm8.313-8.312l1.598-1.6 8.313 8.633-1.439 1.28z" fill="#d0d0d0"/></g><g fill-rule="evenodd"><path d="M210.285 137.053c-3.517 3.517-11.99.64-18.863-6.394s-9.912-15.347-6.395-18.864 11.99-.64 19.023 6.395 9.592 15.346 6.395 18.863z" fill="#d0d0d0"/><path d="M206.129 132.897c-3.517 3.517-10.072 2.557-14.708-2.079s-5.595-11.19-2.238-14.707c3.517-3.517 10.231-2.557 14.867 2.079s5.596 11.19 2.079 14.707z" fill="gray"/><path d="M195.578 115.312l1.439 1.439-2.878 5.595 5.595-2.878 1.599 1.599-11.35 5.435zm8.472 8.473l1.28 1.279-8.313 8.472-1.44-1.439z" fill="#d0d0d0"/></g><g fill-rule="evenodd"><path d="M185.027 208.99c-3.517-3.517-.64-11.99 6.395-19.023s15.346-9.752 18.863-6.395c3.517 3.517.64 11.99-6.394 19.024s-15.347 9.751-18.864 6.394z" fill="#d0d0d0"/><path d="M189.343 204.674c-3.517-3.517-2.557-10.071 2.079-14.707s11.19-5.595 14.707-2.079 2.557 10.072-2.079 14.708-11.19 5.595-14.867 2.078z" fill="gray"/><path d="M206.768 194.123l-1.439 1.599-5.595-2.878 2.878 5.595-1.439 1.28-5.595-11.191zm-8.153 8.473l-1.598 1.438-8.313-8.472 1.439-1.439z" fill="#d0d0d0"/></g><g fill-rule="evenodd"><path d="M113.25 183.732c3.517-3.517 11.99-.64 18.863 6.235s9.752 15.506 6.395 18.863c-3.517 3.517-11.99.8-19.024-6.234s-9.591-15.507-6.394-18.864z" fill="#d0d0d0"/><path d="M117.406 187.888c3.517-3.516 10.071-2.557 14.707 2.079s5.596 11.19 2.079 14.707c-3.357 3.517-10.072 2.558-14.708-2.078s-5.595-11.19-2.078-14.708z" fill="gray"/><path d="M127.957 205.473l-1.439-1.599 2.878-5.435-5.595 2.718-1.599-1.439 11.35-5.595-5.595 11.19zM119.484 197l-1.278-1.438 8.312-8.313 1.44 1.279z" fill="#d0d0d0"/></g><path d="M269.3 414.6c0 41-34.1 74.4-76.2 74.4S117 455.7 117 414.6s34.1-74.4 76.2-74.4 76.2 33.3 76.2 74.4z" fill="none" stroke="#707070" stroke-width="1pt" transform="matrix(.54658 0 0 .55956 56.34 -71.564)"/><path d="M269.3 414.6c0 41-34.1 74.4-76.2 74.4S117 455.7 117 414.6s34.1-74.4 76.2-74.4 76.2 33.3 76.2 74.4z" fill="none" stroke="#707070" stroke-width="1pt" transform="matrix(.41644 0 0 .42633 81.278 -16.413)"/><g fill-rule="evenodd" transform="translate(-12.4 -30.8) scale(1.5986)"><path d="M100.3 140.7a1.2 1.2 0 11-2.5 0 1.2 1.2 0 012.5 0zm19.8 0a1.2 1.2 0 11-2.5 0 1.2 1.2 0 012.5 0zm-12 0v1.3h-1.6c-1.7 0-1.7 1.3 0 1.3h1.6v1.2c0 1.4 1.5 1.5 1.6.1v-1.4h1.7c1.7 0 1.7-1.2 0-1.2h-1.6v-1.3c0-1.3-1.7-1.3-1.7 0z" fill="#d0d0d0"/><path d="M102.8 122.3v.8s-.4.5-2.9.7-2.9 0-2.9 0c.1.7.6 1.9.4 3.3.1 1.7-.4 3.2-.4 3.2 0 .1-.3.2-.8.1.4-.4.4-1.4.4-3 0-1.4-1.5-3.7-1.2-4.3s7.4-.8 7.4-.8zm9.8-2.6l6.5-.1s1 2 .9 3c0 1-.4 2-.8 1.5-.5-.5.2-.4.3-1.5 0-1.2-.8-2.3-.8-2.3s-1.8.7-4.4.6c-2.6-.2-1.4-1.2-1.7-1.2z" fill="#d0d0d0" stroke="#707070" stroke-width=".1"/><path d="M113.4 121.6c2.4-.1 4 .2 4 .2s1 2 1 3c-.1 1-.4 2-.9 1.5-.4-.4.2-.3.3-1.5 0-1.1-.8-2.3-.8-2.3s-1.7.7-4.3.6c-2.6-.2-1.8-.3-2.1-.4-.3 0-.4.8-4.3.9-4 0-6-.9-6-.9s-.4.6-2.8.8h-3c.1.6.6 1.8.5 3.3 0 1.6-.5 3.2-.5 3.2h-.7c.4-.3.3-1.4.4-2.9 0-1.5-1.6-3.7-1.3-4.4.4-.6 2.2 0 2.5-.3.3-.4-1.6-2.7-1.2-4.8.3-2.1 2.4-1.5 4.9-1.5 2.5.1 8 .8 9.4 0 1.4-.7.8-3.4 2-5.1a4.1 4.1 0 013.3-1.5c.9 0 2 3 2 3.7l-.3.4h-.4v.3c-1 .1-1.1-.8-1.7-1.4-.2 1 .8 4.4.8 6.6 0 1.8-.7 2.6-.8 2.5z" fill="#d0d0d0" stroke="#707070" stroke-width=".1"/><path d="M105.5 118.4c0 .7-3.1 2.4-3.4 3-.2.7.8 1 .5 1.4s-.6.2-.7.3l-1.2-2.5s3-1.4 2.9-2-2.2-1-2.6-2.4-.2-4.3-.5-4.9-4-1.2-4-2c0-1 3.8-3.4 4.2-3.8s.8.4.4.7c-.4.4-3.3 2.7-3.3 3 0 .4 2.4.8 3.2.8.9 0 1.3-.4 1.3-.8 0-.3-.9-.3-.9-1s.5-1.2 1.3-1.2c.4 0 1.2.5 1.2 1.1s-.7.7-.8 1.1c-.1.5.8.8 1.6.8s3.6 2.1 4 2.5c.5.3.9.3.5.7s-.2.8-.6.4a1.5 1.5 0 01-.4-.7c0-.3-3-1.8-3.5-1.5-.4.4 0 4.8 0 5.2 0 .7.9.7.8 1.8z" fill="#d0d0d0" stroke="#707070" stroke-width=".1"/><path d="M100.3 109.9h5v5.1h-5z" fill="#a7a7a7"/><rect fill="gray" height=".4" rx=".5" ry=".2" transform="matrix(.55442 .83223 -.88237 .47055 0 0)" width="30.6" x="138.6" y="-25.7"/><path d="M180.7 42.5a7 7 0 11-14.2 0 7 7 0 0114.2 0z" fill="#d0d0d0" stroke="#707070" stroke-width="1pt" transform="matrix(.11563 0 0 .10345 80.7 101.5)"/><path d="M115.9 112.5c0 .3-2 .7-4.1.7-2.2 0-4.1-.4-4.1-.7s1.9.5 4 .5c2.3 0 4.2-.8 4.2-.5z" fill="gray"/><path d="M100.7 115h4.1v1.5h-4z" fill="#a7a7a7"/><path d="M114 111.4c-.4.8-.7 1.3-.8 1.2 0 0 .2-.8.6-1.5l.8-1.2c.1.1-.2.8-.6 1.5zm1 2l-.8.5a3.2 3.2 0 01.8-.9c.5-.4.9-.6.9-.5l-.8.8z" fill="gray"/><path d="M114.6 112.4l.5 1.2-.8-1-.5-1.2zm-.4 3.2s-1.2.2-2.8.2-2.9-.1-2.9-.2l2.9-.2c1.6 0 2.8 0 2.8.2zm-9.4-.4c0 .1-.9.2-2 .2-1.2 0-2 0-2-.2 0 0 .8-.2 2-.2 1.1 0 2 .1 2 .2z" fill="gray"/><path d="M95.8 128s.7 1.6 3.6 1.6c2.8 0 3.8-.5 2.7-1.3s-3.4-.6-3 .1c.2.8-.9 1-1.1.5-.3-.5-1.3-2.1.5-2.2 1.9-.1 5.8-.7 6.8.4s-1.1 2 .5 2.3c1.5.2 1.8-.3 4.5-.4 2.7-.2 3.8.5 4.7.4 1 0 .8-1.7 0-2-.7-.5-2.1-.6-2.5-1-.3-.5-1.3 0-1.2-.6 0-.5 1.4.3 1.4.1l.2-.2h-.3l.1-.2-.2.1.1-.2s-.3.2-.3 0h-.2c.2-.2.1-.2 0-.3h-.3v-.3c-.2 0-.2 0-.3.2v-.5c0-.1.2-.2.5-.2.7 0 1 .8 1.3.8.2 0 .5-.8 1.4-.5l1.5.6c.5.3-.3.6 0 1s2.1 1.7 1.6 3.2c-.5 1.4-2 1.6-2 2.2-.2.6 4.3.4 5.4.6a3 3 0 011.9 1.2l-2 .1s-1-.5-3.5-.6c-2.5 0-3.4-1-4.4-1.2l-4 .2-3-.3c-.6-.1-4.2 1.6-4.2 2h-2.4s.3-.9 1.7-1c1.3-.2 2.7-.8 2.6-1.2l.4-2.6c0-.6.6-1 .5-1.2-.1-.4-1.7-.7-3.2-.7s-3.1.1-3.4.4c-.2.4 0 1.5.3 1.3.3 0-.1-.8.2-.9a6.8 6.8 0 012-.3c.8 0 2.1.7 2.1 1 0 .1.4.8-.2 1.1a8.2 8.2 0 01-3.1.4 7.5 7.5 0 01-3-.8c-.4-.3-.7-1-.7-1.1z" fill="#d0d0d0" stroke="gray" stroke-width=".1"/><path d="M114 125.5a.3.3 0 11-.6 0 .3.3 0 01.6 0z"/></g><path d="M194.619 162.31l2.557.48 4.317-2.877-.32 1.599-2.238 1.438-1.279.64.8 1.279 1.438 2.238-.32 1.598-2.717-4.636-2.558-.48zm-4.317-18.863l4.796-2.238-1.279-2.877.64-.32 3.197 7.034-.48.32-1.438-3.038-4.796 2.398zm-7.673-9.271l4.476-4.157.96.96v7.033l3.516-3.197.8.96-4.476 4.155-.96-.959v-7.034l-3.517 3.198zm-19.822-7.993l.799-6.075h1.279l-.8 5.595 4.796.48v.799zm-9.752.959l-1.119-6.075 1.279-.32.96 5.436 4.795-.96v.8zm-18.064 8.792l-.48-.48 3.198-2.557 1.598 1.598a9.112 9.112 0 01-1.279 1.919 9.112 9.112 0 01-1.438 1.598 8.313 8.313 0 01-2.239 1.279c-.799.16-1.598.32-2.078 0a2.558 2.558 0 01-1.598-.8 2.718 2.718 0 01-.48-1.598c0-.64.16-1.439.64-2.078.32-.64.959-1.279 1.598-1.759a7.673 7.673 0 011.759-1.119l1.438-.32c.32 0 .8 0 1.12.32l-.64.8a2.078 2.078 0 00-.96-.16l-.958.16a5.116 5.116 0 00-1.12.8c-.479.319-.959.639-1.118 1.118a3.197 3.197 0 00-.64.96v.799c0 .48.16.959.48 1.278l1.119.8 1.598-.16a6.554 6.554 0 003.357-3.197l-.639-.96zm-.16 44.281l-5.115 3.677-3.837-5.435.64-.48 3.197 4.316 1.438-1.119-2.557-3.676.48-.32 2.717 3.677 2.238-1.599zm-7.513-7.993c.799-.16 1.279-.64 1.598-1.439v-2.397a4.156 4.156 0 00-1.439-2.079c-.48-.48-1.278-.64-1.918-.48a2.238 2.238 0 00-1.279.8c-.16.32-.48.8-.48 1.279l.16 1.758c.32.96.64 1.599 1.28 2.238.479.48 1.278.64 2.078.32zm.48 1.28a2.718 2.718 0 01-2.718-.64 5.915 5.915 0 01-1.759-2.878c-.32-.959-.32-1.598-.32-2.558s.32-1.278.64-1.758a2.558 2.558 0 011.598-1.12 2.558 2.558 0 011.6.16c.638.32 1.118.64 1.598 1.28a7.194 7.194 0 011.279 4.795 3.677 3.677 0 01-.64 1.759c-.32.48-.8.8-1.279.96zm.479-12.47h-6.395v-4.476l.32-1.918.64-1.12a1.279 1.279 0 01.959-.32c.48 0 .799.16 1.119.64.16.48.48 1.12.48 2.078a3.997 3.997 0 011.118-1.758l1.759-1.599v1.599l-1.28 1.119-.958.96a2.718 2.718 0 00-.48.639 2.558 2.558 0 000 .64v.639l-.16 1.598h2.878zm-3.517-1.439v-2.717a6.394 6.394 0 000-1.44 1.599 1.599 0 00-.32-.639.8.8 0 00-.48-.32.88.88 0 00-.799.48l-.32 1.599v3.197h2.079zm17.105-27.016v-7.194l1.279-.8 6.554 3.198-1.279.8-1.918-.96-3.357 2.078v2.238zm1.119-3.677l2.877-1.598-1.598-.96a13.268 13.268 0 01-1.439-.799l.16 1.279zm29.734-1.918l6.714-2.718 1.119.8-.48 7.353-1.119-.96.16-2.077-3.197-2.398-2.078.8zm3.837-.32l2.717 1.918v-1.918a13.428 13.428 0 01.32-1.599 5.915 5.915 0 01-1.12.8zm16.465 22.86l6.075-1.439.959 4.317.32 1.918-.32 1.119a1.279 1.279 0 01-.8.64c-.479 0-.959 0-1.278-.32a4.476 4.476 0 01-1.12-1.919 3.997 3.997 0 010 .8l-.639 1.278-1.279 1.919-.32-1.599.96-1.598.64-.96a2.558 2.558 0 00.319-1.278 5.915 5.915 0 00-.16-.8l-.32-1.438-2.717.639zm3.677.48l.64 2.717c0 .48.319.96.479 1.28 0 .319.32.479.48.639l.639.16c.16 0 .48-.32.48-.64a3.357 3.357 0 000-1.599l-.8-3.037z" fill="#d0d0d0"/></svg>