<svg viewBox="0 0 512 512" xmlns="http://www.w3.org/2000/svg" xmlns:xlink="http://www.w3.org/1999/xlink"><defs><clipPath id="a"><path d="M0 0h600v300H0z"/></clipPath><clipPath id="b"><path d="M0 0l300 150H0zm300 0h300L300 150zm0 150h300v150zm0 0v150H0z"/></clipPath><g id="c"><g id="d"><path d="M0 0v.5L1 0z" transform="translate(0 -.3)"/><path d="M0 0v-.5L1 0z" transform="rotate(-36 .5 -.2)"/></g><use transform="scale(-1 1)" xlink:href="#d"/><use transform="rotate(72)" xlink:href="#d"/><use transform="rotate(-72)" xlink:href="#d"/><use transform="scale(-1 1) rotate(72)" xlink:href="#d"/></g></defs><path d="M0 0h512v512H0z" fill="#00247d" fill-rule="evenodd"/><g transform="translate(-148.7 134.5) scale(.60566)"><use fill="#fff" height="100%" transform="matrix(45.4 0 0 45.4 900 120)" width="100%" xlink:href="#c"/><use fill="#cc142b" height="100%" transform="matrix(30 0 0 30 900 120)" width="100%" xlink:href="#c"/></g><g transform="rotate(82 393.4 127.1) scale(.60566)"><use fill="#fff" height="100%" transform="rotate(-82 519 -457.7) scale(40.4)" width="100%" xlink:href="#c"/><use fill="#cc142b" height="100%" transform="rotate(-82 519 -457.7) scale(25)" width="100%" xlink:href="#c"/></g><g transform="rotate(82 393.4 127.1) scale(.60566)"><use fill="#fff" height="100%" transform="rotate(-82 668.6 -327.7) scale(45.4)" width="100%" xlink:href="#c"/><use fill="#cc142b" height="100%" transform="rotate(-82 668.6 -327.7) scale(30)" width="100%" xlink:href="#c"/></g><g transform="translate(-148.7 134.5) scale(.60566)"><use fill="#fff" height="100%" transform="matrix(50.4 0 0 50.4 900 480)" width="100%" xlink:href="#c"/><use fill="#cc142b" height="100%" transform="matrix(35 0 0 35 900 480)" width="100%" xlink:href="#c"/></g><path clip-path="url(#a)" d="M0 0l600 300M0 300L600 0" stroke="#fff" stroke-width="60" transform="scale(.52004 .78924)"/><path clip-path="url(#b)" d="M0 0l600 300M0 300L600 0" stroke="#cc142b" stroke-width="40" transform="scale(.52004 .78924)"/><path clip-path="url(#a)" d="M125.7 0v88H-.1v60.7h125.8v88h60.6v-88h125.8V88.1H186.4V0z" fill="#fff"/><path d="M137.8 0v100.2H0v36.4h138v100.2h36.3V136.6h137.9v-36.4h-138V0z" fill="#cc142b"/></svg>