<svg viewBox="0 0 512 512" xmlns="http://www.w3.org/2000/svg"><clipPath id="a"><path d="M0 0h496v496H0z"/></clipPath><g clip-path="url(#a)" fill-rule="evenodd" transform="scale(1.0321)"><path d="M0 0h744v496H0z" fill="#28ae66"/><g fill="#fff" stroke-width="1pt"><path d="M255.1 133.2c27 13 59.2 0 70.9-18 12-16.8 13.4-45-7.3-70.9 32 26.6 39.2 56.7 23.2 81.5-21.2 28.3-68.4 27.5-86.8 7.4z"/><path d="M297 76.2l1.5-5.4-4.4-3.3 5.4-.2 1.8-5.3 1.8 5.3h5.4l-4.3 3.5 1.6 5.3-4.4-3.2zm-27 33.6l1.6-5.3-4.4-3.4 5.5-.1 1.7-5.3 1.9 5.2 5.4.1-4.3 3.4 1.6 5.4-4.5-3.2zm1.8-26.5l1.6-5.4-4.4-3.3 5.4-.2 1.8-5.3 1.8 5.3h5.5l-4.3 3.5 1.6 5.3-4.5-3.2zm0-26.6l1.6-5.4L269 48l5.4-.2 1.8-5.3 1.8 5.3h5.5l-4.3 3.5 1.6 5.3-4.5-3.1zM242 90.4l1.5-5.4-4.3-3.4 5.4-.1 1.8-5.3 1.8 5.2 5.4.1-4.3 3.4 1.6 5.4-4.5-3.2z"/></g><path d="M46 0h159.5v496H46.1z" fill="#ca3745"/><g fill="#faae29" stroke-width="1pt"><path d="M46 129.3v-3.5l6.7-8.9-1.4-1.7 4-5.4-1.3-1.7-2.7 3.5-1.3-1.8 9.3-12.4 1.3 1.8-1.3 1.8 2.7 3.6 6.6-9-6.7-8.5-2.6 3.3 1.3 1.7-1.3 1.8L50 81.5l1.3-1.8 2.7 3.6 1.3-1.8-4-5.3 1.4-1.8-6.6-8.8V62l9.2 12.4-1.3 1.8 4 5.3-2.7 3.5 2.7 3.6 4-5.3 9.3 12.6L62 108l-4-5.3-2.7 3.5 2.7 3.5-4 5.4 1.3 1.7-9.2 12.4z"/><path d="M46 85l1.4 3.6v5.3h4l2.6 1.8-2.6 1.7h-4v5.4l-1.3 3.5V85z"/></g><g fill="#faae29" stroke-width="1pt"><path d="M46 214.4v-3.6l6.7-8.8-1.4-1.8 4-5.3L54 193l-2.7 3.5L50 195l9.3-12.4 1.3 1.7-1.3 1.8 2.7 3.6 6.6-8.9-6.7-8.6-2.6 3.3 1.3 1.8-1.3 1.7-9.3-12.4 1.3-1.7 2.7 3.5 1.3-1.8-4-5.3 1.4-1.7-6.6-9V147l9.2 12.4-1.3 1.8 4 5.3-2.7 3.6 2.7 3.5 4-5.3 9.3 12.6-9.3 12.2-4-5.3-2.7 3.5L58 195l-4 5.3 1.3 1.8-9.2 12.4z"/><path d="M46 170l1.4 3.6v5.3h4l2.6 1.8-2.6 1.8h-4v5.3l-1.3 3.5v-21.2z"/></g><g fill="#faae29" stroke-width="1pt"><path d="M46 299.4v-3.5l6.7-8.9-1.4-1.8 4-5.3-1.3-1.7-2.7 3.5-1.3-1.8 9.3-12.4 1.3 1.8-1.3 1.8 2.7 3.5 6.6-8.9-6.7-8.6-2.6 3.3 1.3 1.8-1.3 1.8-9.3-12.4 1.3-1.8 2.7 3.5 1.3-1.7-4-5.3 1.4-1.8-6.6-8.9v-3.5l9.2 12.4-1.3 1.8 4 5.3-2.7 3.5 2.7 3.6 4-5.3 9.3 12.6-9.3 12.2-4-5.4-2.7 3.6 2.7 3.5-4 5.3 1.3 1.8-9.2 12.4z"/><path d="M46 255.1l1.4 3.6v5.3h4l2.6 1.8-2.6 1.7h-4v5.3l-1.3 3.6V255z"/></g><g fill="#faae29" stroke-width="1pt"><path d="M46 379.1v-3.5l6.7-8.9-1.4-1.7 4-5.4L54 358l-2.7 3.5-1.3-1.8 9.3-12.4 1.3 1.8-1.3 1.8 2.7 3.6 6.6-9-6.7-8.5-2.6 3.3 1.3 1.7-1.3 1.8-9.3-12.4 1.3-1.8 2.7 3.6 1.3-1.8-4-5.3 1.4-1.8-6.6-8.8v-3.6l9.2 12.4L54 326l4 5.3-2.7 3.5 2.7 3.6 4-5.3 9.3 12.6-9.3 12.2-4-5.3-2.7 3.5 2.7 3.5-4 5.4 1.3 1.7-9.2 12.4z"/><path d="M46 334.8l1.4 3.6v5.3h4l2.6 1.8-2.6 1.7h-4v5.4L46 356v-21.3z"/></g><g fill="#faae29" stroke-width="1pt"><path d="M205.5 129.3v-3.5l-6.6-8.9 1.3-1.7-4-5.4 1.4-1.7 2.7 3.5 1.3-1.8-9.3-12.4-1.4 1.8 1.4 1.8-2.8 3.6-6.5-9 6.6-8.5 2.7 3.3-1.4 1.7 1.4 1.8 9.3-12.4-1.4-1.8-2.6 3.6-1.3-1.8 4-5.3-1.4-1.8 6.6-8.9V62l-9.2 12.4 1.3 1.8-4 5.3 2.7 3.5-2.7 3.6-4-5.3-9.3 12.6 9.3 12.2 4-5.3 2.7 3.5-2.7 3.5 4 5.4-1.3 1.7z"/><path d="M205.5 85l-1.3 3.6v5.3h-4l-2.7 1.8 2.7 1.7h4v5.4l1.3 3.5z"/></g><g fill="#faae29" stroke-width="1pt"><path d="M206 214.4v-3.6l-6.7-8.8 1.4-1.8-4-5.3 1.3-1.8 2.7 3.6 1.3-1.8-9.3-12.4-1.3 1.7 1.3 1.8-2.7 3.6-6.6-8.9 6.7-8.6 2.6 3.3-1.3 1.8 1.3 1.7 9.3-12.4-1.3-1.7-2.7 3.5-1.3-1.8 4-5.3-1.3-1.7 6.5-9v-3.4l-9.2 12.4 1.3 1.7-4 5.3 2.7 3.6-2.7 3.5-4-5.3-9.3 12.6 9.4 12.2 4-5.3 2.6 3.5-2.7 3.6 4 5.3-1.3 1.8z"/><path d="M206 170l-1.4 3.6v5.3h-4l-2.6 1.8 2.6 1.8h4v5.3l1.3 3.5v-21.2z"/></g><g fill="#faae29" stroke-width="1pt"><path d="M205.5 299.4v-3.5L199 287l1.3-1.8-4-5.3 1.4-1.7 2.7 3.5 1.3-1.8-9.3-12.4-1.4 1.8 1.4 1.8-2.8 3.5-6.5-8.9 6.6-8.6 2.7 3.3-1.4 1.8 1.4 1.8 9.3-12.4-1.4-1.8-2.6 3.5-1.3-1.7 4-5.3-1.4-1.8 6.6-8.9v-3.5l-9.2 12.4 1.3 1.8-4 5.3 2.7 3.5-2.7 3.6-4-5.3-9.3 12.6 9.3 12.2 4-5.4 2.7 3.6-2.7 3.5 4 5.3-1.3 1.8 9.2 12.4z"/><path d="M205.5 255.1l-1.3 3.6v5.3h-4l-2.7 1.8 2.7 1.7h4v5.3l1.3 3.6V255z"/></g><g fill="#faae29" stroke-width="1pt"><path d="M205.5 379.1v-3.5l-6.6-8.9 1.3-1.7-4-5.4 1.4-1.7 2.7 3.5 1.3-1.8-9.3-12.4-1.4 1.8 1.4 1.8-2.8 3.6-6.5-9 6.6-8.5 2.7 3.3-1.4 1.7 1.4 1.8 9.3-12.4-1.4-1.8-2.6 3.6-1.3-1.8 4-5.3-1.4-1.8 6.6-8.8v-3.6l-9.2 12.4 1.3 1.8-4 5.3 2.7 3.5-2.7 3.6-4-5.3-9.3 12.6 9.3 12.2 4-5.3 2.7 3.5-2.7 3.5 4 5.4-1.3 1.7z"/><path d="M205.5 334.8l-1.3 3.6v5.3h-4l-2.7 1.8 2.7 1.7h4v5.4l1.3 3.5z"/></g><path d="M46 33.7V30l6.7-8.8-1.4-1.8 4-5.3-1.3-1.8-2.7 3.5-1.3-1.7 9.3-12.4 1.3 1.7-1.3 1.8L62 9l6.6-9h2.7L62 12.4l-4-5.3-2.7 3.5 2.7 3.6-4 5.3 1.3 1.8-9.2 12.4zM46 0h8l-2.6 1.8h-4V7l-1.3 3.5V0zm159.5 33.7V30l-6.6-8.8 1.3-1.8-4-5.3 1.4-1.8 2.6 3.5 1.4-1.7-9.3-12.4-1.4 1.7 1.4 1.8-2.8 3.6-6.5-9h-2.7l9.3 12.5 4-5.3 2.7 3.5-2.7 3.6 4 5.3-1.3 1.8 9.2 12.4zm0-33.7h-8l2.7 1.8h4V7l1.3 3.5zm-93 489s5.7-10 20.2-13.1c14.4-3 16.9 6.7 25.1 6.7s21.3-6.7 21.3-6.7-13 12.8-23.1 12.5c-10-.3-13.5-6.7-23.8-5.8-10.3 1-19.7 6.7-19.7 6.4z" fill="#faae29"/><path d="M140.3 489s-5.7-10-20.1-13.1c-14.4-3-17 6.7-25.2 6.7s-21.3-6.7-21.3-6.7 13.1 12.8 23.2 12.5c10-.3 13.5-6.7 23.8-5.8 10.3 1 19.6 6.7 19.6 6.4z" fill="#faae29"/><g fill="#faae29" stroke-width="1pt"><path d="M93.2 472.4c-1.3-2.7-4.4-14.3-2.8-15.7 2.6-1 9.3 10.9 8.7 21.5-4.4 2.4-19.4-1-19.2-4.1 1-4.4 9.5-3 13.3-1.7z"/><path d="M84.1 462.3c-.8-3-2.1-15.2-.2-16.2 2.6-.2 7.4 13.2 5.1 23.4-4.7 1.2-18.9-6.2-18.2-9.3 1.7-4 9.8-.2 13.3 2z"/><path d="M76.8 451c-.6-3.1-.8-15.5 1.1-16.1 2.7.1 6.2 14.2 3 24-4.7.4-18.1-9.2-17.2-12 2-3.8 9.7 1.2 13 4z"/><path d="M71 438.8c-.3-3.1 1-15.3 3-15.6 2.6.7 4.4 15.4.2 24.4-4.8-.6-17-12.9-15.7-15.5 2.5-3.2 9.5 3.3 12.4 6.7z"/><path d="M66.9 426.2c.1-3.2 2.7-15 4.7-14.9 2.4 1.2 2.7 16.1-2.5 24.2-4.6-1.5-15.3-16-13.8-18.4 2.8-2.7 9 5.1 11.6 9z"/><path d="M68 411.8c-.3 12.6-2.6 12.7-6.8 3.4-1.8-3.5-2-18-.4-18.6 2.4 0 7.1 10.3 7.2 15.2z"/></g><g fill="#faae29" stroke-width="1pt"><path d="M159 473.7c1.2-2.6 4.4-14.3 2.7-15.7-2.6-1-9.3 10.9-8.7 21.5 4.5 2.4 19.5-1 19.3-4.1-1.1-4.3-9.6-2.9-13.4-1.7z"/><path d="M168 463.6c.8-3 2.1-15.2.3-16.2-2.7-.2-7.5 13.3-5.2 23.5 4.7 1.1 19-6.3 18.2-9.3-1.7-4-9.8-.3-13.3 2z"/><path d="M175.4 452.2c.5-3 .8-15.4-1.2-16-2.6.2-6.2 14.3-3 24 4.8.5 18.2-9.2 17.2-12-2-3.7-9.7 1.3-13 4z"/><path d="M181.2 440.2c.2-3.2-1-15.4-3-15.6-2.6.7-4.5 15.3-.2 24.4 4.7-.6 16.9-13 15.6-15.6-2.5-3.2-9.4 3.3-12.4 6.8z"/><path d="M185.2 427.5c-.1-3.1-2.6-15-4.6-14.9-2.5 1.2-2.8 16.1 2.4 24.2 4.7-1.5 15.3-16 13.8-18.3-2.8-2.7-9 5-11.6 9z"/><path d="M184.1 413.1c.4 12.6 2.7 12.8 6.8 3.4 1.9-3.5 2.1-18 .4-18.6-2.4 0-7.1 10.4-7.2 15.2z"/></g><path d="M-3.5 290.6H-9v3.5h-5.3v3.5h-21.2l-3.6 3.6 1.8 1.8h8.9l1.7-1.8h-8.8l1.7-1.8h12.4l-5.3 5.3H-39l-3.5-1.7-3.6 1.7h-12.4l-5.3-5.3h12.4l1.8 1.8h-8.9l1.8 1.8h8.9l1.7-1.8-3.5-3.6h-19.5v-3.5h-5.3v-3.5h-5.3v-16h5.3v-3.5h5.3v-3.6h19.5l3.5-3.5-1.7-1.8h-8.9l-1.8 1.8h8.9l-1.8 1.7h-12.4l5.3-5.3H-46l3.6 1.8 3.5-1.8h12.4l5.3 5.3h-12.4l-1.7-1.7h8.8l-1.8-1.8h-8.8L-39 264l3.6 3.5h21.2v3.6h5.3v3.5h5.4z" fill="#ca3745" stroke="#000" stroke-width=".1" transform="matrix(1.44189 0 0 1.52 185.79 -123.02)"/><path d="M375.6 499.7v24.8h10.6v7h10.6v7h35.5l14.2 10.7 14.1-10.6h39v-7l10.6-.1v-7H521v-24.9h-10.7v-7h-10.6v-7.2h-39l-14.1-10.6-14.2 10.6h-35.5v7.2h-10.6v7h-10.6z" fill="#28ae66" stroke="#faae29" stroke-width="1pt" transform="matrix(.72093 0 0 .76 -197.35 -82.568)"/><path d="M109.163 288.972l-15.307 13.484v-13.484zm30.612 0l15.403 13.484v-13.484zm-30.613 35.058l-15.306-13.484v13.484zm30.613 0l15.403-13.484v13.484zm5.134-26.967l-5.134 5.393h10.269zm-40.88 0l-5.038 5.393h10.172zm0 18.877l-5.038-5.394h10.172zm40.88 0l-5.134-5.394h10.269z" fill="#ca3745"/><path d="M124.469 329.424l-5.135-5.394h10.27zm0-26.968l-5.135-5.393h10.27zm0-18.877l-5.135 5.516h10.27zm0 26.967l-5.135 5.394h10.27z" fill="#faae29"/><path d="M467.7 506.7H482v3.5h-14.2z" fill="#faae29" stroke="#000" stroke-width=".1" transform="matrix(.72093 0 0 .76 -197.35 -82.568)"/><path d="M414.6 510.2h7v3.6h-7zm56.7 0h7v3.6h-7z" fill="#c00" stroke="#000" stroke-width=".1" transform="matrix(.72093 0 0 .76 -197.35 -82.568)"/><path d="M439.4 489h14.1v3.5h-14.1zm0 7h14.1v3.6h-14.1z" fill="#900" stroke="#000" stroke-width=".1" transform="matrix(.72093 0 0 .76 -197.35 -82.568)"/><path d="M435.8 492.5h21.3v3.6h-21.3zm3.6 32h14.1v3.4h-14.1zm0 7h14.1v3.5h-14.1zm-3.6-3.5h21.3v3.5h-21.3z" fill="#900" stroke="#000" stroke-width=".1" transform="matrix(.72093 0 0 .76 -197.35 -82.568)"/><path d="M467.7 513.8H482v3.5h-14.2zm-56.7-7.1h14.2v3.5H411zm0 7h14.2v3.6H411zm-3.5-3.5h7v3.6h-7zm14.2 0h7v3.6h-7zm42.5 0h7v3.6h-7zm14.2 0h7v3.6h-7z" fill="#faae29" stroke="#000" stroke-width=".1" transform="matrix(.72093 0 0 .76 -197.35 -82.568)"/><g fill="#fff" transform="matrix(.96875 0 0 1.2258 182.4 -74.6)"><circle cx="413.7" cy="582" r=".9" transform="matrix(.74419 0 0 .62 -374.1 -39)"/><circle cx="413.7" cy="582" r=".9" transform="matrix(.74419 0 0 .62 -367.6 -39)"/><circle cx="413.7" cy="582" r=".9" transform="matrix(.74419 0 0 .62 -361 -39)"/><circle cx="413.7" cy="582" r=".9" transform="matrix(.74419 0 0 .62 -371.5 -41.1)"/><circle cx="413.7" cy="582" r=".9" transform="matrix(.74419 0 0 .62 -363.7 -41.1)"/><circle cx="413.7" cy="582" r=".9" transform="matrix(.74419 0 0 .62 -371.6 -36.8)"/><circle cx="413.7" cy="582" r=".9" transform="matrix(.74419 0 0 .62 -363.7 -36.7)"/><circle cx="413.7" cy="582" r=".9" transform="matrix(.74419 0 0 .62 -353.2 -50)"/><circle cx="413.7" cy="582" r=".9" transform="matrix(.74419 0 0 .62 -346.6 -50)"/><circle cx="413.7" cy="582" r=".9" transform="matrix(.74419 0 0 .62 -340 -50)"/><circle cx="413.7" cy="582" r=".9" transform="matrix(.74419 0 0 .62 -350.5 -52.2)"/><circle cx="413.7" cy="582" r=".9" transform="matrix(.74419 0 0 .62 -342.7 -52.2)"/><circle cx="413.7" cy="582" r=".9" transform="matrix(.74419 0 0 .62 -350.6 -47.9)"/><circle cx="413.7" cy="582" r=".9" transform="matrix(.74419 0 0 .62 -342.7 -47.8)"/><circle cx="413.7" cy="582" r=".9" transform="matrix(.74419 0 0 .62 -374.2 -60.9)"/><circle cx="413.7" cy="582" r=".9" transform="matrix(.74419 0 0 .62 -367.6 -60.9)"/><circle cx="413.7" cy="582" r=".9" transform="matrix(.74419 0 0 .62 -361 -61)"/><circle cx="413.7" cy="582" r=".9" transform="matrix(.74419 0 0 .62 -371.6 -63.1)"/><circle cx="413.7" cy="582" r=".9" transform="matrix(.74419 0 0 .62 -363.7 -63.1)"/><circle cx="413.7" cy="582" r=".9" transform="matrix(.74419 0 0 .62 -371.6 -58.8)"/><circle cx="413.7" cy="582" r=".9" transform="matrix(.74419 0 0 .62 -363.7 -58.7)"/><circle cx="413.7" cy="582" r=".9" transform="matrix(.74419 0 0 .62 -395.3 -49.8)"/><circle cx="413.7" cy="582" r=".9" transform="matrix(.74419 0 0 .62 -388.7 -49.8)"/><circle cx="413.7" cy="582" r=".9" transform="matrix(.74419 0 0 .62 -382.1 -49.9)"/><circle cx="413.7" cy="582" r=".9" transform="matrix(.74419 0 0 .62 -392.6 -52)"/><circle cx="413.7" cy="582" r=".9" transform="matrix(.74419 0 0 .62 -384.8 -52)"/><circle cx="413.7" cy="582" r=".9" transform="matrix(.74419 0 0 .62 -392.7 -47.7)"/><circle cx="413.7" cy="582" r=".9" transform="matrix(.74419 0 0 .62 -384.8 -47.6)"/></g><path d="M134.6 247.8l4.4-2 4.4 2zm-13.2 0l4.4-2 4.4 2zm-13.2 0l4.4-2 4.4 2zm26.4-47.4l4.4 2.1 4.4-2h-8.8zm-13.2 0l4.4 2.1 4.4-2h-8.8zm-13.2 0l4.4 2.1 4.4-2h-8.8z" fill="#fff"/><path d="M131 254l-5.2 4.1-5.1-4.1-5.2 4.1-5-4.1v2l3.3 2.1-1.7 2v2.1h1.7l1.7-2 1.7 2h1.7v-2l-1.7-2.1 3.5-2 3.4 2-1.7 2v2.1h1.7l1.7-2 1.7 2h1.7v-2l-1.7-2.1 3.4-2 3.4 2-1.7 2v2.1h1.7l1.7-2 1.7 2h1.7v-2l-1.7-2.1 3.5-2V254l-5.2 4-5-4.1zm0-59.7l-5.2-4.2-5.1 4.2-5.2-4.2-5 4.2v-2.1l3.3-2-1.7-2.1v-2h1.7l1.7 2 1.7-2h1.8v2l-1.7 2 3.4 2.1 3.4-2-1.7-2.1v-2h1.7l1.7 2 1.7-2h1.7v2l-1.7 2 3.4 2.1 3.4-2-1.7-2.1v-2h1.7l1.7 2 1.7-2h1.8v2l-1.7 2 3.4 2.1v2l-5.2-4-5 4zm38.7 34.3l5.5-4.5-5.5-4.4 5.5-4.5-5.5-4.5h2.8l2.7 3 2.8-1.5h2.7v1.5l-2.7 1.5 2.7 1.5v1.5H178l-2.8-1.5-2.7 3 2.7 3 2.8-1.6h2.7v1.5l-2.7 1.5 2.7 1.5v1.5H178l-2.8-1.5-2.7 3 2.7 3 2.8-1.5h2.7v1.5L178 233l2.7 1.5v1.5H178l-2.8-1.5-2.7 3h-2.8l5.5-4.5zm-87.9 0l-5.5-4.5 5.5-4.4-5.5-4.5 5.5-4.5h-2.7l-2.8 3-2.7-1.5h-2.7v1.5l2.7 1.5-2.7 1.5v1.5h2.7l2.8-1.5 2.7 3-2.8 3-2.7-1.6h-2.7v1.5l2.7 1.5-2.7 1.5v1.5h2.7l2.8-1.5 2.7 3-2.8 3-2.7-1.5h-2.7v1.5l2.7 1.4-2.7 1.5v1.5h2.7l2.8-1.5 2.7 3h2.7l-5.5-4.5z" fill="#28ae66"/><path d="M-26.6 214.4h1.8v1.7h-1.8zm-1.8 1.7h1.8v1.8h-1.7zm-8.8 8.9h1.8v1.8h-1.8zm1.8-1.8h1.7v1.8h-1.7zm-58.5 0h1.8v1.8H-94zm-8.9-8.8h1.8v1.7h-1.8zm1.8 1.7h1.8v1.8h-1.8zm0-39h1.8v1.8h-1.8zm-1.8 1.8h1.8v1.8h-1.8zm10.7-10.6h1.7v1.8H-92zm-1.8 1.8h1.8v1.8H-94zm56.7-1.8h1.8v1.8h-1.8zm1.8 1.8h1.7v1.8h-1.7zm7 7h1.8v1.8h-1.7zm1.8 1.9h1.8v1.7h-1.8zM-92 225h1.7v1.8H-92z" fill="#28ae66" stroke="#000" stroke-width=".3" transform="matrix(1.24 0 0 1.1622 204.9 -5.5)"/><path d="M119 224.1h-6.4v-4h4.3v-3.8h4.3v-3.5h4.4v4.3c-3.6 0-6.5 3-6.5 7z" fill="#fff"/><path d="M132 224.1h6.5v-4h-4.3v-3.8h-4.3v-3.5h-4.3v4.3c3.5 0 6.4 3 6.4 7z" fill="#faae29"/><path d="M132 224.1h6.5v4h-4.3v3.9h-4.3v3.4h-4.3v-4.3c3.5 0 6.4-3 6.4-7z" fill="#fff"/><path d="M119 224.1h-6.4v4h4.3v3.9h4.3v3.4h4.4v-4.3c-3.6 0-6.5-3-6.5-7z" fill="#faae29"/><path d="M132 224.1h-6.4v-7c3.5 0 6.4 3.2 6.4 7z" fill="#28ae66"/><path d="M132 224.1h-6.4v7c3.5 0 6.4-3.1 6.4-7z" fill="#ca3745"/><path d="M119 224.1h6.6v7c-3.6 0-6.5-3.1-6.5-7z" fill="#28ae66"/><path d="M119 224.1h6.6v-7c-3.6 0-6.5 3.2-6.5 7z" fill="#ca3745"/><path d="M132.4 249.8l-6.6-4-6.6 4-6.6-4-6.6 4v-2l4.4-2-2.2-2.1v-2h2.2l2.2 2 2.2-2h2.2v2l-2.2 2 4.4 2.1 4.4-2-2.2-2.1v-2h2.2l2.2 2 2.2-2h2.2v2l-2.2 2 4.4 2.1 4.4-2-2.2-2.1v-2h2.2l2.2 2 2.2-2h2.2v2l-2.2 2 4.4 2.1v2l-6.6-4zm0-51.4l-6.6 4.1-6.6-4.1-6.6 4.1-6.6-4.1v2l4.4 2.1-2.2 2v2.1h2.2l2.2-2 2.2 2h2.2v-2l-2.2-2 4.4-2.2 4.4 2.1-2.2 2v2.1h2.2l2.2-2 2.2 2h2.2v-2l-2.2-2 4.4-2.2 4.4 2.1-2.2 2v2.1h2.2l2.2-2 2.2 2h2.2v-2l-2.2-2 4.4-2.2v-2l-6.6 4.1zm24.1 30.9l-3.3-5.2 3.3-5.1-3.3-5.2 3.3-5.1H155l-1.7 3.4-1.6-1.7H150v1.7l1.7 1.7-1.7 1.7v1.7h1.7l1.6-1.7 1.7 3.5-1.7 3.4-1.6-1.7H150v1.7l1.7 1.7-1.7 1.7v1.8h1.7l1.6-1.8 1.7 3.5-1.7 3.4-1.6-1.7H150v1.7l1.7 1.7-1.7 1.7v1.8h1.7l1.6-1.8 1.7 3.5h1.6l-3.3-5.2 3.3-5.1z" fill="#28ae66"/><path d="M-101 177.2l-7 7v26.6l7 7.1h32l7-7v-26.6l-7.1-7.1zm-1.8-5.4l-17.7 17.8v16l17.8 17.6h35.4l17.7-17.7v-16l-17.7-17.7h-35.4z" fill="#28ae66" stroke="#000" stroke-width=".4" transform="matrix(1.24 0 0 1.1622 231.2 -5.5)"/><path d="M-93.9 147l3.5 5.4 3.6-5.4H-94z" fill="#faae29" stroke="#000" stroke-width=".3" transform="matrix(.992 0 0 .7748 208.4 136)"/><path d="M-93.9 147l3.5 5.4 3.6-5.4H-94z" fill="#faae29" stroke="#000" stroke-width=".3" transform="matrix(.992 0 0 -.7748 208.4 312.3)"/><path d="M-93.9 147l3.5 5.4 3.6-5.4H-94z" fill="#faae29" stroke="#000" stroke-width=".3" transform="matrix(.992 0 0 -.7748 222.4 312.3)"/><path d="M-93.9 147l3.5 5.4 3.6-5.4H-94z" fill="#faae29" stroke="#000" stroke-width=".3" transform="matrix(.992 0 0 .7748 222.4 136)"/><path d="M-93.9 147l3.5 5.4 3.6-5.4H-94z" fill="#ca3745" stroke="#000" stroke-width=".3" transform="matrix(.992 0 0 -.7748 201.4 312.3)"/><path d="M-93.9 147l3.5 5.4 3.6-5.4H-94z" fill="#ca3745" stroke="#000" stroke-width=".3" transform="matrix(.992 0 0 -.7748 215.4 312.3)"/><path d="M-93.9 147l3.5 5.4 3.6-5.4H-94z" fill="#ca3745" stroke="#000" stroke-width=".3" transform="matrix(.992 0 0 -.7748 229.5 312.3)"/><path d="M-104.5 180.7l3.5-3.5h-3.5z" fill="#ca3745" stroke="#000" stroke-width=".3" transform="matrix(1.8599 0 0 -1.7432 293.8 558.7)"/><path d="M95 229.3l3.3-5.2L95 219l3.3-5.2-3.3-5.1h1.7l1.6 3.4 1.7-1.7h1.6v1.7l-1.6 1.7 1.6 1.7v1.8H100l-1.7-1.8-1.6 3.5 1.6 3.4 1.7-1.7h1.6v1.7l-1.6 1.7 1.6 1.7v1.8H100l-1.7-1.8-1.6 3.5 1.6 3.4 1.7-1.7h1.6v1.7l-1.6 1.7 1.6 1.7v1.8H100l-1.7-1.8-1.6 3.5H95l3.3-5.2z" fill="#28ae66"/><g stroke="#000"><path d="M-76.2 154.1h7.1l1.8 1.8-1.8 1.8h-7V154z" fill="#ca3745" stroke-width=".3" transform="matrix(1.24 0 0 1.046 253.2 57.3)"/><path d="M-99.2 180.7l-3.6 3.6v26.5l3.6 3.6h-5.3v-33.7z" fill="#ca3745" stroke-width=".4" transform="matrix(1.24 0 0 1.1622 222.4 -5.5)"/><path d="M-93.9 147l3.5 5.4 3.6-5.4H-94z" fill="#ca3745" stroke-width=".3" transform="matrix(.992 0 0 .7748 201.4 136)"/><path d="M-93.9 147l3.5 5.4 3.6-5.4H-94z" fill="#ca3745" stroke-width=".3" transform="matrix(.992 0 0 .7748 215.4 136)"/><path d="M-93.9 147l3.5 5.4 3.6-5.4H-94z" fill="#ca3745" stroke-width=".3" transform="matrix(.992 0 0 .7748 229.5 136)"/><path d="M-99.2 180.7l-3.6 3.6v26.5l3.6 3.6h-5.3v-33.7z" fill="#ca3745" stroke-width=".4" transform="matrix(-1.24 0 0 1.1622 29.1 -5.5)"/><path d="M-104.5 180.7l3.5-3.5h-3.5z" fill="#ca3745" stroke-width=".3" transform="matrix(-1.8599 0 0 -1.7432 -42.3 558.7)"/><path d="M-104.5 180.7l3.5-3.5h-3.5z" fill="#ca3745" stroke-width=".3" transform="matrix(-1.8599 0 0 1.7432 -42.3 -110.5)"/><path d="M-104.5 180.7l3.5-3.5h-3.5z" fill="#ca3745" stroke-width=".3" transform="matrix(1.8599 0 0 1.7432 293.8 -110.5)"/><path d="M-101 177.2l-7 7v26.6l7 7.1h32l7-7v-26.6l-7.1-7.1zm0-1.8l-8.8 8.8v26.6l8.8 8.9h32l8.8-8.9v-26.6l-8.9-8.8z" fill="#28ae66" stroke-width=".4" transform="matrix(1.24 0 0 1.1622 231.2 -5.5)"/><path d="M-76.2 154.1h7.1l1.8 1.8-1.8 1.8h-7V154z" fill="#faae29" stroke-width=".3" transform="matrix(1.24 0 0 1.04607 253.2 61)"/><path d="M-76.2 154.1h7.1l1.8 1.8-1.8 1.8h-7V154z" fill="#ca3745" stroke-width=".3" transform="matrix(1.24 0 0 1.046 253.2 64.8)"/><path d="M-76.2 154.1h7.1l1.8 1.8-1.8 1.8h-7V154z" fill="#faae29" stroke-width=".3" transform="matrix(1.24 0 0 1.04607 253.2 68.4)"/><path d="M-76.2 154.1h7.1l1.8 1.8-1.8 1.8h-7V154z" fill="#faae29" stroke-width=".3" transform="matrix(1.24 0 0 1.04607 253.2 53.6)"/><path d="M-76.2 154.1h7.1l1.8 1.8-1.8 1.8h-7V154z" fill="#ca3745" stroke-width=".3" transform="matrix(-1.24 0 0 1.046 -1.6 57.3)"/><path d="M-76.2 154.1h7.1l1.8 1.8-1.8 1.8h-7V154z" fill="#faae29" stroke-width=".3" transform="matrix(-1.24 0 0 1.04607 -1.6 61)"/><path d="M-76.2 154.1h7.1l1.8 1.8-1.8 1.8h-7V154z" fill="#ca3745" stroke-width=".3" transform="matrix(-1.24 0 0 1.046 -1.6 64.8)"/><path d="M-76.2 154.1h7.1l1.8 1.8-1.8 1.8h-7V154z" fill="#faae29" stroke-width=".3" transform="matrix(-1.24 0 0 1.04607 -1.6 68.5)"/><path d="M-76.2 154.1h7.1l1.8 1.8-1.8 1.8h-7V154z" fill="#faae29" stroke-width=".3" transform="matrix(-1.24 0 0 1.04607 -1.6 53.6)"/><path d="M-101 179v37h8.9v8.9h56.7V216h8.8v-37h-8.8v-8.8h-56.7v8.8zm1.8 1.7v33.7h8.8v8.8h53.2v-8.8h8.9v-33.7h-8.9V172h-53.2v8.8h-8.8z" fill="#970000" stroke-width=".3" transform="matrix(1.24 0 0 1.1622 204.9 -5.5)"/><path d="M-28.4 69.1l-5.3-7.1v-5.3l-5.3-5.3h-10.6l-8.9-5.3h-28.3l-8.9 5.3h-10.6l-5.3 5.3V62l-5.3 7v14.3l5.3 7v5.4l5.3 5.3h10.6l8.9 5.3h28.3l8.9-5.3H-39l5.4-5.3v-5.3l5.3-7.1V69z" fill="#ca3745" stroke-width=".3" transform="matrix(1.24 0 0 1.1176 215.9 -35.5)"/></g><path d="M73 49.6v6l6.7 7.9v6l6.6 5.9h13.1l11 5.9h15.4V49.6H73.1z" fill="#faae29"/><path d="M107.3 63.5l-8 5h-4.9l1.6 1.8-3.2 3.4 1.6 1.7 4.8-1.7 1.6 1.7.8-4.6 8.8-5.4-3.2-2z" fill="#ca3745"/><path d="M98.5 59.5l-8 5.1h-4.9l1.6 1.7-3.2 3.4 1.6 1.7 4.8-1.7 1.6 1.7.8-4.6 8.8-5.3zm-4.4-8l-8 5.2h-4.9l1.6 1.7-3.2 3.4 1.6 1.7 4.8-1.7 1.6 1.7.8-4.6 8.8-5.3-3.1-2z" fill="#ca3745"/><path d="M178.5 49.6v-6l-6.6-7.8v-6l-6.6-6h-13.2l-11-5.9h-15.3v31.7z" fill="#faae29"/><path d="M125.8 81.3h-4l-4.8-4h-7.5l-4-2 2-2 4 2h4.1l4-5.9 6.2 2v4h-6.1l6 5.9z" fill="#ca3745"/><path d="M73 49.6v-6l6.7-7.8v-6l6.6-6h13.1l11-5.9h15.4v31.7H73.1z" fill="#fff"/><path d="M125.8 18h-4l-4.8 3.9h-7.5l-4 2 2 2 4-2h4.1l4 5.9 6.2-2v-4h-6.1l6-5.9zm0 0h4l4.8 3.9h7.5l4 2-2 2-4-2H136l-4.1 5.9-6.1-2v-4h6l-6-5.9z" fill="#ca3745"/><path d="M178.5 49.6v6l-6.6 7.9v6l-6.6 5.9h-13.2l-11 5.9h-15.3V49.6z" fill="#fff"/><path d="M125.8 81.3h4l4.8-4h7.5l4-2-2-2-4 2H136l-4.1-5.9-6.1 2v4h6zM98.5 39.7l-8-5h-4.9l1.6-1.8-3.2-3.4 1.6-1.7 4.8 1.7 1.6-1.7.8 4.6 8.8 5.3zm45.8-4l8-5h4.8l-1.5-1.8 3.2-3.3-1.7-1.7-4.7 1.7-1.7-1.7-.7 4.5-8.8 5.4 3.1 2z" fill="#ca3745"/><path d="M107.3 35.8l-8-5.1h-4.9l1.6-1.8-3.2-3.3 1.6-1.7 4.8 1.7 1.6-1.7.8 4.5 8.8 5.4-3.2 2zM94 47.5l-8-5h-4.9l1.6-1.8-3.2-3.4 1.6-1.7 4.8 1.7 1.6-1.7.8 4.6 8.8 5.3z" fill="#ca3745"/><path d="M77 49.6h2l2 2 2-2h42.8v27.7h-2l2 2v2l-6.1-6v-2h2v2h2v-2l-16.4-8.7h-14v-8.5l-6.1-4.5H83l-2 2 2 2h-2l-4.1-6z" fill="#fff"/><path d="M77 49.6h2l2-2 2 2h42.8V21.9h-2l2-2v-2l-6.1 6v2h2v-2h2v2l-16.4 8.7h-14v8.6l-6.1 4.4H83l-2-2 2-2h-2l-4.1 6z" fill="#faae29"/><path d="M86.3 49.6h39.5v23.8l-17.6-10H95v-7.9z" fill="#28ae66"/><path d="M153.1 39.7l8-5h4.8l-1.6-1.8 3.2-3.4-1.6-1.7-4.8 1.7-1.6-1.7-.7 4.6-8.8 5.3zm4.4 8l8-5.2h4.8l-1.6-1.7 3.2-3.4-1.6-1.7-4.8 1.7-1.6-1.7-.7 4.6-8.8 5.3 3.1 2z" fill="#ca3745"/><path d="M174.6 49.6h-2l-2-2-2.1 2h-42.7V21.9h2l-2-2v-2l6 6v2h-2v-2h-2v2l16.5 8.7h14v8.6l6.1 4.4h4l2.1-2-2-2h2l4 6z" fill="#fff"/><path d="M165.3 49.6h-39.5V26l17.6 9.9h13.1v7.9l8.8 6z" fill="#28ae66"/><path d="M144.3 63.5l8 5h4.9l-1.6 1.8 3.2 3.4-1.6 1.7-4.8-1.7-1.6 1.7-.8-4.6-8.8-5.4 3.1-2z" fill="#ca3745"/><path d="M153.1 59.5l8 5.1h4.8l-1.6 1.7 3.2 3.4-1.6 1.7-4.8-1.7-1.6 1.7-.7-4.6-8.8-5.3zm4.4-8l8 5.2h4.8l-1.6 1.7 3.2 3.4-1.6 1.7-4.8-1.7-1.6 1.7-.7-4.6-8.8-5.3 3.1-2z" fill="#ca3745"/><path d="M174.6 49.6h-2l-2 2-2.1-2h-42.7v27.7h2l-2 2v2l6-6v-2h-2v2h-2v-2l16.5-8.7h14v-8.5l6.1-4.5h4l2.1 2-2 2h2l4-6z" fill="#faae29"/><path d="M165.3 49.6h-39.5v23.8l17.6-10h13.1v-7.9zm-79 0h39.5V26l-17.6 9.9H95v7.9l-8.7 6z" fill="#ca3745"/><path d="M130.1 49.6l11-6h6.7l-2.2-2 4.4-3.9-2.3-2-6.5 2-2.2-2-1 5.3-12.2 6.3zm-8.6 0l-11 6h-6.7l2.2 2-4.4 3.9 2.2 2 6.6-2 2.2 2 1-5.3 12.2-6.3-4.4-2.3z" fill="#ca3745"/><path d="M121.5 49.6l-11-6h-6.7l2.2-2-4.4-3.9 2.2-2 6.6 2 2.2-2 1 5.3 12.2 6.3-4.4 2.3zm8.6 0l11 6h6.7l-2.2 2 4.4 3.9-2.3 2-6.5-2-2.2 2-1-5.3-12.2-6.3z" fill="#28ae66"/><path d="M112.6 49.6l13.2-9.9 13.2 9.9-13.2 9.9z" fill="#fff"/><path d="M83 53.6l2.1 2-2 2h-2l-6.2-8h2l4.1 6h2l-2-2 2-2h4.1v2h-4zm0-8l2.1-2-2-2h-2l-6.2 8h2l4.1-6h2l-2 2 2 2h4.1v-2h-4zm85.5 8l-2 2 2 2h2l6.1-8h-2l-4 6h-2.1l2-2-2-2h-4v2zm0-8l-2-2 2-2h2l6.1 8h-2l-4-6h-2.1l2 2-2 2h-4v-2zm-44.8-4h4.1v16h-4z" fill="#ca3745"/><path d="M117.7 45.6h16.2v8h-16.2z" fill="#ca3745"/><path d="M333 170l-10.6 5.4v8.8l10.7 5.4h10.6l10.6-5.4v-8.8l-10.6-5.3h-10.6z" fill="#28ae66" stroke="#000" stroke-width=".1" transform="matrix(3.4444 0 0 3.7273 -1039.8 -283.1)"/><path d="M84.5 384h2.2v-4.1H91v4h2.2v-9.4H91v4h-4.4v-4h-2.2v9.4zm56 31.5h2.3v-4h4.4v4h2.2V406h-2.2v4.1h-4.4v-4h-2.2v9.4zm-35.4-47.3h2.2V364h4.5v4h2.2v-9.4h-2.2v4h-4.4v-4H105v9.5zm32.5 0h2.2V364h4.4v4h2.3v-9.4h-2.3v4h-4.4v-4h-2.2v9.5zm20.7 15.7h2.2v-4h4.4v4h2.2v-9.4H165v4h-4.4v-4h-2.2v9.4zm0 15.8h2.2v-4h4.4v4h2.2v-9.4H165v4h-4.4v-4h-2.2v9.4z" fill="#c00"/><path d="M125.8 421.9V387h53.1v15.8l-35.4 19h-17.7zm0-69.5V387H72.6v-15.8l35.5-19h17.7z" fill="#faae29"/><path d="M125.8 352.4V387h53.1v-15.8l-35.4-19h-17.7zm0 69.5V387H72.6v15.8l35.5 19h17.7z" fill="#fff"/><path d="M-177.2 368.5h21.3l-21.3-10.6zm24.8-1.8v17.7H-186v-14.1h-7.1l-8.9-5.3v-12.4l5.4-5.4h-7.1V365h-1.8v-19.5h17.7z" fill="#faae29" stroke="#000" stroke-width=".1" transform="matrix(1 0 0 .8913 331.3 44.5)"/><path d="M108 376v22.2h5.4l12.4 6.3 12.4-6.3h5.3V376h-5.3l-12.4-6.4-12.4 6.4z" fill="#ca3745"/><path d="M-177.2 368.5h21.3l-21.3-10.6zm24.8-1.8v17.7H-186v-14.1h-7.1l-8.9-5.3v-12.4l5.4-5.4h-7.1V365h-1.8v-19.5h17.7z" fill="#faae29" stroke="#000" stroke-width=".1" transform="matrix(-1 0 0 -.8913 -79.7 729.8)"/><path d="M-177.2 368.5h21.3l-21.3-10.6zm24.8-1.8v17.7H-186v-14.1h-7.1l-8.9-5.3v-12.4l5.4-5.4h-7.1V365h-1.8v-19.5h17.7z" fill="#fff" stroke="#000" stroke-width=".1" transform="matrix(-1 0 0 .8913 -79.7 44.5)"/><path d="M-177.2 368.5h21.3l-21.3-10.6zm24.8-1.8v17.7H-186v-14.1h-7.1l-8.9-5.3v-12.4l5.4-5.4h-7.1V365h-1.8v-19.5h17.7z" fill="#fff" stroke="#000" stroke-width=".1" transform="matrix(1 0 0 -.8913 331.3 729.8)"/><path d="M83.3 399.8h2.2V395h4.4v4.7h2.2v-11H90v4.7h-4.4v-4.7h-2.2v11zm21.2 15.7h2.2v-4.7h4.5v4.7h2.2v-11h-2.2v4.7h-4.5v-4.7h-2.2zm-21.2-41h2.2v4.7h4.4v-4.7h2.2v11H90v-4.7h-4.4v4.7h-2.2v-11zm21.2-15.8h2.2v4.7h4.5v-4.7h2.2v11h-2.2V365h-4.5v4.7h-2.2zm33.7 56.8h2.2v-4.7h4.4v4.7h2.3v-11h-2.3v4.7h-4.4v-4.7h-2.2zm21.3-30h2.2v-4.7h4.4v4.7h2.2v-11h-2.2v4.7h-4.4v-4.7h-2.2z" fill="#ca3745"/><path d="M138.2 415.5h2.2v-4.7h4.4v4.7h2.3v-11h-2.3v4.7h-4.4v-4.7h-2.2z" fill="#ca3745"/><path d="M138.2 415.5h2.2v-4.7h4.4v4.7h2.3v-11h-2.3v4.7h-4.4v-4.7h-2.2zm21.3-15.8h2.2V395h4.4v4.7h2.2v-11h-2.2v4.7h-4.4v-4.7h-2.2zm-21.3-30h2.2V365h4.4v4.7h2.3v-11h-2.3v4.7h-4.4v-4.7h-2.2z" fill="#ca3745"/><path d="M127.6 387.1l7-5.8h3.6v3h-3.5v1.4h5.3v-5.8h-5.3v-4.3h-7.1v4.3h1.7V377h3.6v3l-7.1 5.7-7-5.8V377h3.4v3h1.8v-4.4h-7v4.3h-5.4v5.8h5.3v-1.5h-3.5v-2.8h3.5l7.1 5.7-7 5.8h-3.6v-3h3.5v-1.4h-5.3v5.8h5.3v4.3h7.1v-4.3h-1.8v2.9h-3.5v-2.9l7-5.8 7.2 5.8v2.9h-3.6v-2.9h-1.7v4.3h7v-4.3h5.4v-5.8h-5.4v1.5h3.6v2.9h-3.5z" fill="#fff"/><path d="M76.1 142.307l3.4-3.529h20.6l15.4-15.507h20.6l15.4 15.6h20.6l3.4 3.436-3.4 3.436h-20.7l-15.4 15.6h-20.6l-15.3-15.6H79.4l-3.4-3.436z" fill="#ca3745"/><path d="M372 391.5l2-2h22.8l17.1-19.4h19l17.2 19.5h22.8l1.9 2-1.9 1.9h-22.8L434.8 411H412l-15.2-17.5h-22.9z" fill="#ca3745" stroke="#000" stroke-width=".3" transform="matrix(.93104 0 0 .84414 -268.5 -187.893)"/><path d="M134.4 144.071l6.8 6.872-3.4 3.435-1.8-1.671h-1.6v1.671l1.7 1.765h3.5l3.4-3.436v-3.529l-6.9-6.871 6.9-6.964v-3.436l-3.4-3.436h-3.5l-1.7 1.672v1.764h1.7l1.8-1.764 3.4 3.528-6.9 6.872-6.8-6.872 6.8-6.964v-1.764h-1.7l-6.8 6.964-6.9-6.964h-1.7v1.764l6.8 6.964-6.8 6.872-6.9-6.872 3.5-3.528 1.7 1.764h1.7v-1.764l-1.7-1.672h-3.5l-3.4 3.436v3.436l6.9 6.964-6.9 6.871v3.529l3.4 3.436h3.5l1.7-1.765v-1.671h-1.9l-1.7 1.671-3.5-3.435 6.9-6.872 6.8 6.872-6.8 6.964v1.671h1.7l6.9-6.871 6.8 6.871h1.7v-1.671l-6.8-6.964 6.8-6.872zm-8.6-8.728l-6.9 6.964 6.9 6.871 6.8-6.871zm-10.3 26v13.928l1.7-1.857 1.7 1.857 1.7-1.857 1.7 1.857 1.8-1.857 1.7 1.857 1.7-1.857 1.7 1.857 1.7-1.857 1.7 1.857 1.7-1.857 1.8 1.857v-13.928h-20.7zm20.6-38.072v-13.928l-1.8 1.857-1.7-1.857-1.7 1.857-1.7-1.857-1.7 1.857-1.7-1.857-1.8 1.857-1.7-1.857-1.7 1.857-1.7-1.857-1.7 1.857-1.7-1.857v13.928zm29 15.6v-13.928l-1.6 1.857-1.7-1.857-1.7 1.857-1.8-1.857-1.7 1.857-1.7-1.857-1.7 1.857-1.7-1.857v13.928h13.7zm-65 0v-13.928l-1.8 1.857-1.7-1.857-1.7 1.857-1.7-1.857-1.7 1.857-1.7-1.857L88 126.8l-1.7-1.857v13.928H100zm65.1 6.872v13.928l-1.7-1.857-1.7 1.857-1.7-1.857-1.8 1.857-1.7-1.857-1.7 1.857-1.7-1.857-1.7 1.857v-13.928zm-65.2 0v13.928l-1.7-1.857-1.7 1.857-1.7-1.857-1.7 1.857-1.7-1.857-1.7 1.857-1.8-1.857-1.7 1.857v-13.928z" fill="#faae29"/><path d="M136 161.343v8.635l1.8-1.764 1.7 1.857 1.7-1.857 1.7 1.857 1.7-1.857 1.7 1.857 1.8-1.857 1.7 1.857 1.7-1.857v-22.471zm-20.5 0v8.635l-1.8-1.764-1.7 1.857-1.7-1.857-1.7 1.857-1.7-1.857-1.7 1.857-1.7-1.857-1.7 1.857-1.8-1.857v-22.471zm0-38.072v-8.635l-1.8 1.671-1.7-1.671-1.7 1.671-1.7-1.671-1.7 1.671-1.7-1.671-1.7 1.671-1.7-1.671-1.8 1.671v22.564zm20.5 0v-8.635l1.8 1.671 1.7-1.671 1.7 1.671 1.7-1.671 1.7 1.671 1.7-1.671 1.7 1.671 1.8-1.671 1.7 1.671v22.564zm-49.7 32.872l-1.7-1.765-1.7 1.858-1.7-1.858-1.7 1.858-1.7-1.858-1.8 1.858-1.7-1.858-1.7 1.858v-27.858l1.7 1.858 1.7-1.858 1.8 1.858 1.7-1.858 1.7 1.858 1.7-1.858 1.7 1.858 1.7-1.858v10.493h-6.8l-3.5 3.436 3.5 3.436h6.8zm78.9 0l1.7-1.765 1.7 1.858 1.7-1.858 1.8 1.858 1.7-1.858 1.7 1.858 1.7-1.858 1.7 1.858v-27.858l-1.7 1.858-1.7-1.858-1.7 1.858-1.7-1.858-1.8 1.858-1.7-1.858-1.7 1.858-1.7-1.858v10.493h6.9l3.4 3.436-3.4 3.436h-6.9z" fill="#28ae66"/><path d="M107 162.457s-1.4 1.3-1.4 2.043c0 .65 1.5 2.043 2.2 2.043.8 0 2.1-1.393 2.1-2.043s-1.4-2.043-1.4-2.043v-2.786s3 4.736 3 2.693c0-1.486-3-3.993-3-3.993H107s-3 2.972-3 3.993c0 2.043 3-2.693 3-2.693z" fill="#fff"/><path d="M124.9 167.75s-1.7 1.857-1.7 2.785 1.8 2.972 2.6 2.972c1 0 2.5-1.95 2.5-2.879s-1.7-2.878-1.7-2.878v-3.9s3 6.314 3 3.435c0-1.857-3-5.292-3-5.292h-1.7s-3.5 4.271-3 5.292c0 2.88 3-3.435 3-3.435z" fill="#ca3745"/><g fill="#28ae66" transform="matrix(1 0 0 .92857 198.4 17.6)"><ellipse cx="403.9" cy="391.5" rx="3.5" ry="1.8" transform="matrix(.96774 0 0 1.0526 -482.4 -277.9)"/><ellipse cx="403.9" cy="391.5" rx="3.5" ry="1.8" transform="matrix(.96774 0 0 1.0526 -463.5 -277.9)"/><ellipse cx="403.9" cy="391.5" rx="3.5" ry="1.8" transform="matrix(.96774 0 0 1.0526 -444.7 -277.9)"/></g><path d="M106.7 122.343s-1.4-1.393-1.4-2.043 1.5-2.136 2.1-2.136c.8 0 2.1 1.393 2.1 2.043 0 .743-1.4 2.136-1.4 2.136v2.785s3.1-4.828 3.1-2.785c0 1.485-3 4.085-3 4.085h-1.5s-3.1-2.971-3.1-3.992c0-2.043 3 2.6 3 2.6v-2.786z" fill="#fff"/><path d="M124.5 116.957s-1.7-1.857-1.7-2.786 1.9-2.878 2.6-2.878c1 0 2.6 1.857 2.6 2.785s-1.7 2.972-1.7 2.972v3.714s3-6.221 3-3.343c0 1.857-3 5.386-3 5.386h-1.9s-3.5-4.364-3-5.386c0-2.785 3 3.436 3 3.436v-3.9z" fill="#ca3745"/><path d="M143.5 162.457s-1.4 1.3-1.4 2.043c0 .65 1.5 2.043 2.2 2.043.8 0 2.1-1.393 2.1-2.043s-1.4-2.043-1.4-2.043v-2.786s3 4.736 3 2.693c0-1.486-3-3.993-3-3.993h-1.6s-3 2.972-3 3.993c0 2.043 3-2.693 3-2.693v2.786zm-.3-40.114s-1.4-1.393-1.4-2.136c0-.557 1.5-2.043 2.1-2.043.8 0 2.1 1.393 2.1 2.043 0 .743-1.4 2.136-1.4 2.136v2.785s3.1-4.828 3.1-2.785c0 1.485-3 4.085-3 4.085h-1.5s-3.1-2.971-3.1-3.992c0-2.043 3 2.6 3 2.6v-2.786z" fill="#fff"/><path d="M92.1 152.8s-1.9 1.3-1.9 1.857c0 .65 2 2.043 2.9 1.95 1 0 2.8-1.207 2.8-1.857S94 152.8 94 152.8v-2.6s3.4 4.178 3.4 2.321c0-1.3-3.4-3.621-3.4-3.621h-1.9s-3.9 2.971-3.3 3.621c0 1.857 3.3-2.321 3.3-2.321zm-.4-19.593s-1.9-1.3-1.9-1.95 2-1.95 2.9-1.857c1 0 2.8 1.207 2.8 1.857s-1.9 1.857-1.9 1.857v2.6s3.4-4.178 3.4-2.228c0 1.207-3.4 3.528-3.4 3.528h-1.9s-3.9-2.878-3.3-3.528c0-1.858 3.3 2.228 3.3 2.228zm66.3 19.129s-2 1.3-2 1.95 2.1 1.95 3 1.95c1 0 2.8-1.3 2.8-1.858 0-.742-2-2.042-2-2.042v-2.508s3.4 4.179 3.4 2.229c0-1.207-3.3-3.529-3.3-3.529h-2s-3.8 2.879-3.3 3.529c0 1.95 3.4-2.229 3.4-2.229v2.6zm-.4-19.5s-2-1.3-2-1.95 2.1-1.95 3-1.95c1 0 2.8 1.3 2.8 1.857 0 .743-2 1.95-2 1.95v2.6s3.4-4.179 3.4-2.322c0 1.3-3.3 3.622-3.3 3.622h-2s-3.8-2.879-3.3-3.529c0-1.95 3.4 2.229 3.4 2.229v-2.6z" fill="#ca3745"/><path d="M78.1 152.614c-.6-1.207-.4-1.764-.4-2.414s1.7-1.857 2.3-1.857c.8 0 2.1 1.3 2.1 2.043 0 .65 0 1.207-.3 2.414l-.8-1.95c-1.1 2.786-1.2 2.786-1.8-.093l-1 1.857zm0-19.964c-.5 1.207-.4 1.764-.4 2.414s1.7 1.857 2.4 1.857c.8 0 2.1-1.3 2.1-2.043 0-.65 0-1.207-.3-2.414l-.9 1.95c-1-2.786-1.1-2.786-1.8.093l-1-1.857zm92.5 19.686c-.6-1.208-.5-1.765-.5-2.415s1.8-1.857 2.4-1.857c.8 0 2.1 1.393 2.1 2.043s0 1.3-.3 2.414l-.9-1.95c-1 2.786-1.1 2.879-1.8 0zm0-19.872c-.6 1.114-.4 1.672-.4 2.414 0 .558 1.7 1.858 2.3 1.858.8 0 2.2-1.393 2.2-2.043 0-.743 0-1.3-.3-2.507l-1 2.042c-1-2.878-1-2.971-1.7 0l-1-1.857z" fill="#fff"/><path d="M115.2 177.2v-5.4h-16v-10.6H85v-3.5H72.6v-32H85v-3.5h14.2v-10.6h16v-5.3h21.2v5.3h16v10.6h14.1v3.6H179v31.9h-12.4v3.5h-14.1v10.6h-16v5.3h-21.2zm-1.8 1.7v-5.3h-16V163H83.3v-3.6H70.9V124h12.4v-3.5h14.1v-10.7h16v-5.3h24.8v5.3h16v10.7h14.1v3.5h12.4v35.4h-12.4v3.6h-14.2v10.6h-16v5.3z" fill="#ca3745" stroke="#000" stroke-width=".1" transform="matrix(1 0 0 .92856 0 11.1)"/></g></svg>