<svg viewBox="0 0 640 480" xmlns="http://www.w3.org/2000/svg"><path d="M-1 1.8h641.3v479H-1z" fill="#fff"/><path d="M248.4 1.8h142.5v479H248.4z" fill="#dc171d"/><path d="M-1 161.4h641.3v159.7H-1z" fill="#012a87"/><path d="M319.65 168.15l-5.55 19.05 8.4 3.15zm-639.3 0l-5.55 19.05 8.4 3.15zm250.62 208.201l-5.516-16.976-9.558 3.106zM-277.06-263.9l-6.677 17.31 9.326 2.49zm543.644 32.24l15.577-10.079-6.08-7.496zM79.505 344.11l-5.516 16.977 9.558 3.105zM-387.093 28.896l15.687 12.15 4.944-7.486zM147.1-359.218l-4.772 17.93 9.008 3.467zm-277.211 12.343l-18.527 1.002-.514 9.639zM370.104 16.553l-6.707 18.674 8.647 2.389zM422.6 215.564l-5.55 19.05 8.4 3.15zm-829.2 0l-5.55 19.05 8.4 3.15zM-73.487 483.55l-5.516-16.977-9.558 3.105zM-340.2-337.308l-6.677 17.31 9.325 2.49zm685.924 32.241l15.577-10.08-6.08-7.496zM99.963 451.308l-5.516 16.977 9.558 3.105zM-481.83 52.343l15.687 12.15 4.944-7.486zm687.825-499.735l-4.772 17.93 9.008 3.467zm-379.001 12.343l-18.527 1.002-.514 9.639zM480.841 40l-6.707 18.673 8.647 2.39zM362.264 282.5l-5.55 19.05 8.4 3.15zm-717.9 0l-5.55 19.05 8.4 3.15zm200.92 172.092l-5.516-16.977-9.558 3.106zm-232.319-715.005l-6.678 17.311 9.326 2.49zm770.222 32.241l15.577-10.08-6.08-7.496zM171.82 422.35l-5.516 16.977 9.558 3.106zM-478.173-26.164l15.687 12.15 4.944-7.486zM119.61-460.478l-4.773 17.93 9.008 3.466zm-215.603 12.343l-18.527 1.001-.513 9.64zM467.811-38.507l-6.707 18.674 8.647 2.389zM-232.7 215.564l-5.55 19.05 8.4 3.15zm449.4 0l-5.55 19.05 8.4 3.15zm-74.055 55.139l-5.516 16.976 9.559 3.106zm128.397-395.164l15.577-10.08-6.081-7.496zm-568.513-32.099l-6.678 17.311 9.326 2.49zm149.255 459.36l-5.516-16.976-9.558 3.106zM311.21-71.621l-6.708 18.674 8.647 2.389zM-35.374-323.428l-18.527 1.001-.513 9.639zm71.616-12.256l-4.773 17.93 9.008 3.467zM-344.077-59.366l15.687 12.15 4.944-7.486zm60.563 341.866l-5.55 19.05 8.4 3.15zm560.4 0l-5.55 19.05 8.4 3.15zm-87.406 65.098l-5.515 16.976 9.558 3.106zm162.791-501.017l15.577-10.08-6.081-7.495zm-721.599-32.098l-6.677 17.31 9.326 2.49zm183.649 565.213l-5.516-16.976-9.558 3.105zM397.595-84.707l-6.707 18.674 8.647 2.389zM-39.031-401.935l-18.527 1.001-.514 9.64zm88.303-12.255l-4.773 17.93 9.009 3.466zM-421.09-72.452l15.687 12.15 4.944-7.486z" fill="#fff"/></svg>