<?xml version="1.0" encoding="UTF-8"?>
<!DOCTYPE svg PUBLIC "-//W3C//DTD SVG 1.1//EN" "http://www.w3.org/Graphics/SVG/1.1/DTD/svg11.dtd">
<!-- Creator: CorelDRAW X7 -->
<svg xmlns="http://www.w3.org/2000/svg" xml:space="preserve" width="179.994mm" height="173.468mm" version="1.1" style="shape-rendering:geometricPrecision; text-rendering:geometricPrecision; image-rendering:optimizeQuality; fill-rule:evenodd; clip-rule:evenodd"
viewBox="0 0 16112 15528"
 xmlns:xlink="http://www.w3.org/1999/xlink">
 <defs>
  <style type="text/css">
   <![CDATA[
    .fil0 {fill:white}
   ]]>
  </style>
 </defs>
 <g id="Warstwa_x0020_1">
  <metadata id="CorelCorpID_0Corel-Layer"/>
  <g id="_2742237104800">
   <g>
    <g>
     <path class="fil0" d="M9839 9445c1456,-592 2399,-2016 2376,-3587 0,-2160 -1866,-3917 -4159,-3917 -2294,0 -4159,1757 -4159,3917 -24,1571 920,2995 2376,3587l32 17 220 361c-393,228 -527,731 -300,1124 30,52 66,100 106,144 -308,338 -284,862 54,1170 153,140 354,217 562,217l2218 0c457,2 830,-368 832,-825 1,-208 -77,-408 -217,-562 307,-335 285,-855 -50,-1162 -44,-40 -92,-76 -144,-106l220 -361 33 -17zm-674 2478l-2218 0c-153,0 -278,-124 -278,-277 0,-153 125,-278 278,-278l2218 0c153,0 277,125 277,278 0,153 -124,277 -277,277zm0 -1109l-2218 0c-153,0 -278,-124 -278,-277 0,-153 125,-278 278,-278l2218 0c153,0 277,125 277,278 0,153 -124,277 -277,277zm422 -1864l-111 61c-43,23 -79,57 -104,99l-363 595 -121 0 0 -2104 1305 -1305 -392 -392 -1387 1386c-52,52 -81,123 -81,197l0 2218 -555 0 0 -2218c0,-74 -29,-145 -81,-197l-1386 -1386 -392 392 1305 1305 0 2104 -122 0 -362 -595c-26,-42 -62,-76 -105,-100l-111 -60c-8,-5 -18,-9 -27,-13 -1254,-504 -2067,-1728 -2046,-3079 0,-1854 1617,-3362 3605,-3362 1987,0 3604,1508 3604,3362 21,1351 -792,2575 -2046,3079 -9,4 -18,9 -27,13z"/>
    </g>
   </g>
   <g>
    <g>
     <rect class="fil0" transform="matrix(0.4472 -0.8944 0.8944 0.4472 2108.77 2466.3)" width="555" height="1860"/>
    </g>
   </g>
   <g>
    <g>
     <rect class="fil0" transform="matrix(0.9486 -0.3164 0.3164 0.9486 12025 2665.37)" width="1860" height="555"/>
    </g>
   </g>
   <g>
    <g>
     <rect class="fil0" x="1124" y="5546" width="1664" height="555"/>
    </g>
   </g>
   <g>
    <g>
     <rect class="fil0" x="13324" y="5546" width="1664" height="555"/>
    </g>
   </g>
   <g>
    <g>
     <rect class="fil0" transform="matrix(0.8944 -0.4472 0.4472 0.8944 2108.81 9733.72)" width="1860" height="555"/>
    </g>
   </g>
   <g>
    <g>
     <rect class="fil0" transform="matrix(0.4472 -0.8944 0.8944 0.4472 12090.8 9398.92)" width="555" height="1860"/>
    </g>
   </g>
   <g>
    <g>
     <rect class="fil0" x="7778" width="555" height="1386"/>
    </g>
   </g>
   <g>
    <g>
     <path class="fil0" d="M16097 13032l0 -554c-3618,0 -7462,874 -7487,2495l-1109 0c-25,-1621 -3869,-2495 -7486,-2495l0 554c4062,0 6898,1020 6930,1941l-6930 0 0 555 16082 0 0 -555 -6931 0c32,-921 2869,-1941 6931,-1941z"/>
    </g>
   </g>
   <g>
    <g>
     <rect class="fil0" transform="matrix(0.0526 -0.9986 0.9986 0.0526 0.0119489 14418.5)" width="555" height="5277"/>
    </g>
   </g>
   <g>
    <g>
     <rect class="fil0" transform="matrix(0.9986 -0.0527 0.0527 0.9986 10813.3 14142.3)" width="5277" height="555"/>
    </g>
   </g>
   <g>
   </g>
   <g>
   </g>
   <g>
   </g>
   <g>
   </g>
   <g>
   </g>
   <g>
   </g>
   <g>
   </g>
   <g>
   </g>
   <g>
   </g>
   <g>
   </g>
   <g>
   </g>
   <g>
   </g>
   <g>
   </g>
   <g>
   </g>
   <g>
   </g>
  </g>
 </g>
</svg>
