<?xml version="1.0" standalone="no"?>
<!DOCTYPE svg PUBLIC "-//W3C//DTD SVG 1.1//EN" "http://www.w3.org/Graphics/SVG/1.1/DTD/svg11.dtd" >
<svg xmlns="http://www.w3.org/2000/svg" xmlns:xlink="http://www.w3.org/1999/xlink" version="1.1">
<metadata>
Created by FontForge 20170731 at Sun Sep 15 02:45:53 2013
 By Aleksey,,,
Copyright (c) 2011 Swiss Typefaces Sa`rl. All rights reserved.
</metadata>
<defs>
<font id="SimplonNorm-Light" horiz-adv-x="558" >
  <font-face 
    font-family="Simplon Norm Light"
    font-weight="300"
    font-stretch="normal"
    units-per-em="1000"
    panose-1="2 11 3 0 3 0 0 0 0 0"
    ascent="806"
    descent="-194"
    x-height="516"
    cap-height="700"
    bbox="-220 -210 1028 874"
    underline-thickness="48"
    underline-position="-196"
    unicode-range="U+0020-FB04"
  />
<missing-glyph horiz-adv-x="500" 
d="M443 0h-387v700h387v-700zM249 408l106 238h-212zM388 96v507l-113 -253zM111 98l112 252l-112 251v-503zM143 54h212l-106 237z" />
    <glyph glyph-name=".notdef" horiz-adv-x="500" 
d="M443 0h-387v700h387v-700zM249 408l106 238h-212zM388 96v507l-113 -253zM111 98l112 252l-112 251v-503zM143 54h212l-106 237z" />
    <glyph glyph-name=".null" horiz-adv-x="0" 
 />
    <glyph glyph-name="nonmarkingreturn" horiz-adv-x="333" 
 />
    <glyph glyph-name="space" unicode=" " horiz-adv-x="230" 
 />
    <glyph glyph-name="exclam" unicode="!" horiz-adv-x="264" 
d="M105 700h53v-490h-53v490zM90 0v84h84v-84h-84z" />
    <glyph glyph-name="quotedbl" unicode="&#x22;" horiz-adv-x="356" 
d="M138 476h-53v224h53v-224zM271 476h-53v224h53v-224z" />
    <glyph glyph-name="numbersign" unicode="#" horiz-adv-x="700" 
d="M562 216h-93l-53 -216h-47l53 216h-211l-53 -216h-47l53 216h-71v45h82l44 178h-81v45h92l54 216h47l-54 -216h211l54 216h47l-54 -216h72v-45h-83l-44 -178h82v-45zM266 439l-44 -178h211l44 178h-211z" />
    <glyph glyph-name="dollar" unicode="$" horiz-adv-x="505" 
d="M233 709v91h43v-91q75 -7 118.5 -57t47.5 -122h-53q-4 51 -33 86t-80 42v-289l41 -17q72 -29 104 -79t32 -109q0 -72 -43.5 -120t-133.5 -53v-91h-43v91q-82 7 -133 64.5t-54 144.5h53q5 -64 40 -107.5t94 -50.5v286l-34 14q-142 57 -142 185q0 75 47 125t129 57z
M110 527q0 -90 97 -130l26 -11v272q-63 -6 -93 -42.5t-30 -88.5zM400 164q0 47 -26 82t-70 53l-28 11v-268q62 5 93 38t31 84z" />
    <glyph glyph-name="percent" unicode="%" horiz-adv-x="806" 
d="M620 700h48l-481 -700h-48zM189 330q32 0 53 19.5t21 55.5v184q0 36 -21 55.5t-53 19.5q-31 0 -52.5 -19.5t-21.5 -55.5v-184q0 -36 21.5 -55.5t52.5 -19.5zM189 288q-48 0 -82.5 28t-34.5 89v184q0 61 34.5 89t82.5 28t82.5 -28t34.5 -89v-184q0 -61 -34.5 -89
t-82.5 -28zM617 36q32 0 53 19.5t21 55.5v184q0 36 -21 55.5t-53 19.5q-31 0 -52.5 -19.5t-21.5 -55.5v-184q0 -36 21.5 -55.5t52.5 -19.5zM617 -6q-48 0 -82.5 28t-34.5 89v184q0 61 34.5 89t82.5 28t82.5 -28t34.5 -89v-184q0 -61 -34.5 -89t-82.5 -28z" />
    <glyph glyph-name="ampersand" unicode="&#x26;" horiz-adv-x="595" 
d="M402 649h-155q-64 0 -99.5 -37.5t-35.5 -98.5q0 -60 35.5 -97t99.5 -37h155v80h53v-80h127v-51h-127v-328h-203q-90 0 -141.5 52t-51.5 138q0 57 25.5 99t69.5 64q-95 42 -95 160q0 95 55 141t133 46h155v-51zM252 51h150v277h-150q-70 0 -105 -39t-35 -99q0 -61 35 -100
t105 -39z" />
    <glyph glyph-name="quotesingle" unicode="'" horiz-adv-x="223" 
d="M138 476h-53v224h53v-224z" />
    <glyph glyph-name="parenleft" unicode="(" horiz-adv-x="262" 
d="M101 11v586q0 53 23 78t84 25h10v-42h-10q-38 0 -51 -14t-13 -47v-586q0 -33 13 -47t51 -14h10v-42h-10q-61 0 -84 25t-23 78z" />
    <glyph glyph-name="parenright" unicode=")" horiz-adv-x="262" 
d="M161 597v-586q0 -53 -23 -78t-84 -25h-10v42h10q38 0 51 14t13 47v586q0 33 -13 47t-51 14h-10v42h10q61 0 84 -25t23 -78z" />
    <glyph glyph-name="asterisk" unicode="*" horiz-adv-x="453" 
d="M300 407l-74 100l-73 -100l-37 26l74 100l-118 39l14 43l118 -39v124h45v-124l118 39l14 -43l-118 -39l74 -100z" />
    <glyph glyph-name="plus" unicode="+" 
d="M257 82v176h-176v45h176v175h45v-175h175v-45h-175v-176h-45z" />
    <glyph glyph-name="comma" unicode="," horiz-adv-x="264" 
d="M90 0v84h84v-84l-31 -84h-49l31 84h-35z" />
    <glyph glyph-name="hyphen" unicode="-" horiz-adv-x="410" 
d="M350 258h-290v45h290v-45z" />
    <glyph glyph-name="period" unicode="." horiz-adv-x="264" 
d="M90 0v84h84v-84h-84z" />
    <glyph glyph-name="slash" unicode="/" horiz-adv-x="332" 
d="M283 700h49l-283 -700h-49z" />
    <glyph glyph-name="zero" unicode="0" horiz-adv-x="534" 
d="M465 508v-316q0 -103 -59 -152.5t-139 -49.5t-139 49.5t-59 152.5v316q0 103 59 152.5t139 49.5t139 -49.5t59 -152.5zM412 192v316q0 69 -40.5 110t-104.5 41t-104.5 -41t-40.5 -110v-316q0 -69 40.5 -110t104.5 -41t104.5 41t40.5 110z" />
    <glyph glyph-name="one" unicode="1" horiz-adv-x="329" 
d="M52 517v68l134 115h53v-700h-53v632z" />
    <glyph glyph-name="two" unicode="2" horiz-adv-x="507" 
d="M106 508v-13h-53v13q0 103 59 152.5t139 49.5t139 -49t59 -147q0 -88 -86 -187l-243 -276h329v-51h-396v51l272 310q71 81 71 153q0 64 -40 104t-105 41q-64 0 -104.5 -41t-40.5 -110z" />
    <glyph glyph-name="three" unicode="3" horiz-adv-x="513" 
d="M255 -10q-84 0 -143.5 49t-59.5 153v8h53v-8q0 -70 41 -110.5t109 -40.5q66 0 103 38t37 109q0 58 -36.5 99t-100.5 41h-49v51h51q63 0 99 38.5t36 98.5q0 61 -41 102t-104 41q-64 0 -104.5 -41t-40.5 -110v-8h-53v8q0 103 59 152.5t139 49.5t139 -49.5t59 -144.5
q0 -116 -97 -163q44 -22 70.5 -65t26.5 -100q0 -97 -53 -147.5t-140 -50.5z" />
    <glyph glyph-name="four" unicode="4" horiz-adv-x="508" 
d="M349 700h53v-451h73v-49h-73v-200h-53v200h-329v49zM82 249h267v365z" />
    <glyph glyph-name="five" unicode="5" horiz-adv-x="514" 
d="M131 649v-269q49 57 136 57q80 0 139 -49.5t59 -152.5v-43q0 -103 -59 -152.5t-139 -49.5t-139 49.5t-59 152.5v8h53v-8q0 -69 40.5 -110t104.5 -41t104.5 41t40.5 110v43q0 69 -40.5 110t-104.5 41q-89 0 -127 -71h-62v385h360v-51h-307z" />
    <glyph glyph-name="six" unicode="6" horiz-adv-x="528" 
d="M122 508v-146q19 29 58.5 48.5t86.5 19.5q80 0 139 -49.5t59 -152.5v-36q0 -103 -59 -152.5t-139 -49.5t-139 49.5t-59 152.5v316q0 103 59 152.5t139 49.5t139 -49.5t59 -152.5v-8h-53v8q0 69 -40.5 110t-104.5 41t-104.5 -41t-40.5 -110zM122 228v-36q0 -69 40.5 -110
t104.5 -41t104.5 41t40.5 110v36q0 69 -40.5 110t-104.5 41t-104.5 -41t-40.5 -110z" />
    <glyph glyph-name="seven" unicode="7" horiz-adv-x="442" 
d="M23 700h390v-51l-237 -649h-53l237 649h-337v51z" />
    <glyph glyph-name="eight" unicode="8" horiz-adv-x="526" 
d="M454 519q0 -115 -90 -166q44 -21 70.5 -66.5t26.5 -102.5q0 -66 -32 -112t-75 -64t-91 -18t-91 18t-75 64t-32 112q0 57 26.5 102.5t70.5 66.5q-90 51 -90 166q0 94 56.5 142.5t134.5 48.5t134.5 -48.5t56.5 -142.5zM408 184q0 62 -42.5 103t-102.5 41t-102.5 -41
t-42.5 -103t42.5 -102.5t102.5 -40.5t102.5 40.5t42.5 102.5zM125 519q0 -62 36 -101t102 -39t102 39t36 101q0 61 -36.5 100.5t-101.5 39.5t-101.5 -39.5t-36.5 -100.5z" />
    <glyph glyph-name="nine" unicode="9" horiz-adv-x="528" 
d="M406 192v146q-19 -29 -58.5 -48.5t-86.5 -19.5q-80 0 -139 49.5t-59 152.5v36q0 103 59 152.5t139 49.5t139 -49.5t59 -152.5v-316q0 -103 -59 -152.5t-139 -49.5t-139 49.5t-59 152.5v8h53v-8q0 -69 40.5 -110t104.5 -41t104.5 41t40.5 110zM406 472v36q0 69 -40.5 110
t-104.5 41t-104.5 -41t-40.5 -110v-36q0 -69 40.5 -110t104.5 -41t104.5 41t40.5 110z" />
    <glyph glyph-name="colon" unicode=":" horiz-adv-x="264" 
d="M90 432v84h84v-84h-84zM90 0v84h84v-84h-84z" />
    <glyph glyph-name="semicolon" unicode=";" horiz-adv-x="264" 
d="M90 0v84h84v-84l-31 -84h-49l31 84h-35zM90 432v84h84v-84h-84z" />
    <glyph glyph-name="less" unicode="&#x3c;" 
d="M124 259l353 -213v-51l-396 239v50l396 239v-51z" />
    <glyph glyph-name="equal" unicode="=" 
d="M81 395h396v-45h-396v45zM477 155h-396v45h396v-45z" />
    <glyph glyph-name="greater" unicode="&#x3e;" 
d="M81 46l353 213l-353 213v51l396 -239v-50l-396 -239v51z" />
    <glyph glyph-name="question" unicode="?" horiz-adv-x="504" 
d="M47 508q0 103 59 152.5t139 49.5t139 -49.5t59 -152.5q0 -86 -76 -154l-60 -55q-22 -21 -29 -34t-7 -33v-22h-53v22q0 55 53 103l60 55q59 55 59 118q0 69 -40.5 110t-104.5 41t-104.5 -41t-40.5 -110v-8h-53v8zM200 0v84h84v-84h-84z" />
    <glyph glyph-name="at" unicode="@" horiz-adv-x="862" 
d="M576 319v9q0 69 -40.5 110t-104.5 41q-56 0 -94.5 -32t-47.5 -87h-54q10 87 66.5 128.5t129.5 41.5q80 0 139 -49.5t59 -152.5v-232q0 -26 14.5 -44.5t43.5 -18.5t43 18.5t14 44.5v295q0 47 -18 94t-54 89t-98.5 68t-142.5 26t-142.5 -26t-98.5 -68t-54 -89t-18 -94v-266
q0 -47 18 -94t54 -89t98.5 -68t142.5 -26q118 0 201 59l25 -36q-92 -65 -226 -65q-91 0 -162.5 30t-112 78.5t-61 102.5t-20.5 108v266q0 54 20.5 108t61 102.5t112 78.5t162.5 30t162.5 -30t112 -78.5t61 -102.5t20.5 -108v-287q0 -114 -102 -114q-44 0 -72 21t-37 52
q-50 -73 -172 -73q-81 0 -126.5 43.5t-45.5 108.5q0 114 112 148q64 19 232 29zM576 192v80q-181 -11 -226 -32q-65 -29 -65 -94q0 -46 31.5 -75.5t99.5 -29.5q70 0 115 41.5t45 109.5z" />
    <glyph glyph-name="A" unicode="A" horiz-adv-x="564" 
d="M489 0l-74 217h-266l-74 -217h-56l238 700h50l238 -700h-56zM166 268h232l-116 341z" />
    <glyph glyph-name="B" unicode="B" horiz-adv-x="579" 
d="M419 359q46 -17 77 -63t31 -105q0 -82 -51.5 -136.5t-139.5 -54.5h-251v700h233q86 0 139 -53t53 -134q0 -51 -25 -92.5t-66 -61.5zM336 328h-196v-274h196q60 0 98 37.5t38 99.5t-38 99.5t-98 37.5zM140 381h178q58 0 97.5 35t39.5 97t-39.5 97.5t-97.5 35.5h-178v-265z
" />
    <glyph glyph-name="C" unicode="C" horiz-adv-x="559" 
d="M450 200h55q-8 -97 -68.5 -153.5t-151.5 -56.5q-97 0 -159 64.5t-62 172.5v246q0 108 62 172.5t159 64.5q91 0 151.5 -56.5t68.5 -153.5h-55q-7 76 -53 116t-112 40q-72 0 -119 -47t-47 -136v-246q0 -89 47 -136t119 -47q66 0 112 40t53 116z" />
    <glyph glyph-name="D" unicode="D" horiz-adv-x="591" 
d="M527 463v-226q0 -108 -62 -172.5t-159 -64.5h-221v700h221q97 0 159 -64.5t62 -172.5zM140 646v-592h166q72 0 119 47t47 136v226q0 89 -47 136t-119 47h-166z" />
    <glyph glyph-name="E" unicode="E" horiz-adv-x="541" 
d="M140 328v-274h332v-54h-387v700h387v-54h-332v-265h332v-53h-332z" />
    <glyph glyph-name="F" unicode="F" horiz-adv-x="531" 
d="M140 328v-328h-55v700h387v-54h-332v-265h332v-53h-332z" />
    <glyph glyph-name="G" unicode="G" horiz-adv-x="566" 
d="M285 308v53h221v-134q0 -108 -62 -172.5t-159 -64.5t-159 64.5t-62 172.5v246q0 108 62 172.5t159 64.5q91 0 151.5 -56.5t68.5 -153.5h-55q-7 76 -53 116t-112 40q-72 0 -119 -47t-47 -136v-246q0 -89 47 -136t119 -47t119 47t47 136v81h-166z" />
    <glyph glyph-name="H" unicode="H" horiz-adv-x="612" 
d="M472 381v319h55v-700h-55v328h-332v-328h-55v700h55v-319h332z" />
    <glyph glyph-name="I" unicode="I" horiz-adv-x="225" 
d="M140 700v-700h-55v700h55z" />
    <glyph glyph-name="J" unicode="J" horiz-adv-x="467" 
d="M336 182v518h55v-518q0 -86 -53 -139t-134 -53t-133 53t-52 139v18h55v-18q0 -58 35 -98t96 -40t96 40t35 98z" />
    <glyph glyph-name="K" unicode="K" horiz-adv-x="597" 
d="M140 206v-206h-55v700h55v-411l349 411h71l-246 -289l272 -411h-66l-243 367z" />
    <glyph glyph-name="L" unicode="L" horiz-adv-x="492" 
d="M140 700v-646h332v-54h-387v700h55z" />
    <glyph glyph-name="M" unicode="M" horiz-adv-x="706" 
d="M384 188h-62l-184 400v-588h-53v700h58l210 -453l210 453h58v-700h-53v588z" />
    <glyph glyph-name="N" unicode="N" horiz-adv-x="612" 
d="M527 700v-700h-55l-332 591v-591h-55v700h55l332 -591v591h55z" />
    <glyph glyph-name="O" unicode="O" horiz-adv-x="570" 
d="M506 473v-246q0 -108 -62 -172.5t-159 -64.5t-159 64.5t-62 172.5v246q0 108 62 172.5t159 64.5t159 -64.5t62 -172.5zM119 473v-246q0 -89 47 -136t119 -47t119 47t47 136v246q0 89 -47 136t-119 47t-119 -47t-47 -136z" />
    <glyph glyph-name="P" unicode="P" horiz-adv-x="549" 
d="M311 293h-171v-293h-55v700h226q88 0 146 -53.5t58 -149.5q0 -97 -58 -150.5t-146 -53.5zM140 347h171q63 0 106 39.5t43 110.5q0 70 -43 109.5t-106 39.5h-171v-299z" />
    <glyph glyph-name="Q" unicode="Q" horiz-adv-x="569" 
d="M496 -45l-77 77q-55 -42 -134 -42q-97 0 -159 64.5t-62 172.5v246q0 108 62 172.5t159 64.5t159 -64.5t62 -172.5v-246q0 -97 -50 -159l77 -76zM119 473v-246q0 -89 47 -136t119 -47q55 0 95 27l-73 73l36 37l75 -74q33 47 33 120v246q0 89 -47 136t-119 47t-119 -47
t-47 -136z" />
    <glyph glyph-name="R" unicode="R" horiz-adv-x="572" 
d="M282 328h-142v-328h-55v700h238q86 0 139 -53t53 -134q0 -76 -47 -126.5t-124 -57.5l194 -329h-63zM140 381h183q58 0 97.5 35t39.5 97t-39.5 97.5t-97.5 35.5h-183v-265z" />
    <glyph glyph-name="S" unicode="S" horiz-adv-x="515" 
d="M250 656q-68 0 -105.5 -37.5t-37.5 -94.5q0 -50 26 -84t73 -47l125 -34q60 -16 98.5 -63t38.5 -118q0 -82 -51.5 -135t-152.5 -53q-94 0 -155 56.5t-68 153.5h55q6 -75 53.5 -115.5t114.5 -40.5q71 0 110 34.5t39 99.5q0 44 -25.5 79t-78.5 49l-121 33
q-65 18 -100.5 67.5t-35.5 117.5q0 80 52.5 133t145.5 53q84 0 138 -47.5t69 -132.5h-55q-28 126 -152 126z" />
    <glyph glyph-name="T" unicode="T" horiz-adv-x="481" 
d="M268 646v-646h-55v646h-194v54h443v-54h-194z" />
    <glyph glyph-name="U" unicode="U" horiz-adv-x="594" 
d="M76 227v473h55v-473q0 -89 47 -136t119 -47t119 47t47 136v473h55v-473q0 -108 -62 -172.5t-159 -64.5t-159 64.5t-62 172.5z" />
    <glyph glyph-name="V" unicode="V" horiz-adv-x="564" 
d="M282 91l207 609h56l-238 -700h-50l-238 700h56z" />
    <glyph glyph-name="W" unicode="W" horiz-adv-x="716" 
d="M502 0l-144 509l-144 -509h-53l-129 700h54l108 -591l139 491h50l139 -491l108 591h54l-129 -700h-53z" />
    <glyph glyph-name="X" unicode="X" horiz-adv-x="564" 
d="M479 0l-197 319l-197 -319h-62l224 362l-209 338h62l182 -295l182 295h62l-209 -338l224 -362h-62z" />
    <glyph glyph-name="Y" unicode="Y" horiz-adv-x="543" 
d="M535 700l-236 -409v-291h-55v291l-236 409h61l203 -352l202 352h61z" />
    <glyph glyph-name="Z" unicode="Z" horiz-adv-x="537" 
d="M491 0h-447v54l380 592h-375v54h437v-54l-380 -592h385v-54z" />
    <glyph glyph-name="bracketleft" unicode="[" horiz-adv-x="262" 
d="M101 -92v792h117v-42h-74v-708h74v-42h-117z" />
    <glyph glyph-name="backslash" unicode="\" horiz-adv-x="332" 
d="M0 700h49l283 -700h-49z" />
    <glyph glyph-name="bracketright" unicode="]" horiz-adv-x="262" 
d="M161 700v-792h-117v42h74v708h-74v42h117z" />
    <glyph glyph-name="asciicircum" unicode="^" horiz-adv-x="606" 
d="M485 300l-182 348l-182 -348h-51l209 400h48l209 -400h-51z" />
    <glyph glyph-name="underscore" unicode="_" horiz-adv-x="406" 
d="M401 -114h-396v45h396v-45z" />
    <glyph glyph-name="grave" unicode="`" horiz-adv-x="298" 
d="M58 700h84l85 -129h-51z" />
    <glyph glyph-name="a" unicode="a" horiz-adv-x="527" 
d="M401 319v9q0 69 -40.5 110t-104.5 41q-56 0 -94.5 -32t-47.5 -87h-54q10 87 66.5 128.5t129.5 41.5q80 0 139 -49.5t59 -152.5v-328h-53v63q-50 -73 -172 -73q-81 0 -126.5 43.5t-45.5 108.5q0 114 112 148q64 19 232 29zM401 192v80q-181 -11 -226 -32q-65 -29 -65 -94
q0 -46 31.5 -75.5t99.5 -29.5q70 0 115 41.5t45 109.5z" />
    <glyph glyph-name="b" unicode="b" horiz-adv-x="542" 
d="M80 0v700h53v-243q23 35 62 54t83 19q80 0 139 -49.5t59 -152.5v-136q0 -103 -59 -152.5t-139 -49.5q-44 0 -83 19t-62 54v-63h-53zM133 328v-136q0 -69 40.5 -110t104.5 -41t104.5 41t40.5 110v136q0 69 -40.5 110t-104.5 41t-104.5 -41t-40.5 -110z" />
    <glyph glyph-name="c" unicode="c" horiz-adv-x="516" 
d="M264 -10q-80 0 -139 49.5t-59 152.5v136q0 103 59 152.5t139 49.5q73 0 129.5 -41.5t66.5 -128.5h-54q-9 55 -47.5 87t-94.5 32q-64 0 -104.5 -41t-40.5 -110v-136q0 -69 40.5 -110t104.5 -41q56 0 94.5 32t47.5 87h54q-10 -87 -66.5 -128.5t-129.5 -41.5z" />
    <glyph glyph-name="d" unicode="d" horiz-adv-x="542" 
d="M462 700v-700h-53v63q-23 -35 -62 -54t-83 -19q-80 0 -139 49.5t-59 152.5v136q0 103 59 152.5t139 49.5q44 0 83 -19t62 -54v243h53zM409 192v136q0 69 -40.5 110t-104.5 41t-104.5 -41t-40.5 -110v-136q0 -69 40.5 -110t104.5 -41t104.5 41t40.5 110z" />
    <glyph glyph-name="e" unicode="e" horiz-adv-x="523" 
d="M119 253v-61q0 -69 40.5 -110t104.5 -41q56 0 94.5 32t47.5 87h54q-10 -87 -66.5 -128.5t-129.5 -41.5q-80 0 -139 49.5t-59 152.5v136q0 103 59 152.5t139 49.5t139 -49.5t59 -152.5v-75h-343zM119 328v-24h290v24q0 69 -40.5 110t-104.5 41t-104.5 -41t-40.5 -110z" />
    <glyph glyph-name="f" unicode="f" horiz-adv-x="305" 
d="M33 465v51h73v81q0 53 23 78t84 25h73v-51h-73q-32 0 -43 -11.5t-11 -40.5v-81h127v-51h-127v-465h-53v465h-73z" />
    <glyph glyph-name="g" unicode="g" horiz-adv-x="541" 
d="M408 8v69q-23 -35 -62 -54t-83 -19q-80 0 -139 49.5t-59 152.5v122q0 103 59 152.5t139 49.5q44 0 83 -19t62 -54v59h53v-508q0 -103 -59 -152.5t-139 -49.5q-73 0 -129.5 41.5t-66.5 128.5h54q9 -55 47.5 -87t94.5 -32q64 0 104.5 41t40.5 110zM408 328q0 69 -40.5 110
t-104.5 41t-104.5 -41t-40.5 -110v-122q0 -69 40.5 -110t104.5 -41t104.5 41t40.5 110v122z" />
    <glyph glyph-name="h" unicode="h" horiz-adv-x="549" 
d="M133 328v-328h-53v700h53v-243q23 35 62 54t83 19q80 0 139 -49.5t59 -152.5v-328h-53v328q0 69 -40.5 110t-104.5 41t-104.5 -41t-40.5 -110z" />
    <glyph glyph-name="i" unicode="i" horiz-adv-x="213" 
d="M80 516h53v-516h-53v516zM133 700v-87h-53v87h53z" />
    <glyph glyph-name="j" unicode="j" horiz-adv-x="213" 
d="M133 700v-87h-53v87h53zM80 -81v597h53v-597q0 -53 -23 -78t-84 -25h-10v51h10q32 0 43 11.5t11 40.5z" />
    <glyph glyph-name="k" unicode="k" horiz-adv-x="489" 
d="M133 700v-453l248 269h68l-187 -203l212 -313h-63l-186 274l-92 -100v-174h-53v700h53z" />
    <glyph glyph-name="l" unicode="l" horiz-adv-x="242" 
d="M131 700v-597q0 -29 11 -40.5t43 -11.5h10v-51h-10q-61 0 -84 25t-23 78v597h53z" />
    <glyph glyph-name="m" unicode="m" horiz-adv-x="852" 
d="M592 530q32 0 63.5 -11t60 -33.5t46 -63t17.5 -94.5v-328h-53v328q0 68 -39 109.5t-96 41.5q-56 0 -95.5 -41t-39.5 -110v-328h-53v328q0 69 -39.5 110t-95.5 41q-57 0 -96 -41.5t-39 -109.5v-328h-53v516h53v-59q22 34 60 53.5t75 19.5q49 0 94.5 -24.5t67.5 -76.5
q22 52 67.5 76.5t94.5 24.5z" />
    <glyph glyph-name="n" unicode="n" horiz-adv-x="549" 
d="M133 328v-328h-53v516h53v-59q23 35 62 54t83 19q80 0 139 -49.5t59 -152.5v-328h-53v328q0 69 -40.5 110t-104.5 41t-104.5 -41t-40.5 -110z" />
    <glyph glyph-name="o" unicode="o" horiz-adv-x="528" 
d="M462 328v-136q0 -103 -59 -152.5t-139 -49.5t-139 49.5t-59 152.5v136q0 103 59 152.5t139 49.5t139 -49.5t59 -152.5zM409 192v136q0 69 -40.5 110t-104.5 41t-104.5 -41t-40.5 -110v-136q0 -69 40.5 -110t104.5 -41t104.5 41t40.5 110z" />
    <glyph glyph-name="p" unicode="p" horiz-adv-x="542" 
d="M80 -184v700h53v-59q23 35 62 54t83 19q80 0 139 -49.5t59 -152.5v-136q0 -103 -59 -152.5t-139 -49.5q-44 0 -83 19t-62 54v-247h-53zM133 328v-136q0 -69 40.5 -110t104.5 -41t104.5 41t40.5 110v136q0 69 -40.5 110t-104.5 41t-104.5 -41t-40.5 -110z" />
    <glyph glyph-name="q" unicode="q" horiz-adv-x="542" 
d="M462 516v-700h-53v247q-23 -35 -62 -54t-83 -19q-80 0 -139 49.5t-59 152.5v136q0 103 59 152.5t139 49.5q44 0 83 -19t62 -54v59h53zM409 192v136q0 69 -40.5 110t-104.5 41t-104.5 -41t-40.5 -110v-136q0 -69 40.5 -110t104.5 -41t104.5 41t40.5 110z" />
    <glyph glyph-name="r" unicode="r" horiz-adv-x="315" 
d="M293 474h-15q-64 0 -104.5 -41t-40.5 -110v-323h-53v516h53v-64q23 35 62 54t83 19h15v-51z" />
    <glyph glyph-name="s" unicode="s" horiz-adv-x="484" 
d="M423 368h-54q-5 52 -42.5 81.5t-92.5 29.5q-52 0 -89 -22.5t-37 -67.5q0 -35 21 -56t68 -31l99 -22q73 -16 106.5 -52t33.5 -101t-50 -101t-134 -36q-85 0 -143.5 42.5t-64.5 128.5h54q7 -61 51.5 -90.5t103.5 -29.5q55 0 92.5 22.5t37.5 64.5q0 79 -88 97l-116 26
q-124 28 -124 138q0 66 53 103.5t127 37.5q76 0 129 -42t59 -120z" />
    <glyph glyph-name="t" unicode="t" horiz-adv-x="329" 
d="M157 465v-362q0 -29 11 -40.5t43 -11.5h73v-51h-73q-61 0 -84 25t-23 78v362h-73v51h73v117h53v-117h127v-51h-127z" />
    <glyph glyph-name="u" unicode="u" horiz-adv-x="542" 
d="M409 192v324h53v-516h-53v63q-22 -35 -61.5 -54t-79.5 -19q-78 0 -136.5 49.5t-58.5 152.5v324h53v-324q0 -68 40.5 -109.5t101.5 -41.5q60 0 100.5 41.5t40.5 109.5z" />
    <glyph glyph-name="v" unicode="v" horiz-adv-x="452" 
d="M226 69l158 447h57l-186 -516h-58l-186 516h57z" />
    <glyph glyph-name="w" unicode="w" horiz-adv-x="676" 
d="M305 516h66l119 -443l113 443h55l-136 -516h-63l-121 453l-121 -453h-63l-136 516h55l113 -443z" />
    <glyph glyph-name="x" unicode="x" horiz-adv-x="460" 
d="M230 303l141 213h61l-167 -251l175 -265h-61l-149 227l-149 -227h-61l175 265l-167 251h61z" />
    <glyph glyph-name="y" unicode="y" horiz-adv-x="452" 
d="M441 516l-215 -597q-11 -30 -16 -42t-18 -30t-31 -24.5t-45 -6.5h-26v51h27q18 0 29.5 8t16.5 18t12 30l25 70l-189 523h57l158 -447l158 447h57z" />
    <glyph glyph-name="z" unicode="z" horiz-adv-x="477" 
d="M427 465l-319 -414h326v-51h-390v51l320 414h-313v51h376v-51z" />
    <glyph glyph-name="braceleft" unicode="{" horiz-adv-x="294" 
d="M69 283h-10v42h10q38 0 51 14t13 47v211q0 53 23 78t84 25h10v-42h-10q-38 0 -51 -14t-13 -47v-211q0 -62 -34 -82q34 -22 34 -82v-211q0 -33 13 -47t51 -14h10v-42h-10q-61 0 -84 25t-23 78v211q0 33 -13 47t-51 14z" />
    <glyph glyph-name="bar" unicode="|" horiz-adv-x="213" 
d="M85 -100v800h43v-800h-43z" />
    <glyph glyph-name="braceright" unicode="}" horiz-adv-x="294" 
d="M235 283h-10q-38 0 -51 -14t-13 -47v-211q0 -53 -23 -78t-84 -25h-10v42h10q38 0 51 14t13 47v211q0 60 34 82q-34 20 -34 82v211q0 33 -13 47t-51 14h-10v42h10q61 0 84 -25t23 -78v-211q0 -33 13 -47t51 -14h10v-42z" />
    <glyph glyph-name="asciitilde" unicode="~" horiz-adv-x="526" 
d="M95 235l-30 33q23 25 56 41.5t62 16.5q32 0 85.5 -23t74.5 -23q41 0 88 46l30 -33q-23 -25 -56 -41.5t-62 -16.5q-32 0 -85.5 23t-74.5 23q-41 0 -88 -46z" />
    <glyph glyph-name="uni00A0" unicode="&#xa0;" horiz-adv-x="230" 
 />
    <glyph glyph-name="exclamdown" unicode="&#xa1;" horiz-adv-x="234" 
d="M91 306h53v-490h-53v490zM75 432v84h84v-84h-84z" />
    <glyph glyph-name="cent" unicode="&#xa2;" horiz-adv-x="526" 
d="M248 -100v720h43v-720h-43zM269 -10q-80 0 -139 49.5t-59 152.5v136q0 103 59 152.5t139 49.5q73 0 129.5 -41.5t66.5 -128.5h-54q-9 55 -47.5 87t-94.5 32q-64 0 -104.5 -41t-40.5 -110v-136q0 -69 40.5 -110t104.5 -41q56 0 94.5 32t47.5 87h54q-10 -87 -66.5 -128.5
t-129.5 -41.5z" />
    <glyph glyph-name="sterling" unicode="&#xa3;" horiz-adv-x="590" 
d="M70 0v51h16q29 1 38.5 12.5t9.5 39.5v226h-64v43h64v136q0 103 59 152.5t139 49.5t139 -49.5t59 -152.5h-53q0 69 -40.5 110t-104.5 41t-104.5 -41t-40.5 -110v-136h290v-43h-290v-226q0 -39 -12 -52h355v-51h-460z" />
    <glyph glyph-name="currency" unicode="&#xa4;" horiz-adv-x="720" 
d="M90 340q0 100 64 175l-84 85l31 30l84 -85q75 65 175 65t175 -65l84 85l31 -30l-85 -85q65 -75 65 -175t-65 -175l85 -85l-31 -30l-84 84q-75 -64 -175 -64t-175 64l-84 -84l-31 30l84 85q-64 75 -64 175zM141 340q0 -91 64 -155t155 -64t155 64t64 155t-64 155t-155 64
t-155 -64t-64 -155z" />
    <glyph glyph-name="yen" unicode="&#xa5;" horiz-adv-x="586" 
d="M95 334h146l-212 366h58l206 -356l206 356h58l-213 -366h146v-43h-171v-102h171v-43h-171v-146h-53v146h-171v43h171v102h-171v43z" />
    <glyph glyph-name="brokenbar" unicode="&#xa6;" horiz-adv-x="213" 
d="M85 -100v339h43v-339h-43zM85 361v339h43v-339h-43z" />
    <glyph glyph-name="section" unicode="&#xa7;" horiz-adv-x="554" 
d="M204 122q-28 11 -45 19.5t-42 27t-37.5 47t-12.5 65.5q0 51 26.5 86t74.5 51q-68 47 -68 133q0 70 50 114.5t125 44.5q72 0 122 -43.5t60 -118.5h-45q-8 54 -45 87t-92 33q-52 0 -90.5 -32t-39.5 -85q0 -43 23.5 -72.5t63.5 -42.5l116 -40q26 -9 45 -18.5t43 -27.5
t37.5 -47.5t13.5 -66.5q0 -103 -104 -138q70 -50 70 -140q0 -67 -41.5 -109.5t-131.5 -42.5q-82 0 -130 47.5t-56 124.5h45q6 -58 45 -94t96 -36q65 0 96.5 30.5t31.5 79.5q0 44 -24 77.5t-63 46.5zM339 353l-105 35q-51 -4 -86 -28.5t-36 -78.5q0 -82 103 -116l103 -36
q52 4 88 28.5t36 78.5q0 83 -103 117z" />
    <glyph glyph-name="dieresis" unicode="&#xa8;" horiz-adv-x="410" 
d="M125 679v-87h-53v87h53zM338 679v-87h-53v87h53z" />
    <glyph glyph-name="copyright" unicode="&#xa9;" horiz-adv-x="820" 
d="M50 350q0 149 105.5 254.5t254.5 105.5t254.5 -105.5t105.5 -254.5t-105.5 -254.5t-254.5 -105.5t-254.5 105.5t-105.5 254.5zM93 350q0 -132 92.5 -225t224.5 -93t224.5 93t92.5 225t-92.5 225t-224.5 93t-224.5 -93t-92.5 -225zM410 125q-62 0 -101 40t-39 108v153
q0 68 39 108t101 40q59 0 97 -36t42 -98h-43q-4 44 -30.5 68t-65.5 24q-42 0 -69.5 -27.5t-27.5 -78.5v-153q0 -51 27 -78.5t70 -27.5q39 0 65.5 24t30.5 68h43q-4 -62 -42 -98t-97 -36z" />
    <glyph glyph-name="ordfeminine" unicode="&#xaa;" horiz-adv-x="312" 
d="M132 395q-41 0 -70 23t-29 66q0 67 65 86q40 12 128 17v5q0 36 -21.5 55.5t-52.5 19.5q-27 0 -47 -15t-25 -43h-44q5 51 38 75t78 24q48 0 82.5 -28t34.5 -89v-190h-43v31q-28 -37 -94 -37zM142 437q37 0 60.5 19t23.5 53v39q-98 -6 -123 -20q-27 -15 -27 -43
q0 -21 17 -34.5t49 -13.5z" />
    <glyph glyph-name="guillemotleft" unicode="&#xab;" horiz-adv-x="461" 
d="M224 103l-162 143v54l162 143v-59l-126 -111l126 -111v-59zM391 103l-162 143v54l162 143v-59l-126 -111l126 -111v-59z" />
    <glyph glyph-name="logicalnot" unicode="&#xac;" 
d="M81 258v45h396v-221h-45v176h-351z" />
    <glyph glyph-name="uni00AD" unicode="&#xad;" horiz-adv-x="410" 
d="M350 258h-290v45h290v-45z" />
    <glyph glyph-name="registered" unicode="&#xae;" horiz-adv-x="820" 
d="M50 350q0 149 105.5 254.5t254.5 105.5t254.5 -105.5t105.5 -254.5t-105.5 -254.5t-254.5 -105.5t-254.5 105.5t-105.5 254.5zM93 350q0 -132 92.5 -225t224.5 -93t224.5 93t92.5 225t-92.5 225t-224.5 93t-224.5 -93t-92.5 -225zM576 131h-50l-118 200h-76v-200h-43v437
h149q60 0 91.5 -34.5t31.5 -84.5q0 -45 -26.5 -78t-77.5 -39zM332 525v-152h106q36 0 58 21t22 55t-22 55t-58 21h-106z" />
    <glyph glyph-name="macron" unicode="&#xaf;" horiz-adv-x="427" 
d="M358 613h-289v45h289v-45z" />
    <glyph glyph-name="degree" unicode="&#xb0;" horiz-adv-x="424" 
d="M56 549q0 65 46 110.5t110 45.5t110 -45.5t46 -110.5t-46 -110.5t-110 -45.5t-110 45.5t-46 110.5zM101 549q0 -47 32.5 -79.5t78.5 -32.5t78.5 32.5t32.5 79.5t-32.5 79.5t-78.5 32.5t-78.5 -32.5t-32.5 -79.5z" />
    <glyph glyph-name="plusminus" unicode="&#xb1;" 
d="M257 317h-176v45h176v154h45v-154h175v-45h-175v-154h-45v154zM477 0h-396v45h396v-45z" />
    <glyph glyph-name="twosuperior" unicode="&#xb2;" horiz-adv-x="299" 
d="M31 401v41l155 178q36 41 36 78q0 34 -21.5 53.5t-52.5 19.5t-52.5 -19.5t-21.5 -55.5v-11h-43v11q0 61 34.5 89t82.5 28t82.5 -28.5t34.5 -87.5q0 -30 -11.5 -53t-36.5 -53l-130 -149h178v-41h-234z" />
    <glyph glyph-name="threesuperior" unicode="&#xb3;" horiz-adv-x="302" 
d="M150 395q-49 0 -84.5 28t-35.5 89v5h43v-5q0 -36 22 -55.5t55 -19.5q32 0 51.5 19t19.5 53q0 31 -19.5 53.5t-51.5 22.5h-29v41h29q32 0 51.5 19.5t19.5 53.5q0 33 -21 52.5t-53 19.5q-31 0 -52.5 -19.5t-21.5 -55.5v-5h-43v5q0 61 34.5 89t82.5 28q49 0 83.5 -28.5
t34.5 -85.5q0 -32 -14.5 -57.5t-35.5 -36.5q22 -12 36 -37.5t14 -58.5q0 -57 -34 -85.5t-81 -28.5z" />
    <glyph glyph-name="acute" unicode="&#xb4;" horiz-adv-x="298" 
d="M156 700h84l-118 -129h-51z" />
    <glyph glyph-name="mu" unicode="&#xb5;" horiz-adv-x="548" 
d="M274 41q60 0 100.5 41.5t40.5 109.5v324h53v-516h-53v63q-22 -35 -61.5 -54t-79.5 -19t-79.5 19t-61.5 54v-247h-53v700h53v-324q0 -68 40.5 -109.5t100.5 -41.5z" />
    <glyph glyph-name="mu" unicode="&#x3bc;" horiz-adv-x="548" 
d="M274 41q60 0 100.5 41.5t40.5 109.5v324h53v-516h-53v63q-22 -35 -61.5 -54t-79.5 -19t-79.5 19t-61.5 54v-247h-53v700h53v-324q0 -68 40.5 -109.5t100.5 -41.5z" />
    <glyph glyph-name="paragraph" unicode="&#xb6;" horiz-adv-x="533" 
d="M443 700v-787h-43v745h-110v-745h-43v387h-10q-82 0 -140.5 58.5t-58.5 141.5q0 82 58.5 141t140.5 59h206z" />
    <glyph glyph-name="periodcentered" unicode="&#xb7;" horiz-adv-x="274" 
d="M95 248v84h84v-84h-84z" />
    <glyph glyph-name="cedilla" unicode="&#xb8;" horiz-adv-x="249" 
d="M60 -158l58 158h49l-38 -158h-69z" />
    <glyph glyph-name="onesuperior" unicode="&#xb9;" horiz-adv-x="204" 
d="M108 401v349l-78 -67v57l78 67h43v-406h-43z" />
    <glyph glyph-name="ordmasculine" unicode="&#xba;" horiz-adv-x="311" 
d="M156 437q31 0 52.5 19.5t21.5 55.5v80q0 36 -21.5 55.5t-52.5 19.5q-32 0 -53 -19.5t-21 -55.5v-80q0 -36 21 -55.5t53 -19.5zM156 395q-49 0 -83.5 28t-34.5 89v79q0 61 34.5 89t83.5 28q48 0 82.5 -28t34.5 -89v-79q0 -61 -34.5 -89t-82.5 -28z" />
    <glyph glyph-name="guillemotright" unicode="&#xbb;" horiz-adv-x="461" 
d="M232 246l-162 -143v59l126 111l-126 111v59l162 -143v-54zM399 246l-162 -143v59l126 111l-126 111v59l162 -143v-54z" />
    <glyph glyph-name="onequarter" unicode="&#xbc;" horiz-adv-x="666" 
d="M148 294v349l-78 -67v57l78 67h43v-406h-43zM545 700h48l-481 -700h-48zM541 0v110h-186v41l186 255h43v-255h43v-41h-43v-110h-43zM406 151h135v185z" />
    <glyph glyph-name="onehalf" unicode="&#xbd;" horiz-adv-x="718" 
d="M148 294v349l-78 -67v57l78 67h43v-406h-43zM545 700h48l-481 -700h-48zM424 0v41l155 178q36 41 36 78q0 34 -21.5 53.5t-52.5 19.5t-52.5 -19.5t-21.5 -55.5v-11h-43v11q0 61 34.5 89t82.5 28t82.5 -28.5t34.5 -87.5q0 -30 -11.5 -53t-36.5 -53l-130 -149h178v-41h-234
z" />
    <glyph glyph-name="threequarters" unicode="&#xbe;" horiz-adv-x="724" 
d="M170 288q-49 0 -84.5 28t-35.5 89v5h43v-5q0 -36 22 -55.5t55 -19.5q32 0 51.5 19t19.5 53q0 31 -19.5 53.5t-51.5 22.5h-29v41h29q32 0 51.5 19.5t19.5 53.5q0 33 -21 52.5t-53 19.5q-31 0 -52.5 -19.5t-21.5 -55.5v-5h-43v5q0 61 34.5 89t82.5 28q49 0 83.5 -28.5
t34.5 -85.5q0 -32 -14.5 -57.5t-35.5 -36.5q22 -12 36 -37.5t14 -58.5q0 -57 -34 -85.5t-81 -28.5zM603 700h48l-481 -700h-48zM599 0v110h-186v41l186 255h43v-255h43v-41h-43v-110h-43zM464 151h135v185z" />
    <glyph glyph-name="questiondown" unicode="&#xbf;" horiz-adv-x="486" 
d="M449 8q0 -103 -59 -152.5t-139 -49.5t-139 49.5t-59 152.5q0 86 76 154l60 55q22 21 29 34t7 33v22h53v-22q0 -55 -53 -103l-60 -55q-59 -55 -59 -118q0 -69 40.5 -110t104.5 -41t104.5 41t40.5 110v8h53v-8zM209 432v84h84v-84h-84z" />
    <glyph glyph-name="Agrave" unicode="&#xc0;" horiz-adv-x="564" 
d="M489 0l-74 217h-266l-74 -217h-56l238 700h50l238 -700h-56zM166 268h232l-116 341zM158 854h86l100 -109h-58z" />
    <glyph glyph-name="Aacute" unicode="&#xc1;" horiz-adv-x="564" 
d="M489 0l-74 217h-266l-74 -217h-56l238 700h50l238 -700h-56zM166 268h232l-116 341zM320 854h86l-128 -109h-58z" />
    <glyph glyph-name="Acircumflex" unicode="&#xc2;" horiz-adv-x="564" 
d="M489 0l-74 217h-266l-74 -217h-56l238 700h50l238 -700h-56zM166 268h232l-116 341zM308 854l125 -109h-72l-79 63l-79 -63h-72l125 109h52z" />
    <glyph glyph-name="Atilde" unicode="&#xc3;" horiz-adv-x="564" 
d="M489 0l-74 217h-266l-74 -217h-56l238 700h50l238 -700h-56zM166 268h232l-116 341zM230 845q24 0 45 -12l33 -17q20 -10 29 -10q27 0 44 37h56q-27 -88 -102 -88q-24 0 -45 12l-33 17q-20 10 -29 10q-27 0 -44 -37h-56q27 88 102 88z" />
    <glyph glyph-name="Adieresis" unicode="&#xc4;" horiz-adv-x="564" 
d="M489 0l-74 217h-266l-74 -217h-56l238 700h50l238 -700h-56zM166 268h232l-116 341zM204 843v-87h-55v87h55zM415 843v-87h-55v87h55z" />
    <glyph glyph-name="Aring" unicode="&#xc5;" horiz-adv-x="564" 
d="M489 0l-74 217h-266l-74 -217h-56l238 700h50l238 -700h-56zM166 268h232l-116 341zM208 799q0 31 21.5 53t52.5 22t53 -22t22 -53t-22 -52.5t-53 -21.5t-52.5 21.5t-21.5 52.5zM253 799q0 -12 8.5 -20.5t20.5 -8.5t21 8.5t9 20.5t-9 21t-21 9t-20.5 -9t-8.5 -21z" />
    <glyph glyph-name="AE" unicode="&#xc6;" horiz-adv-x="824" 
d="M423 328v-274h332v-54h-387v217h-198l-100 -217h-58l322 700h421v-54h-332v-265h332v-53h-332zM193 268h175v380z" />
    <glyph glyph-name="Ccedilla" unicode="&#xc7;" horiz-adv-x="559" 
d="M211 -158l50 149q-88 8 -142.5 71t-54.5 165v246q0 108 62 172.5t159 64.5q91 0 151.5 -56.5t68.5 -153.5h-55q-7 76 -53 116t-112 40q-72 0 -119 -47t-47 -136v-246q0 -89 47 -136t119 -47q66 0 112 40t53 116h55q-7 -88 -58 -142.5t-129 -64.5l-36 -151h-71z" />
    <glyph glyph-name="Egrave" unicode="&#xc8;" horiz-adv-x="541" 
d="M140 328v-274h332v-54h-387v700h387v-54h-332v-265h332v-53h-332zM154 854h86l100 -109h-58z" />
    <glyph glyph-name="Eacute" unicode="&#xc9;" horiz-adv-x="541" 
d="M140 328v-274h332v-54h-387v700h387v-54h-332v-265h332v-53h-332zM316 854h86l-128 -109h-58z" />
    <glyph glyph-name="Ecircumflex" unicode="&#xca;" horiz-adv-x="541" 
d="M140 328v-274h332v-54h-387v700h387v-54h-332v-265h332v-53h-332zM304 854l125 -109h-72l-79 63l-79 -63h-72l125 109h52z" />
    <glyph glyph-name="Edieresis" unicode="&#xcb;" horiz-adv-x="541" 
d="M140 328v-274h332v-54h-387v700h387v-54h-332v-265h332v-53h-332zM200 843v-87h-55v87h55zM411 843v-87h-55v87h55z" />
    <glyph glyph-name="Igrave" unicode="&#xcc;" horiz-adv-x="225" 
d="M140 700v-700h-55v700h55zM-12 854h86l100 -109h-58z" />
    <glyph glyph-name="Iacute" unicode="&#xcd;" horiz-adv-x="225" 
d="M140 700v-700h-55v700h55zM150 854h86l-128 -109h-58z" />
    <glyph glyph-name="Icircumflex" unicode="&#xce;" horiz-adv-x="225" 
d="M140 700v-700h-55v700h55zM138 854l125 -109h-72l-79 63l-79 -63h-72l125 109h52z" />
    <glyph glyph-name="Idieresis" unicode="&#xcf;" horiz-adv-x="225" 
d="M140 700v-700h-55v700h55zM34 843v-87h-55v87h55zM245 843v-87h-55v87h55z" />
    <glyph glyph-name="Eth" unicode="&#xd0;" horiz-adv-x="602" 
d="M538 463v-226q0 -108 -62 -172.5t-159 -64.5h-221v328h-70v45h70v327h221q97 0 159 -64.5t62 -172.5zM151 646v-273h166v-45h-166v-274h166q72 0 119 47t47 136v226q0 89 -47 136t-119 47h-166z" />
    <glyph glyph-name="Ntilde" unicode="&#xd1;" horiz-adv-x="612" 
d="M527 700v-700h-55l-332 591v-591h-55v700h55l332 -591v591h55zM254 845q24 0 45 -12l33 -17q20 -10 29 -10q27 0 44 37h56q-27 -88 -102 -88q-24 0 -45 12l-33 17q-20 10 -29 10q-27 0 -44 -37h-56q27 88 102 88z" />
    <glyph glyph-name="Ograve" unicode="&#xd2;" horiz-adv-x="570" 
d="M506 473v-246q0 -108 -62 -172.5t-159 -64.5t-159 64.5t-62 172.5v246q0 108 62 172.5t159 64.5t159 -64.5t62 -172.5zM119 473v-246q0 -89 47 -136t119 -47t119 47t47 136v246q0 89 -47 136t-119 47t-119 -47t-47 -136zM161 854h86l100 -109h-58z" />
    <glyph glyph-name="Oacute" unicode="&#xd3;" horiz-adv-x="570" 
d="M506 473v-246q0 -108 -62 -172.5t-159 -64.5t-159 64.5t-62 172.5v246q0 108 62 172.5t159 64.5t159 -64.5t62 -172.5zM119 473v-246q0 -89 47 -136t119 -47t119 47t47 136v246q0 89 -47 136t-119 47t-119 -47t-47 -136zM323 854h86l-128 -109h-58z" />
    <glyph glyph-name="Ocircumflex" unicode="&#xd4;" horiz-adv-x="570" 
d="M506 473v-246q0 -108 -62 -172.5t-159 -64.5t-159 64.5t-62 172.5v246q0 108 62 172.5t159 64.5t159 -64.5t62 -172.5zM119 473v-246q0 -89 47 -136t119 -47t119 47t47 136v246q0 89 -47 136t-119 47t-119 -47t-47 -136zM311 854l125 -109h-72l-79 63l-79 -63h-72
l125 109h52z" />
    <glyph glyph-name="Otilde" unicode="&#xd5;" horiz-adv-x="570" 
d="M506 473v-246q0 -108 -62 -172.5t-159 -64.5t-159 64.5t-62 172.5v246q0 108 62 172.5t159 64.5t159 -64.5t62 -172.5zM119 473v-246q0 -89 47 -136t119 -47t119 47t47 136v246q0 89 -47 136t-119 47t-119 -47t-47 -136zM233 845q24 0 45 -12l33 -17q20 -10 29 -10
q27 0 44 37h56q-27 -88 -102 -88q-24 0 -45 12l-33 17q-20 10 -29 10q-27 0 -44 -37h-56q27 88 102 88z" />
    <glyph glyph-name="Odieresis" unicode="&#xd6;" horiz-adv-x="570" 
d="M506 473v-246q0 -108 -62 -172.5t-159 -64.5t-159 64.5t-62 172.5v246q0 108 62 172.5t159 64.5t159 -64.5t62 -172.5zM119 473v-246q0 -89 47 -136t119 -47t119 47t47 136v246q0 89 -47 136t-119 47t-119 -47t-47 -136zM207 843v-87h-55v87h55zM418 843v-87h-55v87h55z
" />
    <glyph glyph-name="multiply" unicode="&#xd7;" 
d="M482 450l-171 -170l171 -169l-32 -32l-171 169l-170 -169l-32 32l170 169l-170 170l32 32l170 -170l171 170z" />
    <glyph glyph-name="Oslash" unicode="&#xd8;" horiz-adv-x="576" 
d="M509 473v-246q0 -108 -62 -172.5t-159 -64.5q-87 0 -147 52l-34 -61l-40 22l42 75q-42 61 -42 149v246q0 108 62 172.5t159 64.5q86 0 147 -53l35 63l39 -23l-43 -75q43 -62 43 -149zM122 473v-246q0 -55 18 -94l267 475q-45 48 -119 48q-72 0 -119 -47t-47 -136z
M454 473q0 53 -19 93l-266 -475q44 -47 119 -47q72 0 119 47t47 136v246z" />
    <glyph glyph-name="Ugrave" unicode="&#xd9;" horiz-adv-x="594" 
d="M76 227v473h55v-473q0 -89 47 -136t119 -47t119 47t47 136v473h55v-473q0 -108 -62 -172.5t-159 -64.5t-159 64.5t-62 172.5zM171 854h86l100 -109h-58z" />
    <glyph glyph-name="Uacute" unicode="&#xda;" horiz-adv-x="594" 
d="M76 227v473h55v-473q0 -89 47 -136t119 -47t119 47t47 136v473h55v-473q0 -108 -62 -172.5t-159 -64.5t-159 64.5t-62 172.5zM335 854h86l-128 -109h-58z" />
    <glyph glyph-name="Ucircumflex" unicode="&#xdb;" horiz-adv-x="594" 
d="M76 227v473h55v-473q0 -89 47 -136t119 -47t119 47t47 136v473h55v-473q0 -108 -62 -172.5t-159 -64.5t-159 64.5t-62 172.5zM323 854l125 -109h-72l-79 63l-79 -63h-72l125 109h52z" />
    <glyph glyph-name="Udieresis" unicode="&#xdc;" horiz-adv-x="594" 
d="M76 227v473h55v-473q0 -89 47 -136t119 -47t119 47t47 136v473h55v-473q0 -108 -62 -172.5t-159 -64.5t-159 64.5t-62 172.5zM219 843v-87h-55v87h55zM430 843v-87h-55v87h55z" />
    <glyph glyph-name="Yacute" unicode="&#xdd;" horiz-adv-x="543" 
d="M535 700l-236 -409v-291h-55v291l-236 409h61l203 -352l202 352h61zM309 854h86l-128 -109h-58z" />
    <glyph glyph-name="Thorn" unicode="&#xde;" horiz-adv-x="539" 
d="M311 147h-171v-147h-55v700h55v-146h171q88 0 146 -53.5t58 -149.5q0 -97 -58 -150.5t-146 -53.5zM140 201h171q63 0 106 39.5t43 110.5q0 70 -43 109.5t-106 39.5h-171v-299z" />
    <glyph glyph-name="germandbls" unicode="&#xdf;" horiz-adv-x="529" 
d="M226 404h27q61 0 90.5 34t29.5 93q0 60 -29.5 94t-90.5 34q-60 0 -90 -33.5t-30 -89.5v-536h-53v536q0 75 43.5 124.5t129.5 49.5q87 0 130 -49.5t43 -129.5q0 -100 -63 -147q113 -47 113 -187q0 -101 -52 -154t-141 -53q-30 0 -57 6v54q26 -9 57 -9q68 0 104 40.5
t36 115.5q0 73 -41.5 114.5t-120.5 41.5h-35v51z" />
    <glyph glyph-name="agrave" unicode="&#xe0;" horiz-adv-x="527" 
d="M401 319v9q0 69 -40.5 110t-104.5 41q-56 0 -94.5 -32t-47.5 -87h-54q10 87 66.5 128.5t129.5 41.5q80 0 139 -49.5t59 -152.5v-328h-53v63q-50 -73 -172 -73q-81 0 -126.5 43.5t-45.5 108.5q0 114 112 148q64 19 232 29zM401 192v80q-181 -11 -226 -32q-65 -29 -65 -94
q0 -46 31.5 -75.5t99.5 -29.5q70 0 115 41.5t45 109.5zM142 700h84l85 -129h-51z" />
    <glyph glyph-name="aacute" unicode="&#xe1;" horiz-adv-x="527" 
d="M401 319v9q0 69 -40.5 110t-104.5 41q-56 0 -94.5 -32t-47.5 -87h-54q10 87 66.5 128.5t129.5 41.5q80 0 139 -49.5t59 -152.5v-328h-53v63q-50 -73 -172 -73q-81 0 -126.5 43.5t-45.5 108.5q0 114 112 148q64 19 232 29zM401 192v80q-181 -11 -226 -32q-65 -29 -65 -94
q0 -46 31.5 -75.5t99.5 -29.5q70 0 115 41.5t45 109.5zM284 700h84l-118 -129h-51z" />
    <glyph glyph-name="acircumflex" unicode="&#xe2;" horiz-adv-x="527" 
d="M401 319v9q0 69 -40.5 110t-104.5 41q-56 0 -94.5 -32t-47.5 -87h-54q10 87 66.5 128.5t129.5 41.5q80 0 139 -49.5t59 -152.5v-328h-53v63q-50 -73 -172 -73q-81 0 -126.5 43.5t-45.5 108.5q0 114 112 148q64 19 232 29zM401 192v80q-181 -11 -226 -32q-65 -29 -65 -94
q0 -46 31.5 -75.5t99.5 -29.5q70 0 115 41.5t45 109.5zM347 571l-87 83l-87 -83h-64l125 129h52l125 -129h-64z" />
    <glyph glyph-name="atilde" unicode="&#xe3;" horiz-adv-x="527" 
d="M401 319v9q0 69 -40.5 110t-104.5 41q-56 0 -94.5 -32t-47.5 -87h-54q10 87 66.5 128.5t129.5 41.5q80 0 139 -49.5t59 -152.5v-328h-53v63q-50 -73 -172 -73q-81 0 -126.5 43.5t-45.5 108.5q0 114 112 148q64 19 232 29zM401 192v80q-181 -11 -226 -32q-65 -29 -65 -94
q0 -46 31.5 -75.5t99.5 -29.5q70 0 115 41.5t45 109.5zM366 679h49q-27 -88 -102 -88q-24 0 -45 12l-33 19q-18 10 -33 10q-29 0 -47 -39h-49q27 88 102 88q24 0 45 -12l33 -19q18 -10 33 -10q29 0 47 39z" />
    <glyph glyph-name="adieresis" unicode="&#xe4;" horiz-adv-x="527" 
d="M401 319v9q0 69 -40.5 110t-104.5 41q-56 0 -94.5 -32t-47.5 -87h-54q10 87 66.5 128.5t129.5 41.5q80 0 139 -49.5t59 -152.5v-328h-53v63q-50 -73 -172 -73q-81 0 -126.5 43.5t-45.5 108.5q0 114 112 148q64 19 232 29zM401 192v80q-181 -11 -226 -32q-65 -29 -65 -94
q0 -46 31.5 -75.5t99.5 -29.5q70 0 115 41.5t45 109.5zM180 679v-87h-53v87h53zM393 679v-87h-53v87h53z" />
    <glyph glyph-name="aring" unicode="&#xe5;" horiz-adv-x="527" 
d="M401 319v9q0 69 -40.5 110t-104.5 41q-56 0 -94.5 -32t-47.5 -87h-54q10 87 66.5 128.5t129.5 41.5q80 0 139 -49.5t59 -152.5v-328h-53v63q-50 -73 -172 -73q-81 0 -126.5 43.5t-45.5 108.5q0 114 112 148q64 19 232 29zM401 192v80q-181 -11 -226 -32q-65 -29 -65 -94
q0 -46 31.5 -75.5t99.5 -29.5q70 0 115 41.5t45 109.5zM186 635q0 31 21.5 53t52.5 22t53 -22t22 -53t-22 -52.5t-53 -21.5t-52.5 21.5t-21.5 52.5zM229 635q0 -13 9 -22t22 -9t22.5 9t9.5 22t-9.5 22.5t-22.5 9.5t-22 -9.5t-9 -22.5z" />
    <glyph glyph-name="ae" unicode="&#xe6;" horiz-adv-x="858" 
d="M454 328v-24h290v24q0 69 -40.5 110t-104.5 41t-104.5 -41t-40.5 -110zM401 192v80q-181 -11 -226 -32q-65 -29 -65 -94q0 -46 31.5 -75.5t99.5 -29.5q70 0 115 41.5t45 109.5zM454 253v-61q0 -69 40.5 -110t104.5 -41q56 0 94.5 32t47.5 87h54q-10 -87 -66.5 -128.5
t-129.5 -41.5q-57 0 -105.5 25.5t-73.5 78.5q-25 -52 -77 -78t-114 -26q-81 0 -126.5 43.5t-45.5 108.5q0 114 112 148q64 19 232 29v9q0 69 -40.5 110t-104.5 41q-56 0 -94.5 -32t-47.5 -87h-54q10 87 66.5 128.5t129.5 41.5q56 0 102 -27t69 -73q23 46 69.5 73t102.5 27
q80 0 139 -49.5t59 -152.5v-75h-343z" />
    <glyph glyph-name="ccedilla" unicode="&#xe7;" horiz-adv-x="516" 
d="M191 -158l54 149q-75 6 -127 55t-52 146v136q0 103 59 152.5t139 49.5q73 0 129.5 -41.5t66.5 -128.5h-54q-9 55 -47.5 87t-94.5 32q-64 0 -104.5 -41t-40.5 -110v-136q0 -69 40.5 -110t104.5 -41q56 0 94.5 32t47.5 87h54q-9 -77 -55 -118.5t-109 -49.5l-36 -150h-69z
" />
    <glyph glyph-name="egrave" unicode="&#xe8;" horiz-adv-x="523" 
d="M119 253v-61q0 -69 40.5 -110t104.5 -41q56 0 94.5 32t47.5 87h54q-10 -87 -66.5 -128.5t-129.5 -41.5q-80 0 -139 49.5t-59 152.5v136q0 103 59 152.5t139 49.5t139 -49.5t59 -152.5v-75h-343zM119 328v-24h290v24q0 69 -40.5 110t-104.5 41t-104.5 -41t-40.5 -110z
M151 700h84l85 -129h-51z" />
    <glyph glyph-name="eacute" unicode="&#xe9;" horiz-adv-x="523" 
d="M119 253v-61q0 -69 40.5 -110t104.5 -41q56 0 94.5 32t47.5 87h54q-10 -87 -66.5 -128.5t-129.5 -41.5q-80 0 -139 49.5t-59 152.5v136q0 103 59 152.5t139 49.5t139 -49.5t59 -152.5v-75h-343zM119 328v-24h290v24q0 69 -40.5 110t-104.5 41t-104.5 -41t-40.5 -110z
M293 700h84l-118 -129h-51z" />
    <glyph glyph-name="ecircumflex" unicode="&#xea;" horiz-adv-x="523" 
d="M119 253v-61q0 -69 40.5 -110t104.5 -41q56 0 94.5 32t47.5 87h54q-10 -87 -66.5 -128.5t-129.5 -41.5q-80 0 -139 49.5t-59 152.5v136q0 103 59 152.5t139 49.5t139 -49.5t59 -152.5v-75h-343zM119 328v-24h290v24q0 69 -40.5 110t-104.5 41t-104.5 -41t-40.5 -110z
M351 571l-87 83l-87 -83h-64l125 129h52l125 -129h-64z" />
    <glyph glyph-name="edieresis" unicode="&#xeb;" horiz-adv-x="523" 
d="M119 253v-61q0 -69 40.5 -110t104.5 -41q56 0 94.5 32t47.5 87h54q-10 -87 -66.5 -128.5t-129.5 -41.5q-80 0 -139 49.5t-59 152.5v136q0 103 59 152.5t139 49.5t139 -49.5t59 -152.5v-75h-343zM119 328v-24h290v24q0 69 -40.5 110t-104.5 41t-104.5 -41t-40.5 -110z
M184 679v-87h-53v87h53zM397 679v-87h-53v87h53z" />
    <glyph glyph-name="igrave" unicode="&#xec;" horiz-adv-x="213" 
d="M80 516h53v-516h-53v516zM-7 700h84l85 -129h-51z" />
    <glyph glyph-name="iacute" unicode="&#xed;" horiz-adv-x="213" 
d="M80 516h53v-516h-53v516zM135 700h84l-118 -129h-51z" />
    <glyph glyph-name="icircumflex" unicode="&#xee;" horiz-adv-x="213" 
d="M80 516h53v-516h-53v516zM193 571l-87 83l-87 -83h-64l125 129h52l125 -129h-64z" />
    <glyph glyph-name="idieresis" unicode="&#xef;" horiz-adv-x="213" 
d="M80 516h53v-516h-53v516zM26 679v-87h-53v87h53zM239 679v-87h-53v87h53z" />
    <glyph glyph-name="eth" unicode="&#xf0;" horiz-adv-x="528" 
d="M381 585h-51l86 -118q46 -63 46 -139v-136q0 -103 -59 -152.5t-139 -49.5t-139 49.5t-59 152.5v136q0 103 59 152.5t139 49.5q24 0 43 -4l-43 59h-125v43h93l-52 72h66l52 -72h83v-43zM409 192v136q0 69 -40.5 110t-104.5 41t-104.5 -41t-40.5 -110v-136q0 -69 40.5 -110
t104.5 -41t104.5 41t40.5 110z" />
    <glyph glyph-name="ntilde" unicode="&#xf1;" horiz-adv-x="549" 
d="M133 328v-328h-53v516h53v-59q23 35 62 54t83 19q80 0 139 -49.5t59 -152.5v-328h-53v328q0 69 -40.5 110t-104.5 41t-104.5 -41t-40.5 -110zM384 679h49q-27 -88 -102 -88q-24 0 -45 12l-33 19q-18 10 -33 10q-29 0 -47 -39h-49q27 88 102 88q24 0 45 -12l33 -19
q17 -10 33 -10q29 0 47 39z" />
    <glyph glyph-name="ograve" unicode="&#xf2;" horiz-adv-x="528" 
d="M462 328v-136q0 -103 -59 -152.5t-139 -49.5t-139 49.5t-59 152.5v136q0 103 59 152.5t139 49.5t139 -49.5t59 -152.5zM409 192v136q0 69 -40.5 110t-104.5 41t-104.5 -41t-40.5 -110v-136q0 -69 40.5 -110t104.5 -41t104.5 41t40.5 110zM151 700h84l85 -129h-51z" />
    <glyph glyph-name="oacute" unicode="&#xf3;" horiz-adv-x="528" 
d="M462 328v-136q0 -103 -59 -152.5t-139 -49.5t-139 49.5t-59 152.5v136q0 103 59 152.5t139 49.5t139 -49.5t59 -152.5zM409 192v136q0 69 -40.5 110t-104.5 41t-104.5 -41t-40.5 -110v-136q0 -69 40.5 -110t104.5 -41t104.5 41t40.5 110zM293 700h84l-118 -129h-51z" />
    <glyph glyph-name="ocircumflex" unicode="&#xf4;" horiz-adv-x="528" 
d="M462 328v-136q0 -103 -59 -152.5t-139 -49.5t-139 49.5t-59 152.5v136q0 103 59 152.5t139 49.5t139 -49.5t59 -152.5zM409 192v136q0 69 -40.5 110t-104.5 41t-104.5 -41t-40.5 -110v-136q0 -69 40.5 -110t104.5 -41t104.5 41t40.5 110zM351 571l-87 83l-87 -83h-64
l125 129h52l125 -129h-64z" />
    <glyph glyph-name="otilde" unicode="&#xf5;" horiz-adv-x="528" 
d="M462 328v-136q0 -103 -59 -152.5t-139 -49.5t-139 49.5t-59 152.5v136q0 103 59 152.5t139 49.5t139 -49.5t59 -152.5zM409 192v136q0 69 -40.5 110t-104.5 41t-104.5 -41t-40.5 -110v-136q0 -69 40.5 -110t104.5 -41t104.5 41t40.5 110zM370 679h49q-27 -88 -102 -88
q-24 0 -45 12l-33 19q-18 10 -33 10q-29 0 -47 -39h-49q27 88 102 88q24 0 45 -12l33 -19q17 -10 33 -10q29 0 47 39z" />
    <glyph glyph-name="odieresis" unicode="&#xf6;" horiz-adv-x="528" 
d="M462 328v-136q0 -103 -59 -152.5t-139 -49.5t-139 49.5t-59 152.5v136q0 103 59 152.5t139 49.5t139 -49.5t59 -152.5zM409 192v136q0 69 -40.5 110t-104.5 41t-104.5 -41t-40.5 -110v-136q0 -69 40.5 -110t104.5 -41t104.5 41t40.5 110zM184 679v-87h-53v87h53zM397 679
v-87h-53v87h53z" />
    <glyph glyph-name="divide" unicode="&#xf7;" 
d="M238 479q0 17 12.5 29.5t29.5 12.5t29.5 -12.5t12.5 -29.5t-12.5 -29.5t-29.5 -12.5t-29.5 12.5t-12.5 29.5zM238 82q0 17 12.5 29.5t29.5 12.5t29.5 -12.5t12.5 -29.5t-12.5 -29.5t-29.5 -12.5t-29.5 12.5t-12.5 29.5zM477 258h-396v45h396v-45z" />
    <glyph glyph-name="oslash" unicode="&#xf8;" horiz-adv-x="534" 
d="M465 328v-136q0 -103 -59 -152.5t-139 -49.5q-77 0 -128 40l-35 -52l-35 24l39 58q-39 50 -39 132v136q0 103 59 152.5t139 49.5q74 0 127 -40l35 52l36 -24l-39 -59q39 -50 39 -131zM412 192v136q0 47 -20 81l-223 -334q39 -34 98 -34q64 0 104.5 41t40.5 110zM122 192
q0 -46 19 -82l223 335q-39 34 -97 34q-64 0 -104.5 -41t-40.5 -110v-136z" />
    <glyph glyph-name="ugrave" unicode="&#xf9;" horiz-adv-x="542" 
d="M409 192v324h53v-516h-53v63q-22 -35 -61.5 -54t-79.5 -19q-78 0 -136.5 49.5t-58.5 152.5v324h53v-324q0 -68 40.5 -109.5t101.5 -41.5q60 0 100.5 41.5t40.5 109.5zM154 700h84l85 -129h-51z" />
    <glyph glyph-name="uacute" unicode="&#xfa;" horiz-adv-x="542" 
d="M409 192v324h53v-516h-53v63q-22 -35 -61.5 -54t-79.5 -19q-78 0 -136.5 49.5t-58.5 152.5v324h53v-324q0 -68 40.5 -109.5t101.5 -41.5q60 0 100.5 41.5t40.5 109.5zM296 700h84l-118 -129h-51z" />
    <glyph glyph-name="ucircumflex" unicode="&#xfb;" horiz-adv-x="542" 
d="M409 192v324h53v-516h-53v63q-22 -35 -61.5 -54t-79.5 -19q-78 0 -136.5 49.5t-58.5 152.5v324h53v-324q0 -68 40.5 -109.5t101.5 -41.5q60 0 100.5 41.5t40.5 109.5zM354 571l-87 83l-87 -83h-64l125 129h52l125 -129h-64z" />
    <glyph glyph-name="udieresis" unicode="&#xfc;" horiz-adv-x="542" 
d="M409 192v324h53v-516h-53v63q-22 -35 -61.5 -54t-79.5 -19q-78 0 -136.5 49.5t-58.5 152.5v324h53v-324q0 -68 40.5 -109.5t101.5 -41.5q60 0 100.5 41.5t40.5 109.5zM187 679v-87h-53v87h53zM400 679v-87h-53v87h53z" />
    <glyph glyph-name="yacute" unicode="&#xfd;" horiz-adv-x="452" 
d="M441 516l-215 -597q-11 -30 -16 -42t-18 -30t-31 -24.5t-45 -6.5h-26v51h27q18 0 29.5 8t16.5 18t12 30l25 70l-189 523h57l158 -447l158 447h57zM255 700h84l-118 -129h-51z" />
    <glyph glyph-name="thorn" unicode="&#xfe;" horiz-adv-x="542" 
d="M80 -184v884h53v-243q23 35 62 54t83 19q80 0 139 -49.5t59 -152.5v-136q0 -103 -59 -152.5t-139 -49.5q-44 0 -83 19t-62 54v-247h-53zM133 328v-136q0 -69 40.5 -110t104.5 -41t104.5 41t40.5 110v136q0 69 -40.5 110t-104.5 41t-104.5 -41t-40.5 -110z" />
    <glyph glyph-name="ydieresis" unicode="&#xff;" horiz-adv-x="452" 
d="M441 516l-215 -597q-11 -30 -16 -42t-18 -30t-31 -24.5t-45 -6.5h-26v51h27q18 0 29.5 8t16.5 18t12 30l25 70l-189 523h57l158 -447l158 447h57zM146 679v-87h-53v87h53zM359 679v-87h-53v87h53z" />
    <glyph glyph-name="Amacron" unicode="&#x100;" horiz-adv-x="564" 
d="M489 0l-74 217h-266l-74 -217h-56l238 700h50l238 -700h-56zM166 268h232l-116 341zM427 774h-289v47h289v-47z" />
    <glyph glyph-name="amacron" unicode="&#x101;" horiz-adv-x="527" 
d="M401 319v9q0 69 -40.5 110t-104.5 41q-56 0 -94.5 -32t-47.5 -87h-54q10 87 66.5 128.5t129.5 41.5q80 0 139 -49.5t59 -152.5v-328h-53v63q-50 -73 -172 -73q-81 0 -126.5 43.5t-45.5 108.5q0 114 112 148q64 19 232 29zM401 192v80q-181 -11 -226 -32q-65 -29 -65 -94
q0 -46 31.5 -75.5t99.5 -29.5q70 0 115 41.5t45 109.5zM405 613h-289v45h289v-45z" />
    <glyph glyph-name="Abreve" unicode="&#x102;" horiz-adv-x="564" 
d="M489 0l-74 217h-266l-74 -217h-56l238 700h50l238 -700h-56zM166 268h232l-116 341zM314 796q25 0 41.5 16.5t16.5 41.5h51q0 -45 -32 -77t-77 -32h-64q-45 0 -77 32t-32 77h51q0 -25 16.5 -41.5t41.5 -16.5h64z" />
    <glyph glyph-name="abreve" unicode="&#x103;" horiz-adv-x="527" 
d="M401 319v9q0 69 -40.5 110t-104.5 41q-56 0 -94.5 -32t-47.5 -87h-54q10 87 66.5 128.5t129.5 41.5q80 0 139 -49.5t59 -152.5v-328h-53v63q-50 -73 -172 -73q-81 0 -126.5 43.5t-45.5 108.5q0 114 112 148q64 19 232 29zM401 192v80q-181 -11 -226 -32q-65 -29 -65 -94
q0 -46 31.5 -75.5t99.5 -29.5q70 0 115 41.5t45 109.5zM248 620h24q33 0 56.5 23.5t23.5 56.5h49q0 -53 -38 -91t-91 -38h-24q-53 0 -91 38t-38 91h49q0 -33 23.5 -56.5t56.5 -23.5z" />
    <glyph glyph-name="Aogonek" unicode="&#x104;" horiz-adv-x="564" 
d="M489 0l-74 217h-266l-74 -217h-56l238 700h50l238 -700q-26 -19 -40.5 -31t-28 -30.5t-13.5 -35.5q0 -41 40 -41q18 0 42 12v-50q-20 -13 -47 -13q-41 0 -65.5 23.5t-24.5 62.5q0 63 81 103zM166 268h232l-116 341z" />
    <glyph glyph-name="aogonek" unicode="&#x105;" horiz-adv-x="527" 
d="M401 0v63q-50 -73 -172 -73q-81 0 -126.5 43.5t-45.5 108.5q0 114 112 148q64 19 232 29v9q0 69 -40.5 110t-104.5 41q-56 0 -94.5 -32t-47.5 -87h-54q10 87 66.5 128.5t129.5 41.5q80 0 139 -49.5t59 -152.5v-328q-26 -19 -40.5 -31t-28 -30.5t-13.5 -35.5q0 -43 40 -43
q18 0 42 12v-48q-20 -13 -47 -13q-41 0 -64.5 23.5t-23.5 62.5q0 63 82 103zM401 192v80q-181 -11 -226 -32q-65 -29 -65 -94q0 -46 31.5 -75.5t99.5 -29.5q70 0 115 41.5t45 109.5z" />
    <glyph glyph-name="Cacute" unicode="&#x106;" horiz-adv-x="559" 
d="M450 200h55q-8 -97 -68.5 -153.5t-151.5 -56.5q-97 0 -159 64.5t-62 172.5v246q0 108 62 172.5t159 64.5q91 0 151.5 -56.5t68.5 -153.5h-55q-7 76 -53 116t-112 40q-72 0 -119 -47t-47 -136v-246q0 -89 47 -136t119 -47q66 0 112 40t53 116zM322 854h86l-128 -109h-58z
" />
    <glyph glyph-name="cacute" unicode="&#x107;" horiz-adv-x="516" 
d="M264 -10q-80 0 -139 49.5t-59 152.5v136q0 103 59 152.5t139 49.5q73 0 129.5 -41.5t66.5 -128.5h-54q-9 55 -47.5 87t-94.5 32q-64 0 -104.5 -41t-40.5 -110v-136q0 -69 40.5 -110t104.5 -41q56 0 94.5 32t47.5 87h54q-10 -87 -66.5 -128.5t-129.5 -41.5zM292 700h84
l-118 -129h-51z" />
    <glyph glyph-name="Ccircumflex" unicode="&#x108;" horiz-adv-x="559" 
d="M450 200h55q-8 -97 -68.5 -153.5t-151.5 -56.5q-97 0 -159 64.5t-62 172.5v246q0 108 62 172.5t159 64.5q91 0 151.5 -56.5t68.5 -153.5h-55q-7 76 -53 116t-112 40q-72 0 -119 -47t-47 -136v-246q0 -89 47 -136t119 -47q66 0 112 40t53 116zM310 854l125 -109h-72
l-79 63l-79 -63h-72l125 109h52z" />
    <glyph glyph-name="ccircumflex" unicode="&#x109;" horiz-adv-x="516" 
d="M264 -10q-80 0 -139 49.5t-59 152.5v136q0 103 59 152.5t139 49.5q73 0 129.5 -41.5t66.5 -128.5h-54q-9 55 -47.5 87t-94.5 32q-64 0 -104.5 -41t-40.5 -110v-136q0 -69 40.5 -110t104.5 -41q56 0 94.5 32t47.5 87h54q-10 -87 -66.5 -128.5t-129.5 -41.5zM350 571
l-87 83l-87 -83h-64l125 129h52l125 -129h-64z" />
    <glyph glyph-name="Cdotaccent" unicode="&#x10a;" horiz-adv-x="559" 
d="M450 200h55q-8 -97 -68.5 -153.5t-151.5 -56.5q-97 0 -159 64.5t-62 172.5v246q0 108 62 172.5t159 64.5q91 0 151.5 -56.5t68.5 -153.5h-55q-7 76 -53 116t-112 40q-72 0 -119 -47t-47 -136v-246q0 -89 47 -136t119 -47q66 0 112 40t53 116zM312 843v-87h-55v87h55z" />
    <glyph glyph-name="cdotaccent" unicode="&#x10b;" horiz-adv-x="516" 
d="M264 -10q-80 0 -139 49.5t-59 152.5v136q0 103 59 152.5t139 49.5q73 0 129.5 -41.5t66.5 -128.5h-54q-9 55 -47.5 87t-94.5 32q-64 0 -104.5 -41t-40.5 -110v-136q0 -69 40.5 -110t104.5 -41q56 0 94.5 32t47.5 87h54q-10 -87 -66.5 -128.5t-129.5 -41.5zM290 679v-87
h-53v87h53z" />
    <glyph glyph-name="Ccaron" unicode="&#x10c;" horiz-adv-x="559" 
d="M450 200h55q-8 -97 -68.5 -153.5t-151.5 -56.5q-97 0 -159 64.5t-62 172.5v246q0 108 62 172.5t159 64.5q91 0 151.5 -56.5t68.5 -153.5h-55q-7 76 -53 116t-112 40q-72 0 -119 -47t-47 -136v-246q0 -89 47 -136t119 -47q66 0 112 40t53 116zM435 854l-125 -109h-52
l-125 109h72l79 -63l79 63h72z" />
    <glyph glyph-name="ccaron" unicode="&#x10d;" horiz-adv-x="516" 
d="M264 -10q-80 0 -139 49.5t-59 152.5v136q0 103 59 152.5t139 49.5q73 0 129.5 -41.5t66.5 -128.5h-54q-9 55 -47.5 87t-94.5 32q-64 0 -104.5 -41t-40.5 -110v-136q0 -69 40.5 -110t104.5 -41q56 0 94.5 32t47.5 87h54q-10 -87 -66.5 -128.5t-129.5 -41.5zM263 617l87 83
h64l-125 -129h-52l-125 129h64z" />
    <glyph glyph-name="Dcaron" unicode="&#x10e;" horiz-adv-x="591" 
d="M527 463v-226q0 -108 -62 -172.5t-159 -64.5h-221v700h221q97 0 159 -64.5t62 -172.5zM140 646v-592h166q72 0 119 47t47 136v226q0 89 -47 136t-119 47h-166zM437 854l-125 -109h-52l-125 109h72l79 -63l79 63h72z" />
    <glyph glyph-name="dcaron" unicode="&#x10f;" horiz-adv-x="542" 
d="M594 700l-61 -158h-41l28 158h74zM462 700v-700h-53v63q-23 -35 -62 -54t-83 -19q-80 0 -139 49.5t-59 152.5v136q0 103 59 152.5t139 49.5q44 0 83 -19t62 -54v243h53zM409 192v136q0 69 -40.5 110t-104.5 41t-104.5 -41t-40.5 -110v-136q0 -69 40.5 -110t104.5 -41
t104.5 41t40.5 110z" />
    <glyph glyph-name="Dcroat" unicode="&#x110;" horiz-adv-x="602" 
d="M538 463v-226q0 -108 -62 -172.5t-159 -64.5h-221v328h-70v45h70v327h221q97 0 159 -64.5t62 -172.5zM151 646v-273h166v-45h-166v-274h166q72 0 119 47t47 136v226q0 89 -47 136t-119 47h-166z" />
    <glyph glyph-name="dcroat" unicode="&#x111;" horiz-adv-x="542" 
d="M462 700v-66h70v-43h-70v-591h-53v63q-23 -35 -62 -54t-83 -19q-80 0 -139 49.5t-59 152.5v136q0 103 59 152.5t139 49.5q44 0 83 -19t62 -54v134h-145v43h145v66h53zM409 192v136q0 69 -40.5 110t-104.5 41t-104.5 -41t-40.5 -110v-136q0 -69 40.5 -110t104.5 -41
t104.5 41t40.5 110z" />
    <glyph glyph-name="Emacron" unicode="&#x112;" horiz-adv-x="541" 
d="M140 328v-274h332v-54h-387v700h387v-54h-332v-265h332v-53h-332zM423 774h-289v47h289v-47z" />
    <glyph glyph-name="emacron" unicode="&#x113;" horiz-adv-x="523" 
d="M119 253v-61q0 -69 40.5 -110t104.5 -41q56 0 94.5 32t47.5 87h54q-10 -87 -66.5 -128.5t-129.5 -41.5q-80 0 -139 49.5t-59 152.5v136q0 103 59 152.5t139 49.5t139 -49.5t59 -152.5v-75h-343zM119 328v-24h290v24q0 69 -40.5 110t-104.5 41t-104.5 -41t-40.5 -110z
M409 613h-289v45h289v-45z" />
    <glyph glyph-name="Ebreve" unicode="&#x114;" horiz-adv-x="541" 
d="M140 328v-274h332v-54h-387v700h387v-54h-332v-265h332v-53h-332zM310 796q25 0 41.5 16.5t16.5 41.5h51q0 -45 -32 -77t-77 -32h-64q-45 0 -77 32t-32 77h51q0 -25 16.5 -41.5t41.5 -16.5h64z" />
    <glyph glyph-name="ebreve" unicode="&#x115;" horiz-adv-x="523" 
d="M119 253v-61q0 -69 40.5 -110t104.5 -41q56 0 94.5 32t47.5 87h54q-10 -87 -66.5 -128.5t-129.5 -41.5q-80 0 -139 49.5t-59 152.5v136q0 103 59 152.5t139 49.5t139 -49.5t59 -152.5v-75h-343zM119 328v-24h290v24q0 69 -40.5 110t-104.5 41t-104.5 -41t-40.5 -110z
M252 620h24q33 0 56.5 23.5t23.5 56.5h49q0 -53 -38 -91t-91 -38h-24q-53 0 -91 38t-38 91h49q0 -33 23.5 -56.5t56.5 -23.5z" />
    <glyph glyph-name="Edotaccent" unicode="&#x116;" horiz-adv-x="541" 
d="M140 328v-274h332v-54h-387v700h387v-54h-332v-265h332v-53h-332zM306 843v-87h-55v87h55z" />
    <glyph glyph-name="edotaccent" unicode="&#x117;" horiz-adv-x="523" 
d="M119 253v-61q0 -69 40.5 -110t104.5 -41q56 0 94.5 32t47.5 87h54q-10 -87 -66.5 -128.5t-129.5 -41.5q-80 0 -139 49.5t-59 152.5v136q0 103 59 152.5t139 49.5t139 -49.5t59 -152.5v-75h-343zM119 328v-24h290v24q0 69 -40.5 110t-104.5 41t-104.5 -41t-40.5 -110z
M291 679v-87h-53v87h53z" />
    <glyph glyph-name="Eogonek" unicode="&#x118;" horiz-adv-x="541" 
d="M417 0h-332v700h387v-54h-332v-265h332v-53h-332v-274h332v-54q-26 -19 -40.5 -31t-28 -30.5t-13.5 -35.5q0 -41 40 -41q18 0 42 12v-50q-20 -13 -47 -13q-41 0 -65.5 23.5t-24.5 62.5q0 63 82 103z" />
    <glyph glyph-name="eogonek" unicode="&#x119;" horiz-adv-x="523" 
d="M119 253v-61q0 -69 40.5 -110t104.5 -41q56 0 94.5 32t47.5 87h54q-10 -81 -64 -126q-6 -5 -26.5 -21t-33 -26.5t-28 -26t-23 -30t-7.5 -27.5q0 -43 40 -43q18 0 42 12v-48q-20 -13 -47 -13q-41 0 -64.5 23.5t-23.5 62.5q0 57 66 95q-18 -2 -27 -2q-80 0 -139 49.5
t-59 152.5v136q0 103 59 152.5t139 49.5t139 -49.5t59 -152.5v-75h-343zM119 328v-24h290v24q0 69 -40.5 110t-104.5 41t-104.5 -41t-40.5 -110z" />
    <glyph glyph-name="Ecaron" unicode="&#x11a;" horiz-adv-x="541" 
d="M140 328v-274h332v-54h-387v700h387v-54h-332v-265h332v-53h-332zM429 854l-125 -109h-52l-125 109h72l79 -63l79 63h72z" />
    <glyph glyph-name="ecaron" unicode="&#x11b;" horiz-adv-x="523" 
d="M119 253v-61q0 -69 40.5 -110t104.5 -41q56 0 94.5 32t47.5 87h54q-10 -87 -66.5 -128.5t-129.5 -41.5q-80 0 -139 49.5t-59 152.5v136q0 103 59 152.5t139 49.5t139 -49.5t59 -152.5v-75h-343zM119 328v-24h290v24q0 69 -40.5 110t-104.5 41t-104.5 -41t-40.5 -110z
M264 617l87 83h64l-125 -129h-52l-125 129h64z" />
    <glyph glyph-name="Gcircumflex" unicode="&#x11c;" horiz-adv-x="566" 
d="M285 308v53h221v-134q0 -108 -62 -172.5t-159 -64.5t-159 64.5t-62 172.5v246q0 108 62 172.5t159 64.5q91 0 151.5 -56.5t68.5 -153.5h-55q-7 76 -53 116t-112 40q-72 0 -119 -47t-47 -136v-246q0 -89 47 -136t119 -47t119 47t47 136v81h-166zM311 854l125 -109h-72
l-79 63l-79 -63h-72l125 109h52z" />
    <glyph glyph-name="gcircumflex" unicode="&#x11d;" horiz-adv-x="541" 
d="M408 8v69q-23 -35 -62 -54t-83 -19q-80 0 -139 49.5t-59 152.5v122q0 103 59 152.5t139 49.5q44 0 83 -19t62 -54v59h53v-508q0 -103 -59 -152.5t-139 -49.5q-73 0 -129.5 41.5t-66.5 128.5h54q9 -55 47.5 -87t94.5 -32q64 0 104.5 41t40.5 110zM408 328q0 69 -40.5 110
t-104.5 41t-104.5 -41t-40.5 -110v-122q0 -69 40.5 -110t104.5 -41t104.5 41t40.5 110v122zM350 571l-87 83l-87 -83h-64l125 129h52l125 -129h-64z" />
    <glyph glyph-name="Gbreve" unicode="&#x11e;" horiz-adv-x="566" 
d="M285 308v53h221v-134q0 -108 -62 -172.5t-159 -64.5t-159 64.5t-62 172.5v246q0 108 62 172.5t159 64.5q91 0 151.5 -56.5t68.5 -153.5h-55q-7 76 -53 116t-112 40q-72 0 -119 -47t-47 -136v-246q0 -89 47 -136t119 -47t119 47t47 136v81h-166zM317 796q25 0 41.5 16.5
t16.5 41.5h51q0 -45 -32 -77t-77 -32h-64q-45 0 -77 32t-32 77h51q0 -25 16.5 -41.5t41.5 -16.5h64z" />
    <glyph glyph-name="gbreve" unicode="&#x11f;" horiz-adv-x="541" 
d="M408 8v69q-23 -35 -62 -54t-83 -19q-80 0 -139 49.5t-59 152.5v122q0 103 59 152.5t139 49.5q44 0 83 -19t62 -54v59h53v-508q0 -103 -59 -152.5t-139 -49.5q-73 0 -129.5 41.5t-66.5 128.5h54q9 -55 47.5 -87t94.5 -32q64 0 104.5 41t40.5 110zM408 328q0 69 -40.5 110
t-104.5 41t-104.5 -41t-40.5 -110v-122q0 -69 40.5 -110t104.5 -41t104.5 41t40.5 110v122zM251 620h24q33 0 56.5 23.5t23.5 56.5h49q0 -53 -38 -91t-91 -38h-24q-53 0 -91 38t-38 91h49q0 -33 23.5 -56.5t56.5 -23.5z" />
    <glyph glyph-name="Gdotaccent" unicode="&#x120;" horiz-adv-x="566" 
d="M285 308v53h221v-134q0 -108 -62 -172.5t-159 -64.5t-159 64.5t-62 172.5v246q0 108 62 172.5t159 64.5q91 0 151.5 -56.5t68.5 -153.5h-55q-7 76 -53 116t-112 40q-72 0 -119 -47t-47 -136v-246q0 -89 47 -136t119 -47t119 47t47 136v81h-166zM313 843v-87h-55v87h55z
" />
    <glyph glyph-name="gdotaccent" unicode="&#x121;" horiz-adv-x="541" 
d="M408 8v69q-23 -35 -62 -54t-83 -19q-80 0 -139 49.5t-59 152.5v122q0 103 59 152.5t139 49.5q44 0 83 -19t62 -54v59h53v-508q0 -103 -59 -152.5t-139 -49.5q-73 0 -129.5 41.5t-66.5 128.5h54q9 -55 47.5 -87t94.5 -32q64 0 104.5 41t40.5 110zM408 328q0 69 -40.5 110
t-104.5 41t-104.5 -41t-40.5 -110v-122q0 -69 40.5 -110t104.5 -41t104.5 41t40.5 110v122zM290 679v-87h-53v87h53z" />
    <glyph glyph-name="Gcommaaccent" unicode="&#x122;" horiz-adv-x="566" 
d="M285 308v53h221v-134q0 -108 -62 -172.5t-159 -64.5t-159 64.5t-62 172.5v246q0 108 62 172.5t159 64.5q91 0 151.5 -56.5t68.5 -153.5h-55q-7 76 -53 116t-112 40q-72 0 -119 -47t-47 -136v-246q0 -89 47 -136t119 -47t119 47t47 136v81h-166zM248 -124v74h74v-74
l-21 -74h-49l21 74h-25z" />
    <glyph glyph-name="gcommaaccent" unicode="&#x123;" horiz-adv-x="541" 
d="M408 8v69q-23 -35 -62 -54t-83 -19q-80 0 -139 49.5t-59 152.5v122q0 103 59 152.5t139 49.5q44 0 83 -19t62 -54v59h53v-508q0 -103 -59 -152.5t-139 -49.5q-73 0 -129.5 41.5t-66.5 128.5h54q9 -55 47.5 -87t94.5 -32q64 0 104.5 41t40.5 110zM408 328q0 69 -40.5 110
t-104.5 41t-104.5 -41t-40.5 -110v-122q0 -69 40.5 -110t104.5 -41t104.5 41t40.5 110v122zM300 645v-74h-74v74l21 74h49l-21 -74h25z" />
    <glyph glyph-name="Hcircumflex" unicode="&#x124;" horiz-adv-x="612" 
d="M472 381v319h55v-700h-55v328h-332v-328h-55v700h55v-319h332zM332 854l125 -109h-72l-79 63l-79 -63h-72l125 109h52z" />
    <glyph glyph-name="hcircumflex" unicode="&#x125;" horiz-adv-x="549" 
d="M133 328v-328h-53v700h53v-243q23 35 62 54t83 19q80 0 139 -49.5t59 -152.5v-328h-53v328q0 69 -40.5 110t-104.5 41t-104.5 -41t-40.5 -110zM365 745l-87 83l-87 -83h-64l125 129h52l125 -129h-64z" />
    <glyph glyph-name="Hbar" unicode="&#x126;" horiz-adv-x="612" 
d="M140 700v-137h332v137h55v-700h-55v328h-332v-328h-55v700h55zM472 381v137h-332v-137h332z" />
    <glyph glyph-name="hbar" unicode="&#x127;" horiz-adv-x="549" 
d="M133 328v-328h-53v591h-70v43h70v66h53v-66h145v-43h-145v-134q23 35 62 54t83 19q80 0 139 -49.5t59 -152.5v-328h-53v328q0 69 -40.5 110t-104.5 41t-104.5 -41t-40.5 -110z" />
    <glyph glyph-name="Itilde" unicode="&#x128;" horiz-adv-x="225" 
d="M140 700v-700h-55v700h55zM60 845q24 0 45 -12l33 -17q20 -10 29 -10q27 0 44 37h56q-27 -88 -102 -88q-24 0 -45 12l-33 17q-20 10 -29 10q-27 0 -44 -37h-56q27 88 102 88z" />
    <glyph glyph-name="itilde" unicode="&#x129;" horiz-adv-x="213" 
d="M80 516h53v-516h-53v516zM212 679h49q-27 -88 -102 -88q-24 0 -45 12l-33 19q-17 10 -33 10q-29 0 -47 -39h-49q27 88 102 88q24 0 45 -12l33 -19q18 -10 33 -10q29 0 47 39z" />
    <glyph glyph-name="Imacron" unicode="&#x12a;" horiz-adv-x="225" 
d="M140 700v-700h-55v700h55zM257 774h-289v47h289v-47z" />
    <glyph glyph-name="imacron" unicode="&#x12b;" horiz-adv-x="213" 
d="M80 516h53v-516h-53v516zM251 613h-289v45h289v-45z" />
    <glyph glyph-name="Ibreve" unicode="&#x12c;" horiz-adv-x="225" 
d="M140 700v-700h-55v700h55zM144 796q25 0 41.5 16.5t16.5 41.5h51q0 -45 -32 -77t-77 -32h-64q-45 0 -77 32t-32 77h51q0 -25 16.5 -41.5t41.5 -16.5h64z" />
    <glyph glyph-name="ibreve" unicode="&#x12d;" horiz-adv-x="213" 
d="M80 516h53v-516h-53v516zM94 620h24q33 0 56.5 23.5t23.5 56.5h49q0 -53 -38 -91t-91 -38h-24q-53 0 -91 38t-38 91h49q0 -33 23.5 -56.5t56.5 -23.5z" />
    <glyph glyph-name="Iogonek" unicode="&#x12e;" horiz-adv-x="222" 
d="M85 0v700h55v-700q-26 -19 -40.5 -31t-28 -30.5t-13.5 -35.5q0 -41 40 -41q18 0 42 12v-50q-20 -13 -47 -13q-41 0 -65.5 23.5t-24.5 62.5q0 63 82 103z" />
    <glyph glyph-name="iogonek" unicode="&#x12f;" horiz-adv-x="213" 
d="M80 0v516h53v-516q-26 -19 -40.5 -31t-28 -30.5t-13.5 -35.5q0 -43 40 -43q18 0 42 12v-48q-20 -13 -47 -13q-41 0 -64.5 23.5t-23.5 62.5q0 63 82 103zM133 700v-87h-53v87h53z" />
    <glyph glyph-name="Idotaccent" unicode="&#x130;" horiz-adv-x="225" 
d="M140 700v-700h-55v700h55zM140 843v-87h-55v87h55z" />
    <glyph glyph-name="dotlessi" unicode="&#x131;" horiz-adv-x="213" 
d="M80 516h53v-516h-53v516z" />
    <glyph glyph-name="Jcircumflex" unicode="&#x134;" horiz-adv-x="467" 
d="M336 182v518h55v-518q0 -86 -53 -139t-134 -53t-133 53t-52 139v18h55v-18q0 -58 35 -98t96 -40t96 40t35 98zM389 854l125 -109h-72l-79 63l-79 -63h-72l125 109h52z" />
    <glyph glyph-name="jcircumflex" unicode="&#x135;" horiz-adv-x="213" 
d="M80 -81v597h53v-597q0 -53 -23 -78t-84 -25h-10v51h10q32 0 43 11.5t11 40.5zM193 571l-87 83l-87 -83h-64l125 129h52l125 -129h-64z" />
    <glyph glyph-name="Kcommaaccent" unicode="&#x136;" horiz-adv-x="597" 
d="M140 206v-206h-55v700h55v-411l349 411h71l-246 -289l272 -411h-66l-243 367zM283 -124v74h74v-74l-21 -74h-49l21 74h-25z" />
    <glyph glyph-name="kcommaaccent" unicode="&#x137;" horiz-adv-x="489" 
d="M133 700v-453l248 269h68l-187 -203l212 -313h-63l-186 274l-92 -100v-174h-53v700h53zM226 -124v74h74v-74l-21 -74h-49l21 74h-25z" />
    <glyph glyph-name="Lacute" unicode="&#x139;" horiz-adv-x="492" 
d="M140 700v-646h332v-54h-387v700h55zM150 854h86l-128 -109h-58z" />
    <glyph glyph-name="lacute" unicode="&#x13a;" horiz-adv-x="242" 
d="M131 700v-597q0 -29 11 -40.5t43 -11.5h10v-51h-10q-61 0 -84 25t-23 78v597h53zM133 874h84l-118 -129h-51z" />
    <glyph glyph-name="Lcommaaccent" unicode="&#x13b;" horiz-adv-x="492" 
d="M140 700v-646h332v-54h-387v700h55zM241 -124v74h74v-74l-21 -74h-49l21 74h-25z" />
    <glyph glyph-name="lcommaaccent" unicode="&#x13c;" horiz-adv-x="242" 
d="M131 700v-597q0 -29 11 -40.5t43 -11.5h10v-51h-10q-61 0 -84 25t-23 78v597h53zM99 -124v74h74v-74l-21 -74h-49l21 74h-25z" />
    <glyph glyph-name="Lcaron" unicode="&#x13d;" horiz-adv-x="492" 
d="M374 700l-56 -158h-46l28 158h74zM140 700v-646h332v-54h-387v700h55z" />
    <glyph glyph-name="lcaron" unicode="&#x13e;" horiz-adv-x="242" 
d="M263 700l-61 -158h-41l28 158h74zM131 700v-597q0 -29 11 -40.5t43 -11.5h10v-51h-10q-61 0 -84 25t-23 78v597h53z" />
    <glyph glyph-name="Ldot" unicode="&#x13f;" horiz-adv-x="492" 
d="M140 700v-646h332v-54h-387v700h55zM377 421v-87h-55v87h55z" />
    <glyph glyph-name="ldot" unicode="&#x140;" horiz-adv-x="264" 
d="M131 700v-597q0 -29 11 -40.5t43 -11.5h10v-51h-10q-61 0 -84 25t-23 78v597h53zM264 419v-87h-53v87h53z" />
    <glyph glyph-name="Lslash" unicode="&#x141;" horiz-adv-x="503" 
d="M151 700v-347l166 92v-51l-166 -92v-248h332v-54h-387v271l-70 -38v51l70 38v378h55z" />
    <glyph glyph-name="lslash" unicode="&#x142;" horiz-adv-x="262" 
d="M141 700v-292l64 36v-49l-64 -36v-256q0 -29 11 -40.5t43 -11.5h10v-51h-10q-61 0 -84 25t-23 78v227l-64 -35v49l64 35v321h53z" />
    <glyph glyph-name="Nacute" unicode="&#x143;" horiz-adv-x="612" 
d="M527 700v-700h-55l-332 591v-591h-55v700h55l332 -591v591h55zM344 854h86l-128 -109h-58z" />
    <glyph glyph-name="nacute" unicode="&#x144;" horiz-adv-x="549" 
d="M133 328v-328h-53v516h53v-59q23 35 62 54t83 19q80 0 139 -49.5t59 -152.5v-328h-53v328q0 69 -40.5 110t-104.5 41t-104.5 -41t-40.5 -110zM307 700h84l-118 -129h-51z" />
    <glyph glyph-name="Ncommaaccent" unicode="&#x145;" horiz-adv-x="612" 
d="M527 700v-700h-55l-332 591v-591h-55v700h55l332 -591v591h55zM269 -124v74h74v-74l-21 -74h-49l21 74h-25z" />
    <glyph glyph-name="ncommaaccent" unicode="&#x146;" horiz-adv-x="549" 
d="M133 328v-328h-53v516h53v-59q23 35 62 54t83 19q80 0 139 -49.5t59 -152.5v-328h-53v328q0 69 -40.5 110t-104.5 41t-104.5 -41t-40.5 -110zM241 -124v74h74v-74l-21 -74h-49l21 74h-25z" />
    <glyph glyph-name="Ncaron" unicode="&#x147;" horiz-adv-x="612" 
d="M527 700v-700h-55l-332 591v-591h-55v700h55l332 -591v591h55zM457 854l-125 -109h-52l-125 109h72l79 -63l79 63h72z" />
    <glyph glyph-name="ncaron" unicode="&#x148;" horiz-adv-x="549" 
d="M133 328v-328h-53v516h53v-59q23 35 62 54t83 19q80 0 139 -49.5t59 -152.5v-328h-53v328q0 69 -40.5 110t-104.5 41t-104.5 -41t-40.5 -110zM278 617l87 83h64l-125 -129h-52l-125 129h64z" />
    <glyph glyph-name="Eng" unicode="&#x14a;" horiz-adv-x="612" 
d="M527 700v-700q0 -82 -53.5 -133t-133.5 -51h-34v54h35q58 0 93.5 37.5t37.5 92.5l-332 591v-591h-55v700h55l332 -591v591h55z" />
    <glyph glyph-name="eng" unicode="&#x14b;" horiz-adv-x="549" 
d="M423 -81v409q0 69 -40.5 110t-104.5 41t-104.5 -41t-40.5 -110v-328h-53v516h53v-59q23 35 62 54t83 19q80 0 139 -49.5t59 -152.5v-409q0 -53 -23 -78t-84 -25h-10v51h10q32 0 43 11.5t11 40.5z" />
    <glyph glyph-name="Omacron" unicode="&#x14c;" horiz-adv-x="570" 
d="M506 473v-246q0 -108 -62 -172.5t-159 -64.5t-159 64.5t-62 172.5v246q0 108 62 172.5t159 64.5t159 -64.5t62 -172.5zM119 473v-246q0 -89 47 -136t119 -47t119 47t47 136v246q0 89 -47 136t-119 47t-119 -47t-47 -136zM430 774h-289v47h289v-47z" />
    <glyph glyph-name="omacron" unicode="&#x14d;" horiz-adv-x="528" 
d="M462 328v-136q0 -103 -59 -152.5t-139 -49.5t-139 49.5t-59 152.5v136q0 103 59 152.5t139 49.5t139 -49.5t59 -152.5zM409 192v136q0 69 -40.5 110t-104.5 41t-104.5 -41t-40.5 -110v-136q0 -69 40.5 -110t104.5 -41t104.5 41t40.5 110zM409 613h-289v45h289v-45z" />
    <glyph glyph-name="Obreve" unicode="&#x14e;" horiz-adv-x="570" 
d="M506 473v-246q0 -108 -62 -172.5t-159 -64.5t-159 64.5t-62 172.5v246q0 108 62 172.5t159 64.5t159 -64.5t62 -172.5zM119 473v-246q0 -89 47 -136t119 -47t119 47t47 136v246q0 89 -47 136t-119 47t-119 -47t-47 -136zM317 796q25 0 41.5 16.5t16.5 41.5h51
q0 -45 -32 -77t-77 -32h-64q-45 0 -77 32t-32 77h51q0 -25 16.5 -41.5t41.5 -16.5h64z" />
    <glyph glyph-name="obreve" unicode="&#x14f;" horiz-adv-x="528" 
d="M462 328v-136q0 -103 -59 -152.5t-139 -49.5t-139 49.5t-59 152.5v136q0 103 59 152.5t139 49.5t139 -49.5t59 -152.5zM409 192v136q0 69 -40.5 110t-104.5 41t-104.5 -41t-40.5 -110v-136q0 -69 40.5 -110t104.5 -41t104.5 41t40.5 110zM252 620h24q33 0 56.5 23.5
t23.5 56.5h49q0 -53 -38 -91t-91 -38h-24q-53 0 -91 38t-38 91h49q0 -33 23.5 -56.5t56.5 -23.5z" />
    <glyph glyph-name="Ohungarumlaut" unicode="&#x150;" horiz-adv-x="570" 
d="M506 473v-246q0 -108 -62 -172.5t-159 -64.5t-159 64.5t-62 172.5v246q0 108 62 172.5t159 64.5t159 -64.5t62 -172.5zM119 473v-246q0 -89 47 -136t119 -47t119 47t47 136v246q0 89 -47 136t-119 47t-119 -47t-47 -136zM261 854h81l-118 -109h-53zM425 854h81l-118 -109
h-53z" />
    <glyph glyph-name="ohungarumlaut" unicode="&#x151;" horiz-adv-x="528" 
d="M462 328v-136q0 -103 -59 -152.5t-139 -49.5t-139 49.5t-59 152.5v136q0 103 59 152.5t139 49.5t139 -49.5t59 -152.5zM409 192v136q0 69 -40.5 110t-104.5 41t-104.5 -41t-40.5 -110v-136q0 -69 40.5 -110t104.5 -41t104.5 41t40.5 110zM219 700h79l-108 -129h-46z
M383 700h79l-108 -129h-46z" />
    <glyph glyph-name="OE" unicode="&#x152;" horiz-adv-x="907" 
d="M119 473v-246q0 -89 47 -136t119 -47t119 47t47 136v246q0 89 -47 136t-119 47t-119 -47t-47 -136zM451 0v69q-24 -37 -68 -58t-98 -21q-97 0 -159 64.5t-62 172.5v246q0 108 62 172.5t159 64.5q54 0 98 -21t68 -58v69h387v-54h-332v-265h332v-53h-332v-274h332v-54h-387
z" />
    <glyph glyph-name="oe" unicode="&#x153;" horiz-adv-x="866" 
d="M409 192v136q0 69 -40.5 110t-104.5 41t-104.5 -41t-40.5 -110v-136q0 -69 40.5 -110t104.5 -41t104.5 41t40.5 110zM462 328v-24h290v24q0 69 -40.5 110t-104.5 41t-104.5 -41t-40.5 -110zM264 -10q-80 0 -139 49.5t-59 152.5v136q0 103 59 152.5t139 49.5q56 0 102 -27
t69 -73q23 46 69.5 73t102.5 27q80 0 139 -49.5t59 -152.5v-75h-343v-61q0 -69 40.5 -110t104.5 -41q56 0 94.5 32t47.5 87h54q-10 -87 -66.5 -128.5t-129.5 -41.5q-56 0 -102.5 27t-69.5 73q-23 -46 -69 -73t-102 -27z" />
    <glyph glyph-name="Racute" unicode="&#x154;" horiz-adv-x="572" 
d="M282 328h-142v-328h-55v700h238q86 0 139 -53t53 -134q0 -76 -47 -126.5t-124 -57.5l194 -329h-63zM140 381h183q58 0 97.5 35t39.5 97t-39.5 97.5t-97.5 35.5h-183v-265zM304 854h86l-128 -109h-58z" />
    <glyph glyph-name="racute" unicode="&#x155;" horiz-adv-x="315" 
d="M293 474h-15q-64 0 -104.5 -41t-40.5 -110v-323h-53v516h53v-64q23 35 62 54t83 19h15v-51zM215 700h84l-118 -129h-51z" />
    <glyph glyph-name="Rcommaaccent" unicode="&#x156;" horiz-adv-x="572" 
d="M282 328h-142v-328h-55v700h238q86 0 139 -53t53 -134q0 -76 -47 -126.5t-124 -57.5l194 -329h-63zM140 381h183q58 0 97.5 35t39.5 97t-39.5 97.5t-97.5 35.5h-183v-265zM260 -124v74h74v-74l-21 -74h-49l21 74h-25z" />
    <glyph glyph-name="rcommaaccent" unicode="&#x157;" horiz-adv-x="315" 
d="M293 474h-15q-64 0 -104.5 -41t-40.5 -110v-323h-53v516h53v-64q23 35 62 54t83 19h15v-51zM69 -124v74h74v-74l-21 -74h-49l21 74h-25z" />
    <glyph glyph-name="Rcaron" unicode="&#x158;" horiz-adv-x="572" 
d="M282 328h-142v-328h-55v700h238q86 0 139 -53t53 -134q0 -76 -47 -126.5t-124 -57.5l194 -329h-63zM140 381h183q58 0 97.5 35t39.5 97t-39.5 97.5t-97.5 35.5h-183v-265zM432 854l-125 -109h-52l-125 109h72l79 -63l79 63h72z" />
    <glyph glyph-name="rcaron" unicode="&#x159;" horiz-adv-x="315" 
d="M293 474h-15q-64 0 -104.5 -41t-40.5 -110v-323h-53v516h53v-64q23 35 62 54t83 19h15v-51zM186 617l87 83h64l-125 -129h-52l-125 129h64z" />
    <glyph glyph-name="Sacute" unicode="&#x15a;" horiz-adv-x="515" 
d="M250 656q-68 0 -105.5 -37.5t-37.5 -94.5q0 -50 26 -84t73 -47l125 -34q60 -16 98.5 -63t38.5 -118q0 -82 -51.5 -135t-152.5 -53q-94 0 -155 56.5t-68 153.5h55q6 -75 53.5 -115.5t114.5 -40.5q71 0 110 34.5t39 99.5q0 44 -25.5 79t-78.5 49l-121 33
q-65 18 -100.5 67.5t-35.5 117.5q0 80 52.5 133t145.5 53q84 0 138 -47.5t69 -132.5h-55q-28 126 -152 126zM292 854h86l-128 -109h-58z" />
    <glyph glyph-name="sacute" unicode="&#x15b;" horiz-adv-x="484" 
d="M423 368h-54q-5 52 -42.5 81.5t-92.5 29.5q-52 0 -89 -22.5t-37 -67.5q0 -35 21 -56t68 -31l99 -22q73 -16 106.5 -52t33.5 -101t-50 -101t-134 -36q-85 0 -143.5 42.5t-64.5 128.5h54q7 -61 51.5 -90.5t103.5 -29.5q55 0 92.5 22.5t37.5 64.5q0 79 -88 97l-116 26
q-124 28 -124 138q0 66 53 103.5t127 37.5q76 0 129 -42t59 -120zM269 700h84l-118 -129h-51z" />
    <glyph glyph-name="Scircumflex" unicode="&#x15c;" horiz-adv-x="515" 
d="M250 656q-68 0 -105.5 -37.5t-37.5 -94.5q0 -50 26 -84t73 -47l125 -34q60 -16 98.5 -63t38.5 -118q0 -82 -51.5 -135t-152.5 -53q-94 0 -155 56.5t-68 153.5h55q6 -75 53.5 -115.5t114.5 -40.5q71 0 110 34.5t39 99.5q0 44 -25.5 79t-78.5 49l-121 33
q-65 18 -100.5 67.5t-35.5 117.5q0 80 52.5 133t145.5 53q84 0 138 -47.5t69 -132.5h-55q-28 126 -152 126zM280 854l125 -109h-72l-79 63l-79 -63h-72l125 109h52z" />
    <glyph glyph-name="scircumflex" unicode="&#x15d;" horiz-adv-x="484" 
d="M423 368h-54q-5 52 -42.5 81.5t-92.5 29.5q-52 0 -89 -22.5t-37 -67.5q0 -35 21 -56t68 -31l99 -22q73 -16 106.5 -52t33.5 -101t-50 -101t-134 -36q-85 0 -143.5 42.5t-64.5 128.5h54q7 -61 51.5 -90.5t103.5 -29.5q55 0 92.5 22.5t37.5 64.5q0 79 -88 97l-116 26
q-124 28 -124 138q0 66 53 103.5t127 37.5q76 0 129 -42t59 -120zM327 571l-87 83l-87 -83h-64l125 129h52l125 -129h-64z" />
    <glyph glyph-name="Scedilla" unicode="&#x15e;" horiz-adv-x="515" 
d="M201 -158l49 148q-89 5 -145.5 61t-63.5 149h55q6 -75 53.5 -115.5t114.5 -40.5q71 0 110 34.5t39 99.5q0 44 -25.5 79t-78.5 49l-121 33q-65 18 -100.5 67.5t-35.5 117.5q0 80 52.5 133t145.5 53q84 0 138 -47.5t69 -132.5h-55q-28 126 -152 126q-68 0 -105.5 -37.5
t-37.5 -94.5q0 -50 26 -84t73 -47l125 -34q60 -16 98.5 -63t38.5 -118q0 -72 -40.5 -123t-119.5 -62l-36 -151h-71z" />
    <glyph glyph-name="scedilla" unicode="&#x15f;" horiz-adv-x="484" 
d="M188 -158l54 148q-82 2 -137 44.5t-61 126.5h54q7 -61 51.5 -90.5t103.5 -29.5q55 0 92.5 22.5t37.5 64.5q0 79 -88 97l-116 26q-124 28 -124 138q0 66 53 103.5t127 37.5q76 0 129 -42t59 -120h-54q-5 52 -42.5 81.5t-92.5 29.5q-52 0 -89 -22.5t-37 -67.5q0 -35 21 -56
t68 -31l99 -22q73 -16 106.5 -52t33.5 -101q0 -57 -38.5 -91.5t-104.5 -42.5l-36 -151h-69z" />
    <glyph glyph-name="Scaron" unicode="&#x160;" horiz-adv-x="515" 
d="M250 656q-68 0 -105.5 -37.5t-37.5 -94.5q0 -50 26 -84t73 -47l125 -34q60 -16 98.5 -63t38.5 -118q0 -82 -51.5 -135t-152.5 -53q-94 0 -155 56.5t-68 153.5h55q6 -75 53.5 -115.5t114.5 -40.5q71 0 110 34.5t39 99.5q0 44 -25.5 79t-78.5 49l-121 33
q-65 18 -100.5 67.5t-35.5 117.5q0 80 52.5 133t145.5 53q84 0 138 -47.5t69 -132.5h-55q-28 126 -152 126zM405 854l-125 -109h-52l-125 109h72l79 -63l79 63h72z" />
    <glyph glyph-name="scaron" unicode="&#x161;" horiz-adv-x="484" 
d="M423 368h-54q-5 52 -42.5 81.5t-92.5 29.5q-52 0 -89 -22.5t-37 -67.5q0 -35 21 -56t68 -31l99 -22q73 -16 106.5 -52t33.5 -101t-50 -101t-134 -36q-85 0 -143.5 42.5t-64.5 128.5h54q7 -61 51.5 -90.5t103.5 -29.5q55 0 92.5 22.5t37.5 64.5q0 79 -88 97l-116 26
q-124 28 -124 138q0 66 53 103.5t127 37.5q76 0 129 -42t59 -120zM240 617l87 83h64l-125 -129h-52l-125 129h64z" />
    <glyph glyph-name="uni0162" unicode="&#x162;" horiz-adv-x="481" 
d="M268 646v-646h-55v646h-194v54h443v-54h-194zM203 -124v74h74v-74l-21 -74h-49l21 74h-25z" />
    <glyph glyph-name="uni0163" unicode="&#x163;" horiz-adv-x="329" 
d="M157 465v-362q0 -29 11 -40.5t43 -11.5h73v-51h-73q-61 0 -84 25t-23 78v362h-73v51h73v117h53v-117h127v-51h-127zM157 -124v74h74v-74l-21 -74h-49l21 74h-25z" />
    <glyph glyph-name="Tcaron" unicode="&#x164;" horiz-adv-x="481" 
d="M268 646v-646h-55v646h-194v54h443v-54h-194zM391 854l-125 -109h-52l-125 109h72l79 -63l79 63h72z" />
    <glyph glyph-name="tcaron" unicode="&#x165;" horiz-adv-x="329" 
d="M309 700l-52 -129h-41l19 129h74zM157 465v-362q0 -29 11 -40.5t43 -11.5h73v-51h-73q-61 0 -84 25t-23 78v362h-73v51h73v117h53v-117h127v-51h-127z" />
    <glyph glyph-name="Tbar" unicode="&#x166;" horiz-adv-x="481" 
d="M268 646v-273h124v-45h-124v-328h-55v328h-124v45h124v273h-194v54h443v-54h-194z" />
    <glyph glyph-name="tbar" unicode="&#x167;" horiz-adv-x="329" 
d="M157 465v-148h127v-43h-127v-171q0 -29 11 -40.5t43 -11.5h73v-51h-73q-61 0 -84 25t-23 78v171h-73v43h73v148h-73v51h73v117h53v-117h127v-51h-127z" />
    <glyph glyph-name="Utilde" unicode="&#x168;" horiz-adv-x="594" 
d="M76 227v473h55v-473q0 -89 47 -136t119 -47t119 47t47 136v473h55v-473q0 -108 -62 -172.5t-159 -64.5t-159 64.5t-62 172.5zM245 845q24 0 45 -12l33 -17q20 -10 29 -10q27 0 44 37h56q-27 -88 -102 -88q-24 0 -45 12l-33 17q-20 10 -29 10q-27 0 -44 -37h-56
q27 88 102 88z" />
    <glyph glyph-name="utilde" unicode="&#x169;" horiz-adv-x="542" 
d="M409 192v324h53v-516h-53v63q-22 -35 -61.5 -54t-79.5 -19q-78 0 -136.5 49.5t-58.5 152.5v324h53v-324q0 -68 40.5 -109.5t101.5 -41.5q60 0 100.5 41.5t40.5 109.5zM373 679h49q-27 -88 -102 -88q-24 0 -45 12l-33 19q-18 10 -33 10q-29 0 -47 -39h-49q27 88 102 88
q24 0 45 -12l33 -19q18 -10 33 -10q29 0 47 39z" />
    <glyph glyph-name="Umacron" unicode="&#x16a;" horiz-adv-x="594" 
d="M76 227v473h55v-473q0 -89 47 -136t119 -47t119 47t47 136v473h55v-473q0 -108 -62 -172.5t-159 -64.5t-159 64.5t-62 172.5zM442 774h-289v47h289v-47z" />
    <glyph glyph-name="umacron" unicode="&#x16b;" horiz-adv-x="542" 
d="M409 192v324h53v-516h-53v63q-22 -35 -61.5 -54t-79.5 -19q-78 0 -136.5 49.5t-58.5 152.5v324h53v-324q0 -68 40.5 -109.5t101.5 -41.5q60 0 100.5 41.5t40.5 109.5zM412 613h-289v45h289v-45z" />
    <glyph glyph-name="Ubreve" unicode="&#x16c;" horiz-adv-x="594" 
d="M76 227v473h55v-473q0 -89 47 -136t119 -47t119 47t47 136v473h55v-473q0 -108 -62 -172.5t-159 -64.5t-159 64.5t-62 172.5zM329 796q25 0 41.5 16.5t16.5 41.5h51q0 -45 -32 -77t-77 -32h-64q-45 0 -77 32t-32 77h51q0 -25 16.5 -41.5t41.5 -16.5h64z" />
    <glyph glyph-name="ubreve" unicode="&#x16d;" horiz-adv-x="542" 
d="M409 192v324h53v-516h-53v63q-22 -35 -61.5 -54t-79.5 -19q-78 0 -136.5 49.5t-58.5 152.5v324h53v-324q0 -68 40.5 -109.5t101.5 -41.5q60 0 100.5 41.5t40.5 109.5zM255 620h24q33 0 56.5 23.5t23.5 56.5h49q0 -53 -38 -91t-91 -38h-24q-53 0 -91 38t-38 91h49
q0 -33 23.5 -56.5t56.5 -23.5z" />
    <glyph glyph-name="Uring" unicode="&#x16e;" horiz-adv-x="594" 
d="M76 227v473h55v-473q0 -89 47 -136t119 -47t119 47t47 136v473h55v-473q0 -108 -62 -172.5t-159 -64.5t-159 64.5t-62 172.5zM223 799q0 31 21.5 53t52.5 22t53 -22t22 -53t-22 -52.5t-53 -21.5t-52.5 21.5t-21.5 52.5zM268 799q0 -12 8.5 -20.5t20.5 -8.5t21 8.5t9 20.5
t-9 21t-21 9t-20.5 -9t-8.5 -21z" />
    <glyph glyph-name="uring" unicode="&#x16f;" horiz-adv-x="542" 
d="M409 192v324h53v-516h-53v63q-22 -35 -61.5 -54t-79.5 -19q-78 0 -136.5 49.5t-58.5 152.5v324h53v-324q0 -68 40.5 -109.5t101.5 -41.5q60 0 100.5 41.5t40.5 109.5zM193 635q0 31 21.5 53t52.5 22t53 -22t22 -53t-22 -52.5t-53 -21.5t-52.5 21.5t-21.5 52.5zM236 635
q0 -13 9 -22t22 -9t22.5 9t9.5 22t-9.5 22.5t-22.5 9.5t-22 -9.5t-9 -22.5z" />
    <glyph glyph-name="Uhungarumlaut" unicode="&#x170;" horiz-adv-x="594" 
d="M76 227v473h55v-473q0 -89 47 -136t119 -47t119 47t47 136v473h55v-473q0 -108 -62 -172.5t-159 -64.5t-159 64.5t-62 172.5zM260 854h81l-118 -109h-53zM424 854h81l-118 -109h-53z" />
    <glyph glyph-name="uhungarumlaut" unicode="&#x171;" horiz-adv-x="542" 
d="M409 192v324h53v-516h-53v63q-22 -35 -61.5 -54t-79.5 -19q-78 0 -136.5 49.5t-58.5 152.5v324h53v-324q0 -68 40.5 -109.5t101.5 -41.5q60 0 100.5 41.5t40.5 109.5zM219 700h79l-108 -129h-46zM383 700h79l-108 -129h-46z" />
    <glyph glyph-name="Uogonek" unicode="&#x172;" horiz-adv-x="594" 
d="M76 227v473h55v-473q0 -89 47 -136t119 -47t119 47t47 136v473h55v-473q0 -135 -95 -201q-33 -23 -51 -37t-39.5 -39.5t-21.5 -46.5q0 -41 40 -41q18 0 42 12v-50q-20 -13 -47 -13q-41 0 -65.5 23.5t-24.5 62.5q0 57 65 94q-4 0 -12 -0.5t-12 -0.5q-97 0 -159 64.5
t-62 172.5z" />
    <glyph glyph-name="uogonek" unicode="&#x173;" horiz-adv-x="542" 
d="M409 0v63q-22 -35 -61.5 -54t-79.5 -19q-78 0 -136.5 49.5t-58.5 152.5v324h53v-324q0 -68 40.5 -109.5t101.5 -41.5q60 0 100.5 41.5t40.5 109.5v324h53v-516q-26 -19 -40.5 -31t-28 -30.5t-13.5 -35.5q0 -43 40 -43q18 0 42 12v-48q-20 -13 -47 -13q-41 0 -64.5 23.5
t-23.5 62.5q0 63 82 103z" />
    <glyph glyph-name="Wcircumflex" unicode="&#x174;" horiz-adv-x="716" 
d="M502 0l-144 509l-144 -509h-53l-129 700h54l108 -591l139 491h50l139 -491l108 591h54l-129 -700h-53zM384 854l125 -109h-72l-79 63l-79 -63h-72l125 109h52z" />
    <glyph glyph-name="wcircumflex" unicode="&#x175;" horiz-adv-x="676" 
d="M305 516h66l119 -443l113 443h55l-136 -516h-63l-121 453l-121 -453h-63l-136 516h55l113 -443zM425 571l-87 83l-87 -83h-64l125 129h52l125 -129h-64z" />
    <glyph glyph-name="Ycircumflex" unicode="&#x176;" horiz-adv-x="543" 
d="M535 700l-236 -409v-291h-55v291l-236 409h61l203 -352l202 352h61zM297 854l125 -109h-72l-79 63l-79 -63h-72l125 109h52z" />
    <glyph glyph-name="ycircumflex" unicode="&#x177;" horiz-adv-x="452" 
d="M441 516l-215 -597q-11 -30 -16 -42t-18 -30t-31 -24.5t-45 -6.5h-26v51h27q18 0 29.5 8t16.5 18t12 30l25 70l-189 523h57l158 -447l158 447h57zM313 571l-87 83l-87 -83h-64l125 129h52l125 -129h-64z" />
    <glyph glyph-name="Ydieresis" unicode="&#x178;" horiz-adv-x="543" 
d="M535 700l-236 -409v-291h-55v291l-236 409h61l203 -352l202 352h61zM193 843v-87h-55v87h55zM404 843v-87h-55v87h55z" />
    <glyph glyph-name="Zacute" unicode="&#x179;" horiz-adv-x="537" 
d="M491 0h-447v54l380 592h-375v54h437v-54l-380 -592h385v-54zM305 854h86l-128 -109h-58z" />
    <glyph glyph-name="zacute" unicode="&#x17a;" horiz-adv-x="477" 
d="M427 465l-319 -414h326v-51h-390v51l320 414h-313v51h376v-51zM268 700h84l-118 -129h-51z" />
    <glyph glyph-name="Zdotaccent" unicode="&#x17b;" horiz-adv-x="537" 
d="M491 0h-447v54l380 592h-375v54h437v-54l-380 -592h385v-54zM295 843v-87h-55v87h55z" />
    <glyph glyph-name="zdotaccent" unicode="&#x17c;" horiz-adv-x="477" 
d="M427 465l-319 -414h326v-51h-390v51l320 414h-313v51h376v-51zM266 679v-87h-53v87h53z" />
    <glyph glyph-name="Zcaron" unicode="&#x17d;" horiz-adv-x="537" 
d="M491 0h-447v54l380 592h-375v54h437v-54l-380 -592h385v-54zM418 854l-125 -109h-52l-125 109h72l79 -63l79 63h72z" />
    <glyph glyph-name="zcaron" unicode="&#x17e;" horiz-adv-x="477" 
d="M427 465l-319 -414h326v-51h-390v51l320 414h-313v51h376v-51zM239 617l87 83h64l-125 -129h-52l-125 129h64z" />
    <glyph glyph-name="Scommaaccent" unicode="&#x218;" horiz-adv-x="515" 
d="M250 656q-68 0 -105.5 -37.5t-37.5 -94.5q0 -50 26 -84t73 -47l125 -34q60 -16 98.5 -63t38.5 -118q0 -82 -51.5 -135t-152.5 -53q-94 0 -155 56.5t-68 153.5h55q6 -75 53.5 -115.5t114.5 -40.5q71 0 110 34.5t39 99.5q0 44 -25.5 79t-78.5 49l-121 33
q-65 18 -100.5 67.5t-35.5 117.5q0 80 52.5 133t145.5 53q84 0 138 -47.5t69 -132.5h-55q-28 126 -152 126zM217 -124v74h74v-74l-21 -74h-49l21 74h-25z" />
    <glyph glyph-name="scommaaccent" unicode="&#x219;" horiz-adv-x="484" 
d="M423 368h-54q-5 52 -42.5 81.5t-92.5 29.5q-52 0 -89 -22.5t-37 -67.5q0 -35 21 -56t68 -31l99 -22q73 -16 106.5 -52t33.5 -101t-50 -101t-134 -36q-85 0 -143.5 42.5t-64.5 128.5h54q7 -61 51.5 -90.5t103.5 -29.5q55 0 92.5 22.5t37.5 64.5q0 79 -88 97l-116 26
q-124 28 -124 138q0 66 53 103.5t127 37.5q76 0 129 -42t59 -120zM203 -124v74h74v-74l-21 -74h-49l21 74h-25z" />
    <glyph glyph-name="Tcommaaccent" unicode="&#x21a;" horiz-adv-x="481" 
d="M268 646v-646h-55v646h-194v54h443v-54h-194zM203 -124v74h74v-74l-21 -74h-49l21 74h-25z" />
    <glyph glyph-name="tcommaaccent" unicode="&#x21b;" horiz-adv-x="329" 
d="M157 465v-362q0 -29 11 -40.5t43 -11.5h73v-51h-73q-61 0 -84 25t-23 78v362h-73v51h73v117h53v-117h127v-51h-127zM157 -124v74h74v-74l-21 -74h-49l21 74h-25z" />
    <glyph glyph-name="uni0232" unicode="&#x232;" horiz-adv-x="543" 
d="M535 700l-236 -409v-291h-55v291l-236 409h61l203 -352l202 352h61zM416 774h-289v47h289v-47z" />
    <glyph glyph-name="uni0233" unicode="&#x233;" horiz-adv-x="452" 
d="M441 516l-215 -597q-11 -30 -16 -42t-18 -30t-31 -24.5t-45 -6.5h-26v51h27q18 0 29.5 8t16.5 18t12 30l25 70l-189 523h57l158 -447l158 447h57zM371 613h-289v45h289v-45z" />
    <glyph glyph-name="dotlessj" unicode="&#x237;" horiz-adv-x="213" 
d="M80 -81v597h53v-597q0 -53 -23 -78t-84 -25h-10v51h10q32 0 43 11.5t11 40.5z" />
    <glyph glyph-name="circumflex" unicode="&#x2c6;" horiz-adv-x="428" 
d="M301 571l-87 83l-87 -83h-64l125 129h52l125 -129h-64z" />
    <glyph glyph-name="caron" unicode="&#x2c7;" horiz-adv-x="428" 
d="M214 617l87 83h64l-125 -129h-52l-125 129h64z" />
    <glyph glyph-name="breve" unicode="&#x2d8;" horiz-adv-x="390" 
d="M183 620h24q33 0 56.5 23.5t23.5 56.5h49q0 -53 -38 -91t-91 -38h-24q-53 0 -91 38t-38 91h49q0 -33 23.5 -56.5t56.5 -23.5z" />
    <glyph glyph-name="dotaccent" unicode="&#x2d9;" horiz-adv-x="171" 
d="M112 679v-87h-53v87h53z" />
    <glyph glyph-name="ring" unicode="&#x2da;" horiz-adv-x="255" 
d="M53 635q0 31 21.5 53t52.5 22t53 -22t22 -53t-22 -52.5t-53 -21.5t-52.5 21.5t-21.5 52.5zM96 635q0 -13 9 -22t22 -9t22.5 9t9.5 22t-9.5 22.5t-22.5 9.5t-22 -9.5t-9 -22.5z" />
    <glyph glyph-name="ogonek" unicode="&#x2db;" horiz-adv-x="230" 
d="M132 0h53q-26 -19 -40.5 -31t-28 -30.5t-13.5 -35.5q0 -43 40 -43q18 0 42 12v-48q-20 -13 -47 -13q-41 0 -64.5 23.5t-23.5 62.5q0 63 82 103z" />
    <glyph glyph-name="tilde" unicode="&#x2dc;" horiz-adv-x="441" 
d="M326 679h49q-27 -88 -102 -88q-24 0 -45 12l-33 19q-17 10 -33 10q-29 0 -47 -39h-49q27 88 102 88q24 0 45 -12l33 -19q18 -10 33 -10q29 0 47 39z" />
    <glyph glyph-name="hungarumlaut" unicode="&#x2dd;" horiz-adv-x="447" 
d="M146 700h79l-108 -129h-46zM310 700h79l-108 -129h-46z" />
    <glyph glyph-name="uni032C" unicode="&#x32c;" horiz-adv-x="428" 
d="M214 -83l87 83h64l-125 -129h-52l-125 129h64z" />
    <glyph glyph-name="Delta" unicode="&#x394;" horiz-adv-x="564" 
d="M545 0h-526l238 700h50zM470 54l-188 555l-189 -555h377z" />
    <glyph glyph-name="Delta" unicode="&#x2206;" horiz-adv-x="564" 
d="M545 0h-526l238 700h50zM470 54l-188 555l-189 -555h377z" />
    <glyph glyph-name="Omega" unicode="&#x3a9;" horiz-adv-x="562" 
d="M80 0v54h96v60q-54 28 -85 82.5t-31 130.5v146q0 108 62 172.5t159 64.5t159 -64.5t62 -172.5v-146q0 -75 -31 -130t-85 -83v-60h96v-54h-151v150q53 14 84.5 59.5t31.5 117.5v146q0 89 -47 136t-119 47t-119 -47t-47 -136v-146q0 -72 31.5 -117.5t84.5 -59.5v-150h-151z
" />
    <glyph glyph-name="Omega" unicode="&#x2126;" horiz-adv-x="562" 
d="M80 0v54h96v60q-54 28 -85 82.5t-31 130.5v146q0 108 62 172.5t159 64.5t159 -64.5t62 -172.5v-146q0 -75 -31 -130t-85 -83v-60h96v-54h-151v150q53 14 84.5 59.5t31.5 117.5v146q0 89 -47 136t-119 47t-119 -47t-47 -136v-146q0 -72 31.5 -117.5t84.5 -59.5v-150h-151z
" />
    <glyph glyph-name="pi" unicode="&#x3c0;" horiz-adv-x="608" 
d="M106 465h-73v51h542v-51h-73v-465h-53v465h-290v-465h-53v465z" />
    <glyph glyph-name="Wgrave" unicode="&#x1e80;" horiz-adv-x="716" 
d="M502 0l-144 509l-144 -509h-53l-129 700h54l108 -591l139 491h50l139 -491l108 591h54l-129 -700h-53zM234 854h86l100 -109h-58z" />
    <glyph glyph-name="wgrave" unicode="&#x1e81;" horiz-adv-x="676" 
d="M305 516h66l119 -443l113 443h55l-136 -516h-63l-121 453l-121 -453h-63l-136 516h55l113 -443zM225 700h84l85 -129h-51z" />
    <glyph glyph-name="Wacute" unicode="&#x1e82;" horiz-adv-x="716" 
d="M502 0l-144 509l-144 -509h-53l-129 700h54l108 -591l139 491h50l139 -491l108 591h54l-129 -700h-53zM396 854h86l-128 -109h-58z" />
    <glyph glyph-name="wacute" unicode="&#x1e83;" horiz-adv-x="676" 
d="M305 516h66l119 -443l113 443h55l-136 -516h-63l-121 453l-121 -453h-63l-136 516h55l113 -443zM367 700h84l-118 -129h-51z" />
    <glyph glyph-name="Wdieresis" unicode="&#x1e84;" horiz-adv-x="716" 
d="M502 0l-144 509l-144 -509h-53l-129 700h54l108 -591l139 491h50l139 -491l108 591h54l-129 -700h-53zM280 843v-87h-55v87h55zM491 843v-87h-55v87h55z" />
    <glyph glyph-name="wdieresis" unicode="&#x1e85;" horiz-adv-x="676" 
d="M305 516h66l119 -443l113 443h55l-136 -516h-63l-121 453l-121 -453h-63l-136 516h55l113 -443zM258 679v-87h-53v87h53zM471 679v-87h-53v87h53z" />
    <glyph glyph-name="uni1ECA" unicode="&#x1eca;" horiz-adv-x="225" 
d="M140 700v-700h-55v700h55zM140 -50v-87h-55v87h55z" />
    <glyph glyph-name="uni1ECB" unicode="&#x1ecb;" horiz-adv-x="213" 
d="M80 516h53v-516h-53v516zM133 700v-87h-53v87h53zM133 -50v-87h-53v87h53z" />
    <glyph glyph-name="uni1ECC" unicode="&#x1ecc;" horiz-adv-x="570" 
d="M506 473v-246q0 -108 -62 -172.5t-159 -64.5t-159 64.5t-62 172.5v246q0 108 62 172.5t159 64.5t159 -64.5t62 -172.5zM119 473v-246q0 -89 47 -136t119 -47t119 47t47 136v246q0 89 -47 136t-119 47t-119 -47t-47 -136zM313 -50v-87h-55v87h55z" />
    <glyph glyph-name="uni1ECD" unicode="&#x1ecd;" horiz-adv-x="528" 
d="M462 328v-136q0 -103 -59 -152.5t-139 -49.5t-139 49.5t-59 152.5v136q0 103 59 152.5t139 49.5t139 -49.5t59 -152.5zM409 192v136q0 69 -40.5 110t-104.5 41t-104.5 -41t-40.5 -110v-136q0 -69 40.5 -110t104.5 -41t104.5 41t40.5 110zM291 -50v-87h-53v87h53z" />
    <glyph glyph-name="uni1EE4" unicode="&#x1ee4;" horiz-adv-x="594" 
d="M76 227v473h55v-473q0 -89 47 -136t119 -47t119 47t47 136v473h55v-473q0 -108 -62 -172.5t-159 -64.5t-159 64.5t-62 172.5zM325 -50v-87h-55v87h55z" />
    <glyph glyph-name="uni1EE5" unicode="&#x1ee5;" horiz-adv-x="542" 
d="M409 192v324h53v-516h-53v63q-22 -35 -61.5 -54t-79.5 -19q-78 0 -136.5 49.5t-58.5 152.5v324h53v-324q0 -68 40.5 -109.5t101.5 -41.5q60 0 100.5 41.5t40.5 109.5zM294 -50v-87h-53v87h53z" />
    <glyph glyph-name="Ygrave" unicode="&#x1ef2;" horiz-adv-x="543" 
d="M535 700l-236 -409v-291h-55v291l-236 409h61l203 -352l202 352h61zM147 854h86l100 -109h-58z" />
    <glyph glyph-name="ygrave" unicode="&#x1ef3;" horiz-adv-x="452" 
d="M441 516l-215 -597q-11 -30 -16 -42t-18 -30t-31 -24.5t-45 -6.5h-26v51h27q18 0 29.5 8t16.5 18t12 30l25 70l-189 523h57l158 -447l158 447h57zM113 700h84l85 -129h-51z" />
    <glyph glyph-name="endash" unicode="&#x2013;" horiz-adv-x="516" 
d="M456 258h-396v45h396v-45z" />
    <glyph glyph-name="emdash" unicode="&#x2014;" horiz-adv-x="819" 
d="M759 258h-699v45h699v-45z" />
    <glyph glyph-name="quoteleft" unicode="&#x2018;" horiz-adv-x="230" 
d="M157 616v-84h-84v84l31 84h49l-31 -84h35z" />
    <glyph glyph-name="quoteright" unicode="&#x2019;" horiz-adv-x="230" 
d="M73 616v84h84v-84l-31 -84h-49l31 84h-35z" />
    <glyph glyph-name="quotesinglbase" unicode="&#x201a;" horiz-adv-x="230" 
d="M73 0v84h84v-84l-31 -84h-49l31 84h-35z" />
    <glyph glyph-name="quotedblleft" unicode="&#x201c;" horiz-adv-x="377" 
d="M304 616v-84h-84v84l31 84h49l-31 -84h35zM157 616v-84h-84v84l31 84h49l-31 -84h35z" />
    <glyph glyph-name="quotedblright" unicode="&#x201d;" horiz-adv-x="377" 
d="M220 616v84h84v-84l-31 -84h-49l31 84h-35zM73 616v84h84v-84l-31 -84h-49l31 84h-35z" />
    <glyph glyph-name="quotedblbase" unicode="&#x201e;" horiz-adv-x="377" 
d="M220 0v84h84v-84l-31 -84h-49l31 84h-35zM73 0v84h84v-84l-31 -84h-49l31 84h-35z" />
    <glyph glyph-name="dagger" unicode="&#x2020;" horiz-adv-x="585" 
d="M490 471h-176v-558h-43v558h-176v45h176v184h43v-184h176v-45z" />
    <glyph glyph-name="daggerdbl" unicode="&#x2021;" horiz-adv-x="585" 
d="M490 97h-176v-184h-43v184h-176v45h176v329h-176v45h176v184h43v-184h176v-45h-176v-329h176v-45z" />
    <glyph glyph-name="bullet" unicode="&#x2022;" horiz-adv-x="800" 
d="M232 298q0 70 49 119t119 49t119 -49t49 -119t-49 -119t-119 -49t-119 49t-49 119z" />
    <glyph glyph-name="ellipsis" unicode="&#x2026;" horiz-adv-x="750" 
d="M83 0v84h84v-84h-84zM333 0v84h84v-84h-84zM583 0v84h84v-84h-84z" />
    <glyph glyph-name="perthousand" unicode="&#x2030;" horiz-adv-x="1100" 
d="M911 36q32 0 53 19.5t21 55.5v184q0 36 -21 55.5t-53 19.5q-31 0 -52.5 -19.5t-21.5 -55.5v-184q0 -36 21.5 -55.5t52.5 -19.5zM911 -6q-48 0 -82.5 28t-34.5 89v184q0 61 34.5 89t82.5 28t82.5 -28t34.5 -89v-184q0 -61 -34.5 -89t-82.5 -28zM620 700h48l-481 -700h-48z
M189 330q32 0 53 19.5t21 55.5v184q0 36 -21 55.5t-53 19.5q-31 0 -52.5 -19.5t-21.5 -55.5v-184q0 -36 21.5 -55.5t52.5 -19.5zM189 288q-48 0 -82.5 28t-34.5 89v184q0 61 34.5 89t82.5 28t82.5 -28t34.5 -89v-184q0 -61 -34.5 -89t-82.5 -28zM617 36q32 0 53 19.5
t21 55.5v184q0 36 -21 55.5t-53 19.5q-31 0 -52.5 -19.5t-21.5 -55.5v-184q0 -36 21.5 -55.5t52.5 -19.5zM617 -6q-48 0 -82.5 28t-34.5 89v184q0 61 34.5 89t82.5 28t82.5 -28t34.5 -89v-184q0 -61 -34.5 -89t-82.5 -28z" />
    <glyph glyph-name="guilsinglleft" unicode="&#x2039;" horiz-adv-x="294" 
d="M224 103l-162 143v54l162 143v-59l-126 -111l126 -111v-59z" />
    <glyph glyph-name="guilsinglright" unicode="&#x203a;" horiz-adv-x="294" 
d="M232 246l-162 -143v59l126 111l-126 111v59l162 -143v-54z" />
    <glyph glyph-name="fraction" unicode="&#x2044;" horiz-adv-x="89" 
d="M261 700h48l-481 -700h-48z" />
    <glyph glyph-name="zero.superior" unicode="&#x2070;" horiz-adv-x="315" 
d="M157 437q32 0 53 19.5t21 55.5v184q0 36 -21 55.5t-53 19.5q-31 0 -52.5 -19.5t-21.5 -55.5v-184q0 -36 21.5 -55.5t52.5 -19.5zM157 395q-48 0 -82.5 28t-34.5 89v184q0 61 34.5 89t82.5 28t82.5 -28t34.5 -89v-184q0 -61 -34.5 -89t-82.5 -28z" />
    <glyph glyph-name="four.superior" unicode="&#x2074;" horiz-adv-x="303" 
d="M198 401v110h-186v41l186 255h43v-255h43v-41h-43v-110h-43zM63 552h135v185z" />
    <glyph glyph-name="five.superior" unicode="&#x2075;" horiz-adv-x="303" 
d="M157 395q-48 0 -82.5 28t-34.5 89v5h43v-5q0 -36 21.5 -55.5t52.5 -19.5q32 0 53 19.5t21 55.5v30q0 36 -21 55.5t-53 19.5q-52 0 -68 -44h-44v234h214v-41h-171v-131q28 23 69 23q48 0 82.5 -28t34.5 -89v-29q0 -61 -34.5 -89t-82.5 -28z" />
    <glyph glyph-name="six.superior" unicode="&#x2076;" horiz-adv-x="311" 
d="M157 395q-48 0 -82.5 28t-34.5 89v184q0 61 34.5 89t82.5 28t82.5 -28t34.5 -89v-5h-43v5q0 36 -21 55.5t-53 19.5q-31 0 -52.5 -19.5t-21.5 -55.5v-71q24 29 74 29q48 0 82.5 -28t34.5 -89v-25q0 -61 -34.5 -89t-82.5 -28zM157 437q32 0 53 19.5t21 55.5v26
q0 36 -21 55.5t-53 19.5q-31 0 -52.5 -19.5t-21.5 -55.5v-26q0 -36 21.5 -55.5t52.5 -19.5z" />
    <glyph glyph-name="seven.superior" unicode="&#x2077;" horiz-adv-x="261" 
d="M72 401l128 365h-186v41h230v-41l-128 -365h-44z" />
    <glyph glyph-name="eight.superior" unicode="&#x2078;" horiz-adv-x="310" 
d="M155 395q-48 0 -82.5 30t-34.5 86q0 64 48 94q-44 34 -44 94q0 56 33 85t80 29t80 -29t33 -85q0 -60 -44 -94q48 -30 48 -94q0 -56 -34.5 -86t-82.5 -30zM155 437q31 0 52.5 20.5t21.5 53.5t-22 53.5t-52 20.5t-52 -20.5t-22 -53.5t21.5 -53.5t52.5 -20.5zM155 626
q31 0 50.5 19t19.5 54q0 32 -19 52t-51 20t-51 -20t-19 -52q0 -35 19.5 -54t50.5 -19z" />
    <glyph glyph-name="nine.superior" unicode="&#x2079;" horiz-adv-x="311" 
d="M154 395q-48 0 -82.5 28t-34.5 89v5h43v-5q0 -36 21.5 -55.5t52.5 -19.5t52.5 19.5t21.5 55.5v71q-24 -29 -74 -29q-48 0 -82.5 28t-34.5 89v25q0 61 34.5 89t82.5 28t82.5 -28t34.5 -89v-184q0 -61 -34.5 -89t-82.5 -28zM154 595q31 0 52.5 19.5t21.5 55.5v26
q0 36 -21.5 55.5t-52.5 19.5t-52.5 -19.5t-21.5 -55.5v-26q0 -36 21.5 -55.5t52.5 -19.5z" />
    <glyph glyph-name="plus.superior" unicode="&#x207a;" horiz-adv-x="330" 
d="M48 545v37h100v98h37v-98h97v-37h-97v-99h-37v99h-100z" />
    <glyph glyph-name="minus.superior" unicode="&#x207b;" horiz-adv-x="330" 
d="M48 545v37h234v-37h-234z" />
    <glyph glyph-name="equal.superior" unicode="&#x207c;" horiz-adv-x="330" 
d="M48 483v37h234v-37h-234zM48 601v37h234v-37h-234z" />
    <glyph glyph-name="parenleft.superior" unicode="&#x207d;" horiz-adv-x="165" 
d="M139 335h-9q-41 0 -56 16t-15 55v330q0 39 15 55t56 16h9v-37h-13q-17 0 -23.5 -6.5t-6.5 -22.5v-339q0 -16 6.5 -23t23.5 -7h13v-37z" />
    <glyph glyph-name="parenright.superior" unicode="&#x207e;" horiz-adv-x="165" 
d="M26 335v37h12q18 0 24.5 7t6.5 23v339q0 15 -6.5 22t-24.5 7h-12v37h9q40 0 55.5 -16t15.5 -55v-330q0 -39 -15.5 -55t-55.5 -16h-9z" />
    <glyph glyph-name="n.superior" unicode="&#x207f;" horiz-adv-x="323" 
d="M47 401v299h43v-28q22 36 74 36q48 0 82.5 -28t34.5 -89v-190h-43v191q0 36 -21.5 55.5t-52.5 19.5q-32 0 -53 -19.5t-21 -55.5v-191h-43z" />
    <glyph glyph-name="zero.inferior" unicode="&#x2080;" horiz-adv-x="315" 
d="M157 -61q32 0 53 19.5t21 55.5v184q0 36 -21 55.5t-53 19.5q-31 0 -52.5 -19.5t-21.5 -55.5v-184q0 -36 21.5 -55.5t52.5 -19.5zM157 -103q-48 0 -82.5 28t-34.5 89v184q0 61 34.5 89t82.5 28t82.5 -28t34.5 -89v-184q0 -61 -34.5 -89t-82.5 -28z" />
    <glyph glyph-name="one.inferior" unicode="&#x2081;" horiz-adv-x="204" 
d="M108 -97v349l-78 -67v57l78 67h43v-406h-43z" />
    <glyph glyph-name="two.inferior" unicode="&#x2082;" horiz-adv-x="299" 
d="M31 -97v41l155 178q36 41 36 78q0 34 -21.5 53.5t-52.5 19.5t-52.5 -19.5t-21.5 -55.5v-11h-43v11q0 61 34.5 89t82.5 28t82.5 -28.5t34.5 -87.5q0 -30 -11.5 -53t-36.5 -53l-130 -149h178v-41h-234z" />
    <glyph glyph-name="three.inferior" unicode="&#x2083;" horiz-adv-x="302" 
d="M150 -103q-49 0 -84.5 28t-35.5 89v5h43v-5q0 -36 22 -55.5t55 -19.5q32 0 51.5 19t19.5 53q0 31 -19.5 53.5t-51.5 22.5h-29v41h29q32 0 51.5 19.5t19.5 53.5q0 33 -21 52.5t-53 19.5q-31 0 -52.5 -19.5t-21.5 -55.5v-5h-43v5q0 61 34.5 89t82.5 28q49 0 83.5 -28.5
t34.5 -85.5q0 -32 -14.5 -57.5t-35.5 -36.5q22 -12 36 -37.5t14 -58.5q0 -57 -34 -85.5t-81 -28.5z" />
    <glyph glyph-name="four.inferior" unicode="&#x2084;" horiz-adv-x="303" 
d="M198 -97v110h-186v41l186 255h43v-255h43v-41h-43v-110h-43zM63 54h135v185z" />
    <glyph glyph-name="five.inferior" unicode="&#x2085;" horiz-adv-x="303" 
d="M157 -103q-48 0 -82.5 28t-34.5 89v5h43v-5q0 -36 21.5 -55.5t52.5 -19.5q32 0 53 19.5t21 55.5v30q0 36 -21 55.5t-53 19.5q-52 0 -68 -44h-44v234h214v-41h-171v-131q28 23 69 23q48 0 82.5 -28t34.5 -89v-29q0 -61 -34.5 -89t-82.5 -28z" />
    <glyph glyph-name="six.inferior" unicode="&#x2086;" horiz-adv-x="311" 
d="M157 -103q-48 0 -82.5 28t-34.5 89v184q0 61 34.5 89t82.5 28t82.5 -28t34.5 -89v-5h-43v5q0 36 -21 55.5t-53 19.5q-31 0 -52.5 -19.5t-21.5 -55.5v-71q24 29 74 29q48 0 82.5 -28t34.5 -89v-25q0 -61 -34.5 -89t-82.5 -28zM157 -61q32 0 53 19.5t21 55.5v26
q0 36 -21 55.5t-53 19.5q-31 0 -52.5 -19.5t-21.5 -55.5v-26q0 -36 21.5 -55.5t52.5 -19.5z" />
    <glyph glyph-name="seven.inferior" unicode="&#x2087;" horiz-adv-x="261" 
d="M72 -97l128 365h-186v41h230v-41l-128 -365h-44z" />
    <glyph glyph-name="eight.inferior" unicode="&#x2088;" horiz-adv-x="310" 
d="M155 -103q-48 0 -82.5 30t-34.5 86q0 64 48 94q-44 34 -44 94q0 56 33 85t80 29t80 -29t33 -85q0 -60 -44 -94q48 -30 48 -94q0 -56 -34.5 -86t-82.5 -30zM155 -61q31 0 52.5 20.5t21.5 53.5t-22 53.5t-52 20.5t-52 -20.5t-22 -53.5t21.5 -53.5t52.5 -20.5zM155 128
q31 0 50.5 19t19.5 54q0 32 -19 52t-51 20t-51 -20t-19 -52q0 -35 19.5 -54t50.5 -19z" />
    <glyph glyph-name="nine.inferior" unicode="&#x2089;" horiz-adv-x="311" 
d="M154 -103q-48 0 -82.5 28t-34.5 89v5h43v-5q0 -36 21.5 -55.5t52.5 -19.5t52.5 19.5t21.5 55.5v71q-24 -29 -74 -29q-48 0 -82.5 28t-34.5 89v25q0 61 34.5 89t82.5 28t82.5 -28t34.5 -89v-184q0 -61 -34.5 -89t-82.5 -28zM154 97q31 0 52.5 19.5t21.5 55.5v26
q0 36 -21.5 55.5t-52.5 19.5t-52.5 -19.5t-21.5 -55.5v-26q0 -36 21.5 -55.5t52.5 -19.5z" />
    <glyph glyph-name="parenleft.inferior" unicode="&#x208d;" horiz-adv-x="165" 
d="M139 -163h-9q-41 0 -56 16t-15 55v330q0 39 15 55t56 16h9v-37h-13q-17 0 -23.5 -6.5t-6.5 -22.5v-339q0 -16 6.5 -23t23.5 -7h13v-37z" />
    <glyph glyph-name="parenright.inferior" unicode="&#x208e;" horiz-adv-x="165" 
d="M26 -163v37h12q18 0 24.5 7t6.5 23v339q0 15 -6.5 22t-24.5 7h-12v37h9q40 0 55.5 -16t15.5 -55v-330q0 -39 -15.5 -55t-55.5 -16h-9z" />
    <glyph glyph-name="Euro" unicode="&#x20ac;" horiz-adv-x="577" 
d="M348 -10q-97 0 -159 64.5t-62 172.5v48h-78l14 43h64v65h-77l13 43h64v47q0 108 62 172.5t159 64.5q106 0 168 -74l-40 -33q-46 56 -128 56q-73 0 -120.5 -48t-47.5 -138v-47h302l-13 -43h-289v-65h270l-14 -43h-256v-48q0 -90 47.5 -138t120.5 -48q82 0 128 56l40 -33
q-62 -74 -168 -74z" />
    <glyph glyph-name="afii61289" unicode="&#x2113;" horiz-adv-x="317" 
d="M81 118v97l-48 -39l-22 28l70 56v307q0 143 96 143q49 0 74 -41t25 -109q0 -74 -39.5 -160t-102.5 -142v-146q0 -79 62 -79q36 0 71 15l9 -31q-48 -27 -102 -27q-93 0 -93 128zM134 578v-271q46 49 77 119t31 131q0 109 -56 109q-52 0 -52 -88z" />
    <glyph glyph-name="afii61352" unicode="&#x2116;" horiz-adv-x="860" 
d="M527 700v-700h-55l-332 591v-591h-55v700h55l332 -591v591h55zM822 320h-235v45h235v-45zM705 437q31 0 52.5 19.5t21.5 55.5v80q0 36 -21.5 55.5t-52.5 19.5q-32 0 -53 -19.5t-21 -55.5v-80q0 -36 21 -55.5t53 -19.5zM705 395q-49 0 -83.5 28t-34.5 89v79q0 61 34.5 89
t83.5 28q48 0 82.5 -28t34.5 -89v-79q0 -61 -34.5 -89t-82.5 -28z" />
    <glyph glyph-name="uni2117" unicode="&#x2117;" horiz-adv-x="820" 
d="M50 350q0 149 105.5 254.5t254.5 105.5t254.5 -105.5t105.5 -254.5t-105.5 -254.5t-254.5 -105.5t-254.5 105.5t-105.5 254.5zM93 350q0 -132 92.5 -225t224.5 -93t224.5 93t92.5 225t-92.5 225t-224.5 93t-224.5 -93t-92.5 -225zM294 131v437h141q66 0 101 -35t35 -96
t-35 -96t-101 -35h-98v-175h-43zM337 348h98q45 0 68.5 24t23.5 65q0 40 -23.5 64t-68.5 24h-98v-177z" />
    <glyph glyph-name="trademark" unicode="&#x2122;" horiz-adv-x="706" 
d="M120 294v364h-109v42h261v-42h-109v-364h-43zM334 294v406h43l118 -248l118 248h43v-406h-43v315l-98 -206h-41l-98 206v-315h-42z" />
    <glyph glyph-name="estimated" unicode="&#x212e;" horiz-adv-x="824" 
d="M182 290v-173q0 -15 12 -25q35 -29 78 -46q58 -22 140 -22t140 22q57 23 98 64h50q-54 -65 -131 -95q-63 -25 -157 -25t-157 25q-91 37 -148 117t-57 185t57 185t148 117q63 25 157 25t157 -25q91 -37 148 -117t57 -185v-17h-582q-10 0 -10 -10zM642 344v173q0 15 -12 25
q-35 29 -78 46q-58 22 -140 22t-140 -22q-43 -17 -78 -46q-12 -10 -12 -25v-173q0 -10 10 -10h440q10 0 10 10z" />
    <glyph glyph-name="onethird" unicode="&#x2153;" horiz-adv-x="715" 
d="M148 294v349l-78 -67v57l78 67h43v-406h-43zM545 700h48l-481 -700h-48zM543 -6q-49 0 -84.5 28t-35.5 89v5h43v-5q0 -36 22 -55.5t55 -19.5q32 0 51.5 19t19.5 53q0 31 -19.5 53.5t-51.5 22.5h-29v41h29q32 0 51.5 19.5t19.5 53.5q0 33 -21 52.5t-53 19.5
q-31 0 -52.5 -19.5t-21.5 -55.5v-5h-43v5q0 61 34.5 89t82.5 28q49 0 83.5 -28.5t34.5 -85.5q0 -32 -14.5 -57.5t-35.5 -36.5q22 -12 36 -37.5t14 -58.5q0 -57 -34 -85.5t-81 -28.5z" />
    <glyph glyph-name="twothirds" unicode="&#x2154;" horiz-adv-x="776" 
d="M51 294v41l155 178q36 41 36 78q0 34 -21.5 53.5t-52.5 19.5t-52.5 -19.5t-21.5 -55.5v-11h-43v11q0 61 34.5 89t82.5 28t82.5 -28.5t34.5 -87.5q0 -30 -11.5 -53t-36.5 -53l-130 -149h178v-41h-234zM606 700h48l-481 -700h-48zM604 -6q-49 0 -84.5 28t-35.5 89v5h43v-5
q0 -36 22 -55.5t55 -19.5q32 0 51.5 19t19.5 53q0 31 -19.5 53.5t-51.5 22.5h-29v41h29q32 0 51.5 19.5t19.5 53.5q0 33 -21 52.5t-53 19.5q-31 0 -52.5 -19.5t-21.5 -55.5v-5h-43v5q0 61 34.5 89t82.5 28q49 0 83.5 -28.5t34.5 -85.5q0 -32 -14.5 -57.5t-35.5 -36.5
q22 -12 36 -37.5t14 -58.5q0 -57 -34 -85.5t-81 -28.5z" />
    <glyph glyph-name="uni2155" unicode="&#x2155;" horiz-adv-x="713" 
d="M148 294v349l-78 -67v57l78 67h43v-406h-43zM545 700h48l-481 -700h-48zM550 -6q-48 0 -82.5 28t-34.5 89v5h43v-5q0 -36 21.5 -55.5t52.5 -19.5q32 0 53 19.5t21 55.5v30q0 36 -21 55.5t-53 19.5q-52 0 -68 -44h-44v234h214v-41h-171v-131q28 23 69 23q48 0 82.5 -28
t34.5 -89v-29q0 -61 -34.5 -89t-82.5 -28z" />
    <glyph glyph-name="uni2156" unicode="&#x2156;" horiz-adv-x="774" 
d="M51 294v41l155 178q36 41 36 78q0 34 -21.5 53.5t-52.5 19.5t-52.5 -19.5t-21.5 -55.5v-11h-43v11q0 61 34.5 89t82.5 28t82.5 -28.5t34.5 -87.5q0 -30 -11.5 -53t-36.5 -53l-130 -149h178v-41h-234zM606 700h48l-481 -700h-48zM611 -6q-48 0 -82.5 28t-34.5 89v5h43v-5
q0 -36 21.5 -55.5t52.5 -19.5q32 0 53 19.5t21 55.5v30q0 36 -21 55.5t-53 19.5q-52 0 -68 -44h-44v234h214v-41h-171v-131q28 23 69 23q48 0 82.5 -28t34.5 -89v-29q0 -61 -34.5 -89t-82.5 -28z" />
    <glyph glyph-name="uni2157" unicode="&#x2157;" horiz-adv-x="771" 
d="M170 288q-49 0 -84.5 28t-35.5 89v5h43v-5q0 -36 22 -55.5t55 -19.5q32 0 51.5 19t19.5 53q0 31 -19.5 53.5t-51.5 22.5h-29v41h29q32 0 51.5 19.5t19.5 53.5q0 33 -21 52.5t-53 19.5q-31 0 -52.5 -19.5t-21.5 -55.5v-5h-43v5q0 61 34.5 89t82.5 28q49 0 83.5 -28.5
t34.5 -85.5q0 -32 -14.5 -57.5t-35.5 -36.5q22 -12 36 -37.5t14 -58.5q0 -57 -34 -85.5t-81 -28.5zM603 700h48l-481 -700h-48zM608 -6q-48 0 -82.5 28t-34.5 89v5h43v-5q0 -36 21.5 -55.5t52.5 -19.5q32 0 53 19.5t21 55.5v30q0 36 -21 55.5t-53 19.5q-52 0 -68 -44h-44
v234h214v-41h-171v-131q28 23 69 23q48 0 82.5 -28t34.5 -89v-29q0 -61 -34.5 -89t-82.5 -28z" />
    <glyph glyph-name="uni2158" unicode="&#x2158;" horiz-adv-x="722" 
d="M168 294v110h-186v41l186 255h43v-255h43v-41h-43v-110h-43zM33 445h135v185zM554 700h48l-481 -700h-48zM559 -6q-48 0 -82.5 28t-34.5 89v5h43v-5q0 -36 21.5 -55.5t52.5 -19.5q32 0 53 19.5t21 55.5v30q0 36 -21 55.5t-53 19.5q-52 0 -68 -44h-44v234h214v-41h-171
v-131q28 23 69 23q48 0 82.5 -28t34.5 -89v-29q0 -61 -34.5 -89t-82.5 -28z" />
    <glyph glyph-name="uni2159" unicode="&#x2159;" horiz-adv-x="714" 
d="M148 294v349l-78 -67v57l78 67h43v-406h-43zM545 700h48l-481 -700h-48zM545 -6q-48 0 -82.5 28t-34.5 89v184q0 61 34.5 89t82.5 28t82.5 -28t34.5 -89v-5h-43v5q0 36 -21 55.5t-53 19.5q-31 0 -52.5 -19.5t-21.5 -55.5v-71q24 29 74 29q48 0 82.5 -28t34.5 -89v-25
q0 -61 -34.5 -89t-82.5 -28zM545 36q32 0 53 19.5t21 55.5v26q0 36 -21 55.5t-53 19.5q-31 0 -52.5 -19.5t-21.5 -55.5v-26q0 -36 21.5 -55.5t52.5 -19.5z" />
    <glyph glyph-name="uni215A" unicode="&#x215a;" horiz-adv-x="770" 
d="M177 288q-48 0 -82.5 28t-34.5 89v5h43v-5q0 -36 21.5 -55.5t52.5 -19.5q32 0 53 19.5t21 55.5v30q0 36 -21 55.5t-53 19.5q-52 0 -68 -44h-44v234h214v-41h-171v-131q28 23 69 23q48 0 82.5 -28t34.5 -89v-29q0 -61 -34.5 -89t-82.5 -28zM601 700h48l-481 -700h-48z
M601 -6q-48 0 -82.5 28t-34.5 89v184q0 61 34.5 89t82.5 28t82.5 -28t34.5 -89v-5h-43v5q0 36 -21 55.5t-53 19.5q-31 0 -52.5 -19.5t-21.5 -55.5v-71q24 29 74 29q48 0 82.5 -28t34.5 -89v-25q0 -61 -34.5 -89t-82.5 -28zM601 36q32 0 53 19.5t21 55.5v26q0 36 -21 55.5
t-53 19.5q-31 0 -52.5 -19.5t-21.5 -55.5v-26q0 -36 21.5 -55.5t52.5 -19.5z" />
    <glyph glyph-name="oneeighth" unicode="&#x215b;" horiz-adv-x="693" 
d="M148 294v349l-78 -67v57l78 67h43v-406h-43zM545 700h48l-481 -700h-48zM533 -6q-48 0 -82.5 30t-34.5 86q0 64 48 94q-44 34 -44 94q0 56 33 85t80 29t80 -29t33 -85q0 -60 -44 -94q48 -30 48 -94q0 -56 -34.5 -86t-82.5 -30zM533 36q31 0 52.5 20.5t21.5 53.5t-22 53.5
t-52 20.5t-52 -20.5t-22 -53.5t21.5 -53.5t52.5 -20.5zM533 225q31 0 50.5 19t19.5 54q0 32 -19 52t-51 20t-51 -20t-19 -52q0 -35 19.5 -54t50.5 -19z" />
    <glyph glyph-name="threeeighths" unicode="&#x215c;" horiz-adv-x="751" 
d="M170 288q-49 0 -84.5 28t-35.5 89v5h43v-5q0 -36 22 -55.5t55 -19.5q32 0 51.5 19t19.5 53q0 31 -19.5 53.5t-51.5 22.5h-29v41h29q32 0 51.5 19.5t19.5 53.5q0 33 -21 52.5t-53 19.5q-31 0 -52.5 -19.5t-21.5 -55.5v-5h-43v5q0 61 34.5 89t82.5 28q49 0 83.5 -28.5
t34.5 -85.5q0 -32 -14.5 -57.5t-35.5 -36.5q22 -12 36 -37.5t14 -58.5q0 -57 -34 -85.5t-81 -28.5zM603 700h48l-481 -700h-48zM591 -6q-48 0 -82.5 30t-34.5 86q0 64 48 94q-44 34 -44 94q0 56 33 85t80 29t80 -29t33 -85q0 -60 -44 -94q48 -30 48 -94q0 -56 -34.5 -86
t-82.5 -30zM591 36q31 0 52.5 20.5t21.5 53.5t-22 53.5t-52 20.5t-52 -20.5t-22 -53.5t21.5 -53.5t52.5 -20.5zM591 225q31 0 50.5 19t19.5 54q0 32 -19 52t-51 20t-51 -20t-19 -52q0 -35 19.5 -54t50.5 -19z" />
    <glyph glyph-name="fiveeighths" unicode="&#x215d;" horiz-adv-x="749" 
d="M177 288q-48 0 -82.5 28t-34.5 89v5h43v-5q0 -36 21.5 -55.5t52.5 -19.5q32 0 53 19.5t21 55.5v30q0 36 -21 55.5t-53 19.5q-52 0 -68 -44h-44v234h214v-41h-171v-131q28 23 69 23q48 0 82.5 -28t34.5 -89v-29q0 -61 -34.5 -89t-82.5 -28zM601 700h48l-481 -700h-48z
M589 -6q-48 0 -82.5 30t-34.5 86q0 64 48 94q-44 34 -44 94q0 56 33 85t80 29t80 -29t33 -85q0 -60 -44 -94q48 -30 48 -94q0 -56 -34.5 -86t-82.5 -30zM589 36q31 0 52.5 20.5t21.5 53.5t-22 53.5t-52 20.5t-52 -20.5t-22 -53.5t21.5 -53.5t52.5 -20.5zM589 225
q31 0 50.5 19t19.5 54q0 32 -19 52t-51 20t-51 -20t-19 -52q0 -35 19.5 -54t50.5 -19z" />
    <glyph glyph-name="seveneighths" unicode="&#x215e;" horiz-adv-x="665" 
d="M92 294l128 365h-186v41h230v-41l-128 -365h-44zM517 700h48l-481 -700h-48zM505 -6q-48 0 -82.5 30t-34.5 86q0 64 48 94q-44 34 -44 94q0 56 33 85t80 29t80 -29t33 -85q0 -60 -44 -94q48 -30 48 -94q0 -56 -34.5 -86t-82.5 -30zM505 36q31 0 52.5 20.5t21.5 53.5
t-22 53.5t-52 20.5t-52 -20.5t-22 -53.5t21.5 -53.5t52.5 -20.5zM505 225q31 0 50.5 19t19.5 54q0 32 -19 52t-51 20t-51 -20t-19 -52q0 -35 19.5 -54t50.5 -19z" />
    <glyph glyph-name="uni215F" unicode="&#x215f;" horiz-adv-x="373" 
d="M148 294v349l-78 -67v57l78 67h43v-406h-43zM545 700h48l-481 -700h-48z" />
    <glyph glyph-name="uni2190" unicode="&#x2190;" horiz-adv-x="800" 
d="M127 253l234 -233l-30 -30l-286 285l286 285l30 -30l-234 -233h628v-44h-628z" />
    <glyph glyph-name="uni2191" unicode="&#x2191;" horiz-adv-x="800" 
d="M655 394l-233 234v-628h-44v628l-233 -234l-30 30l285 286l285 -286z" />
    <glyph glyph-name="uni2192" unicode="&#x2192;" horiz-adv-x="800" 
d="M439 20l234 233h-628v44h628l-234 233l30 30l286 -285l-286 -285z" />
    <glyph glyph-name="uni2193" unicode="&#x2193;" horiz-adv-x="800" 
d="M422 72l233 234l30 -30l-285 -286l-285 286l30 30l233 -234v628h44v-628z" />
    <glyph glyph-name="uni2196" unicode="&#x2196;" horiz-adv-x="800" 
d="M536 529h-330l503 -503l-31 -31l-504 503v-330h-43v404h405v-43z" />
    <glyph glyph-name="uni2197" unicode="&#x2197;" horiz-adv-x="800" 
d="M594 529h-330v43h405v-404h-43v330l-504 -503l-31 31z" />
    <glyph glyph-name="uni2198" unicode="&#x2198;" horiz-adv-x="800" 
d="M264 43h330l-503 503l31 31l504 -503v330h43v-404h-405v43z" />
    <glyph glyph-name="uni2199" unicode="&#x2199;" horiz-adv-x="800" 
d="M206 43h330v-43h-405v404h43v-330l504 503l31 -31z" />
    <glyph glyph-name="uni21B0" unicode="&#x21b0;" horiz-adv-x="800" 
d="M127 253l234 -233l-30 -30l-286 285l286 285l30 -30l-234 -233h628v-481h-44v437h-584z" />
    <glyph glyph-name="uni21B1" unicode="&#x21b1;" horiz-adv-x="800" 
d="M89 253v-437h-44v481h628l-234 233l30 30l286 -285l-286 -285l-30 30l234 233h-584z" />
    <glyph glyph-name="uni21B2" unicode="&#x21b2;" horiz-adv-x="800" 
d="M127 253l234 -233l-30 -30l-286 285l286 285l30 -30l-234 -233h584v403h44v-447h-628z" />
    <glyph glyph-name="uni21B3" unicode="&#x21b3;" horiz-adv-x="800" 
d="M439 20l234 233h-628v447h44v-403h584l-234 233l30 30l286 -285l-286 -285z" />
    <glyph glyph-name="partialdiff" unicode="&#x2202;" horiz-adv-x="578" 
d="M472 552q0 113 -128 113q-67 0 -119 -43t-64 -114l-1 -8h-45l1 8q19 104 86.5 153t151.5 49q67 0 115 -36.5t48 -112.5q0 -29 -5 -53l-61 -316q-19 -104 -86.5 -153t-151.5 -49q-67 0 -115 36.5t-48 112.5q0 15 12 89q19 104 86 153t151 49q48 0 86 -21.5t53 -53.5
l29 153q5 28 5 44zM223 35q67 0 119 43t64 114q12 67 12 80q0 53 -31.5 83t-97.5 30q-67 0 -118.5 -43t-63.5 -114q-12 -67 -12 -80q0 -113 128 -113z" />
    <glyph glyph-name="product" unicode="&#x220f;" horiz-adv-x="612" 
d="M85 0v700h442v-700h-55v647h-333v-647h-54z" />
    <glyph glyph-name="summation" unicode="&#x2211;" horiz-adv-x="702" 
d="M90 -142l321 400l-321 400v42h512v-42h-454l321 -400l-321 -400h454v-42h-512v42z" />
    <glyph glyph-name="minus" unicode="&#x2212;" 
d="M477 258h-396v45h396v-45z" />
    <glyph glyph-name="radical" unicode="&#x221a;" horiz-adv-x="516" 
d="M227 47l193 653h46l-207 -700h-64l-77 258h-68v42h102z" />
    <glyph glyph-name="infinity" unicode="&#x221e;" 
d="M49 336q0 53 36.5 89.5t88.5 36.5q67 0 104 -55q38 55 104 55q52 0 89 -37t37 -89t-36.5 -88.5t-89.5 -36.5q-66 0 -104 54q-36 -54 -104 -54q-52 0 -88.5 36.5t-36.5 88.5zM300 336q0 -35 23.5 -59t58.5 -24t59 24t24 59t-24 59.5t-59 24.5q-34 0 -57.5 -23.5
t-24.5 -57.5v-3zM92 336q0 -35 23.5 -59t58.5 -24t59 24t24 59v3q-2 34 -25.5 57.5t-57.5 23.5q-35 0 -58.5 -24.5t-23.5 -59.5z" />
    <glyph glyph-name="integral" unicode="&#x222b;" horiz-adv-x="301" 
d="M172 597v-678q0 -53 -23 -78t-84 -25v42q38 0 51 14t13 47v678q0 53 23 78t84 25v-42q-38 0 -51 -14t-13 -47z" />
    <glyph glyph-name="approxequal" unicode="&#x2248;" 
d="M111 327l-30 33q23 25 56 41.5t62 16.5q32 0 85.5 -23t74.5 -23q41 0 88 46l30 -33q-23 -25 -56 -41.5t-62 -16.5q-32 0 -85.5 23t-74.5 23q-41 0 -88 -46zM111 132l-30 33q23 25 56 41.5t62 16.5q32 0 85.5 -23t74.5 -23q41 0 88 46l30 -33q-23 -25 -56 -41.5t-62 -16.5
q-32 0 -85.5 23t-74.5 23q-41 0 -88 -46z" />
    <glyph glyph-name="notequal" unicode="&#x2260;" 
d="M128 155h-47v45h92l150 150h-242v45h287l79 79l30 -31l-48 -48h48v-45h-93l-150 -150h243v-45h-288l-78 -78l-30 31z" />
    <glyph glyph-name="lessequal" unicode="&#x2264;" 
d="M477 119l-396 180v44l396 180v-48l-338 -154l338 -154v-48zM477 0h-396v45h396v-45z" />
    <glyph glyph-name="greaterequal" unicode="&#x2265;" 
d="M477 299l-396 -180v48l338 154l-338 154v48l396 -180v-44zM477 0h-396v45h396v-45z" />
    <glyph glyph-name="uni25A0" unicode="&#x25a0;" horiz-adv-x="800" 
d="M142 0v516h516v-516h-516z" />
    <glyph glyph-name="uni25A1" unicode="&#x25a1;" horiz-adv-x="800" 
d="M142 0v516h516v-516h-516zM186 472v-428h428v428h-428z" />
    <glyph glyph-name="lozenge" unicode="&#x25ca;" horiz-adv-x="548" 
d="M100 350l174 -300l174 300l-174 300zM253 0l-203 350l203 350h42l203 -350l-203 -350h-42z" />
    <glyph glyph-name="uni25CB" unicode="&#x25cb;" horiz-adv-x="800" 
d="M130 260q0 112 79 191t191 79t191 -79t79 -191t-79 -191t-191 -79t-191 79t-79 191zM173 260q0 -94 66.5 -160.5t160.5 -66.5t160.5 66.5t66.5 160.5t-66.5 160.5t-160.5 66.5t-160.5 -66.5t-66.5 -160.5z" />
    <glyph glyph-name="uni25CF" unicode="&#x25cf;" horiz-adv-x="800" 
d="M130 260q0 112 79 191t191 79t191 -79t79 -191t-79 -191t-191 -79t-191 79t-79 191z" />
    <glyph glyph-name="uniFB00" unicode="&#xfb00;" horiz-adv-x="610" 
d="M33 465v51h73v81q0 53 23 78t84 25h73v-51h-73q-32 0 -43 -11.5t-11 -40.5v-81h127v-51h-127v-465h-53v465h-73zM338 465v51h73v81q0 53 23 78t84 25h73v-51h-73q-32 0 -43 -11.5t-11 -40.5v-81h127v-51h-127v-465h-53v465h-73z" />
    <glyph glyph-name="fi" unicode="&#xfb01;" horiz-adv-x="518" 
d="M33 465v51h73v81q0 53 23 78t84 25h73v-51h-73q-32 0 -43 -11.5t-11 -40.5v-81h127v-51h-127v-465h-53v465h-73zM385 516h53v-516h-53v516zM438 700v-87h-53v87h53z" />
    <glyph glyph-name="fl" unicode="&#xfb02;" horiz-adv-x="547" 
d="M33 465v51h73v81q0 53 23 78t84 25h73v-51h-73q-32 0 -43 -11.5t-11 -40.5v-81h127v-51h-127v-465h-53v465h-73zM436 700v-597q0 -29 11 -40.5t43 -11.5h10v-51h-10q-61 0 -84 25t-23 78v597h53z" />
    <glyph glyph-name="uniFB03" unicode="&#xfb03;" horiz-adv-x="823" 
d="M33 465v51h73v81q0 53 23 78t84 25h73v-51h-73q-32 0 -43 -11.5t-11 -40.5v-81h127v-51h-127v-465h-53v465h-73zM338 465v51h73v81q0 53 23 78t84 25h73v-51h-73q-32 0 -43 -11.5t-11 -40.5v-81h127v-51h-127v-465h-53v465h-73zM690 516h53v-516h-53v516zM743 700v-87
h-53v87h53z" />
    <glyph glyph-name="uniFB04" unicode="&#xfb04;" horiz-adv-x="852" 
d="M33 465v51h73v81q0 53 23 78t84 25h73v-51h-73q-32 0 -43 -11.5t-11 -40.5v-81h127v-51h-127v-465h-53v465h-73zM338 465v51h73v81q0 53 23 78t84 25h73v-51h-73q-32 0 -43 -11.5t-11 -40.5v-81h127v-51h-127v-465h-53v465h-73zM741 700v-597q0 -29 11 -40.5t43 -11.5h10
v-51h-10q-61 0 -84 25t-23 78v597h53z" />
    <glyph glyph-name="CR" horiz-adv-x="0" 
 />
    <glyph glyph-name="apple" horiz-adv-x="639" 
d="M170 26q-27 6 -38 24.5t-11 53.5v256q-27 0 -37 24q-24 10 -24 37q0 17 11 28q-36 18 -36 59t36 59q-11 11 -11 28q0 15 9 26.5t23 13.5q6 21 23.5 34.5t39.5 13.5q24 0 44 -17q7 19 23.5 31.5t37.5 12.5q34 0 55 -31q14 7 29 7q40 0 59 -37q12 12 28 12q27 0 37 -24
q22 -5 36.5 -23.5t14.5 -40.5q0 -38 -34 -57v-38h4q46 0 63 -18t17 -62v-215q0 -44 -17 -62t-63 -18h-4q0 -35 -11 -53t-38 -24v-26h-266v26zM436 104v406q-16 4 -29 17h-83q-19 -19 -46 -19q-34 0 -53 27q-7 -3 -16 -3q-18 0 -29 11q-6 -10 -10 -15v-424q0 -19 7 -26.5
t25 -7.5h202q18 0 25 7.5t7 26.5zM100 462v-19q-9 0 -15 -6.5t-6 -15.5t6 -15t15 -6q0 -9 6 -15t15 -6v147q19 0 32 12t15 30v4h19q0 -21 22 -21q9 0 15 6t6 15h19q0 -13 -9 -26q13 -19 38 -19q20 0 33.5 13.5t13.5 32.5h82q0 -19 13.5 -32.5t32.5 -13.5q20 0 33.5 13.5
t13.5 32.5t-14 33t-33 14q0 9 -6.5 15.5t-15.5 6.5t-15 -6t-6 -16h-19q0 20 -13.5 33.5t-33.5 13.5q-32 0 -43 -30q28 -9 28 -38h-19q0 9 -6.5 15t-15.5 6t-15 -6t-6 -15h-19q0 15 9.5 26t23.5 13q6 19 19 30q-13 23 -40 23q-19 0 -32 -13t-14 -32q7 -16 7 -29h-19
q0 19 -14 33t-33 14q-33 0 -43 -30q29 -9 29 -39h-19q0 9 -6.5 15.5t-15.5 6.5t-15 -6.5t-6 -15.5q0 -19 17 -21h4v-19h-4q-18 -2 -30 -15t-12 -32t12 -32t30 -14h4zM520 183v215q0 19 -7 26.5t-24 7.5h-4v-283h4q17 0 24 7.5t7 26.5zM211 103v375h15v-375h-15zM379 103v375
h15v-375h-15zM323 103v375h15v-375h-15zM267 103v375h15v-375h-15z" />
    <glyph glyph-name="commaaccent" horiz-adv-x="254" 
d="M90 -124v74h74v-74l-21 -74h-49l21 74h-25z" />
    <glyph glyph-name="zero.slashed" horiz-adv-x="534" 
d="M465 508v-316q0 -103 -59 -152.5t-139 -49.5t-139 49.5t-59 152.5v316q0 103 59 152.5t139 49.5t139 -49.5t59 -152.5zM412 192v273l-290 -290q5 -62 45 -98t100 -36q64 0 104.5 41t40.5 110zM122 508v-272l289 289q-5 62 -44.5 98t-99.5 36q-64 0 -104.5 -41t-40.5 -110
z" />
    <glyph glyph-name="one.tlf" 
d="M275 51v581l-134 -115v68l134 115h53v-649h171v-51h-396v51h172z" />
    <glyph glyph-name="two.tlf" 
d="M132 508v-13h-53v13q0 103 59 152.5t139 49.5t139 -49t59 -147q0 -88 -86 -187l-243 -276h329v-51h-396v51l272 310q71 81 71 153q0 64 -40 104t-105 41q-64 0 -104.5 -41t-40.5 -110z" />
    <glyph glyph-name="three.tlf" 
d="M278 -10q-84 0 -143.5 49t-59.5 153v8h53v-8q0 -70 41 -110.5t109 -40.5q66 0 103 38t37 109q0 58 -36.5 99t-100.5 41h-49v51h51q63 0 99 38.5t36 98.5q0 61 -41 102t-104 41q-64 0 -104.5 -41t-40.5 -110v-8h-53v8q0 103 59 152.5t139 49.5t139 -49.5t59 -144.5
q0 -116 -97 -163q44 -22 70.5 -65t26.5 -100q0 -97 -53 -147.5t-140 -50.5z" />
    <glyph glyph-name="four.tlf" 
d="M369 700h53v-451h73v-49h-73v-200h-53v200h-329v49zM102 249h267v365z" />
    <glyph glyph-name="five.tlf" 
d="M157 649v-269q49 57 136 57q80 0 139 -49.5t59 -152.5v-43q0 -103 -59 -152.5t-139 -49.5t-139 49.5t-59 152.5v8h53v-8q0 -69 40.5 -110t104.5 -41t104.5 41t40.5 110v43q0 69 -40.5 110t-104.5 41q-89 0 -127 -71h-62v385h360v-51h-307z" />
    <glyph glyph-name="six.tlf" 
d="M137 508v-146q19 29 58.5 48.5t86.5 19.5q80 0 139 -49.5t59 -152.5v-36q0 -103 -59 -152.5t-139 -49.5t-139 49.5t-59 152.5v316q0 103 59 152.5t139 49.5t139 -49.5t59 -152.5v-8h-53v8q0 69 -40.5 110t-104.5 41t-104.5 -41t-40.5 -110zM137 228v-36q0 -69 40.5 -110
t104.5 -41t104.5 41t40.5 110v36q0 69 -40.5 110t-104.5 41t-104.5 -41t-40.5 -110z" />
    <glyph glyph-name="seven.tlf" 
d="M76 700h390v-51l-237 -649h-53l237 649h-337v51z" />
    <glyph glyph-name="eight.tlf" 
d="M470 519q0 -115 -90 -166q44 -21 70.5 -66.5t26.5 -102.5q0 -66 -32 -112t-75 -64t-91 -18t-91 18t-75 64t-32 112q0 57 26.5 102.5t70.5 66.5q-90 51 -90 166q0 94 56.5 142.5t134.5 48.5t134.5 -48.5t56.5 -142.5zM424 184q0 62 -42.5 103t-102.5 41t-102.5 -41
t-42.5 -103t42.5 -102.5t102.5 -40.5t102.5 40.5t42.5 102.5zM141 519q0 -62 36 -101t102 -39t102 39t36 101q0 61 -36.5 100.5t-101.5 39.5t-101.5 -39.5t-36.5 -100.5z" />
    <glyph glyph-name="nine.tlf" 
d="M421 192v146q-19 -29 -58.5 -48.5t-86.5 -19.5q-80 0 -139 49.5t-59 152.5v36q0 103 59 152.5t139 49.5t139 -49.5t59 -152.5v-316q0 -103 -59 -152.5t-139 -49.5t-139 49.5t-59 152.5v8h53v-8q0 -69 40.5 -110t104.5 -41t104.5 41t40.5 110zM421 472v36q0 69 -40.5 110
t-104.5 41t-104.5 -41t-40.5 -110v-36q0 -69 40.5 -110t104.5 -41t104.5 41t40.5 110z" />
    <glyph glyph-name="zero.tlf" 
d="M477 508v-316q0 -103 -59 -152.5t-139 -49.5t-139 49.5t-59 152.5v316q0 103 59 152.5t139 49.5t139 -49.5t59 -152.5zM424 192v316q0 69 -40.5 110t-104.5 41t-104.5 -41t-40.5 -110v-316q0 -69 40.5 -110t104.5 -41t104.5 41t40.5 110z" />
    <glyph glyph-name="zero.slashed.tlf" 
d="M477 508v-316q0 -103 -59 -152.5t-139 -49.5t-139 49.5t-59 152.5v316q0 103 59 152.5t139 49.5t139 -49.5t59 -152.5zM424 192v273l-290 -290q5 -62 45 -98t100 -36q64 0 104.5 41t40.5 110zM134 508v-272l289 289q-5 62 -44.5 98t-99.5 36q-64 0 -104.5 -41t-40.5 -110
z" />
    <glyph glyph-name="one.case" horiz-adv-x="341" 
d="M191 0v625l-134 -115v75l134 115h55v-700h-55z" />
    <glyph glyph-name="two.case" horiz-adv-x="517" 
d="M58 0v54l271 308q70 80 70 152q0 63 -39.5 102t-103.5 40q-63 0 -103 -40t-40 -108v-14h-55v14q0 103 59 152.5t139 49.5t139 -49t59 -147q0 -91 -85 -188l-242 -272h327v-54h-396z" />
    <glyph glyph-name="three.case" horiz-adv-x="523" 
d="M260 -10q-84 0 -143.5 49t-59.5 153v8h55v-8q0 -69 41 -108.5t107 -39.5q65 0 101.5 37.5t36.5 106.5q0 57 -36.5 97.5t-98.5 40.5h-49v54h50q63 0 98.5 37.5t35.5 98.5q0 60 -40.5 100t-102.5 40q-63 0 -103 -40t-40 -108v-8h-55v8q0 103 59 152.5t139 49.5t139 -49.5
t59 -144.5q0 -117 -96 -163q43 -22 69.5 -65t26.5 -100q0 -97 -53 -147.5t-140 -50.5z" />
    <glyph glyph-name="four.case" horiz-adv-x="519" 
d="M353 0v198h-328v54l328 448h55v-448h73v-54h-73v-198h-55zM92 252h261v354z" />
    <glyph glyph-name="five.case" horiz-adv-x="524" 
d="M272 -10q-80 0 -139 49.5t-59 152.5v8h55v-8q0 -68 40 -108t103 -40t103 40t40 108v44q0 68 -40 108t-103 40q-90 0 -126 -72h-63v388h360v-54h-305v-263q47 55 134 55q80 0 139 -49.5t59 -152.5v-44q0 -103 -59 -152.5t-139 -49.5z" />
    <glyph glyph-name="six.case" horiz-adv-x="538" 
d="M272 -10q-80 0 -139 49.5t-59 152.5v316q0 103 59 152.5t139 49.5t139 -49.5t59 -152.5v-8h-55v8q0 68 -40 108t-103 40t-103 -40t-40 -108v-142q19 28 58 46.5t85 18.5q80 0 139 -49.5t59 -152.5v-37q0 -103 -59 -152.5t-139 -49.5zM272 44q63 0 103 40t40 108v37
q0 68 -40 108t-103 40t-103 -40t-40 -108v-37q0 -68 40 -108t103 -40z" />
    <glyph glyph-name="seven.case" horiz-adv-x="452" 
d="M128 0l235 646h-335v54h390v-54l-235 -646h-55z" />
    <glyph glyph-name="eight.case" horiz-adv-x="536" 
d="M268 -10q-77 0 -137.5 49t-60.5 146q0 57 25.5 101.5t69.5 66.5q-88 52 -88 165q0 95 56.5 143.5t134.5 48.5t134.5 -48.5t56.5 -143.5q0 -113 -88 -165q43 -22 69 -66.5t26 -101.5q0 -97 -60.5 -146t-137.5 -49zM268 44q60 0 101.5 40t41.5 101t-41.5 101t-101.5 40
t-101.5 -40t-41.5 -101t41.5 -101t101.5 -40zM268 380q65 0 100.5 38.5t35.5 99.5t-36 99.5t-100 38.5t-100 -38.5t-36 -99.5t35.5 -99.5t100.5 -38.5z" />
    <glyph glyph-name="nine.case" horiz-adv-x="538" 
d="M266 -10q-80 0 -139 49.5t-59 152.5v8h55v-8q0 -68 40 -108t103 -40t103 40t40 108v142q-19 -28 -58 -46.5t-85 -18.5q-80 0 -139 49.5t-59 152.5v37q0 103 59 152.5t139 49.5t139 -49.5t59 -152.5v-316q0 -103 -59 -152.5t-139 -49.5zM266 323q63 0 103 40t40 108v37
q0 68 -40 108t-103 40t-103 -40t-40 -108v-37q0 -68 40 -108t103 -40z" />
    <glyph glyph-name="zero.case" horiz-adv-x="544" 
d="M272 44q63 0 103 40t40 108v316q0 68 -40 108t-103 40t-103 -40t-40 -108v-316q0 -68 40 -108t103 -40zM272 -10q-80 0 -139 49.5t-59 152.5v316q0 103 59 152.5t139 49.5t139 -49.5t59 -152.5v-316q0 -103 -59 -152.5t-139 -49.5z" />
    <glyph glyph-name="zero.slashed.case" horiz-adv-x="544" 
d="M272 -10q-80 0 -139 49.5t-59 152.5v316q0 103 59 152.5t139 49.5t139 -49.5t59 -152.5v-316q0 -103 -59 -152.5t-139 -49.5zM272 44q63 0 103 40t40 108v271l-286 -286q4 -61 43.5 -97t99.5 -36zM129 508v-270l285 285q-4 61 -43.5 97t-98.5 36q-63 0 -103 -40t-40 -108
z" />
    <glyph glyph-name="a.superior" horiz-adv-x="312" 
d="M132 395q-41 0 -70 23t-29 66q0 67 65 86q40 12 128 17v5q0 36 -21.5 55.5t-52.5 19.5q-27 0 -47 -15t-25 -43h-44q5 51 38 75t78 24q48 0 82.5 -28t34.5 -89v-190h-43v31q-28 -37 -94 -37zM142 437q37 0 60.5 19t23.5 53v39q-98 -6 -123 -20q-27 -15 -27 -43
q0 -21 17 -34.5t49 -13.5z" />
    <glyph glyph-name="b.superior" horiz-adv-x="319" 
d="M164 395q-52 0 -74 37v-31h-43v406h43v-135q22 36 74 36q48 0 82.5 -28t34.5 -89v-79q0 -61 -34.5 -89t-82.5 -28zM164 437q31 0 52.5 19.5t21.5 55.5v80q0 36 -21.5 55.5t-52.5 19.5q-32 0 -53 -19.5t-21 -55.5v-80q0 -36 21 -55.5t53 -19.5z" />
    <glyph glyph-name="c.superior" horiz-adv-x="305" 
d="M156 395q-49 0 -83.5 28t-34.5 89v79q0 61 34.5 89t83.5 28q45 0 78.5 -24.5t37.5 -77.5h-44q-4 29 -24 45t-48 16q-32 0 -53 -19.5t-21 -55.5v-80q0 -36 21 -55.5t53 -19.5q28 0 48 16t24 45h44q-4 -53 -37.5 -78t-78.5 -25z" />
    <glyph glyph-name="d.superior" horiz-adv-x="319" 
d="M156 395q-49 0 -83.5 28t-34.5 89v79q0 61 34.5 89t83.5 28q50 0 74 -36v135h43v-406h-43v31q-24 -37 -74 -37zM156 437q31 0 52.5 19.5t21.5 55.5v80q0 36 -21.5 55.5t-52.5 19.5q-32 0 -53 -19.5t-21 -55.5v-80q0 -36 21 -55.5t53 -19.5z" />
    <glyph glyph-name="e.superior" horiz-adv-x="308" 
d="M156 395q-49 0 -83.5 28t-34.5 89v79q0 61 34.5 89t83.5 28q48 0 82.5 -28t34.5 -89v-50h-191v-29q0 -36 21 -55.5t53 -19.5q27 0 47 15t25 43h44q-6 -52 -39 -76t-77 -24zM82 581h148v11q0 36 -21.5 55.5t-52.5 19.5q-32 0 -53 -19.5t-21 -55.5v-11z" />
    <glyph glyph-name="f.superior" horiz-adv-x="190" 
d="M62 401v258h-43v41h43v36q0 39 15 55t56 16h45v-41h-45q-16 0 -22 -6t-6 -21v-39h73v-41h-73v-258h-43z" />
    <glyph glyph-name="g.superior" horiz-adv-x="319" 
d="M155 288q-45 0 -78.5 25t-37.5 78h43q4 -29 24.5 -45t48.5 -16q31 0 52.5 19.5t21.5 55.5v38q-23 -36 -74 -36q-48 0 -82.5 28t-34.5 89v67q0 61 34.5 89t82.5 28q51 0 74 -36v28h43v-294q0 -61 -34.5 -89.5t-82.5 -28.5zM155 448q31 0 52.5 19.5t21.5 55.5v69
q0 36 -21.5 55.5t-52.5 19.5t-52.5 -19.5t-21.5 -55.5v-69q0 -36 21.5 -55.5t52.5 -19.5z" />
    <glyph glyph-name="h.superior" horiz-adv-x="323" 
d="M47 401v406h43v-135q22 36 74 36q48 0 82.5 -28t34.5 -89v-190h-43v191q0 36 -21.5 55.5t-52.5 19.5q-32 0 -53 -19.5t-21 -55.5v-191h-43z" />
    <glyph glyph-name="i.superior" horiz-adv-x="136" 
d="M47 401v299h43v-299h-43zM47 751v56h43v-56h-43z" />
    <glyph glyph-name="j.superior" horiz-adv-x="136" 
d="M9 294v42h10q16 0 22 6t6 20v338h43v-335q0 -39 -15.5 -55t-55.5 -16h-10zM47 751v56h43v-56h-43z" />
    <glyph glyph-name="k.superior" horiz-adv-x="299" 
d="M90 807v-249l131 142h53l-108 -117l124 -182h-51l-102 151l-47 -52v-99h-43v406h43z" />
    <glyph glyph-name="l.superior" horiz-adv-x="153" 
d="M126 401h-10q-40 0 -55.5 16t-15.5 55v335h43v-338q0 -15 6 -21t22 -6h10v-41z" />
    <glyph glyph-name="m.superior" horiz-adv-x="497" 
d="M47 401v299h43v-28q10 17 30.5 26.5t39.5 9.5q62 0 90 -47q28 47 91 47q46 0 79.5 -29t33.5 -88v-190h-43v194q0 32 -21 52t-48 20q-29 0 -49.5 -20.5t-20.5 -54.5v-191h-43v194q0 32 -21 52t-48 20q-29 0 -49.5 -20.5t-20.5 -54.5v-191h-43z" />
    <glyph glyph-name="o.superior" horiz-adv-x="311" 
d="M156 437q31 0 52.5 19.5t21.5 55.5v80q0 36 -21.5 55.5t-52.5 19.5q-32 0 -53 -19.5t-21 -55.5v-80q0 -36 21 -55.5t53 -19.5zM156 395q-49 0 -83.5 28t-34.5 89v79q0 61 34.5 89t83.5 28q48 0 82.5 -28t34.5 -89v-79q0 -61 -34.5 -89t-82.5 -28z" />
    <glyph glyph-name="p.superior" horiz-adv-x="319" 
d="M47 294v406h43v-28q22 36 74 36q48 0 82.5 -28t34.5 -89v-79q0 -61 -34.5 -89t-82.5 -28q-52 0 -74 37v-138h-43zM164 437q31 0 52.5 19.5t21.5 55.5v80q0 36 -21.5 55.5t-52.5 19.5q-32 0 -53 -19.5t-21 -55.5v-80q0 -36 21 -55.5t53 -19.5z" />
    <glyph glyph-name="q.superior" horiz-adv-x="319" 
d="M230 294v138q-24 -37 -74 -37q-49 0 -83.5 28t-34.5 89v79q0 61 34.5 89t83.5 28q50 0 74 -36v28h43v-406h-43zM156 437q31 0 52.5 19.5t21.5 55.5v80q0 36 -21.5 55.5t-52.5 19.5q-32 0 -53 -19.5t-21 -55.5v-80q0 -36 21 -55.5t53 -19.5z" />
    <glyph glyph-name="r.superior" horiz-adv-x="195" 
d="M47 401v299h43v-31q23 37 74 37h18v-42h-18q-32 0 -53 -19.5t-21 -55.5v-188h-43z" />
    <glyph glyph-name="s.superior" horiz-adv-x="279" 
d="M146 395q-51 0 -84 25t-36 77h44q6 -60 76 -60q60 0 62 43q0 34 -42 44l-59 15q-74 18 -74 83q0 40 29 63t72 23q47 0 76.5 -23.5t33.5 -71.5h-44q-8 54 -66 54q-25 0 -41 -11.5t-16 -32.5q0 -32 41 -42l57 -14q76 -19 76 -88q0 -42 -28.5 -63t-76.5 -21z" />
    <glyph glyph-name="t.superior" horiz-adv-x="204" 
d="M177 401h-45q-41 0 -56 16t-15 55v187h-43v41h43v68h43v-68h73v-41h-73v-190q0 -15 6 -21t22 -6h45v-41z" />
    <glyph glyph-name="u.superior" horiz-adv-x="320" 
d="M158 395q-45 0 -80 27.5t-35 88.5v189h43v-187q0 -37 21 -56.5t51 -19.5t51 19.5t21 55.5v188h43v-299h-43v31q-23 -37 -72 -37z" />
    <glyph glyph-name="v.superior" horiz-adv-x="277" 
d="M114 401l-107 299h44l88 -245l87 245h45l-108 -299h-49z" />
    <glyph glyph-name="w.superior" horiz-adv-x="403" 
d="M90 401l-79 299h43l60 -235l66 235h42l67 -235l60 235h43l-79 -299h-45l-67 236l-67 -236h-44z" />
    <glyph glyph-name="x.superior" horiz-adv-x="281" 
d="M12 401l101 154l-97 145h50l74 -112l74 112h50l-97 -145l102 -154h-49l-80 123l-79 -123h-49z" />
    <glyph glyph-name="y.superior" horiz-adv-x="277" 
d="M52 294v42h22q20 0 27 18l15 42l-109 304h44l88 -245l87 245h45l-136 -374q-11 -31 -66 -32h-17z" />
    <glyph glyph-name="z.superior" horiz-adv-x="277" 
d="M247 659l-170 -217h174v-41h-225v41l170 217h-166v41h217v-41z" />
    <glyph glyph-name="zero.slashed.superior" horiz-adv-x="315" 
d="M157 395q-48 0 -82.5 28t-34.5 89v184q0 61 34.5 89t82.5 28t82.5 -28t34.5 -89v-184q0 -61 -34.5 -89t-82.5 -28zM83 696v-144l148 147q-1 35 -22 53.5t-52 18.5t-52.5 -19.5t-21.5 -55.5zM157 437q32 0 53 19.5t21 55.5v145l-148 -149q1 -34 22.5 -52.5t51.5 -18.5z
" />
    <glyph glyph-name="period.superior" horiz-adv-x="165" 
d="M52 401v60h61v-60h-61z" />
    <glyph glyph-name="hyphen.superior" horiz-adv-x="238" 
d="M35 545v37h168v-37h-168z" />
    <glyph glyph-name="comma.superior" horiz-adv-x="165" 
d="M52 401v60h61v-60l-20 -54h-37l20 54h-24z" />
    <glyph glyph-name="a.inferior" horiz-adv-x="312" 
d="M132 -103q-41 0 -70 23t-29 66q0 67 65 86q40 12 128 17v5q0 36 -21.5 55.5t-52.5 19.5q-27 0 -47 -15t-25 -43h-44q5 51 38 75t78 24q48 0 82.5 -28t34.5 -89v-190h-43v31q-28 -37 -94 -37zM142 -61q37 0 60.5 19t23.5 53v39q-98 -6 -123 -20q-27 -15 -27 -43
q0 -21 17 -34.5t49 -13.5z" />
    <glyph glyph-name="b.inferior" horiz-adv-x="319" 
d="M164 -103q-52 0 -74 37v-31h-43v406h43v-135q22 36 74 36q48 0 82.5 -28t34.5 -89v-79q0 -61 -34.5 -89t-82.5 -28zM164 -61q31 0 52.5 19.5t21.5 55.5v80q0 36 -21.5 55.5t-52.5 19.5q-32 0 -53 -19.5t-21 -55.5v-80q0 -36 21 -55.5t53 -19.5z" />
    <glyph glyph-name="c.inferior" horiz-adv-x="305" 
d="M156 -103q-49 0 -83.5 28t-34.5 89v79q0 61 34.5 89t83.5 28q45 0 78.5 -24.5t37.5 -77.5h-44q-4 29 -24 45t-48 16q-32 0 -53 -19.5t-21 -55.5v-80q0 -36 21 -55.5t53 -19.5q28 0 48 16t24 45h44q-4 -53 -37.5 -78t-78.5 -25z" />
    <glyph glyph-name="d.inferior" horiz-adv-x="319" 
d="M156 -103q-49 0 -83.5 28t-34.5 89v79q0 61 34.5 89t83.5 28q50 0 74 -36v135h43v-406h-43v31q-24 -37 -74 -37zM156 -61q31 0 52.5 19.5t21.5 55.5v80q0 36 -21.5 55.5t-52.5 19.5q-32 0 -53 -19.5t-21 -55.5v-80q0 -36 21 -55.5t53 -19.5z" />
    <glyph glyph-name="e.inferior" horiz-adv-x="308" 
d="M156 -103q-49 0 -83.5 28t-34.5 89v79q0 61 34.5 89t83.5 28q48 0 82.5 -28t34.5 -89v-50h-191v-29q0 -36 21 -55.5t53 -19.5q27 0 47 15t25 43h44q-6 -52 -39 -76t-77 -24zM82 83h148v11q0 36 -21.5 55.5t-52.5 19.5q-32 0 -53 -19.5t-21 -55.5v-11z" />
    <glyph glyph-name="f.inferior" horiz-adv-x="190" 
d="M62 -97v258h-43v41h43v36q0 39 15 55t56 16h45v-41h-45q-16 0 -22 -6t-6 -21v-39h73v-41h-73v-258h-43z" />
    <glyph glyph-name="g.inferior" horiz-adv-x="319" 
d="M155 -210q-45 0 -78.5 25t-37.5 78h43q4 -29 24.5 -45t48.5 -16q31 0 52.5 19.5t21.5 55.5v38q-23 -36 -74 -36q-48 0 -82.5 28t-34.5 89v67q0 61 34.5 89t82.5 28q51 0 74 -36v28h43v-294q0 -61 -34.5 -89.5t-82.5 -28.5zM155 -50q31 0 52.5 19.5t21.5 55.5v69
q0 36 -21.5 55.5t-52.5 19.5t-52.5 -19.5t-21.5 -55.5v-69q0 -36 21.5 -55.5t52.5 -19.5z" />
    <glyph glyph-name="h.inferior" horiz-adv-x="323" 
d="M47 -97v406h43v-135q22 36 74 36q48 0 82.5 -28t34.5 -89v-190h-43v191q0 36 -21.5 55.5t-52.5 19.5q-32 0 -53 -19.5t-21 -55.5v-191h-43z" />
    <glyph glyph-name="i.inferior" horiz-adv-x="136" 
d="M47 -97v299h43v-299h-43zM47 253v56h43v-56h-43z" />
    <glyph glyph-name="j.inferior" horiz-adv-x="136" 
d="M9 -204v42h10q16 0 22 6t6 20v338h43v-335q0 -39 -15.5 -55t-55.5 -16h-10zM47 253v56h43v-56h-43z" />
    <glyph glyph-name="k.inferior" horiz-adv-x="299" 
d="M90 309v-249l131 142h53l-108 -117l124 -182h-51l-102 151l-47 -52v-99h-43v406h43z" />
    <glyph glyph-name="l.inferior" horiz-adv-x="153" 
d="M126 -97h-10q-40 0 -55.5 16t-15.5 55v335h43v-338q0 -15 6 -21t22 -6h10v-41z" />
    <glyph glyph-name="m.inferior" horiz-adv-x="497" 
d="M47 -97v299h43v-28q10 17 30.5 26.5t39.5 9.5q62 0 90 -47q28 47 91 47q46 0 79.5 -29t33.5 -88v-190h-43v194q0 32 -21 52t-48 20q-29 0 -49.5 -20.5t-20.5 -54.5v-191h-43v194q0 32 -21 52t-48 20q-29 0 -49.5 -20.5t-20.5 -54.5v-191h-43z" />
    <glyph glyph-name="n.inferior" horiz-adv-x="323" 
d="M47 -97v299h43v-28q22 36 74 36q48 0 82.5 -28t34.5 -89v-190h-43v191q0 36 -21.5 55.5t-52.5 19.5q-32 0 -53 -19.5t-21 -55.5v-191h-43z" />
    <glyph glyph-name="o.inferior" horiz-adv-x="311" 
d="M156 -61q31 0 52.5 19.5t21.5 55.5v80q0 36 -21.5 55.5t-52.5 19.5q-32 0 -53 -19.5t-21 -55.5v-80q0 -36 21 -55.5t53 -19.5zM156 -103q-49 0 -83.5 28t-34.5 89v79q0 61 34.5 89t83.5 28q48 0 82.5 -28t34.5 -89v-79q0 -61 -34.5 -89t-82.5 -28z" />
    <glyph glyph-name="p.inferior" horiz-adv-x="319" 
d="M47 -204v406h43v-28q22 36 74 36q48 0 82.5 -28t34.5 -89v-79q0 -61 -34.5 -89t-82.5 -28q-52 0 -74 37v-138h-43zM164 -61q31 0 52.5 19.5t21.5 55.5v80q0 36 -21.5 55.5t-52.5 19.5q-32 0 -53 -19.5t-21 -55.5v-80q0 -36 21 -55.5t53 -19.5z" />
    <glyph glyph-name="q.inferior" horiz-adv-x="319" 
d="M230 -204v138q-24 -37 -74 -37q-49 0 -83.5 28t-34.5 89v79q0 61 34.5 89t83.5 28q50 0 74 -36v28h43v-406h-43zM156 -61q31 0 52.5 19.5t21.5 55.5v80q0 36 -21.5 55.5t-52.5 19.5q-32 0 -53 -19.5t-21 -55.5v-80q0 -36 21 -55.5t53 -19.5z" />
    <glyph glyph-name="r.inferior" horiz-adv-x="195" 
d="M47 -97v299h43v-31q23 37 74 37h18v-42h-18q-32 0 -53 -19.5t-21 -55.5v-188h-43z" />
    <glyph glyph-name="s.inferior" horiz-adv-x="279" 
d="M146 -103q-51 0 -84 25t-36 77h44q6 -60 76 -60q60 0 62 43q0 34 -42 44l-59 15q-74 18 -74 83q0 40 29 63t72 23q47 0 76.5 -23.5t33.5 -71.5h-44q-8 54 -66 54q-25 0 -41 -11.5t-16 -32.5q0 -32 41 -42l57 -14q76 -19 76 -88q0 -42 -28.5 -63t-76.5 -21z" />
    <glyph glyph-name="t.inferior" horiz-adv-x="204" 
d="M177 -97h-45q-41 0 -56 16t-15 55v187h-43v41h43v68h43v-68h73v-41h-73v-190q0 -15 6 -21t22 -6h45v-41z" />
    <glyph glyph-name="u.inferior" horiz-adv-x="320" 
d="M158 -103q-45 0 -80 27.5t-35 88.5v189h43v-187q0 -37 21 -56.5t51 -19.5t51 19.5t21 55.5v188h43v-299h-43v31q-23 -37 -72 -37z" />
    <glyph glyph-name="v.inferior" horiz-adv-x="277" 
d="M114 -97l-107 299h44l88 -245l87 245h45l-108 -299h-49z" />
    <glyph glyph-name="w.inferior" horiz-adv-x="403" 
d="M90 -97l-79 299h43l60 -235l66 235h42l67 -235l60 235h43l-79 -299h-45l-67 236l-67 -236h-44z" />
    <glyph glyph-name="x.inferior" horiz-adv-x="281" 
d="M12 -97l101 154l-97 145h50l74 -112l74 112h50l-97 -145l102 -154h-49l-80 123l-79 -123h-49z" />
    <glyph glyph-name="y.inferior" horiz-adv-x="277" 
d="M52 -204v42h22q20 0 27 18l15 42l-109 304h44l88 -245l87 245h45l-136 -374q-11 -31 -66 -32h-17z" />
    <glyph glyph-name="z.inferior" horiz-adv-x="277" 
d="M247 161l-170 -217h174v-41h-225v41l170 217h-166v41h217v-41z" />
    <glyph glyph-name="zero.slashed.inferior" horiz-adv-x="315" 
d="M157 -103q-48 0 -82.5 28t-34.5 89v184q0 61 34.5 89t82.5 28t82.5 -28t34.5 -89v-184q0 -61 -34.5 -89t-82.5 -28zM83 198v-144l148 147q-1 35 -22 53.5t-52 18.5t-52.5 -19.5t-21.5 -55.5zM157 -61q32 0 53 19.5t21 55.5v145l-148 -149q1 -34 22.5 -52.5t51.5 -18.5z
" />
    <glyph glyph-name="period.inferior" horiz-adv-x="165" 
d="M52 -97v60h61v-60h-61z" />
    <glyph glyph-name="hyphen.inferior" horiz-adv-x="238" 
d="M35 47v37h168v-37h-168z" />
    <glyph glyph-name="comma.inferior" horiz-adv-x="165" 
d="M52 -97v60h61v-60l-20 -54h-37l20 54h-24z" />
    <glyph glyph-name="equal.inferior" horiz-adv-x="330" 
d="M48 -15v37h234v-37h-234zM48 103v37h234v-37h-234z" />
    <glyph glyph-name="plus.inferior" horiz-adv-x="330" 
d="M48 47v37h100v98h37v-98h97v-37h-97v-99h-37v99h-100z" />
    <glyph glyph-name="minus.inferior" horiz-adv-x="330" 
d="M48 47v37h234v-37h-234z" />
    <glyph glyph-name="one.numerator" horiz-adv-x="284" 
d="M148 294v349l-78 -67v57l78 67h43v-406h-43z" />
    <glyph glyph-name="two.numerator" horiz-adv-x="345" 
d="M51 294v41l155 178q36 41 36 78q0 34 -21.5 53.5t-52.5 19.5t-52.5 -19.5t-21.5 -55.5v-11h-43v11q0 61 34.5 89t82.5 28t82.5 -28.5t34.5 -87.5q0 -30 -11.5 -53t-36.5 -53l-130 -149h178v-41h-234z" />
    <glyph glyph-name="three.numerator" horiz-adv-x="342" 
d="M170 288q-49 0 -84.5 28t-35.5 89v5h43v-5q0 -36 22 -55.5t55 -19.5q32 0 51.5 19t19.5 53q0 31 -19.5 53.5t-51.5 22.5h-29v41h29q32 0 51.5 19.5t19.5 53.5q0 33 -21 52.5t-53 19.5q-31 0 -52.5 -19.5t-21.5 -55.5v-5h-43v5q0 61 34.5 89t82.5 28q49 0 83.5 -28.5
t34.5 -85.5q0 -32 -14.5 -57.5t-35.5 -36.5q22 -12 36 -37.5t14 -58.5q0 -57 -34 -85.5t-81 -28.5z" />
    <glyph glyph-name="four.numerator" horiz-adv-x="293" 
d="M168 294v110h-186v41l186 255h43v-255h43v-41h-43v-110h-43zM33 445h135v185z" />
    <glyph glyph-name="five.numerator" horiz-adv-x="340" 
d="M177 288q-48 0 -82.5 28t-34.5 89v5h43v-5q0 -36 21.5 -55.5t52.5 -19.5q32 0 53 19.5t21 55.5v30q0 36 -21 55.5t-53 19.5q-52 0 -68 -44h-44v234h214v-41h-171v-131q28 23 69 23q48 0 82.5 -28t34.5 -89v-29q0 -61 -34.5 -89t-82.5 -28z" />
    <glyph glyph-name="six.numerator" horiz-adv-x="341" 
d="M172 288q-48 0 -82.5 28t-34.5 89v184q0 61 34.5 89t82.5 28t82.5 -28t34.5 -89v-5h-43v5q0 36 -21 55.5t-53 19.5q-31 0 -52.5 -19.5t-21.5 -55.5v-71q24 29 74 29q48 0 82.5 -28t34.5 -89v-25q0 -61 -34.5 -89t-82.5 -28zM172 330q32 0 53 19.5t21 55.5v26
q0 36 -21 55.5t-53 19.5q-31 0 -52.5 -19.5t-21.5 -55.5v-26q0 -36 21.5 -55.5t52.5 -19.5z" />
    <glyph glyph-name="seven.numerator" horiz-adv-x="256" 
d="M92 294l128 365h-186v41h230v-41l-128 -365h-44z" />
    <glyph glyph-name="eight.numerator" horiz-adv-x="320" 
d="M160 288q-48 0 -82.5 30t-34.5 86q0 64 48 94q-44 34 -44 94q0 56 33 85t80 29t80 -29t33 -85q0 -60 -44 -94q48 -30 48 -94q0 -56 -34.5 -86t-82.5 -30zM160 330q31 0 52.5 20.5t21.5 53.5t-22 53.5t-52 20.5t-52 -20.5t-22 -53.5t21.5 -53.5t52.5 -20.5zM160 519
q31 0 50.5 19t19.5 54q0 32 -19 52t-51 20t-51 -20t-19 -52q0 -35 19.5 -54t50.5 -19z" />
    <glyph glyph-name="nine.numerator" horiz-adv-x="341" 
d="M169 288q-48 0 -82.5 28t-34.5 89v5h43v-5q0 -36 21.5 -55.5t52.5 -19.5t52.5 19.5t21.5 55.5v71q-24 -29 -74 -29q-48 0 -82.5 28t-34.5 89v25q0 61 34.5 89t82.5 28t82.5 -28t34.5 -89v-184q0 -61 -34.5 -89t-82.5 -28zM169 488q31 0 52.5 19.5t21.5 55.5v26
q0 36 -21.5 55.5t-52.5 19.5t-52.5 -19.5t-21.5 -55.5v-26q0 -36 21.5 -55.5t52.5 -19.5z" />
    <glyph glyph-name="zero.numerator" horiz-adv-x="344" 
d="M172 330q32 0 53 19.5t21 55.5v184q0 36 -21 55.5t-53 19.5q-31 0 -52.5 -19.5t-21.5 -55.5v-184q0 -36 21.5 -55.5t52.5 -19.5zM172 288q-48 0 -82.5 28t-34.5 89v184q0 61 34.5 89t82.5 28t82.5 -28t34.5 -89v-184q0 -61 -34.5 -89t-82.5 -28z" />
    <glyph glyph-name="zero.slashed.numerator" horiz-adv-x="344" 
d="M172 288q-48 0 -82.5 28t-34.5 89v184q0 61 34.5 89t82.5 28t82.5 -28t34.5 -89v-184q0 -61 -34.5 -89t-82.5 -28zM98 589v-144l148 147q-1 35 -22 53.5t-52 18.5t-52.5 -19.5t-21.5 -55.5zM172 330q32 0 53 19.5t21 55.5v145l-148 -149q1 -34 22.5 -52.5t51.5 -18.5z
" />
    <glyph glyph-name="one.denominator" horiz-adv-x="284" 
d="M148 0v349l-78 -67v57l78 67h43v-406h-43z" />
    <glyph glyph-name="two.denominator" horiz-adv-x="345" 
d="M51 0v41l155 178q36 41 36 78q0 34 -21.5 53.5t-52.5 19.5t-52.5 -19.5t-21.5 -55.5v-11h-43v11q0 61 34.5 89t82.5 28t82.5 -28.5t34.5 -87.5q0 -30 -11.5 -53t-36.5 -53l-130 -149h178v-41h-234z" />
    <glyph glyph-name="three.denominator" horiz-adv-x="342" 
d="M170 -6q-49 0 -84.5 28t-35.5 89v5h43v-5q0 -36 22 -55.5t55 -19.5q32 0 51.5 19t19.5 53q0 31 -19.5 53.5t-51.5 22.5h-29v41h29q32 0 51.5 19.5t19.5 53.5q0 33 -21 52.5t-53 19.5q-31 0 -52.5 -19.5t-21.5 -55.5v-5h-43v5q0 61 34.5 89t82.5 28q49 0 83.5 -28.5
t34.5 -85.5q0 -32 -14.5 -57.5t-35.5 -36.5q22 -12 36 -37.5t14 -58.5q0 -57 -34 -85.5t-81 -28.5z" />
    <glyph glyph-name="four.denominator" horiz-adv-x="293" 
d="M168 0v110h-186v41l186 255h43v-255h43v-41h-43v-110h-43zM33 151h135v185z" />
    <glyph glyph-name="five.denominator" horiz-adv-x="340" 
d="M177 -6q-48 0 -82.5 28t-34.5 89v5h43v-5q0 -36 21.5 -55.5t52.5 -19.5q32 0 53 19.5t21 55.5v30q0 36 -21 55.5t-53 19.5q-52 0 -68 -44h-44v234h214v-41h-171v-131q28 23 69 23q48 0 82.5 -28t34.5 -89v-29q0 -61 -34.5 -89t-82.5 -28z" />
    <glyph glyph-name="six.denominator" horiz-adv-x="341" 
d="M172 -6q-48 0 -82.5 28t-34.5 89v184q0 61 34.5 89t82.5 28t82.5 -28t34.5 -89v-5h-43v5q0 36 -21 55.5t-53 19.5q-31 0 -52.5 -19.5t-21.5 -55.5v-71q24 29 74 29q48 0 82.5 -28t34.5 -89v-25q0 -61 -34.5 -89t-82.5 -28zM172 36q32 0 53 19.5t21 55.5v26q0 36 -21 55.5
t-53 19.5q-31 0 -52.5 -19.5t-21.5 -55.5v-26q0 -36 21.5 -55.5t52.5 -19.5z" />
    <glyph glyph-name="seven.denominator" horiz-adv-x="256" 
d="M92 0l128 365h-186v41h230v-41l-128 -365h-44z" />
    <glyph glyph-name="eight.denominator" horiz-adv-x="320" 
d="M160 -6q-48 0 -82.5 30t-34.5 86q0 64 48 94q-44 34 -44 94q0 56 33 85t80 29t80 -29t33 -85q0 -60 -44 -94q48 -30 48 -94q0 -56 -34.5 -86t-82.5 -30zM160 36q31 0 52.5 20.5t21.5 53.5t-22 53.5t-52 20.5t-52 -20.5t-22 -53.5t21.5 -53.5t52.5 -20.5zM160 225
q31 0 50.5 19t19.5 54q0 32 -19 52t-51 20t-51 -20t-19 -52q0 -35 19.5 -54t50.5 -19z" />
    <glyph glyph-name="nine.denominator" horiz-adv-x="341" 
d="M169 -6q-48 0 -82.5 28t-34.5 89v5h43v-5q0 -36 21.5 -55.5t52.5 -19.5t52.5 19.5t21.5 55.5v71q-24 -29 -74 -29q-48 0 -82.5 28t-34.5 89v25q0 61 34.5 89t82.5 28t82.5 -28t34.5 -89v-184q0 -61 -34.5 -89t-82.5 -28zM169 194q31 0 52.5 19.5t21.5 55.5v26
q0 36 -21.5 55.5t-52.5 19.5t-52.5 -19.5t-21.5 -55.5v-26q0 -36 21.5 -55.5t52.5 -19.5z" />
    <glyph glyph-name="zero.denominator" horiz-adv-x="344" 
d="M172 36q32 0 53 19.5t21 55.5v184q0 36 -21 55.5t-53 19.5q-31 0 -52.5 -19.5t-21.5 -55.5v-184q0 -36 21.5 -55.5t52.5 -19.5zM172 -6q-48 0 -82.5 28t-34.5 89v184q0 61 34.5 89t82.5 28t82.5 -28t34.5 -89v-184q0 -61 -34.5 -89t-82.5 -28z" />
    <glyph glyph-name="zero.slashed.denominator" horiz-adv-x="344" 
d="M172 -6q-48 0 -82.5 28t-34.5 89v184q0 61 34.5 89t82.5 28t82.5 -28t34.5 -89v-184q0 -61 -34.5 -89t-82.5 -28zM98 295v-144l148 147q-1 35 -22 53.5t-52 18.5t-52.5 -19.5t-21.5 -55.5zM172 36q32 0 53 19.5t21 55.5v145l-148 -149q1 -34 22.5 -52.5t51.5 -18.5z" />
    <glyph glyph-name="ampersand.case" horiz-adv-x="605" 
d="M257 0q-89 0 -141 51t-52 139q0 57 25.5 99t68.5 64q-94 40 -94 159q0 95 55 141.5t133 46.5h153v-54h-153q-63 0 -98 -37t-35 -97t35 -96t98 -36h153v80h55v-80h127v-54h-127v-326h-203zM257 54h148v272h-148q-68 0 -103 -38t-35 -97q0 -60 35 -98.5t103 -38.5z" />
    <glyph glyph-name="hyphen.case" horiz-adv-x="420" 
d="M355 315h-290v45h290v-45z" />
    <glyph glyph-name="endash.case" horiz-adv-x="526" 
d="M461 315h-396v45h396v-45z" />
    <glyph glyph-name="emdash.case" horiz-adv-x="829" 
d="M764 315h-699v45h699v-45z" />
    <glyph glyph-name="question.case" horiz-adv-x="514" 
d="M222 210v22q0 31 11.5 54.5t41.5 50.5l60 55q58 54 58 116q0 68 -40 108t-103 40t-103 -40t-40 -108v-8h-55v8q0 103 59 152.5t139 49.5t139 -49.5t59 -152.5q0 -86 -75 -153l-60 -55q-22 -20 -29 -34t-7 -34v-22h-55zM205 0v84h84v-84h-84z" />
    <glyph glyph-name="questiondown.case" horiz-adv-x="514" 
d="M292 490v-22q0 -31 -11.5 -54.5t-41.5 -50.5l-60 -55q-58 -54 -58 -116q0 -68 40 -108t103 -40t103 40t40 108v8h55v-8q0 -103 -59 -152.5t-139 -49.5t-139 49.5t-59 152.5q0 86 75 153l60 55q22 20 29 34t7 34v22h55zM309 700v-84h-84v84h84z" />
    <glyph glyph-name="exclam.case" horiz-adv-x="274" 
d="M109 700h55v-490h-55v490zM95 0v84h84v-84h-84z" />
    <glyph glyph-name="exclamdown.case" horiz-adv-x="274" 
d="M164 0h-55v490h55v-490zM95 616v84h84v-84h-84z" />
    <glyph glyph-name="guilsinglleft.case" horiz-adv-x="304" 
d="M229 160l-162 143v54l162 143v-59l-126 -111l126 -111v-59z" />
    <glyph glyph-name="guilsinglright.case" horiz-adv-x="304" 
d="M237 303l-162 -143v59l126 111l-126 111v59l162 -143v-54z" />
    <glyph glyph-name="guillemotleft.case" horiz-adv-x="471" 
d="M229 160l-162 143v54l162 143v-59l-126 -111l126 -111v-59zM396 160l-162 143v54l162 143v-59l-126 -111l126 -111v-59z" />
    <glyph glyph-name="guillemotright.case" horiz-adv-x="471" 
d="M237 303l-162 -143v59l126 111l-126 111v59l162 -143v-54zM404 303l-162 -143v59l126 111l-126 111v59l162 -143v-54z" />
    <glyph glyph-name="parenleft.case" horiz-adv-x="272" 
d="M106 103v494q0 53 23 78t84 25h10v-42h-10q-38 0 -51 -14t-13 -47v-494q0 -33 13 -47t51 -14h10v-42h-10q-61 0 -84 25t-23 78z" />
    <glyph glyph-name="parenright.case" horiz-adv-x="272" 
d="M166 597v-494q0 -53 -23 -78t-84 -25h-10v42h10q38 0 51 14t13 47v494q0 33 -13 47t-51 14h-10v42h10q61 0 84 -25t23 -78z" />
    <glyph glyph-name="bracketleft.case" horiz-adv-x="272" 
d="M106 0v700h117v-42h-74v-616h74v-42h-117z" />
    <glyph glyph-name="bracketright.case" horiz-adv-x="272" 
d="M166 700v-700h-117v42h74v616h-74v42h117z" />
    <glyph glyph-name="braceleft.case" horiz-adv-x="304" 
d="M74 329h-10v42h10q38 0 51 14t13 47v165q0 53 23 78t84 25h10v-42h-10q-38 0 -51 -14t-13 -47v-165q0 -62 -34 -82q34 -22 34 -82v-165q0 -33 13 -47t51 -14h10v-42h-10q-61 0 -84 25t-23 78v165q0 33 -13 47t-51 14z" />
    <glyph glyph-name="braceright.case" horiz-adv-x="304" 
d="M240 329h-10q-38 0 -51 -14t-13 -47v-165q0 -53 -23 -78t-84 -25h-10v42h10q38 0 51 14t13 47v165q0 60 34 82q-34 20 -34 82v165q0 33 -13 47t-51 14h-10v42h10q61 0 84 -25t23 -78v-165q0 -33 13 -47t51 -14h10v-42z" />
    <glyph glyph-name="bar.case" horiz-adv-x="223" 
d="M90 0v700h43v-700h-43z" />
    <glyph glyph-name="brokenbar.case" horiz-adv-x="223" 
d="M90 0v289h43v-289h-43zM90 411v289h43v-289h-43z" />
    <glyph glyph-name="periodcentered.case" horiz-adv-x="284" 
d="M100 305v84h84v-84h-84z" />
    <glyph glyph-name="at.case" horiz-adv-x="872" 
d="M581 411v9q0 69 -40.5 110t-104.5 41q-56 0 -94.5 -32t-47.5 -87h-54q10 87 66.5 128.5t129.5 41.5q80 0 139 -49.5t59 -152.5v-232q0 -26 14.5 -44.5t43.5 -18.5t43 18.5t14 44.5v295q0 47 -18 94t-54 89t-98.5 68t-142.5 26t-142.5 -26t-98.5 -68t-54 -89t-18 -94v-266
q0 -47 18 -94t54 -89t98.5 -68t142.5 -26q118 0 201 59l25 -36q-92 -65 -226 -65q-91 0 -162.5 30t-112 78.5t-61 102.5t-20.5 108v266q0 54 20.5 108t61 102.5t112 78.5t162.5 30t162.5 -30t112 -78.5t61 -102.5t20.5 -108v-287q0 -114 -102 -114q-44 0 -72 21t-37 52
q-50 -73 -172 -73q-81 0 -126.5 43.5t-45.5 108.5q0 114 112 148q64 19 232 29zM581 284v80q-181 -11 -226 -32q-65 -29 -65 -94q0 -46 31.5 -75.5t99.5 -29.5q70 0 115 41.5t45 109.5z" />
    <glyph glyph-name="plus.case" 
d="M257 139v176h-176v45h176v175h45v-175h175v-45h-175v-176h-45z" />
    <glyph glyph-name="minus.case" 
d="M477 315h-396v45h396v-45z" />
    <glyph glyph-name="divide.case" 
d="M238 536q0 17 12.5 29.5t29.5 12.5t29.5 -12.5t12.5 -29.5t-12.5 -29.5t-29.5 -12.5t-29.5 12.5t-12.5 29.5zM238 139q0 17 12.5 29.5t29.5 12.5t29.5 -12.5t12.5 -29.5t-12.5 -29.5t-29.5 -12.5t-29.5 12.5t-12.5 29.5zM477 315h-396v45h396v-45z" />
    <glyph glyph-name="multiply.case" 
d="M482 507l-171 -170l171 -169l-32 -32l-171 169l-170 -169l-32 32l170 169l-170 170l32 32l170 -170l171 170z" />
    <glyph glyph-name="equal.case" 
d="M81 452h396v-45h-396v45zM477 212h-396v45h396v-45z" />
    <glyph glyph-name="plusminus.case" 
d="M257 374h-176v45h176v154h45v-154h175v-45h-175v-154h-45v154zM477 57h-396v45h396v-45z" />
    <glyph glyph-name="less.case" 
d="M124 316l353 -213v-51l-396 239v50l396 239v-51z" />
    <glyph glyph-name="greater.case" 
d="M81 103l353 213l-353 213v51l396 -239v-50l-396 -239v51z" />
    <glyph glyph-name="lessequal.case" 
d="M477 176l-396 180v44l396 180v-48l-338 -154l338 -154v-48zM477 57h-396v45h396v-45z" />
    <glyph glyph-name="greaterequal.case" 
d="M477 356l-396 -180v48l338 154l-338 154v48l396 -180v-44zM477 57h-396v45h396v-45z" />
    <glyph glyph-name="notequal.case" 
d="M128 212h-47v45h92l150 150h-242v45h287l79 79l30 -31l-48 -48h48v-45h-93l-150 -150h243v-45h-288l-78 -78l-30 31z" />
    <glyph glyph-name="acute.case" horiz-adv-x="315" 
d="M171 854h86l-128 -109h-58z" />
    <glyph glyph-name="breve.case" horiz-adv-x="390" 
d="M227 796q25 0 41.5 16.5t16.5 41.5h51q0 -45 -32 -77t-77 -32h-64q-45 0 -77 32t-32 77h51q0 -25 16.5 -41.5t41.5 -16.5h64z" />
    <glyph glyph-name="caron.case" horiz-adv-x="428" 
d="M365 854l-125 -109h-52l-125 109h72l79 -63l79 63h72z" />
    <glyph glyph-name="cedilla.case" horiz-adv-x="251" 
d="M60 -158l53 158h56l-38 -158h-71z" />
    <glyph glyph-name="circumflex.case" horiz-adv-x="428" 
d="M240 854l125 -109h-72l-79 63l-79 -63h-72l125 109h52z" />
    <glyph glyph-name="dieresis.case" horiz-adv-x="410" 
d="M127 843v-87h-55v87h55zM338 843v-87h-55v87h55z" />
    <glyph glyph-name="dotaccent.case" horiz-adv-x="173" 
d="M114 843v-87h-55v87h55z" />
    <glyph glyph-name="grave.case" horiz-adv-x="315" 
d="M58 854h86l100 -109h-58z" />
    <glyph glyph-name="hungarumlaut.case" horiz-adv-x="464" 
d="M161 854h81l-118 -109h-53zM325 854h81l-118 -109h-53z" />
    <glyph glyph-name="macron.case" horiz-adv-x="427" 
d="M358 774h-289v47h289v-47z" />
    <glyph glyph-name="ogonek.case" horiz-adv-x="232" 
d="M132 0h55q-26 -19 -40.5 -31t-28 -30.5t-13.5 -35.5q0 -41 40 -41q18 0 42 12v-50q-20 -13 -47 -13q-41 0 -65.5 23.5t-24.5 62.5q0 63 82 103z" />
    <glyph glyph-name="ring.case" horiz-adv-x="255" 
d="M53 799q0 31 21.5 53t52.5 22t53 -22t22 -53t-22 -52.5t-53 -21.5t-52.5 21.5t-21.5 52.5zM98 799q0 -12 8.5 -20.5t20.5 -8.5t21 8.5t9 20.5t-9 21t-21 9t-20.5 -9t-8.5 -21z" />
    <glyph glyph-name="tilde.case" horiz-adv-x="441" 
d="M168 845q24 0 45 -12l33 -17q20 -10 29 -10q27 0 44 37h56q-27 -88 -102 -88q-24 0 -45 12l-33 17q-20 10 -29 10q-27 0 -44 -37h-56q27 88 102 88z" />
    <glyph glyph-name="at.case.ss01" horiz-adv-x="872" 
d="M628 608v-420q0 -25 16 -44t45 -19t44.5 19t15.5 44v295q0 47 -18 94t-54 89t-98.5 68t-142.5 26t-142.5 -26t-98.5 -68t-54 -89t-18 -94v-266q0 -47 18 -94t54 -89t98.5 -68t142.5 -26q118 0 201 59l25 -36q-92 -65 -226 -65q-91 0 -162.5 30t-112 78.5t-61 102.5
t-20.5 108v266q0 54 20.5 108t61 102.5t112 78.5t162.5 30t162.5 -30t112 -78.5t61 -102.5t20.5 -108v-287q0 -57 -28 -85.5t-77 -28.5q-45 0 -74 21.5t-38 51.5q-23 -35 -62 -54t-83 -19q-80 0 -139 49.5t-59 152.5v136q0 103 59 152.5t139 49.5q44 0 83 -19t62 -54v59h53z
M575 284v136q0 69 -40.5 110t-104.5 41t-104.5 -41t-40.5 -110v-136q0 -69 40.5 -110t104.5 -41t104.5 41t40.5 110z" />
    <glyph glyph-name="a.ss01" horiz-adv-x="542" 
d="M462 516v-516h-53v63q-23 -35 -62 -54t-83 -19q-80 0 -139 49.5t-59 152.5v136q0 103 59 152.5t139 49.5q44 0 83 -19t62 -54v59h53zM409 192v136q0 69 -40.5 110t-104.5 41t-104.5 -41t-40.5 -110v-136q0 -69 40.5 -110t104.5 -41t104.5 41t40.5 110z" />
    <glyph glyph-name="aacute.ss01" horiz-adv-x="542" 
d="M462 516v-516h-53v63q-23 -35 -62 -54t-83 -19q-80 0 -139 49.5t-59 152.5v136q0 103 59 152.5t139 49.5q44 0 83 -19t62 -54v59h53zM409 192v136q0 69 -40.5 110t-104.5 41t-104.5 -41t-40.5 -110v-136q0 -69 40.5 -110t104.5 -41t104.5 41t40.5 110zM293 700h84
l-118 -129h-51z" />
    <glyph glyph-name="abreve.ss01" horiz-adv-x="542" 
d="M462 516v-516h-53v63q-23 -35 -62 -54t-83 -19q-80 0 -139 49.5t-59 152.5v136q0 103 59 152.5t139 49.5q44 0 83 -19t62 -54v59h53zM409 192v136q0 69 -40.5 110t-104.5 41t-104.5 -41t-40.5 -110v-136q0 -69 40.5 -110t104.5 -41t104.5 41t40.5 110zM262 620h24
q33 0 56.5 23.5t23.5 56.5h49q0 -53 -38 -91t-91 -38h-24q-53 0 -91 38t-38 91h49q0 -33 23.5 -56.5t56.5 -23.5z" />
    <glyph glyph-name="acircumflex.ss01" horiz-adv-x="542" 
d="M462 516v-516h-53v63q-23 -35 -62 -54t-83 -19q-80 0 -139 49.5t-59 152.5v136q0 103 59 152.5t139 49.5q44 0 83 -19t62 -54v59h53zM409 192v136q0 69 -40.5 110t-104.5 41t-104.5 -41t-40.5 -110v-136q0 -69 40.5 -110t104.5 -41t104.5 41t40.5 110zM351 571l-87 83
l-87 -83h-64l125 129h52l125 -129h-64z" />
    <glyph glyph-name="adieresis.ss01" horiz-adv-x="542" 
d="M462 516v-516h-53v63q-23 -35 -62 -54t-83 -19q-80 0 -139 49.5t-59 152.5v136q0 103 59 152.5t139 49.5q44 0 83 -19t62 -54v59h53zM409 192v136q0 69 -40.5 110t-104.5 41t-104.5 -41t-40.5 -110v-136q0 -69 40.5 -110t104.5 -41t104.5 41t40.5 110zM184 679v-87h-53
v87h53zM397 679v-87h-53v87h53z" />
    <glyph glyph-name="agrave.ss01" horiz-adv-x="542" 
d="M462 516v-516h-53v63q-23 -35 -62 -54t-83 -19q-80 0 -139 49.5t-59 152.5v136q0 103 59 152.5t139 49.5q44 0 83 -19t62 -54v59h53zM409 192v136q0 69 -40.5 110t-104.5 41t-104.5 -41t-40.5 -110v-136q0 -69 40.5 -110t104.5 -41t104.5 41t40.5 110zM151 700h84
l85 -129h-51z" />
    <glyph glyph-name="amacron.ss01" horiz-adv-x="542" 
d="M462 516v-516h-53v63q-23 -35 -62 -54t-83 -19q-80 0 -139 49.5t-59 152.5v136q0 103 59 152.5t139 49.5q44 0 83 -19t62 -54v59h53zM409 192v136q0 69 -40.5 110t-104.5 41t-104.5 -41t-40.5 -110v-136q0 -69 40.5 -110t104.5 -41t104.5 41t40.5 110zM419 613h-289v45
h289v-45z" />
    <glyph glyph-name="aogonek.ss01" horiz-adv-x="542" 
d="M409 0v63q-23 -35 -62 -54t-83 -19q-80 0 -139 49.5t-59 152.5v136q0 103 59 152.5t139 49.5q44 0 83 -19t62 -54v59h53v-516q-26 -19 -40.5 -31t-28 -30.5t-13.5 -35.5q0 -43 40 -43q18 0 42 12v-48q-20 -13 -47 -13q-41 0 -64.5 23.5t-23.5 62.5q0 63 82 103zM409 192
v136q0 69 -40.5 110t-104.5 41t-104.5 -41t-40.5 -110v-136q0 -69 40.5 -110t104.5 -41t104.5 41t40.5 110z" />
    <glyph glyph-name="aring.ss01" horiz-adv-x="542" 
d="M462 516v-516h-53v63q-23 -35 -62 -54t-83 -19q-80 0 -139 49.5t-59 152.5v136q0 103 59 152.5t139 49.5q44 0 83 -19t62 -54v59h53zM409 192v136q0 69 -40.5 110t-104.5 41t-104.5 -41t-40.5 -110v-136q0 -69 40.5 -110t104.5 -41t104.5 41t40.5 110zM190 635
q0 31 21.5 53t52.5 22t53 -22t22 -53t-22 -52.5t-53 -21.5t-52.5 21.5t-21.5 52.5zM233 635q0 -13 9 -22t22 -9t22.5 9t9.5 22t-9.5 22.5t-22.5 9.5t-22 -9.5t-9 -22.5z" />
    <glyph glyph-name="atilde.ss01" horiz-adv-x="542" 
d="M462 516v-516h-53v63q-23 -35 -62 -54t-83 -19q-80 0 -139 49.5t-59 152.5v136q0 103 59 152.5t139 49.5q44 0 83 -19t62 -54v59h53zM409 192v136q0 69 -40.5 110t-104.5 41t-104.5 -41t-40.5 -110v-136q0 -69 40.5 -110t104.5 -41t104.5 41t40.5 110zM370 679h49
q-27 -88 -102 -88q-24 0 -45 12l-33 19q-18 10 -33 10q-29 0 -47 -39h-49q27 88 102 88q24 0 45 -12l33 -19q17 -10 33 -10q29 0 47 39z" />
    <glyph glyph-name="at.ss01" horiz-adv-x="862" 
d="M623 516v-420q0 -25 16 -44t45 -19t44.5 19t15.5 44v295q0 47 -18 94t-54 89t-98.5 68t-142.5 26t-142.5 -26t-98.5 -68t-54 -89t-18 -94v-266q0 -47 18 -94t54 -89t98.5 -68t142.5 -26q118 0 201 59l25 -36q-92 -65 -226 -65q-91 0 -162.5 30t-112 78.5t-61 102.5
t-20.5 108v266q0 54 20.5 108t61 102.5t112 78.5t162.5 30t162.5 -30t112 -78.5t61 -102.5t20.5 -108v-287q0 -57 -28 -85.5t-77 -28.5q-45 0 -74 21.5t-38 51.5q-23 -35 -62 -54t-83 -19q-80 0 -139 49.5t-59 152.5v136q0 103 59 152.5t139 49.5q44 0 83 -19t62 -54v59h53z
M570 192v136q0 69 -40.5 110t-104.5 41t-104.5 -41t-40.5 -110v-136q0 -69 40.5 -110t104.5 -41t104.5 41t40.5 110z" />
    <glyph glyph-name="l.ss02" horiz-adv-x="213" 
d="M133 700v-700h-53v700h53z" />
    <glyph glyph-name="lacute.ss02" horiz-adv-x="213" 
d="M133 700v-700h-53v700h53zM135 874h84l-118 -129h-51z" />
    <glyph glyph-name="lcaron.ss02" horiz-adv-x="213" 
d="M265 700l-61 -158h-41l28 158h74zM133 700v-700h-53v700h53z" />
    <glyph glyph-name="lcommaaccent.ss02" horiz-adv-x="213" 
d="M133 700v-700h-53v700h53zM69 -124v74h74v-74l-21 -74h-49l21 74h-25z" />
    <glyph glyph-name="ldot.ss02" horiz-adv-x="266" 
d="M133 700v-700h-53v700h53zM266 393v-87h-53v87h53z" />
    <glyph glyph-name="lslash.ss02" horiz-adv-x="229" 
d="M141 700v-292l64 36v-49l-64 -36v-359h-53v330l-64 -35v49l64 35v321h53z" />
    <glyph glyph-name="fl.ss02" horiz-adv-x="518" 
d="M33 465v51h73v81q0 53 23 78t84 25h73v-51h-73q-32 0 -43 -11.5t-11 -40.5v-81h127v-51h-127v-465h-53v465h-73zM438 700v-700h-53v700h53z" />
    <glyph glyph-name="uniFB04.ss02" horiz-adv-x="823" 
d="M33 465v51h73v81q0 53 23 78t84 25h73v-51h-73q-32 0 -43 -11.5t-11 -40.5v-81h127v-51h-127v-465h-53v465h-73zM338 465v51h73v81q0 53 23 78t84 25h73v-51h-73q-32 0 -43 -11.5t-11 -40.5v-81h127v-51h-127v-465h-53v465h-73zM743 700v-700h-53v700h53z" />
    </font>
</defs>
</svg>
