<svg viewBox="0 0 640 480" xmlns="http://www.w3.org/2000/svg" xmlns:xlink="http://www.w3.org/1999/xlink"><defs><clipPath id="a"><path d="M0 0h600v300H0z"/></clipPath><clipPath id="b"><path d="M0 0l300 150H0zm300 0h300L300 150zm0 150h300v150zm0 0v150H0z"/></clipPath><g id="c"><g id="d"><path d="M0 0v.5L1 0z" transform="translate(0 -.3)"/><path d="M0 0v-.5L1 0z" transform="rotate(-36 .5 -.2)"/></g><use transform="scale(-1 1)" xlink:href="#d"/><use transform="rotate(72)" xlink:href="#d"/><use transform="rotate(-72)" xlink:href="#d"/><use transform="scale(-1 1) rotate(72)" xlink:href="#d"/></g></defs><path d="M0 0h640v480H0z" fill="#00247d" fill-rule="evenodd"/><g transform="translate(-93 36.1) scale(.66825)"><use fill="#fff" height="100%" transform="matrix(45.4 0 0 45.4 900 120)" width="100%" xlink:href="#c"/><use fill="#cc142b" height="100%" transform="matrix(30 0 0 30 900 120)" width="100%" xlink:href="#c"/></g><g transform="rotate(82 534.2 125) scale(.66825)"><use fill="#fff" height="100%" transform="rotate(-82 519 -457.7) scale(40.4)" width="100%" xlink:href="#c"/><use fill="#cc142b" height="100%" transform="rotate(-82 519 -457.7) scale(25)" width="100%" xlink:href="#c"/></g><g transform="rotate(82 534.2 125) scale(.66825)"><use fill="#fff" height="100%" transform="rotate(-82 668.6 -327.7) scale(45.4)" width="100%" xlink:href="#c"/><use fill="#cc142b" height="100%" transform="rotate(-82 668.6 -327.7) scale(30)" width="100%" xlink:href="#c"/></g><g transform="translate(-93 36.1) scale(.66825)"><use fill="#fff" height="100%" transform="matrix(50.4 0 0 50.4 900 480)" width="100%" xlink:href="#c"/><use fill="#cc142b" height="100%" transform="matrix(35 0 0 35 900 480)" width="100%" xlink:href="#c"/></g><path clip-path="url(#a)" d="M0 0l600 300M0 300L600 0" stroke="#fff" stroke-width="60" transform="scale(.60681 .73139)"/><path clip-path="url(#b)" d="M0 0l600 300M0 300L600 0" stroke="#cc142b" stroke-width="40" transform="scale(.60681 .73139)"/><path clip-path="url(#a)" d="M151.7 0v79.4H0V140h151.7v79.4h60.7v-79.3H364V79.4H212.4V0z" fill="#fff"/><path d="M163.8 0v91.5H0v36.4h163.8v91.5h36.4V128h163.9V91.5H200.2V0z" fill="#cc142b"/></svg>