<?xml version="1.0" encoding="UTF-8"?>
<!DOCTYPE svg PUBLIC "-//W3C//DTD SVG 1.1//EN" "http://www.w3.org/Graphics/SVG/1.1/DTD/svg11.dtd">
<!-- Creator: CorelDRAW 2020 (64-Bit) -->
<svg xmlns="http://www.w3.org/2000/svg" xml:space="preserve" width="2871px" height="590px" version="1.1" style="shape-rendering:geometricPrecision; text-rendering:geometricPrecision; image-rendering:optimizeQuality; fill-rule:evenodd; clip-rule:evenodd"
viewBox="0 0 1688.88 347.24"
 xmlns:xlink="http://www.w3.org/1999/xlink"
 xmlns:xodm="http://www.corel.com/coreldraw/odm/2003">
 <defs>
  <style type="text/css">
   <![CDATA[
    .fil0 {fill:#314199;fill-rule:nonzero}
    .fil2 {fill:#F8EC26;fill-rule:nonzero}
    .fil1 {fill:white;fill-rule:nonzero}
   ]]>
  </style>
 </defs>
 <g id="Warstwa_x0020_1">
  <metadata id="CorelCorpID_0Corel-Layer"/>
  <path class="fil0" d="M1688.88 347.24l-1515.26 0c-95.89,0 -173.62,-77.73 -173.62,-173.62 0,-95.89 77.73,-173.62 173.62,-173.62l1515.26 0 0 347.24z"/>
  <path class="fil1" d="M472.83 206.87l25.94 0c20.9,0 35.34,-14.53 35.34,-33.25l0 -0.19c0,-18.71 -14.44,-33.06 -35.34,-33.06l-25.94 0 0 66.5zm14.63 -13.2l0 -40.09 11.31 0c11.97,0 20.04,8.26 20.04,20.04l0 0.19c0,11.78 -8.07,19.86 -20.04,19.86l-11.31 0z"/>
  <polygon id="1" class="fil1" points="549.69,206.87 600.33,206.87 600.33,193.86 564.22,193.86 564.22,179.89 595.58,179.89 595.58,166.88 564.22,166.88 564.22,153.39 599.85,153.39 599.85,140.37 549.69,140.37 "/>
  <path id="2" class="fil1" d="M639.56 207.82c14.35,0 24.42,-7.41 24.42,-20.61l0 -0.19c0,-11.59 -7.6,-16.44 -21.09,-19.95 -11.5,-2.95 -14.35,-4.37 -14.35,-8.74l0 -0.19c0,-3.23 2.95,-5.8 8.55,-5.8 5.61,0 11.4,2.47 17.3,6.56l7.6 -11.02c-6.75,-5.42 -15.02,-8.46 -24.71,-8.46 -13.58,0 -23.27,7.98 -23.27,20.05l0 0.19c0,13.2 8.64,16.91 22.04,20.33 11.11,2.85 13.39,4.75 13.39,8.45l0 0.19c0,3.9 -3.61,6.27 -9.59,6.27 -7.6,0 -13.87,-3.13 -19.86,-8.07l-8.64 10.35c7.98,7.13 18.14,10.64 28.21,10.64z"/>
  <polygon id="3" class="fil1" points="679.94,206.87 694.57,206.87 694.57,140.37 679.94,140.37 "/>
  <path id="4" class="fil1" d="M745.78 208.01c12.16,0 21.57,-4.75 28.41,-10.54l0 -28.88 -28.89 0 0 12.63 14.73 0 0 9.5c-3.71,2.66 -8.46,3.99 -13.78,3.99 -11.78,0 -20.14,-8.93 -20.14,-21.09l0 -0.19c0,-11.3 8.46,-20.71 19.1,-20.71 7.69,0 12.25,2.47 17.39,6.75l9.21 -11.12c-6.93,-5.89 -14.16,-9.12 -26.13,-9.12 -20.14,0 -34.86,15.49 -34.86,34.39l0 0.19c0,19.67 14.25,34.2 34.96,34.2z"/>
  <polygon id="5" class="fil1" points="790.81,206.87 805.25,206.87 805.25,164.6 837.46,206.87 849.9,206.87 849.9,140.37 835.46,140.37 835.46,181.32 804.3,140.37 790.81,140.37 "/>
  <polygon id="6" class="fil1" points="868.43,206.87 919.07,206.87 919.07,193.86 882.97,193.86 882.97,179.89 914.32,179.89 914.32,166.88 882.97,166.88 882.97,153.39 918.59,153.39 918.59,140.37 868.43,140.37 "/>
  <path id="7" class="fil1" d="M934.65 206.87l25.94 0c20.9,0 35.34,-14.53 35.34,-33.25l0 -0.19c0,-18.71 -14.44,-33.06 -35.34,-33.06l-25.94 0 0 66.5zm14.63 -13.2l0 -40.09 11.31 0c11.97,0 20.04,8.26 20.04,20.04l0 0.19c0,11.78 -8.07,19.86 -20.04,19.86l-11.31 0z"/>
  <polygon id="8" class="fil1" points="1040.67,206.87 1055.3,206.87 1055.3,140.37 1040.67,140.37 "/>
  <polygon id="9" class="fil1" points="1074.49,206.87 1088.94,206.87 1088.94,164.6 1121.14,206.87 1133.59,206.87 1133.59,140.37 1119.15,140.37 1119.15,181.32 1087.99,140.37 1074.49,140.37 "/>
  <polygon id="10" class="fil1" points="1180.62,206.87 1231.25,206.87 1231.25,193.86 1195.15,193.86 1195.15,179.89 1226.5,179.89 1226.5,166.88 1195.15,166.88 1195.15,153.39 1230.78,153.39 1230.78,140.37 1180.62,140.37 "/>
  <path id="11" class="fil1" d="M1274.58 207.92c17.86,0 29.16,-9.88 29.16,-30.02l0 -37.53 -14.63 0 0 38.1c0,10.54 -5.41,15.96 -14.34,15.96 -8.93,0 -14.35,-5.61 -14.35,-16.44l0 -37.62 -14.63 0 0 38c0,19.57 10.93,29.55 28.79,29.55z"/>
  <path id="12" class="fil1" d="M1321.22 206.87l14.64 0 0 -21.28 11.49 0 14.25 21.28 17.1 0 -16.24 -23.75c8.45,-3.13 14.25,-9.88 14.25,-20.61l0 -0.19c0,-6.27 -2,-11.5 -5.7,-15.21 -4.37,-4.37 -10.93,-6.74 -19.38,-6.74l-30.41 0 0 66.5zm14.64 -34.2l0 -19.09 14.53 0c7.13,0 11.5,3.23 11.5,9.5l0 0.19c0,5.6 -4.09,9.4 -11.21,9.4l-14.82 0z"/>
  <path id="13" class="fil1" d="M1424.78 208.01c20.52,0 35.44,-15.48 35.44,-34.39l0 -0.19c0,-18.9 -14.73,-34.2 -35.25,-34.2 -20.52,0 -35.44,15.49 -35.44,34.39l0 0.19c0,18.91 14.73,34.2 35.25,34.2zm0.19 -13.49c-11.78,0 -20.14,-9.5 -20.14,-20.9l0 -0.19c0,-11.4 8.17,-20.71 19.95,-20.71 11.78,0 20.14,9.5 20.14,20.9l0 0.19c0,11.4 -8.17,20.71 -19.95,20.71z"/>
  <path id="14" class="fil1" d="M1475.8 206.87l14.63 0 0 -19.95 11.11 0c14.92,0 26.89,-7.98 26.89,-23.37l0 -0.19c0,-13.58 -9.6,-22.99 -25.46,-22.99l-27.17 0 0 66.5zm14.63 -32.96l0 -20.33 11.3 0c7.32,0 11.88,3.51 11.88,10.07l0 0.19c0,5.7 -4.28,10.07 -11.59,10.07l-11.59 0z"/>
  <polygon id="15" class="fil1" points="1541.82,206.87 1592.46,206.87 1592.46,193.86 1556.36,193.86 1556.36,179.89 1587.71,179.89 1587.71,166.88 1556.36,166.88 1556.36,153.39 1591.99,153.39 1591.99,140.37 1541.82,140.37 "/>
  <polygon class="fil2" points="176.66,273.2 171.89,287.3 157.38,287.28 167.68,295.08 164.85,310.22 176.66,301.63 188.5,309.99 185.63,295.08 195.83,287.23 181.33,287.23 "/>
  <polygon class="fil2" points="176.66,28.23 171.89,42.34 157.38,42.32 167.68,50.12 164.85,65.25 176.66,56.67 188.5,65.03 185.63,50.12 195.83,42.27 181.33,42.27 "/>
  <polygon class="fil2" points="117.65,43.99 112.89,58.09 98.38,58.07 108.68,65.87 105.85,81.01 117.65,72.42 129.5,80.78 126.63,65.87 136.82,58.03 122.32,58.03 "/>
  <polygon class="fil2" points="238.51,43.99 233.75,58.09 219.23,58.07 229.53,65.87 226.7,81.01 238.51,72.42 250.35,80.78 247.49,65.87 257.68,58.03 243.18,58.03 "/>
  <polygon class="fil2" points="117.65,256.65 112.89,270.75 98.38,270.74 108.68,278.53 105.85,293.67 117.65,285.08 129.5,293.44 126.63,278.53 136.82,270.69 122.32,270.69 "/>
  <polygon class="fil2" points="238.51,256.65 233.75,270.75 219.23,270.74 229.53,278.53 226.7,293.67 238.51,285.08 250.35,293.44 247.49,278.53 257.68,270.69 243.18,270.69 "/>
  <polygon class="fil2" points="283.7,90.22 278.94,104.32 264.42,104.3 274.72,112.1 271.89,127.24 283.7,118.65 295.55,127.01 292.68,112.1 302.87,104.25 288.37,104.25 "/>
  <polygon class="fil2" points="70.98,90.22 66.22,104.32 51.7,104.3 62.01,112.1 59.17,127.24 70.98,118.65 82.83,127.01 79.96,112.1 90.15,104.25 75.65,104.25 "/>
  <polygon class="fil2" points="283.7,212.48 278.94,226.58 264.42,226.57 274.72,234.37 271.89,249.5 283.7,240.91 295.55,249.27 292.68,234.37 302.87,226.52 288.37,226.52 "/>
  <polygon class="fil2" points="70.98,212.48 66.22,226.58 51.7,226.57 62.01,234.37 59.17,249.5 70.98,240.91 82.83,249.27 79.96,234.37 90.15,226.52 75.65,226.52 "/>
  <polygon class="fil2" points="297.74,150.89 292.98,164.99 278.46,164.98 288.76,172.77 285.93,187.91 297.74,179.32 309.58,187.68 306.72,172.77 316.91,164.93 302.41,164.93 "/>
  <polygon class="fil2" points="55.42,150.89 50.65,164.99 36.14,164.98 46.44,172.77 43.61,187.91 55.42,179.32 67.26,187.68 64.4,172.77 74.59,164.93 60.09,164.93 "/>
  <polygon class="fil1" points="119.77,205.07 165.7,205.07 165.7,193.26 132.95,193.26 132.95,180.59 161.39,180.59 161.39,168.79 132.95,168.79 132.95,156.55 165.27,156.55 165.27,144.75 119.77,144.75 "/>
  <path id="1" class="fil1" d="M202.66 206.01c16.2,0 26.46,-8.96 26.46,-27.23l0 -34.03 -13.27 0 0 34.55c0,9.57 -4.91,14.48 -13.01,14.48 -8.1,0 -13.02,-5.09 -13.02,-14.91l0 -34.12 -13.27 0 0 34.47c0,17.75 9.91,26.79 26.11,26.79z"/>
  <polygon class="fil1" points="361.87,303.18 367.6,303.18 367.6,41.81 361.87,41.81 "/>
 </g>
</svg>
